<?xml version="1.0" encoding="UTF-8" standalone="no"?>
<!-- Created with Inkscape (http://www.inkscape.org/) -->

<svg
   version="1.1"
   id="svg2"
   xml:space="preserve"
   width="578.2561"
   height="866.0437"
   viewBox="0 0 578.2561 866.0437"
   xmlns="http://www.w3.org/2000/svg"
   xmlns:svg="http://www.w3.org/2000/svg"><defs
     id="defs6"><clipPath
       clipPathUnits="userSpaceOnUse"
       id="clipPath18"><path
         d="M 0,1080 H 1080 V 0 H 0 Z"
         id="path16" /></clipPath></defs><g
     id="g8"
     transform="matrix(1.3333333,0,0,-1.3333333,-428.12306,1386.8385)"><g
       id="g12"><g
         id="g14"
         clip-path="url(#clipPath18)"><g
           id="g20"
           transform="translate(385.2876,347.8492)" /><g
           id="g24"
           transform="translate(469.4927,215.8077)" /><g
           id="g28"
           transform="translate(579.2632,303.3282)" /><g
           id="g32"
           transform="translate(770.3032,355.0298)" /><g
           id="g36"
           transform="translate(301.1191,164.5791)" /><g
           id="g40"
           transform="translate(315.9687,165.7359)" /><g
           id="g44"
           transform="translate(382.8096,124.5001)" /><g
           id="g48"
           transform="translate(429.8291,165.7359)" /><g
           id="g52"
           transform="translate(443.9907,163.4224)" /><g
           id="g56"
           transform="translate(482.8823,145.1338)" /><g
           id="g60"
           transform="translate(541.7817,166.7051)" /><g
           id="g64"
           transform="translate(567.7925,124.5001)" /><g
           id="g68"
           transform="translate(582.5493,126.4073)" /><g
           id="g72"
           transform="translate(644.0112,139.8501)" /><g
           id="g76"
           transform="translate(675.0249,126.4073)" /><g
           id="g80"
           transform="translate(737.27,126.4073)" /><g
           id="g84"
           transform="translate(783.6948,163.4224)" /><g
           id="g88"
           transform="translate(315.2969,102.8658)" /><g
           id="g92"
           transform="translate(349.9985,100.7398)" /><g
           id="g96"
           transform="translate(364.8486,101.8965)" /><g
           id="g100"
           transform="translate(425.1235,62.5679)" /><g
           id="g104"
           transform="translate(477.9268,60.6607)" /><g
           id="g108"
           transform="translate(478.646,101.8965)" /><g
           id="g112"
           transform="translate(554.146,76.0108)" /><g
           id="g116"
           transform="translate(598.1646,59.504)" /><g
           id="g120"
           transform="translate(657.314,76.0108)" /><g
           id="g124"
           transform="translate(688.2964,81.2945)" /><g
           id="g128"
           transform="translate(756.3862,102.8658)" /><g
           id="g132"
           transform="translate(788.9624,76.0108)" /><g
           id="g136"
           transform="translate(537.9429,1040.1289)"><path
             d="m 0,0 c -118.323,0 -214.824,-125.978 -214.824,-280.439 0,-100.086 40.519,-188.213 101.238,-237.856 l 31.698,-13.917 c -24.157,13.678 -45.936,33.032 -64.74,57.58 -19.306,25.202 -34.477,54.546 -45.094,87.218 -11.021,33.917 -16.609,69.909 -16.609,106.975 0,37.067 5.588,73.058 16.609,106.976 10.617,32.672 25.788,62.017 45.094,87.218 19.207,25.074 41.51,44.746 66.29,58.468 25.505,14.123 52.534,21.284 80.338,21.284 27.803,0 54.833,-7.161 80.337,-21.284 24.779,-13.722 47.082,-33.394 66.29,-58.468 19.305,-25.201 34.477,-54.546 45.093,-87.218 11.021,-33.918 16.61,-69.909 16.61,-106.976 0,-37.066 -5.589,-73.057 -16.61,-106.975 -10.616,-32.672 -25.788,-62.016 -45.093,-87.218 -19.208,-25.074 -41.511,-44.745 -66.29,-58.467 -0.944,-0.523 -1.895,-1.017 -2.843,-1.52 l 34.056,14.682 c 61.846,49.326 103.272,138.298 103.272,239.498 C 214.822,-125.978 118.32,0 0,0"
             style="fill:#ffffff;fill-opacity:1;fill-rule:nonzero;stroke:none"
             id="path138" /></g><g
           id="g140"
           transform="translate(378.3149,759.688)"><path
             d="m 0,0 c 0,-5.364 0.155,-10.681 0.457,-15.944 l 6.226,5.847 C 6.559,-6.751 6.493,-3.386 6.493,0 c 0,15.082 1.257,29.784 3.62,43.943 l -3.836,5.605 5.179,1.805 c 17.17,87.124 76.932,151.725 147.676,151.725 70.856,0 130.697,-64.804 147.76,-152.138 l 6.998,-2.494 -5.241,-7.54 c 2.046,-13.22 3.122,-26.902 3.122,-40.906 0,-3.285 -0.064,-6.55 -0.181,-9.798 l 6.227,-5.933 c 0.294,5.194 0.447,10.439 0.447,15.731 0,115.557 -71.387,209.57 -159.132,209.57 C 71.386,209.57 0,115.557 0,0"
             style="fill:#ffffff;fill-opacity:1;fill-rule:nonzero;stroke:none"
             id="path142" /></g><g
           id="g144"
           transform="translate(489.2354,493.3492)"><path
             d="m 0,0 29.592,-12.992 c 6.299,-0.731 12.675,-1.105 19.116,-1.105 6.457,0 12.849,0.375 19.164,1.11 L 99.604,0.694 C 83.061,-4.821 66.035,-7.604 48.708,-7.604 32.143,-7.604 15.856,-5.042 0,0"
             style="fill:#ffffff;fill-opacity:1;fill-rule:nonzero;stroke:none"
             id="path146" /></g><g
           id="g148"
           transform="translate(677.3989,678.7711)"><path
             d="m 0,0 0.586,-1.423 -1.101,-0.139 c -23.843,-70.945 -77.418,-120.593 -139.437,-120.593 -78.357,0 -143.236,79.249 -151.695,180.578 l -6.824,4.201 c 7.062,-107.02 75.454,-191.272 158.519,-191.272 82.525,0 150.572,83.16 158.377,189.187 L 11.566,56.385 C 9.76,36.582 5.796,17.646 0,0"
             style="fill:#ffffff;fill-opacity:1;fill-rule:nonzero;stroke:none"
             id="path150" /></g><g
           id="g152"
           transform="translate(537.0327,439.0074)"><path
             d="M 0,0 C -11.551,0 -22.775,1.512 -33.679,4.505 L -35.325,0.756 C -23.866,-2.44 -12.054,-4.058 0,-4.058 c 1.253,0 2.528,0.017 3.789,0.052 11.065,0.302 22.049,2.016 32.75,5.104 l -1.62,3.758 C 24.749,1.959 14.339,0.342 3.678,0.05 2.447,0.017 1.223,0 0,0"
             style="fill:#ffffff;fill-opacity:1;fill-rule:nonzero;stroke:none"
             id="path154" /></g><g
           id="g156"
           transform="translate(616.7109,410.4781)"><path
             d="m 0,0 c -4.045,7.916 -8.078,15.838 -12.113,23.758 l -0.01,-0.004 z"
             style="fill:#ffffff;fill-opacity:1;fill-rule:nonzero;stroke:none"
             id="path158" /></g><g
           id="g160"
           transform="translate(469.8765,435.0552)"><path
             d="m 0,0 c -1.057,-2.077 -2.114,-4.153 -3.172,-6.23 l 3.178,6.227 z"
             style="fill:#ffffff;fill-opacity:1;fill-rule:nonzero;stroke:none"
             id="path162" /></g><g
           id="g164"
           transform="translate(611.0889,412.5621)"><path
             d="m 0,0 c 0.163,-0.318 0.321,-0.628 0.484,-0.948 -0.189,-0.093 -0.38,-0.185 -0.57,-0.276 -19.857,-9.417 -41.007,-14.918 -62.863,-16.348 -0.236,-0.016 -0.474,-0.018 -0.712,-0.022 -0.788,-0.012 -1.81,-0.029 -2.926,-0.314 H -81.31 c -0.435,0.14 -0.898,0.215 -1.377,0.215 h -0.001 c -0.145,0 -0.275,-0.007 -0.385,-0.016 -4.117,0.231 -7.846,0.552 -11.393,0.981 -11.884,1.439 -23.552,4.077 -34.679,7.841 -6.549,2.216 -13.078,4.873 -19.458,7.919 l 0.511,1.001 -5.61,-2.027 c -0.424,-0.648 -0.203,-0.893 0.411,-1.2 7.4,-3.697 15.01,-6.886 22.846,-9.537 11.552,-3.908 23.389,-6.561 35.492,-8.025 3.959,-0.479 7.935,-0.801 11.918,-1.019 0.01,-0.001 0.02,-0.001 0.03,-0.001 0.101,0 0.212,0.025 0.317,0.025 0.133,0 0.255,-0.04 0.337,-0.215 h 16.362 c 1.071,0.398 2.203,0.272 3.305,0.344 22.515,1.474 43.955,7.065 64.337,16.732 1.228,0.582 2.428,1.229 3.669,1.783 0.586,0.261 0.557,0.52 0.3,1.023 z"
             style="fill:#ffffff;fill-opacity:1;fill-rule:nonzero;stroke:none"
             id="path166" /></g><g
           id="g168"
           transform="translate(754.7144,500.0875)"><path
             d="m 0,0 0.018,-0.047 c 0.016,0.023 0.035,0.041 0.052,0.062 z"
             style="fill:#ffffff;fill-opacity:1;fill-rule:nonzero;stroke:none"
             id="path170" /></g><g
           id="g172"
           transform="translate(700.394,471.1158)"><path
             d="M 0,0 C 6.618,2.848 24.358,10.468 39.268,16.763 27.702,1.043 18.489,-16.221 11.353,-35.529 5.374,-26.814 1.573,-18.666 0,0 M 12.596,-44.229 C 21.081,-18.8 33.707,5.048 52.313,26.613 34.39,19.247 -4.267,2.582 -4.267,2.582 -2.453,-23.9 3.46,-31.71 12.596,-44.229"
             style="fill:#ffffff;fill-opacity:1;fill-rule:nonzero;stroke:none"
             id="path174" /></g><g
           id="g176"
           transform="translate(726.3228,548.8961)"><path
             d="m 0,0 21,-48.708 -164.635,-70.978 -20.999,48.708 z m -137.483,-54.853 -31.733,-13.681 -0.751,-0.324 15.596,-36.175 1.62,-3.758 6.997,-16.228 24.019,10.355 0.01,0.004 L 26.333,-50.828 2.12,5.333 -76.83,-28.704 -110.886,-43.386 Z"
             style="fill:#ffffff;fill-opacity:1;fill-rule:nonzero;stroke:none"
             id="path178" /></g><g
           id="g180"
           transform="translate(364.1382,437.2696)"><path
             d="M 0,0 C -7.07,19.142 -16.181,36.277 -27.604,51.89 -13.341,45.633 4.601,37.757 11.25,34.838 9.685,16.231 5.925,8.5 0,0 m -1.257,-8.664 c 9.146,12.525 14.958,19.561 16.771,46.062 0,0 -42.201,18.528 -56.486,24.781 18.606,-21.565 31.233,-45.414 39.715,-70.843"
             style="fill:#ffffff;fill-opacity:1;fill-rule:nonzero;stroke:none"
             id="path182" /></g><g
           id="g184"
           transform="translate(321.0923,501.8184)"><path
             d="M 0,0 0.052,-0.059 0.07,-0.013 0,0.001 Z"
             style="fill:#ffffff;fill-opacity:1;fill-rule:nonzero;stroke:none"
             id="path186" /></g><g
           id="g188"
           transform="translate(328.5889,501.5186)"><path
             d="m 0,0 21.323,48.568 164.158,-72.073 -21.324,-48.567 z m 141.294,-66.466 24.948,-10.953 6.877,15.664 1.646,3.749 16.063,36.586 -0.59,0.258 -29.592,12.993 -33.18,14.567 -31.698,13.917 -76.529,33.6 -24.586,-55.999 146.635,-64.379 z"
             style="fill:#ffffff;fill-opacity:1;fill-rule:nonzero;stroke:none"
             id="path190" /></g><g
           id="g192"
           transform="translate(352.0454,518.2056)"><path
             d="m 0,0 7.659,-3.443 1.765,3.924 -7.659,3.444 1.744,3.88 7.659,-3.443 1.797,3.997 -11.715,5.266 -9.646,-21.459 11.714,-5.267 1.804,4.013 -7.66,3.442 z"
             style="fill:#ffffff;fill-opacity:1;fill-rule:nonzero;stroke:none"
             id="path194" /></g><g
           id="g196"
           transform="translate(381.0508,519.3541)"><path
             d="m 0,0 -7.617,-4.857 -1.414,8.917 -4.594,2.065 2.131,-13.455 -12.231,-7.801 4.624,-2.079 8.33,5.325 1.547,-9.764 4.596,-2.066 -2.268,14.308 11.485,7.344 z"
             style="fill:#ffffff;fill-opacity:1;fill-rule:nonzero;stroke:none"
             id="path198" /></g><g
           id="g200"
           transform="translate(411.8833,505.4942)"><path
             d="m 0,0 -4.1,1.843 -6.008,-13.367 c -0.647,-1.438 -1.184,-2.368 -1.613,-2.789 -0.429,-0.42 -0.978,-0.679 -1.647,-0.775 -0.669,-0.097 -1.363,0.017 -2.082,0.34 -0.681,0.307 -1.195,0.716 -1.544,1.228 -0.348,0.513 -0.515,1.065 -0.502,1.654 0.014,0.59 0.29,1.483 0.828,2.678 l 6.237,13.877 -4.099,1.843 -5.752,-12.794 c -1.15,-2.558 -1.718,-4.486 -1.705,-5.783 0.013,-1.299 0.435,-2.564 1.266,-3.797 0.831,-1.232 2.025,-2.199 3.581,-2.898 1.187,-0.534 2.312,-0.814 3.374,-0.842 1.063,-0.028 2.112,0.193 3.148,0.663 1.036,0.469 1.863,1.068 2.482,1.795 0.619,0.727 1.414,2.17 2.385,4.33 z"
             style="fill:#ffffff;fill-opacity:1;fill-rule:nonzero;stroke:none"
             id="path202" /></g><g
           id="g204"
           transform="translate(432.6802,496.1451)"><path
             d="m 0,0 -11.748,-12.711 1.754,17.204 -3.98,1.789 -13.363,-19.789 3.983,-1.791 8.448,12.494 -1.573,-15.584 3.599,-1.618 10.652,11.503 -3.792,-14.587 3.951,-1.776 6.047,23.078 z"
             style="fill:#ffffff;fill-opacity:1;fill-rule:nonzero;stroke:none"
             id="path206" /></g><g
           id="g208"
           transform="translate(448.6978,481.6319)"><path
             d="m 0,0 c -0.323,-0.72 -0.821,-1.18 -1.492,-1.381 -0.671,-0.201 -1.505,-0.077 -2.501,0.37 l -0.893,0.402 2.033,4.522 1.055,-0.474 C -0.861,3.018 -0.252,2.507 0.029,1.907 0.312,1.307 0.302,0.671 0,0 m -2.531,-9.647 c -0.367,-0.817 -0.942,-1.307 -1.724,-1.47 -0.783,-0.163 -2.022,0.138 -3.719,0.9 l -1.024,0.461 2.473,5.499 0.848,-0.381 c 1.609,-0.723 2.639,-1.508 3.092,-2.354 0.452,-0.846 0.47,-1.732 0.054,-2.655 m 6.727,8.409 C 4.76,0.017 4.87,1.277 4.526,2.542 4.182,3.808 3.443,4.9 2.311,5.818 1.52,6.478 0.145,7.248 -1.813,8.128 l -3.374,1.517 -9.646,-21.46 6.017,-2.706 c 1.733,-0.778 3.201,-1.143 4.405,-1.094 1.204,0.049 2.341,0.429 3.41,1.141 1.069,0.712 1.874,1.671 2.417,2.877 0.563,1.255 0.751,2.477 0.561,3.667 -0.19,1.191 -0.798,2.385 -1.826,3.583 1.04,0.234 1.882,0.606 2.527,1.118 0.645,0.511 1.151,1.174 1.518,1.991"
             style="fill:#ffffff;fill-opacity:1;fill-rule:nonzero;stroke:none"
             id="path210" /></g><g
           id="g212"
           transform="translate(462.7134,472.5601)"><path
             d="M 0,0 -1.28,0.576 0.7,4.981 1.82,4.478 C 2.906,3.99 3.619,3.579 3.958,3.245 4.297,2.91 4.51,2.516 4.597,2.06 4.684,1.604 4.621,1.142 4.411,0.675 4.055,-0.116 3.557,-0.572 2.913,-0.693 2.27,-0.814 1.299,-0.583 0,0 m 5.737,-4.236 c 1.103,0.645 1.971,1.672 2.605,3.082 0.603,1.342 0.819,2.642 0.649,3.9 C 8.82,4.003 8.327,5.069 7.512,5.944 6.697,6.819 5.104,7.79 2.734,8.855 l -4.328,1.946 -9.647,-21.46 4.085,-1.837 4.086,9.089 0.373,-0.168 0.74,-11.258 4.466,-2.007 -0.795,11.826 c 1.579,-0.126 2.921,0.134 4.023,0.778"
             style="fill:#ffffff;fill-opacity:1;fill-rule:nonzero;stroke:none"
             id="path214" /></g><g
           id="g216"
           transform="translate(484.2593,466.1192)"><path
             d="m 0,0 -0.45,-8.654 -5.741,2.581 z M -0.727,-13.316 -1.035,-18.492 3.21,-20.4 4.604,4.77 0.46,6.632 l -17.921,-17.739 4.244,-1.909 3.734,3.636 z"
             style="fill:#ffffff;fill-opacity:1;fill-rule:nonzero;stroke:none"
             id="path218" /></g><g
           id="g220"
           transform="translate(597.3848,452.0137)"><path
             d="M 0,0 -8.762,21.835 -12.888,20.18 -4.127,-1.656 Z"
             style="fill:#ffffff;fill-opacity:1;fill-rule:nonzero;stroke:none"
             id="path222" /></g><g
           id="g224"
           transform="translate(606.644,481.0801)"><path
             d="m 0,0 5.765,-14.369 -15.108,10.62 -3.988,-1.599 8.762,-21.836 4.157,1.667 -5.748,14.326 15.079,-10.581 3.999,1.604 -8.761,21.836 z"
             style="fill:#ffffff;fill-opacity:1;fill-rule:nonzero;stroke:none"
             id="path226" /></g><g
           id="g228"
           transform="translate(630.75,486.7711)"><path
             d="M 0,0 C 1.121,0.45 2.523,0.139 4.207,-0.931 L 6.196,3.021 C 4.51,3.896 3.073,4.387 1.885,4.496 0.696,4.606 -0.442,4.441 -1.533,4.004 c -1.694,-0.68 -2.901,-1.793 -3.62,-3.34 -0.72,-1.547 -0.776,-3.077 -0.168,-4.591 0.421,-1.05 1.19,-1.962 2.306,-2.737 1.117,-0.776 3.254,-1.656 6.411,-2.641 1.659,-0.518 2.771,-0.951 3.335,-1.299 0.566,-0.347 0.948,-0.769 1.146,-1.264 0.219,-0.544 0.169,-1.121 -0.15,-1.731 -0.319,-0.611 -0.836,-1.06 -1.549,-1.346 -1.367,-0.549 -2.964,-0.069 -4.789,1.439 l -2.648,-3.509 c 1.477,-1.304 2.946,-2.104 4.406,-2.403 1.46,-0.299 2.967,-0.136 4.523,0.488 1.991,0.799 3.372,2.031 4.141,3.695 0.771,1.664 0.796,3.392 0.078,5.184 -0.37,0.92 -0.887,1.698 -1.55,2.334 -0.664,0.635 -1.588,1.21 -2.772,1.723 -0.476,0.211 -1.773,0.661 -3.891,1.351 -2.271,0.754 -3.662,1.282 -4.175,1.582 -0.378,0.228 -0.641,0.524 -0.788,0.89 -0.147,0.366 -0.105,0.765 0.124,1.196 C -0.933,-0.543 -0.545,-0.219 0,0"
             style="fill:#ffffff;fill-opacity:1;fill-rule:nonzero;stroke:none"
             id="path230" /></g><g
           id="g232"
           transform="translate(647.5293,490.9527)"><path
             d="m 0,0 c 0.812,1.958 2.229,3.342 4.25,4.153 2.001,0.803 3.989,0.765 5.964,-0.115 1.974,-0.879 3.379,-2.358 4.212,-4.436 0.839,-2.088 0.85,-4.123 0.034,-6.105 -0.814,-1.981 -2.208,-3.368 -4.179,-4.159 -1.743,-0.699 -3.51,-0.77 -5.298,-0.212 -2.297,0.709 -3.93,2.271 -4.899,4.687 C -0.786,-4.02 -0.814,-1.958 0,0 m 2.361,-14.563 c 3.078,-1.396 6.256,-1.437 9.534,-0.122 3.129,1.256 5.348,3.427 6.656,6.514 1.308,3.087 1.323,6.224 0.044,9.411 -1.29,3.216 -3.496,5.496 -6.617,6.841 C 8.858,9.426 5.753,9.478 2.664,8.238 0.623,7.419 -1.075,6.144 -2.432,4.411 -3.789,2.676 -4.621,0.731 -4.928,-1.425 c -0.307,-2.157 -0.042,-4.28 0.796,-6.368 1.251,-3.117 3.415,-5.374 6.493,-6.77"
             style="fill:#ffffff;fill-opacity:1;fill-rule:nonzero;stroke:none"
             id="path234" /></g><g
           id="g236"
           transform="translate(684.6104,487.0113)"><path
             d="m 0,0 -1.59,3.963 -6.056,-2.43 -7.172,17.873 -4.156,-1.668 8.761,-21.836 z"
             style="fill:#ffffff;fill-opacity:1;fill-rule:nonzero;stroke:none"
             id="path238" /></g><g
           id="g240"
           transform="translate(699.707,493.0689)"><path
             d="m 0,0 -1.638,4.082 -7.793,-3.127 -2.305,5.744 7.793,3.128 -1.602,3.992 -7.793,-3.127 -1.585,3.949 7.794,3.127 -1.632,4.068 -11.921,-4.783 8.762,-21.836 z"
             style="fill:#ffffff;fill-opacity:1;fill-rule:nonzero;stroke:none"
             id="path242" /></g><g
           id="g244"
           transform="translate(705.9717,495.5826)"><path
             d="M 0,0 -3.136,14.752 6.995,2.806 10.658,4.276 9.764,19.928 17.638,7.077 21.658,8.689 9.233,29.056 5.187,27.432 l 1.002,-17.28 -11.172,13.2 -4.05,-1.625 4.98,-23.353 z"
             style="fill:#ffffff;fill-opacity:1;fill-rule:nonzero;stroke:none"
             id="path246" /></g><g
           id="g248"
           transform="translate(465.6733,417.8775)"><path
             d="M 0,0 6.083,11.92 18.229,6.587 Z M -2.677,-5.282 29.157,6.222 4.209,17.175 1.031,10.948 -8.287,-7.309 Z"
             style="fill:#ffffff;fill-opacity:1;fill-rule:nonzero;stroke:none"
             id="path250" /></g><g
           id="g252"
           transform="translate(591.4766,424.1607)"><path
             d="m 0,0 11.226,4.84 5.665,-11.102 z m 13.111,10.072 -24.019,-10.356 30.52,-11.315 5.622,-2.084 z"
             style="fill:#ffffff;fill-opacity:1;fill-rule:nonzero;stroke:none"
             id="path254" /></g><g
           id="g256"
           transform="translate(382.998,865.6739)"><path
             d="m 0,0 c 1.929,0.03 3.807,0.667 5.633,1.913 1.826,1.246 3.252,3.028 4.279,5.347 0.783,1.768 1.191,3.443 1.224,5.024 0.032,1.58 -0.305,3.138 -1.012,4.674 -0.707,1.535 -1.603,2.759 -2.689,3.674 -1.086,0.914 -3.238,2.084 -6.456,3.509 l -19.066,8.444 -2.705,-6.109 19.919,-8.822 C 1.271,16.705 2.657,15.913 3.286,15.279 3.915,14.645 4.303,13.832 4.452,12.838 4.601,11.845 4.438,10.812 3.963,9.739 3.513,8.725 2.909,7.957 2.15,7.435 1.391,6.913 0.572,6.66 -0.305,6.675 -1.181,6.69 -2.51,7.093 -4.291,7.882 l -20.681,9.159 -2.705,-6.109 19.066,-8.445 C -4.799,0.799 -1.928,-0.03 0,0"
             style="fill:#ffffff;fill-opacity:1;fill-rule:nonzero;stroke:none"
             id="path258" /></g><g
           id="g260"
           transform="translate(405.02,898.628)"><path
             d="m 0,0 -19.339,12.348 27.383,0.251 3.446,5.398 -29.48,18.822 -3.582,-5.611 19.399,-12.387 -27.453,-0.228 -3.437,-5.383 29.48,-18.821 z"
             style="fill:#ffffff;fill-opacity:1;fill-rule:nonzero;stroke:none"
             id="path262" /></g><g
           id="g264"
           transform="translate(427.2842,929.46)"><path
             d="m 0,0 -26.796,22.48 -4.248,-5.064 26.795,-22.48 z"
             style="fill:#ffffff;fill-opacity:1;fill-rule:nonzero;stroke:none"
             id="path266" /></g><g
           id="g268"
           transform="translate(445.6709,947.9063)"><path
             d="M 0,0 -14.032,34.428 -19.113,29.855 -9.127,5.413 -32.291,17.995 -37.378,13.416 -4.772,-4.295 Z"
             style="fill:#ffffff;fill-opacity:1;fill-rule:nonzero;stroke:none"
             id="path270" /></g><g
           id="g272"
           transform="translate(477.3467,969.8355)"><path
             d="m 0,0 -3.37,5.604 -10.697,-6.435 -4.743,7.886 10.697,6.434 -3.296,5.481 -10.698,-6.434 -3.26,5.42 10.698,6.434 -3.358,5.583 -16.362,-9.841 18.028,-29.973 z"
             style="fill:#ffffff;fill-opacity:1;fill-rule:nonzero;stroke:none"
             id="path274" /></g><g
           id="g276"
           transform="translate(481.3789,1002.3585)"><path
             d="M 0,0 1.719,0.615 C 3.386,1.21 4.573,1.504 5.281,1.495 5.989,1.486 6.624,1.282 7.186,0.884 7.748,0.485 8.157,-0.074 8.414,-0.792 8.848,-2.006 8.783,-3.009 8.219,-3.801 7.655,-4.594 6.376,-5.347 4.382,-6.06 L 2.417,-6.762 Z m 9.589,-26.823 -4.986,13.949 0.573,0.205 12.393,-11.301 6.853,2.45 -13.036,11.853 c 1.822,1.494 2.992,3.153 3.509,4.98 0.517,1.826 0.389,3.821 -0.385,5.985 -0.737,2.06 -1.844,3.676 -3.322,4.848 C 9.71,7.317 8.083,7.952 6.308,8.05 4.532,8.147 1.826,7.546 -1.812,6.246 L -8.454,3.871 3.32,-29.064 Z"
             style="fill:#ffffff;fill-opacity:1;fill-rule:nonzero;stroke:none"
             id="path278" /></g><g
           id="g280"
           transform="translate(509.7578,1003.795)"><path
             d="m 0,0 c 1.319,-1.531 4.068,-3.593 8.247,-6.184 2.194,-1.362 3.633,-2.399 4.318,-3.109 0.684,-0.71 1.077,-1.459 1.179,-2.245 0.112,-0.864 -0.175,-1.677 -0.861,-2.437 -0.686,-0.76 -1.596,-1.213 -2.729,-1.36 -2.173,-0.282 -4.292,1.002 -6.358,3.851 l -5.116,-4.068 c 1.642,-2.424 3.458,-4.123 5.448,-5.096 1.991,-0.973 4.222,-1.299 6.692,-0.979 3.163,0.41 5.608,1.67 7.335,3.78 1.726,2.109 2.406,4.587 2.037,7.432 -0.189,1.462 -0.644,2.774 -1.363,3.936 -0.719,1.161 -1.835,2.332 -3.349,3.51 -0.606,0.481 -2.306,1.611 -5.098,3.391 C 7.394,2.353 5.587,3.629 4.962,4.251 4.501,4.719 4.233,5.244 4.158,5.825 4.082,6.407 4.29,6.965 4.781,7.501 5.272,8.036 5.951,8.36 6.817,8.472 8.596,8.703 10.5,7.734 12.525,5.567 l 4.331,4.949 C 14.755,12.402 12.87,13.644 11.2,14.243 9.53,14.841 7.83,15.029 6.099,14.805 3.407,14.456 1.256,13.302 -0.354,11.343 -1.965,9.384 -2.614,7.202 -2.303,4.796 -2.087,3.13 -1.32,1.532 0,0"
             style="fill:#ffffff;fill-opacity:1;fill-rule:nonzero;stroke:none"
             id="path282" /></g><g
           id="g284"
           transform="translate(546.9146,1018.8775)"><path
             d="m 0,0 -6.605,0.256 -1.355,-34.95 6.606,-0.256 z"
             style="fill:#ffffff;fill-opacity:1;fill-rule:nonzero;stroke:none"
             id="path286" /></g><g
           id="g288"
           transform="translate(567.687,1009.8536)"><path
             d="m 0,0 2.196,-0.529 c 4.022,-0.969 6.727,-2.567 8.115,-4.795 1.539,-2.476 1.874,-5.519 1.004,-9.129 -0.565,-2.345 -1.465,-4.218 -2.699,-5.618 -1.234,-1.401 -2.599,-2.28 -4.095,-2.637 -1.497,-0.358 -3.725,-0.18 -6.684,0.533 l -3.005,0.724 z m 4.154,-29.494 c 1.92,0.125 3.82,0.727 5.701,1.807 1.881,1.079 3.521,2.612 4.92,4.599 1.399,1.986 2.414,4.289 3.046,6.909 0.887,3.683 0.885,7.091 -0.006,10.224 -0.89,3.134 -2.389,5.602 -4.496,7.406 C 11.213,3.254 7.687,4.752 2.746,5.942 l -7.669,1.848 -8.191,-34.004 7.783,-1.875 c 4.404,-1.061 7.565,-1.529 9.485,-1.405"
             style="fill:#ffffff;fill-opacity:1;fill-rule:nonzero;stroke:none"
             id="path290" /></g><g
           id="g292"
           transform="translate(612.4565,990.4517)"><path
             d="m 0,0 -1.602,-12.782 -8.233,4.447 z m -21.001,-17.87 5.927,4.987 12.558,-6.782 -1.016,-7.64 6.088,-3.288 L 7.34,6.575 1.399,9.784 -27.089,-14.582 Z"
             style="fill:#ffffff;fill-opacity:1;fill-rule:nonzero;stroke:none"
             id="path294" /></g><g
           id="g296"
           transform="translate(643.6045,972.9605)"><path
             d="m 0,0 1.697,-1.491 c 3.109,-2.729 4.759,-5.403 4.95,-8.02 0.21,-2.908 -0.91,-5.758 -3.359,-8.548 -1.592,-1.813 -3.26,-3.051 -5.004,-3.716 -1.744,-0.665 -3.362,-0.808 -4.852,-0.428 -1.492,0.38 -3.38,1.574 -5.667,3.582 l -2.323,2.04 z m -17.792,-22.38 c 3.404,-2.989 5.984,-4.875 7.742,-5.658 1.757,-0.783 3.718,-1.135 5.886,-1.055 2.167,0.08 4.332,0.674 6.495,1.78 2.163,1.107 4.133,2.673 5.911,4.698 2.5,2.847 4.084,5.865 4.755,9.052 0.67,3.188 0.492,6.071 -0.533,8.647 -1.026,2.578 -3.448,5.543 -7.269,8.897 l -5.926,5.205 -23.077,-26.284 z"
             style="fill:#ffffff;fill-opacity:1;fill-rule:nonzero;stroke:none"
             id="path298" /></g><g
           id="g300"
           transform="translate(684.2456,928.4615)"><path
             d="m 0,0 1.242,-1.887 c 2.275,-3.456 3.157,-6.471 2.648,-9.046 -0.568,-2.859 -2.403,-5.31 -5.505,-7.352 -2.015,-1.326 -3.951,-2.078 -5.809,-2.258 -1.858,-0.179 -3.455,0.112 -4.792,0.874 -1.337,0.761 -2.843,2.413 -4.516,4.955 l -1.699,2.582 z m -23.085,-16.867 c 2.49,-3.784 4.478,-6.285 5.965,-7.507 1.487,-1.22 3.286,-2.079 5.397,-2.576 2.11,-0.497 4.356,-0.499 6.735,-0.005 2.378,0.496 4.693,1.483 6.944,2.965 3.165,2.083 5.492,4.572 6.982,7.469 1.491,2.896 2.083,5.723 1.778,8.479 C 10.41,-5.285 8.859,-1.784 6.064,2.462 L 1.728,9.051 -27.488,-10.18 Z"
             style="fill:#ffffff;fill-opacity:1;fill-rule:nonzero;stroke:none"
             id="path302" /></g><g
           id="g304"
           transform="translate(684.1523,869.9478)"><path
             d="M 0,0 5.904,2.81 0.541,14.082 8.85,18.036 14.213,6.763 19.989,9.512 14.625,20.784 20.336,23.501 25.7,12.229 31.583,15.028 23.379,32.27 -8.204,17.241 Z"
             style="fill:#ffffff;fill-opacity:1;fill-rule:nonzero;stroke:none"
             id="path306" /></g><g
           id="g308"
           transform="translate(367.7026,642.69)"><path
             d="m 0,0 c 1.233,1.667 2.912,2.98 5.039,3.939 3.052,1.376 6.089,1.491 9.113,0.344 3.024,-1.148 5.222,-3.244 6.596,-6.291 1.627,-3.61 1.566,-7.546 -0.184,-11.81 l 5.96,-2.42 c 1.253,2.686 1.887,5.498 1.901,8.433 0.012,2.936 -0.574,5.719 -1.759,8.349 -1.395,3.093 -3.448,5.641 -6.159,7.644 -2.712,2.002 -5.627,3.166 -8.746,3.49 -3.119,0.323 -6.269,-0.231 -9.448,-1.665 -4.914,-2.215 -8.23,-5.61 -9.949,-10.184 -1.719,-4.574 -1.462,-9.34 0.773,-14.297 1.212,-2.688 2.735,-4.879 4.568,-6.574 1.834,-1.694 4.431,-3.201 7.792,-4.52 l 2.439,6.05 c -2.524,0.966 -4.444,2.028 -5.759,3.19 -1.316,1.161 -2.371,2.623 -3.165,4.384 -0.931,2.064 -1.307,4.153 -1.128,6.267 C -1.938,-3.558 -1.232,-1.667 0,0"
             style="fill:#ffffff;fill-opacity:1;fill-rule:nonzero;stroke:none"
             id="path310" /></g><g
           id="g312"
           transform="translate(416.8555,602.5215)"><path
             d="M 0,0 -3.66,5.59 -21.887,-6.345 c -1.961,-1.283 -3.379,-2.017 -4.252,-2.201 -0.874,-0.183 -1.768,-0.068 -2.683,0.346 -0.915,0.415 -1.694,1.113 -2.337,2.094 -0.608,0.928 -0.924,1.853 -0.95,2.774 -0.026,0.921 0.206,1.746 0.695,2.473 0.489,0.728 1.549,1.626 3.179,2.692 l 18.922,12.39 -3.66,5.59 L -30.418,8.39 c -3.489,-2.284 -5.744,-4.243 -6.766,-5.879 -1.023,-1.636 -1.507,-3.559 -1.453,-5.768 0.054,-2.21 0.776,-4.376 2.165,-6.498 1.06,-1.618 2.244,-2.869 3.554,-3.755 1.309,-0.886 2.8,-1.449 4.474,-1.69 1.673,-0.24 3.188,-0.153 4.546,0.262 1.357,0.416 3.508,1.587 6.452,3.515 z"
             style="fill:#ffffff;fill-opacity:1;fill-rule:nonzero;stroke:none"
             id="path314" /></g><g
           id="g316"
           transform="translate(437.2114,579.1754)"><path
             d="m 0,0 -16.804,-15.729 6.577,26.655 -4.364,4.662 -25.536,-23.901 4.55,-4.861 16.751,15.68 -6.537,-26.592 4.377,-4.677 25.535,23.902 z"
             style="fill:#ffffff;fill-opacity:1;fill-rule:nonzero;stroke:none"
             id="path318" /></g><g
           id="g320"
           transform="translate(455.7861,541.5748)"><path
             d="m 0,0 c -1.382,-1.978 -2.903,-3.393 -4.563,-4.246 -1.661,-0.853 -3.252,-1.172 -4.776,-0.959 -1.524,0.213 -3.533,1.191 -6.028,2.935 l -2.533,1.771 12.642,18.085 1.851,-1.294 C -0.016,13.922 1.918,11.446 2.397,8.866 2.926,5.999 2.127,3.043 0,0 m 7.671,14.075 c -1.302,2.448 -4.037,5.129 -8.204,8.041 l -6.465,4.519 -20.039,-28.667 6.562,-4.587 c 3.713,-2.595 6.485,-4.185 8.318,-4.77 1.833,-0.585 3.821,-0.718 5.967,-0.399 2.145,0.318 4.232,1.146 6.259,2.485 2.028,1.339 3.814,3.112 5.358,5.321 2.17,3.105 3.412,6.279 3.727,9.521 0.314,3.242 -0.18,6.087 -1.483,8.536"
             style="fill:#ffffff;fill-opacity:1;fill-rule:nonzero;stroke:none"
             id="path322" /></g><g
           id="g324"
           transform="translate(478.7114,549.2413)"><path
             d="m 0,0 -14.848,-31.669 5.985,-2.806 14.848,31.669 z"
             style="fill:#ffffff;fill-opacity:1;fill-rule:nonzero;stroke:none"
             id="path326" /></g><g
           id="g328"
           transform="translate(508.0083,514.9166)"><path
             d="m 0,0 -8.972,25.947 -6.197,1.54 -8.437,-33.943 6.46,-1.606 5.536,22.268 8.97,-25.874 6.216,-1.545 8.437,33.943 -6.461,1.607 z"
             style="fill:#ffffff;fill-opacity:1;fill-rule:nonzero;stroke:none"
             id="path330" /></g><g
           id="g332"
           transform="translate(538.2598,513.8936)"><path
             d="M 0,0 4.24,12.175 9.351,0.351 Z m 0.477,21.314 -12.168,-35.458 6.914,0.26 2.574,7.306 14.262,0.534 3.004,-7.097 6.915,0.26 -14.753,34.447 z"
             style="fill:#ffffff;fill-opacity:1;fill-rule:nonzero;stroke:none"
             id="path334" /></g><g
           id="g336"
           transform="translate(588.4326,545.5816)"><path
             d="m 0,0 0.489,-25.726 -15.832,20.254 -6.11,-2.179 6.047,-34.978 6.114,2.18 -3.804,22.095 14.357,-18.331 5.527,1.972 -0.423,23.301 10.953,-19.546 6.064,2.164 L 6.106,2.178 Z"
             style="fill:#ffffff;fill-opacity:1;fill-rule:nonzero;stroke:none"
             id="path338" /></g><g
           id="g340"
           transform="translate(632.1338,546.7305)"><path
             d="m 0,0 -7.634,-5.412 -3.116,12.51 z m -18.901,12.687 9.224,-36.334 5.645,4.001 -1.845,7.523 11.643,8.254 6.399,-4.295 5.645,4.001 -31.203,20.755 z"
             style="fill:#ffffff;fill-opacity:1;fill-rule:nonzero;stroke:none"
             id="path342" /></g><g
           id="g344"
           transform="translate(652.9517,577.0196)"><path
             d="m 0,0 c -0.147,-0.962 -0.951,-2.209 -2.411,-3.743 l -1.438,-1.511 -5.201,4.951 1.259,1.323 c 1.22,1.282 2.148,2.078 2.785,2.388 0.635,0.311 1.294,0.414 1.976,0.311 C -2.349,3.616 -1.731,3.301 -1.179,2.775 -0.246,1.887 0.147,0.962 0,0 M 6.361,2.212 C 6.001,4.075 4.989,5.8 3.324,7.385 1.74,8.893 0.024,9.838 -1.823,10.219 -3.67,10.601 -5.409,10.436 -7.038,9.725 -8.668,9.013 -10.814,7.258 -13.479,4.46 l -4.863,-5.108 25.332,-24.118 4.591,4.822 -10.728,10.214 0.419,0.441 16.152,-4.517 5.018,5.271 -16.975,4.722 c 0.956,2.153 1.254,4.162 0.894,6.025"
             style="fill:#ffffff;fill-opacity:1;fill-rule:nonzero;stroke:none"
             id="path346" /></g><g
           id="g348"
           transform="translate(690.3193,607.5137)"><path
             d="m 0,0 c 0.518,-2.651 0.633,-4.843 0.344,-6.573 -0.288,-1.732 -0.969,-3.401 -2.043,-5.007 -1.259,-1.882 -2.831,-3.308 -4.718,-4.276 -1.888,-0.967 -3.865,-1.37 -5.932,-1.207 -2.067,0.162 -4.07,0.892 -6.009,2.188 -2.784,1.86 -4.49,4.377 -5.118,7.549 -0.628,3.172 -0.013,6.148 1.843,8.926 2.2,3.292 5.572,5.324 10.116,6.098 l -1.103,6.337 c -2.943,-0.359 -5.663,-1.31 -8.161,-2.853 -2.497,-1.544 -4.547,-3.515 -6.15,-5.914 -1.885,-2.82 -2.959,-5.911 -3.223,-9.271 -0.263,-3.361 0.294,-6.451 1.671,-9.268 1.377,-2.818 3.516,-5.195 6.415,-7.133 4.481,-2.995 9.117,-4.011 13.908,-3.046 4.791,0.963 8.697,3.705 11.718,8.226 1.639,2.452 2.691,4.903 3.157,7.356 0.467,2.453 0.37,5.454 -0.291,9.004 z"
             style="fill:#ffffff;fill-opacity:1;fill-rule:nonzero;stroke:none"
             id="path350" /></g><g
           id="g352"
           transform="translate(703.2036,640.3492)"><path
             d="m 0,0 -3.841,-8.533 -9.023,9.208 z m -22.723,1.364 26.359,-26.655 2.84,6.31 -5.402,5.551 5.857,13.015 7.694,-0.461 2.839,6.309 -37.416,2.088 z"
             style="fill:#ffffff;fill-opacity:1;fill-rule:nonzero;stroke:none"
             id="path354" /></g><g
           id="g356"
           transform="translate(537.7744,634.6773)"><path
             d="m 0,0 -32.334,-27.505 -18.077,38.409 -40.725,-11.976 -0.892,42.441 -42.076,5.625 16.448,39.134 -36.15,22.252 30.943,29.06 -23.974,35.032 40.087,13.963 -7.652,41.755 42.301,-3.55 9.992,41.257 37.2,-20.448 25.909,33.627 25.667,-33.812 37.346,20.181 9.696,-41.327 42.326,3.246 -7.952,-41.698 39.987,-14.25 -24.225,-34.859 30.734,-29.282 L 118.27,85.282 134.437,46.031 92.322,40.708 91.127,-1.724 50.488,10.542 32.136,-27.736 Z m 158.564,106.841 -31.529,30.039 24.851,35.761 -41.021,14.618 8.158,42.776 -43.42,-3.33 -9.946,42.396 -38.312,-20.703 -26.33,34.685 -26.579,-34.495 -38.162,20.976 -10.251,-42.324 -43.394,3.642 7.85,-42.834 -41.124,-14.323 24.594,-35.937 -31.742,-29.813 37.085,-22.828 -16.874,-40.145 43.164,-5.77 0.914,-43.538 41.779,12.285 18.544,-39.401 33.17,28.215 32.967,-28.452 18.825,39.268 41.69,-12.585 1.226,43.531 43.204,5.46 -16.585,40.266 z"
             style="fill:#ffffff;fill-opacity:1;fill-rule:nonzero;stroke:none"
             id="path358" /></g><g
           id="g360"
           transform="translate(675.6753,678.6924)"><path
             d="m 0,0 -43.204,-5.46 -1.226,-43.531 -41.69,12.585 -18.825,-39.268 -32.967,28.452 -33.17,-28.216 -18.544,39.402 -41.779,-12.285 -0.914,43.538 -43.163,5.77 16.873,40.145 -37.085,22.828 31.742,29.812 -24.594,35.937 41.125,14.324 -7.851,42.834 43.395,-3.642 10.25,42.324 38.162,-20.976 26.579,34.495 26.33,-34.685 38.312,20.703 9.946,-42.396 43.42,3.33 -8.158,-42.776 41.021,-14.619 -24.851,-35.76 31.529,-30.039 -37.248,-22.56 z m -8.739,93.081 20.028,28.82 5.241,7.541 -6.998,2.494 -34.712,12.37 8.294,43.495 -44.149,-3.386 -10.114,43.108 -38.955,-21.051 -26.773,35.268 -27.025,-35.075 -38.803,21.33 -10.422,-43.036 -44.124,3.703 7.982,-43.553 -36.636,-12.761 -5.178,-1.804 3.836,-5.606 21.17,-30.935 -24.601,-23.105 -6.225,-5.846 -1.45,-1.362 1.605,-0.988 6.825,-4.201 29.278,-18.022 -17.157,-40.819 43.889,-5.867 0.93,-44.27 42.481,12.492 18.855,-40.064 33.727,28.69 33.521,-28.931 19.142,39.928 42.39,-12.796 1.246,44.261 42.829,5.414 1.102,0.139 -0.586,1.423 -16.278,39.519 27.844,16.865 6.859,4.155 3.17,1.92 -2.862,2.727 -6.228,5.933 z"
             style="fill:#ffffff;fill-opacity:1;fill-rule:nonzero;stroke:none"
             id="path362" /></g><g
           id="g364"
           transform="translate(386.6265,743.3267)"><path
             d="M 0,0 30.41,28.56 6.849,62.988 46.246,76.71 l -7.521,41.035 41.572,-3.489 9.82,40.547 36.559,-20.096 25.463,33.047 25.224,-33.228 36.703,19.833 9.528,-40.615 41.597,3.19 -7.816,-40.98 39.299,-14.004 -23.807,-34.259 30.204,-28.777 -35.683,-21.613 15.887,-38.575 -41.389,-5.231 -1.174,-41.702 -39.939,12.056 -18.035,-37.619 -31.582,27.258 -31.777,-27.031 -17.765,37.748 -40.024,-11.77 -0.876,41.709 -41.351,5.528 16.164,38.46 z m 242.275,-110.374 1.195,42.433 42.115,5.323 -16.167,39.251 36.309,21.992 -30.734,29.282 24.225,34.86 -39.987,14.249 7.952,41.698 -42.326,-3.246 -9.696,41.328 -37.346,-20.181 -25.667,33.811 -25.909,-33.626 -37.2,20.448 -9.992,-41.257 -42.301,3.55 L 44.398,77.786 4.311,63.823 28.285,28.791 -2.658,-0.27 33.492,-22.521 17.044,-61.655 59.12,-67.28 l 0.892,-42.441 40.725,11.976 18.077,-38.409 32.334,27.505 32.136,-27.736 18.352,38.278 z"
             style="fill:#ffffff;fill-opacity:1;fill-rule:nonzero;stroke:none"
             id="path366" /></g><g
           id="g368"
           transform="translate(537.2842,860.7188)"><path
             d="m 0,0 c 56.947,0 103.277,-45.395 103.277,-101.193 0,-55.798 -46.33,-101.192 -103.277,-101.192 -56.949,0 -103.281,45.394 -103.281,101.192 C -103.281,-45.395 -56.949,0 0,0 m 0,-208.878 c 60.458,0 109.77,48.377 109.77,107.685 C 109.77,-41.881 60.458,6.493 0,6.493 c -60.46,0 -109.773,-48.374 -109.773,-107.686 0,-59.308 49.313,-107.685 109.773,-107.685"
             style="fill:#ffffff;fill-opacity:1;fill-rule:nonzero;stroke:none"
             id="path370" /></g><g
           id="g372"
           transform="translate(521.7383,708.5367)"><path
             d="m 0,0 -0.291,-0.415 -0.076,0.501 c -0.417,2.76 -0.902,5.709 -1.441,8.765 -0.536,3.032 -1.09,6.168 -1.441,8.568 -0.451,3.11 -1.715,5.28 -3.758,6.448 -3.506,2.005 -7.612,0.329 -11.958,-1.445 -2.134,-0.87 -4.337,-1.77 -6.328,-2.166 -0.977,-0.194 -1.546,-0.182 -1.852,-0.137 l -0.129,0.018 -0.037,0.126 c -0.515,1.769 1.06,6.577 4.815,14.698 1.544,3.343 2.174,4.748 2.25,5.995 0.952,15.466 -1.524,44.669 -3.004,62.118 l -0.018,0.217 0.218,0.003 c 4.352,0.07 10.821,0.863 16.917,4.243 l 0.341,0.188 -0.041,-0.387 c -0.118,-1.136 -0.097,-1.798 0.077,-2.442 2.721,-9.968 8.732,-13.89 13.295,-15.424 11.109,-3.73 24.519,2.603 28.34,5.117 l 0.112,0.074 0.112,-0.074 c 1.98,-1.311 6.853,-7.78 9.272,-19.405 0.082,-0.393 0.23,-0.763 0.44,-1.101 l 0.034,-0.054 -0.003,-0.062 c -10e-4,-0.034 -0.005,-0.068 -0.01,-0.102 -0.003,-0.026 -0.007,-0.052 -0.007,-0.08 0.263,-20.265 3.516,-25.355 16.573,-25.933 3.975,-0.176 7.019,-0.137 9.241,-0.109 1.141,0.016 2.297,0.031 3.104,0 l 0.193,-0.009 0.002,-0.192 c 0.007,-0.739 -0.03,-1.732 -0.067,-2.694 l -0.003,-0.097 c -0.102,-2.68 -0.256,-6.73 0.029,-12.317 0.093,-1.805 0.23,-3.304 0.331,-4.398 l 0.086,-0.962 -0.234,0.014 c -0.455,0.026 -0.943,0.059 -1.411,0.092 -1.464,0.1 -3.266,0.225 -5.584,0.3 -12.176,0.402 -16.182,1.426 -23.241,8.346 -2.238,2.198 -4.342,2.295 -5.709,1.987 -3.77,-0.848 -5.412,-5.317 -7.15,-10.049 -1.06,-2.885 -2.269,-6.025 -3.199,-6.78 L 28.714,20.946 C 20.221,18.673 7.158,10.217 0,0 m 30.572,14.421 c 4.134,1.076 5.988,6.121 7.782,10.999 0.531,1.446 1.331,3.624 2.019,4.936 l 0.125,0.239 0.194,-0.186 c 8.216,-7.866 13.719,-9.263 27.175,-9.707 2.187,-0.073 3.928,-0.192 5.327,-0.288 3.667,-0.251 5.878,-0.403 7.592,1.351 1.673,1.712 1.475,3.882 1.201,6.886 -0.102,1.111 -0.227,2.47 -0.311,4.131 -0.271,5.269 -0.131,8.979 -0.028,11.688 0.153,3.995 0.245,6.392 -1.575,8.259 -1.84,1.883 -4.346,1.852 -8.499,1.796 -2.281,-0.029 -5.09,-0.066 -8.872,0.102 -7.564,0.335 -9.847,0.436 -10.091,19.244 -0.007,0.606 -0.18,1.186 -0.512,1.725 l -0.033,0.053 0.003,0.063 c 0.016,0.328 -0.002,0.6 -0.054,0.854 -2.579,12.394 -8.358,22.525 -14.051,24.637 -1.948,0.723 -3.92,0.479 -5.413,-0.669 -2.268,-1.744 -14.198,-7.544 -22.85,-4.633 -4.329,1.456 -7.21,4.858 -8.807,10.401 l -0.01,0.034 0.003,0.037 c 0.067,0.914 0.453,3.216 0.684,4.591 0.802,4.782 1.1,6.57 -1.354,7.746 l -2.339,1.072 -1.7,-1.884 c -7.118,-7.885 -18.277,-7.953 -21.524,-7.787 l -0.084,0.023 c -0.579,0.304 -1.218,0.435 -1.85,0.384 -0.903,-0.076 -1.722,-0.498 -2.306,-1.19 -0.585,-0.692 -0.866,-1.57 -0.79,-2.473 l 0.343,-4.053 c 1.464,-17.264 3.914,-46.159 3.033,-61.2 l -0.01,-0.052 c -0.214,-0.653 -1.006,-2.366 -1.643,-3.742 -4.29,-9.281 -7.546,-17.338 -3.921,-21.943 1.234,-1.566 3.727,-3.23 8.605,-2.26 2.631,0.524 5.253,1.594 7.566,2.537 2.37,0.968 4.695,1.856 5.753,1.856 0.049,0 0.096,-0.002 0.14,-0.006 l 0.111,-0.01 0.05,-0.098 c 0.093,-0.177 0.265,-0.598 0.389,-1.441 0.341,-2.348 0.861,-5.303 1.412,-8.431 l 0.06,-0.341 c 0.701,-3.969 2.989,-17.421 2.989,-23.85 0,-1.869 1.521,-3.391 3.391,-3.391 1.87,0 3.391,1.522 3.391,3.391 l -0.002,0.127 c 0.063,0.32 0.09,0.57 0.085,0.808 -0.228,12.679 19.073,27.024 29.206,29.665"
             style="fill:#ffffff;fill-opacity:1;fill-rule:nonzero;stroke:none"
             id="path374" /></g></g></g></g></svg>
