<svg id="Capa_1" data-name="Capa 1" xmlns="http://www.w3.org/2000/svg" viewBox="0 0 313.26 428.87"><defs><style>.cls-1,.cls-6,.cls-8{fill:#fffd8d;}.cls-2,.cls-5,.cls-9{fill:#1d1d1d;}.cls-2,.cls-7,.cls-8{stroke:#1d1d1d;}.cls-2,.cls-3,.cls-4,.cls-5,.cls-6,.cls-7,.cls-8{stroke-miterlimit:10;}.cls-3{fill:none;}.cls-3,.cls-5{stroke:#1f140f;}.cls-4{fill:#88868b;stroke:#88868b;}.cls-6{stroke:#fffd8d;}.cls-7{fill:#fffd63;}.cls-7,.cls-8{opacity:0.21;}.cls-10{fill:#a5c715;}.cls-11{fill:#009e3e;}.cls-12{fill:#73b634;}.cls-13{fill:#007231;}.cls-14{fill:#1d1d1b;}</style></defs><title>fusa</title><polygon class="cls-1" points="100.41 4.54 190.41 79.44 205.5 383.7 95.76 390.45 100.41 4.54"/><polygon class="cls-2" points="95.76 1.05 24.92 57.96 0.53 426.67 7.5 426.67 9.24 395.7 90.97 390.45 95.76 1.05"/><path class="cls-3" d="M250.55,190.35" transform="translate(-36.34 -30.49)"/><path class="cls-3" d="M259.85,195.85" transform="translate(-36.34 -30.49)"/><path class="cls-3" d="M277.26,190.35" transform="translate(-36.34 -30.49)"/><path class="cls-3" d="M231.68,179.32" transform="translate(-36.34 -30.49)"/><polygon class="cls-2" points="193.78 147.41 205.5 383.7 289.69 379.03 272.86 196.93 193.78 147.41"/><polyline class="cls-4" points="211.93 383.85 201.19 173.09 200.97 168.88 261.29 206.72 276.13 380.3"/><path class="cls-3" d="M298.64,220.63" transform="translate(-36.34 -30.49)"/><polygon class="cls-1" points="31.31 62.38 12.73 355.99 85.5 345.99 90.92 15.09 31.31 62.38"/><polygon class="cls-2" points="90.17 64.37 28.85 103.01 29.13 96.52 90.28 56.77 90.17 64.37"/><polygon class="cls-2" points="89.28 119.99 25.6 152.03 25.19 159.45 89.14 128.42 89.28 119.99"/><polygon class="cls-2" points="88.12 188.91 21.66 212.86 21.24 220.33 87.98 197.49 88.12 188.91"/><polygon class="cls-2" points="16.9 289.48 86.78 271.63 86.91 263.5 17.41 281.54 16.9 289.48"/><path class="cls-2" d="M132.1,420.94" transform="translate(-36.34 -30.49)"/><line class="cls-2" x1="159.89" y1="193.77" x2="144.43" y2="203.41"/><line class="cls-2" x1="162.16" y1="198.33" x2="147.73" y2="215.6"/><line class="cls-2" x1="167.8" y1="199.77" x2="161.8" y2="218.51"/><path class="cls-5" d="M278.85,208.79" transform="translate(-36.34 -30.49)"/><polyline class="cls-2" points="242.84 178.29 259.65 189.1 257.28 161.86 240.91 150.38 242.84 178.29 259.65 189.1"/><polygon class="cls-6" points="213.12 158.41 240.04 150.03 241.74 176.12 213.12 158.41"/><line class="cls-2" x1="43.19" y1="51.1" x2="28.85" y2="358.14"/><line class="cls-2" x1="70.9" y1="29.31" x2="59.63" y2="349.54"/><polygon class="cls-2" points="266.06 236.78 200.67 207.41 201.54 218.57 266.66 245.31 266.06 236.78"/><polygon class="cls-2" points="269.72 272.64 203.18 253.05 203.18 266.05 269.72 282.95 269.72 272.64"/><polygon class="cls-2" points="271.12 308.67 206.44 299.23 207 310.78 272.08 318.99 271.12 308.67"/><polygon class="cls-2" points="274.6 346.54 207.53 344.06 207.53 355.99 275.75 356.02 274.6 346.54"/><line class="cls-2" x1="218.47" y1="178.3" x2="231.89" y2="382.74"/><line class="cls-2" x1="243.57" y1="193.77" x2="258.75" y2="381.27"/><line class="cls-7" x1="191.26" y1="96.72" x2="100.17" y2="24.44"/><line class="cls-8" x1="191.99" y1="111.44" x2="100.17" y2="44.8"/><line class="cls-8" x1="192.79" y1="127.43" x2="100.17" y2="64.92"/><line class="cls-8" x1="193.66" y1="144.95" x2="100.17" y2="85.05"/><line class="cls-8" x1="194.44" y1="160.83" x2="100.17" y2="107.51"/><line class="cls-8" x1="195.49" y1="181.96" x2="98.66" y2="130.73"/><line class="cls-8" x1="196.34" y1="199.05" x2="97.89" y2="153.18"/><line class="cls-8" x1="197.31" y1="218.51" x2="97.89" y2="178.3"/><line class="cls-8" x1="198.29" y1="238.3" x2="98.01" y2="203.41"/><line class="cls-8" x1="198.92" y1="258.86" x2="97.68" y2="230.75"/><line class="cls-8" x1="200.08" y1="278.99" x2="98.01" y2="258.86"/><line class="cls-8" x1="201.43" y1="301.56" x2="96.73" y2="285.18"/><line class="cls-8" x1="202.79" y1="322.73" x2="96.73" y2="315.62"/><line class="cls-8" x1="203.57" y1="346.34" x2="95.76" y2="346.34"/><line class="cls-8" x1="205.5" y1="368.32" x2="95.76" y2="376.54"/><path class="cls-9" d="M152.71,83.18a16.85,16.85,0,0,1-3-3.19,18.37,18.37,0,0,1-2-3.68,19.81,19.81,0,0,1-1.14-3.89,20.07,20.07,0,0,1-.37-3.78V59.13l4,3.48V72a13,13,0,0,0,.14,1.84,10.62,10.62,0,0,0,.45,1.85,8,8,0,0,0,.78,1.68,5.8,5.8,0,0,0,1.17,1.35,2.37,2.37,0,0,0,1.19.64.83.83,0,0,0,.79-.36,2.82,2.82,0,0,0,.43-1.09,7.41,7.41,0,0,0,.14-1.56V67.09l4,3.48v9.19a10.88,10.88,0,0,1-.39,3.14,3.38,3.38,0,0,1-1.19,1.83,2.33,2.33,0,0,1-2,.2A8.56,8.56,0,0,1,152.71,83.18Z" transform="translate(-36.34 -30.49)"/><path class="cls-9" d="M146.15,95a7.84,7.84,0,0,1,.5-2.93,3.47,3.47,0,0,1,1.45-1.79,3.09,3.09,0,0,1,2.32-.24,8.08,8.08,0,0,1,3.1,1.72,17.6,17.6,0,0,1,3.61,4,18.79,18.79,0,0,1,2.3,4.68l-3,.28a7.62,7.62,0,0,0-.76-2,8.29,8.29,0,0,0-1.08-1.53,9.56,9.56,0,0,0-1.12-1.1A3.19,3.19,0,0,0,152,95.4a1.23,1.23,0,0,0-1,.31,2.42,2.42,0,0,0-.59,1.09,5.72,5.72,0,0,0-.19,1.55,9.72,9.72,0,0,0,.22,2,11.72,11.72,0,0,0,.65,2.06,9.56,9.56,0,0,0,1.05,1.88,6.68,6.68,0,0,0,1.39,1.46,4.72,4.72,0,0,0,1.11.65,1.67,1.67,0,0,0,1,.1,1.09,1.09,0,0,0,.71-.75l3.23,4.91a1.81,1.81,0,0,1-1.42,1.15,4.33,4.33,0,0,1-2.26-.29,9.46,9.46,0,0,1-2.49-1.4,14.76,14.76,0,0,1-2.94-3,23.2,23.2,0,0,1-2.29-3.93,24.46,24.46,0,0,1-1.49-4.22A16.36,16.36,0,0,1,146.15,95Z" transform="translate(-36.34 -30.49)"/><path class="cls-9" d="M152.71,136a13.54,13.54,0,0,1-3-2.77,15.65,15.65,0,0,1-2-3.4,17.83,17.83,0,0,1-1.14-3.73,19.42,19.42,0,0,1-.37-3.74v-9.51l4,2.93v9.41a12.74,12.74,0,0,0,.14,1.83,9.47,9.47,0,0,0,.45,1.78,6.58,6.58,0,0,0,.78,1.57,4.61,4.61,0,0,0,1.17,1.2,2,2,0,0,0,1.19.47,1,1,0,0,0,.79-.47,3.21,3.21,0,0,0,.43-1.15,7.74,7.74,0,0,0,.14-1.58v-9.28l4,2.93v9.19a11.4,11.4,0,0,1-.39,3.19,4,4,0,0,1-1.19,2,2.46,2.46,0,0,1-2,.48A7.23,7.23,0,0,1,152.71,136Z" transform="translate(-36.34 -30.49)"/><path class="cls-9" d="M150.26,151.78v9l-4-2.46V139.81l3.09,2.07L155.17,155v-9.2l4,2.66v17.91l-3.15-2Z" transform="translate(-36.34 -30.49)"/><path class="cls-9" d="M146.69,185.41v-18.5l5.54,3.33a13.79,13.79,0,0,1,4,3.62,16.24,16.24,0,0,1,2.43,4.69,16,16,0,0,1,.83,5,8.14,8.14,0,0,1-.91,4.22,3.32,3.32,0,0,1-2.53,1.72,6.4,6.4,0,0,1-3.83-1Zm8.79-4.2a9.14,9.14,0,0,0-.39-2.68,7.79,7.79,0,0,0-1.11-2.3,5.73,5.73,0,0,0-1.75-1.62l-1.58-.94v9.55l1.58.89a2.33,2.33,0,0,0,1.76.38,1.75,1.75,0,0,0,1.1-1.07A5.37,5.37,0,0,0,155.48,181.21Z" transform="translate(-36.34 -30.49)"/><path class="cls-9" d="M150.74,214.21V195.9l4,2.11v18.12Z" transform="translate(-36.34 -30.49)"/><path class="cls-9" d="M150.26,231.56v9l-4-1.65V220.4l3.09,1.43,5.78,11.89v-9.2l4,1.83v17.91L156,243Z" transform="translate(-36.34 -30.49)"/><path class="cls-9" d="M150.51,248.93l4.43,1.75,4.59,19.69-4-1.39-.75-3.81-4.07-1.44-.74,3.32-4-1.4Zm3.56,12.67-1.34-6.9-1.34,5.93Z" transform="translate(-36.34 -30.49)"/><path class="cls-9" d="M156.19,295.4v-9.51l-2.42,6-2.11-.6-2.41-7.5v9.68l-4-1.1V273.81l4.32,1.4,3.11,9.58,3.12-7.55,4.31,1.39v17.86Z" transform="translate(-36.34 -30.49)"/><path class="cls-9" d="M150.51,302.08l4.43,1.13,4.59,19.06-4-.83-.75-3.71-4.07-.88-.74,3.43-4-.84Zm3.56,12.18-1.34-6.72-1.34,6.11Z" transform="translate(-36.34 -30.49)"/><path class="cls-9" d="M147.1,346.5V328l6.62,1.23a4.4,4.4,0,0,1,1.95.9,6.55,6.55,0,0,1,1.54,1.72,8.4,8.4,0,0,1,1,2.19,8.15,8.15,0,0,1,.35,2.31,7.66,7.66,0,0,1-.24,1.95,5.72,5.72,0,0,1-.71,1.65,4.44,4.44,0,0,1-1.12,1.2l3.05,7.05-4.35-.6-2.53-5.94-1.61-.25v5.62Zm4-9.45,2.5.41a.55.55,0,0,0,.47-.15,1.54,1.54,0,0,0,.37-.6,3,3,0,0,0,.15-1,2.94,2.94,0,0,0-.17-1.09,2.3,2.3,0,0,0-.42-.73,1,1,0,0,0-.5-.32l-2.4-.41Z" transform="translate(-36.34 -30.49)"/><path class="cls-9" d="M146.15,363.8a10.91,10.91,0,0,1,.5-3.28,8.77,8.77,0,0,1,1.45-2.8,6.31,6.31,0,0,1,2.32-1.85,5.86,5.86,0,0,1,3.1-.42,6.82,6.82,0,0,1,3.61,1.5,7.76,7.76,0,0,1,2.3,3.1l-3,2.37a3.62,3.62,0,0,0-.76-1.45,3.19,3.19,0,0,0-1.08-.79,3.77,3.77,0,0,0-1.12-.31,2.35,2.35,0,0,0-1.47.27,2.82,2.82,0,0,0-1,1,5.33,5.33,0,0,0-.59,1.49,7.42,7.42,0,0,0-.19,1.69,7.56,7.56,0,0,0,.22,1.85,6.17,6.17,0,0,0,.65,1.62,3.65,3.65,0,0,0,1.05,1.15,2.72,2.72,0,0,0,1.39.5,2.84,2.84,0,0,0,1.11-.13,2.58,2.58,0,0,0,1-.61,2.82,2.82,0,0,0,.71-1.24l3.23,2.67a4.83,4.83,0,0,1-1.42,2.14,6.68,6.68,0,0,1-4.75,1.59,5.86,5.86,0,0,1-2.94-1,8.7,8.7,0,0,1-2.29-2.35,11.75,11.75,0,0,1-1.49-3.18A12.28,12.28,0,0,1,146.15,363.8Z" transform="translate(-36.34 -30.49)"/><path class="cls-9" d="M150.51,381.8l4.43.21,4.59,18.11h-4l-.75-3.55-4.07,0-.74,3.58h-4Zm3.56,11.44-1.34-6.43-1.34,6.39Z" transform="translate(-36.34 -30.49)"/><g id="Capa_1-2" data-name="Capa 1-2"><path class="cls-9" d="M160.72,334.07c6.91-1.68,10.71-8.52,17.47-10.63,2.22-.68,2.35-8.39.18-11.25a8.11,8.11,0,0,1-1.56-7.16c.65-2.54.67-4.57-1.39-6.44-7.77-7.15-7.71-15.66-4.48-24.79.24-.64.33-1.32.53-2,2.61-8.18,1.15-15.53-2.85-23.23-4.24-8.19-4.57-16.94-.19-25.95,5.58-11.48,26.1-16.65,37.29-5.33,5.2,5.27,9.5,10.22,11.12,17.54,1.95,8.68.85,16.51-5.34,23.18a10.09,10.09,0,0,0-3,7.32,16.73,16.73,0,0,1-.12,4.58c-1.32,4.76-.83,8.73,2.94,12.44,3.58,3.53,1.53,7.46-.67,11-1.46,2.29-3.37,4.29-4.72,6.63-1.74,3.07-1.86,5.83.95,8.75,3,3.07,3.76,7.49,4.79,11.59,1.16,4.63,2.51,9.07,6.33,12.37,2.22,1.93,2.34,11.67.39,13.73a3.64,3.64,0,0,1-3.76.88c-1.61-.39-.74-1.64-.57-2.48,1.31-6.53-3.36-11.1-5.57-16.37-1.78-4.21-5.4-7.64-8.61-12-1.44,6.68-2.63,12.8,0,19.1,2,5.11-1,11.09-5.61,11.74-2.4.34-3.41-.68-4.21-2.59-2-4.68-4.24-9.2-5.83-14.06-.88-2.66-1.88-2.67-3.94-1.67-6.14,3.07-13.86,3.94-15.48,12.81-.42,2.32-2,.94-2.58-.37a42.64,42.64,0,0,1-1.52-5.33ZM200.3,217c-5.35-2.91-11-4-15.8-3.18-9.51,1.61-14.31,7.54-13.29,17.07,1.78,16.18,15.64,27.4,31.29,27.14a11.89,11.89,0,0,0,9.87-5.32c5.06-7.26,3.41-21.41-3.36-27.62-.62,3-1.51,5.62-5.11,6-3.85.33-6.28-2.05-7.69-4.84C194.17,222.09,197.39,219.41,200.3,217Zm-13.65,57.6c-.2-2.77.88-5.88-1.69-8.18-2.11-1.85-3.58-5.62-6.43-5.11-3.46.56-2.49,4.81-3.07,7.38-.71,3.49-1.8,7.61,1.31,10.55a6.64,6.64,0,0,1,2.46,5.22c0,.84,0,1.81.85,2.23,1.2.58,1.76-.55,2.49-1.17A11.24,11.24,0,0,0,186.65,274.58Zm8.25,66.48c-.54-4.43-.18-7.91-1.42-10.66-5-11.25-2.37-22.2.36-33.15.88-3.53,1-6.24-2-8.51-1.21-.91-1.27-3.76-3.52-2.66-2,1-2.73,2.71-2.56,5.43.33,5,3.9,9.41,3.37,14.2-.84,7.48,1.26,14.69.86,22.12a16.23,16.23,0,0,0,4.9,13.22Zm8.85-73c0-2.37-1.16-3.07-2.91-3.22a6.79,6.79,0,0,0-7.4,6,53.76,53.76,0,0,1-.58,6.59c-1.09,4.82.38,7,5,8.93,2.81,1.17,3.48-.24,3.71-2.05.73-5.59-.1-11.32,2.15-16.23Z" transform="translate(-36.34 -30.49)"/></g><polygon class="cls-2" points="181.9 319.46 167.18 315.62 138.73 317.87 138.73 420 167.18 421.02 183.44 419.03 181.9 319.46"/><polygon class="cls-4" points="167.18 317.36 167.18 421.02 183.44 419.03 181.9 318.57 167.18 315.62 167.18 317.36"/><path class="cls-10" d="M325.77,394.24a46.45,46.45,0,0,0-3.62,10.69c-.44-4.51-.8-9-1-13.52,0-.19-.15-.06-.15.06-.17,3.65-.54,7.13-.79,10.64A48.75,48.75,0,0,0,316.54,389c-.05-.1-.14,0-.11.13.8,3,.65,6.68.8,9.79,0,.11,0,.23,0,.34a67.46,67.46,0,0,0-2.39-7.2c-.06-.14-.18.05-.15.16a62.66,62.66,0,0,1,1.57,10.89A39.26,39.26,0,0,0,313.5,395c-.74-1.51-2.26-4-3.42-4.57,0,0-.1.1-.05.15,1.38,1.62,2,6.58,2.46,8.92.32,1.5.6,3,.87,4.53,0,.1,0,.2,0,.3-.55-1.29-1.16-2.49-1.74-3.74-.11-2-.2-4-.23-6,0-.15-.13-.08-.13,0-.12,1.47-.25,2.92-.38,4.38,0,0-.09.11-.06.18l0,.13c-.31,3.47-.61,6.91-.75,10.43q-.66-6.14-1.35-12.26c0-.09-.08,0-.08.06,0,3-.64,5.82-.7,8.84,0,.77,0,1.55,0,2.32-.77-6.66-1.47-13.34-1.75-20,0-.15-.13-.08-.13,0-.32,6.19-.5,12.13-.32,18.29-1-4.69-2.27-9.25-3.54-13.92,0-.15-.15,0-.13.11,1,5.77,1.56,11.7,2,17.59l-.33.1c-.33-1.85-.64-3.7-.89-5.56,0-.24-.25,0-.24.14.13,1.93.11,3.83.09,5.73l-.59.19c-.88-7.77-2.32-15.87-2.32-23.54,0-.2-.18-.1-.19,0a167.83,167.83,0,0,0-.4,18.76c-.77-3.65-1.53-7.3-2.05-11,0-.2-.21,0-.2.13.15,1.78.27,3.56.39,5.34a64.35,64.35,0,0,0-3.61-13.3c0-.1-.13,0-.11.13a66.82,66.82,0,0,1,1,9.59c-.51,1.13-1,2.25-1.42,3.39a77.07,77.07,0,0,0-4.64-12.39c-.05-.11-.14,0-.11.15a92.42,92.42,0,0,1,4,14.29c-.18.53-.34,1.07-.49,1.61-.35-.51-.75-1-1.16-1.53-.25-3-.47-5.94-.61-8.9,0-.19-.15-.05-.15.06-.12,2.55-.34,5-.54,7.47a6.65,6.65,0,0,0-1-.75,44,44,0,0,0-2.94-9.22c-.05-.09-.14,0-.11.13.8,3,.65,6.68.8,9.79,0,.12,0,.23,0,.34a67.46,67.46,0,0,0-2.39-7.2c-.06-.14-.18.05-.15.16a62.66,62.66,0,0,1,1.57,10.89,39.26,39.26,0,0,0-2.78-8.08c-.73-1.49-2.22-4-3.38-4.55-.05-1.26-.09-2.52-.11-3.77,0-.15-.13-.08-.14,0-.41,5.1-1,10-1.15,15.13-.44-4.09-.89-8.19-1.35-12.26,0-.09-.09,0-.09.06,0,3-.63,5.82-.7,8.84,0,.77,0,1.55,0,2.32-.78-6.66-1.47-13.35-1.75-20,0-.15-.13-.08-.14,0-.31,6.19-.5,12.13-.32,18.29-1-4.69-2.27-9.25-3.54-13.92,0-.15-.15,0-.13.11a199.73,199.73,0,0,1,2.23,20.8c-.53-2.88-1-5.76-1.45-8.67,0-.24-.24,0-.23.14.2,3.07,0,6.06.06,9.1,0,1,0,2,.09,3-.15-1.33-.29-2.67-.42-4-.83-8.44-2.55-17.35-2.56-25.75,0-.2-.17-.1-.18,0a165.47,165.47,0,0,0-.4,18.76c-.78-3.65-1.53-7.3-2.06-11,0-.2-.2,0-.19.13.14,1.78.27,3.56.39,5.33a65.06,65.06,0,0,0-3.61-13.29c0-.1-.13,0-.11.13.83,3.89.82,8.56,1.17,12.54.33,3.66.63,7.32.87,11-1.65-8.29-3.66-15.69-7.14-22.92-.05-.11-.14.05-.1.15a102.08,102.08,0,0,1,4.77,18c-.14-.28-.28-.57-.43-.84a16.77,16.77,0,0,0-3.76-4.61,9.89,9.89,0,0,0-2.49-2.39c-.08-.05-.16.15-.11.25a40.7,40.7,0,0,1,2.87,8.83c-1-2.3-2.43-4.77-3.88-5.22-.05,0-.13.1-.08.18l0,.06c0,.05.06,0,.07,0a11.54,11.54,0,0,1,.74,1.63c.38,1.12.72,2.26,1,3.44.56,2.17,1,4.4,1.39,6.63.13.71.25,1.41.36,2.12a37.38,37.38,0,0,0-2.49-6.95c-.74-1.51-2.26-4-3.42-4.58,0,0-.1.1,0,.16,1.38,1.61,2,6.58,2.46,8.92q.47,2.25.87,4.53c0,.1,0,.2-.05.3-.54-1.29-1.15-2.5-1.73-3.75q-.18-3-.23-6c0-.15-.13-.07-.14,0-.11,1.47-.24,2.93-.37,4.38,0,0-.09.12-.07.19a.56.56,0,0,1,0,.12c-.31,3.47-.61,6.92-.75,10.44q-.66-6.15-1.35-12.26c0-.09-.08,0-.08.05,0,3-.64,5.83-.7,8.85,0,.77,0,1.54,0,2.32-.78-6.66-1.47-13.35-1.75-20,0-.15-.13-.08-.14,0-.31,6.19-.5,12.13-.32,18.29-1-4.69-2.26-9.25-3.53-13.93,0-.14-.15,0-.14.12a197.15,197.15,0,0,1,2.23,20.79c-.27-1.47-.54-2.95-.79-4.44-.24-3.42-.88-6.92-1.39-10.21,0-.06,0-.06,0,0-.05-.51-.11-1-.15-1.55,0-.17-.14-.08-.15,0-.2,1.77-.48,3.46-.72,5.18a122.66,122.66,0,0,1-1.26-15.11c0-.2-.17-.1-.18,0a167.78,167.78,0,0,0-.4,18.76c-.77-3.65-1.53-7.31-2.06-11,0-.2-.2,0-.19.12.15,1.79.27,3.57.39,5.34a65.06,65.06,0,0,0-3.61-13.29c0-.1-.13,0-.11.13a66.83,66.83,0,0,1,1,9.58c-.51,1.13-1,2.26-1.42,3.4a77.07,77.07,0,0,0-4.64-12.39c-.05-.11-.14.05-.11.15a91.48,91.48,0,0,1,4,14.28c-.17.54-.33,1.07-.49,1.62a17.62,17.62,0,0,0-1.16-1.53c-.25-3-.46-5.94-.61-8.9,0-.19-.14-.06-.14.06-.12,2.55-.34,5-.55,7.47a6.1,6.1,0,0,0-1-.75,44.64,44.64,0,0,0-2.94-9.22c0-.1-.14,0-.12.13.81,3,.66,6.68.81,9.79,0,.11,0,.23,0,.34a65.22,65.22,0,0,0-2.4-7.2c-.05-.14-.17.05-.14.16a62.52,62.52,0,0,1,1.57,10.89,39.87,39.87,0,0,0-2.78-8.08c-.73-1.49-2.23-4-3.38-4.55-.05-1.27-.09-2.52-.11-3.78,0-.15-.13-.07-.14,0-.41,5.1-1,10-1.15,15.13-.44-4.1-.9-8.19-1.35-12.26,0-.09-.09,0-.09.05,0,3-.63,5.83-.7,8.85,0,.77,0,1.54,0,2.32-.77-6.66-1.47-13.35-1.74-20,0-.15-.14-.08-.14,0-.32,6.19-.5,12.13-.32,18.29-1-4.69-2.27-9.25-3.54-13.93,0-.14-.15,0-.13.12a199.84,199.84,0,0,1,2.23,20.79c-.18-1-.37-2-.54-3l-.09-1c-.19-2.3-.38-6.17-1.3-8.12,0-.06-.06,0-.07,0l0,.11s0,.06,0,0c-.33.42-.23,4.67-.29,5.5s-.08,1.37-.1,2.06c-.88-7.23-2.11-14.68-2.12-21.77,0-.2-.17-.1-.18,0a167.79,167.79,0,0,0-.41,18.76c-.77-3.65-1.53-7.31-2.05-11,0-.2-.21,0-.19.12.14,1.79.27,3.57.38,5.34a64.42,64.42,0,0,0-3.6-13.29c0-.11-.13,0-.11.13.82,3.89.82,8.56,1.17,12.54.33,3.66.63,7.32.86,11-1.64-8.29-3.65-15.7-7.13-22.92-.05-.11-.14.05-.1.15a101.83,101.83,0,0,1,4.76,18c-.14-.28-.27-.57-.42-.84-1-1.91-3.61-5.17-5.2-5.33,0,0,0,0,0-.06l-.14-.19c-.07-.1-.16.11-.1.21,3.41,5.2,4.93,12.14,6.29,18.84.45,2.18.76,4.57,1.1,7l121.6-10.81q-.27-3.26-.36-6.5a83.13,83.13,0,0,1,1.7-19.19C326,394.18,325.83,394.1,325.77,394.24ZM221,412.62c-.18-.39-.35-.78-.52-1.19-.05-.11-.14.06-.11.15.19.61.36,1.22.52,1.83-.1.71-.2,1.42-.29,2.14-.35-4.12-.68-8.29-.87-12.4.87,1.15,1.41,3.63,1.82,5.83C221.38,410.21,221.19,411.42,221,412.62Zm1.24,2.63c-.09-1.29-.19-2.58-.26-3.87,0,.19.07.38.11.54.36,1.73.69,3.48,1,5.23C222.84,416.49,222.56,415.87,222.26,415.25Zm13.09-5.09c.32,3.66.62,7.32.86,11-.54-2.7-1.11-5.31-1.76-7.84.2-1.7.46-3.34.76-4.91C235.25,409,235.29,409.58,235.35,410.16Zm17.85,8.52c-.17-.32-.34-.65-.52-1-.15-1.81-.29-3.62-.4-5.43.42,1.8.76,3.62,1.05,5.45C253.28,418.05,253.24,418.36,253.2,418.68ZM280.44,403c-.18-.39-.35-.78-.52-1.19-.05-.11-.13.06-.1.15q.27.91.51,1.83c-.09.71-.2,1.43-.29,2.14-.34-4.12-.68-8.28-.87-12.4.87,1.15,1.42,3.63,1.82,5.84C280.8,400.54,280.61,401.75,280.44,403Zm1.24,2.63c-.09-1.29-.19-2.58-.26-3.87,0,.19.08.38.11.54q.54,2.61,1,5.23C282.27,406.83,282,406.2,281.68,405.58Zm13.09-5.09c.32,3.66.62,7.32.86,11-.54-2.71-1.11-5.31-1.76-7.85.2-1.69.46-3.34.76-4.91C294.67,399.32,294.72,399.92,294.77,400.49ZM312.62,409c-.17-.32-.34-.65-.52-1-.15-1.81-.28-3.62-.4-5.43.42,1.8.76,3.62,1.05,5.46C312.7,408.38,312.66,408.7,312.62,409Z" transform="translate(-36.34 -30.49)"/><path class="cls-11" d="M282.37,415.7v-.13l0,.17Z" transform="translate(-36.34 -30.49)"/><path class="cls-11" d="M282.5,421.35h-.05v-.2C282.46,421.22,282.49,421.28,282.5,421.35Z" transform="translate(-36.34 -30.49)"/><path class="cls-12" d="M326.76,403.38a26.61,26.61,0,0,0-4,7c-.26-2.89-.45-5.78-.5-8.68,0-.12-.14,0-.15.05-.31,2.36-.81,4.61-1.2,6.88a21.28,21.28,0,0,0-3.13-8.35c0-.06-.13,0-.11.08.69,1.9.4,4.29.42,6.29,0,.07,0,.14,0,.22A29.8,29.8,0,0,0,316,402.3c-.05-.09-.18,0-.15.11a25.8,25.8,0,0,1,1.14,7,17.79,17.79,0,0,0-2.46-5.12c-.68-.95-2.09-2.53-3.22-2.84,0,0-.11.07-.07.1,1.32,1,1.71,4.18,2.11,5.67.26,1,.48,1.92.7,2.89l-.06.2c-.49-.82-1-1.57-1.59-2.36,0-1.3,0-2.59,0-3.87,0-.1-.12-.05-.14,0-.17.95-.36,1.89-.54,2.83a.11.11,0,0,0-.07.13l0,.07c-.44,2.25-.87,4.48-1.15,6.75q-.42-3.93-.87-7.85c0-.06-.09,0-.09,0-.09,2-.86,3.78-1,5.73,0,.49-.07,1-.1,1.49a112.88,112.88,0,0,1-1-12.84c0-.1-.12,0-.13,0a94.64,94.64,0,0,0-1,11.8c-.8-3-1.9-5.89-3-8.86,0-.09-.15,0-.14.08a74.39,74.39,0,0,1,1.32,11.27l-.34.07c-.25-1.18-.49-2.36-.67-3.55,0-.16-.24,0-.24.1a32.17,32.17,0,0,1-.13,3.68l-.6.15c-.57-5-1.69-10.16-1.41-15.1,0-.13-.16-.06-.18,0a71,71,0,0,0-1.12,12.11,69.66,69.66,0,0,1-1.63-7c0-.13-.2,0-.2.08.08,1.15.13,2.29.18,3.43a28.1,28.1,0,0,0-3.08-8.45c0-.07-.13,0-.11.08a27.43,27.43,0,0,1,.59,6.15c-.55.75-1.07,1.49-1.54,2.23a36,36,0,0,0-4.15-7.83c0-.07-.15,0-.11.09a41,41,0,0,1,3.47,9.08c-.2.35-.38.7-.56,1.06a11.6,11.6,0,0,0-1.09-.95c-.14-1.91-.23-3.81-.27-5.72,0-.12-.14,0-.15.05-.21,1.65-.53,3.24-.83,4.83a6,6,0,0,0-.92-.45A19.77,19.77,0,0,0,286.8,403c0-.06-.13,0-.11.08.69,1.9.4,4.29.42,6.29,0,.07,0,.14,0,.22a29.8,29.8,0,0,0-2.11-4.57c-.05-.08-.18,0-.15.11a25.8,25.8,0,0,1,1.14,7,17.92,17.92,0,0,0-2.46-5.12,8.18,8.18,0,0,0-3.19-2.83c0-.81,0-1.62,0-2.43,0-.09-.13,0-.14,0-.61,3.29-1.34,6.49-1.73,9.78-.29-2.62-.58-5.25-.88-7.86,0-.05-.08,0-.08,0-.1,1.95-.86,3.78-1,5.73,0,.49-.08,1-.11,1.49a113,113,0,0,1-1-12.84c0-.1-.13-.05-.14,0a96.55,96.55,0,0,0-1,11.8c-.81-3-1.9-5.89-3-8.86,0-.1-.15,0-.13.07a82.7,82.7,0,0,1,1.41,13.34c-.41-1.84-.82-3.68-1.11-5.54,0-.16-.24,0-.23.1.08,2-.19,3.9-.29,5.86,0,.65,0,1.3,0,2-.1-.86-.18-1.72-.26-2.58-.5-5.41-1.88-11.1-1.56-16.51,0-.13-.17-.06-.19,0a70.93,70.93,0,0,0-1.12,12.1,69,69,0,0,1-1.62-7c0-.12-.21,0-.2.09.07,1.15.13,2.29.18,3.43a28.38,28.38,0,0,0-3.08-8.45c0-.07-.13,0-.12.08.68,2.48.49,5.49.69,8.05.18,2.34.34,4.69.44,7a42.1,42.1,0,0,0-6.23-14.55c0-.06-.14,0-.11.1a44.25,44.25,0,0,1,4.06,11.47l-.4-.53a11.83,11.83,0,0,0-3.56-2.85,8.33,8.33,0,0,0-2.39-1.46c-.08,0-.17.1-.12.17a18.78,18.78,0,0,1,2.52,5.59c-.88-1.45-2.24-3-3.67-3.24,0,0-.13.07-.09.12l0,0s.06,0,.07,0a4.92,4.92,0,0,1,.67,1,14.57,14.57,0,0,1,.87,2.18,41.89,41.89,0,0,1,1.13,4.23c.11.46.2.91.28,1.35a17.33,17.33,0,0,0-2.22-4.4c-.68-.94-2.09-2.52-3.23-2.83,0,0-.1.06-.06.1,1.32,1,1.71,4.17,2.11,5.67.26,1,.48,1.92.7,2.89l-.06.19c-.49-.81-1.05-1.57-1.59-2.35,0-1.3,0-2.59,0-3.88,0-.09-.13,0-.14,0-.17.95-.36,1.89-.54,2.83,0,0-.09.08-.07.12l0,.08c-.44,2.25-.88,4.48-1.15,6.75-.28-2.62-.57-5.25-.87-7.86,0-.05-.09,0-.09,0-.09,1.95-.86,3.78-1,5.72,0,.5-.08,1-.11,1.5a113,113,0,0,1-1-12.84c0-.1-.12,0-.13,0a94.64,94.64,0,0,0-1,11.8c-.8-3-1.9-5.89-3-8.86,0-.1-.15,0-.13.07A82.71,82.71,0,0,1,245,424.89c-.22-.95-.43-1.89-.62-2.84a50.29,50.29,0,0,0-1-6.54s0,0-.05,0c0-.33-.07-.66-.09-1,0-.11-.13-.05-.15,0-.27,1.16-.61,2.26-.91,3.37a50,50,0,0,1-.68-9.7c0-.13-.17-.06-.18,0a71,71,0,0,0-1.13,12.1,69,69,0,0,1-1.62-7c0-.12-.2,0-.2.09.08,1.15.13,2.29.18,3.43a28.1,28.1,0,0,0-3.08-8.45c0-.07-.13,0-.12.08a27.43,27.43,0,0,1,.6,6.15c-.55.74-1.07,1.48-1.54,2.23a36.32,36.32,0,0,0-4.15-7.84c-.05-.06-.15,0-.11.1a40.49,40.49,0,0,1,3.46,9.08c-.19.35-.37.7-.55,1.06a11.77,11.77,0,0,0-1.1-1c-.13-1.91-.23-3.81-.26-5.72,0-.12-.14,0-.15.05-.22,1.64-.53,3.24-.83,4.82a7.07,7.07,0,0,0-.92-.45,19.72,19.72,0,0,0-2.58-5.84c0-.07-.13,0-.11.08.69,1.9.39,4.28.42,6.29a1.48,1.48,0,0,0,0,.21,31.12,31.12,0,0,0-2.11-4.56c0-.09-.18,0-.15.11a25.8,25.8,0,0,1,1.14,7,17.79,17.79,0,0,0-2.46-5.12,8.18,8.18,0,0,0-3.19-2.83q0-1.21,0-2.43c0-.09-.12,0-.13,0-.61,3.29-1.34,6.49-1.74,9.78q-.42-3.94-.87-7.86c0-.06-.08,0-.08,0-.1,1.95-.86,3.77-1,5.72-.05.5-.08,1-.11,1.5a113,113,0,0,1-1-12.84c0-.1-.13-.05-.14,0a96.55,96.55,0,0,0-1,11.8c-.81-3-1.91-5.89-3-8.86,0-.1-.15,0-.14.07A81.47,81.47,0,0,1,213,422.59l-.42-1.92c0-.21,0-.42-.05-.63-.1-1.47-.14-4-1-5.19,0,0-.06,0-.07,0l0,.07s0,0,0,0c-.34.28-.41,3-.5,3.55s-.13.88-.18,1.33c-.6-4.63-1.54-9.39-1.27-14,0-.13-.17-.06-.19,0a70.93,70.93,0,0,0-1.12,12.1,69.66,69.66,0,0,1-1.63-7c0-.12-.2,0-.19.09.07,1.14.13,2.29.18,3.43a28.54,28.54,0,0,0-3.08-8.46c0-.06-.13,0-.12.09.67,2.48.49,5.49.69,8,.18,2.34.34,4.69.43,7a41.81,41.81,0,0,0-6.22-14.55c-.05-.07-.14,0-.11.1a44.25,44.25,0,0,1,4.06,11.47c-.13-.18-.26-.36-.4-.53-1-1.2-3.39-3.22-5-3.27,0,0,0,0,0,0l-.13-.12c-.06-.05-.17.08-.11.15,3.19,3.24,4.44,7.66,5.55,11.94.36,1.39.58,2.92.82,4.46l121.6-10.81c-.1-1.39-.13-2.79-.11-4.18a36.82,36.82,0,0,1,2.43-12.42C327,403.34,326.83,403.29,326.76,403.38Zm-105.1,15.16c-.16-.25-.32-.5-.47-.75,0-.08-.14,0-.11.09.16.39.3.78.44,1.17-.12.46-.26.92-.37,1.38-.19-2.64-.36-5.31-.39-8,.82.72,1.27,2.29,1.59,3.7Q222,417.37,221.66,418.54Zm1.14,1.65c-.05-.83-.1-1.66-.11-2.48,0,.12.05.23.08.34.3,1.1.55,2.22.8,3.34C223.33,421,223.07,420.58,222.8,420.19ZM236,416.5q.28,3.51.44,7c-.43-1.72-.9-3.38-1.45-5a31.14,31.14,0,0,1,.95-3.19C236,415.74,236,416.13,236,416.5Zm17.47,4.92-.49-.61c-.07-1.16-.14-2.32-.19-3.48a32,32,0,0,1,.84,3.48C253.6,421,253.55,421.22,253.5,421.42Zm27.75-11c-.16-.25-.32-.49-.47-.75,0-.07-.14,0-.11.1.16.38.31.77.44,1.16-.12.46-.25.92-.37,1.39-.18-2.65-.36-5.32-.39-8,.82.72,1.27,2.3,1.59,3.71C281.7,408.86,281.47,409.65,281.25,410.43Zm1.14,1.65c0-.83-.1-1.66-.11-2.48,0,.12.06.24.08.34.3,1.11.56,2.22.8,3.34C282.92,412.87,282.66,412.47,282.39,412.08Zm13.23-3.69c.19,2.35.34,4.69.44,7-.43-1.72-.9-3.38-1.45-5,.27-1.1.59-2.16.95-3.18Q295.59,407.84,295.62,408.39Zm17.47,4.93-.48-.61c-.08-1.16-.15-2.33-.19-3.49a32.57,32.57,0,0,1,.83,3.48C313.2,412.91,313.14,413.11,313.09,413.32Z" transform="translate(-36.34 -30.49)"/><path class="cls-13" d="M282.08,423.83l42.32-3.76c0-.15,0-.3,0-.45.23-3.84.56-7.84,3-11.14.05-.07-.08-.17-.13-.11a.64.64,0,0,0-.1.13s0,0,0,0c-1.53.3-3.53,2.43-4.22,3.62-.1.17-.19.34-.28.52a33.78,33.78,0,0,1,1.67-10.5c0-.06-.09-.14-.13-.07a32.34,32.34,0,0,0-3.18,13.49c-.38-2-.7-4.06-1-6.1-.32-2.23-1.11-4.78-.94-7,0-.05-.11-.12-.14-.06a21.93,21.93,0,0,0-1.32,7.75c-.18-1-.36-2-.51-3,0-.08-.22-.16-.21,0a52.73,52.73,0,0,1-.19,6.27,56.28,56.28,0,0,0-3.54-10.19c0-.07-.22-.1-.19,0,1.18,3.87,1.23,8.11,1.57,12.17q-.21-.56-.45-1.11c-.2-.44-.81-2.77-1.21-3,0,0,0,0,0,0l-.05-.05s-.06,0-.08,0c-.57,1.2-.11,3.33.08,4.61,0,.18.06.37.08.55,0,.57,0,1.15,0,1.72a63.09,63.09,0,0,1-1.3-11.66c0-.06-.13-.13-.14,0a78.34,78.34,0,0,0-1.15,8.09,76.83,76.83,0,0,0-3.39-10s-.15-.08-.13,0a87.5,87.5,0,0,1,1.63,11.16c-.13-.42-.26-.84-.41-1.26-.57-1.64-1.69-3.08-2.17-4.73,0,0-.1-.07-.1,0,.24,2.28.48,4.58.73,6.87-1-2.75-2.41-5.37-3.67-8.09,0-.06-.16-.08-.14,0,.19.68.36,1.38.52,2.07a7.27,7.27,0,0,0-2.56,2.95,14.14,14.14,0,0,0-1.39,4.8,19.75,19.75,0,0,1-.28-6.16c0-.07-.14-.15-.17-.07a23.19,23.19,0,0,0-1.15,4.26,1.29,1.29,0,0,0,0-.19c-.37-1.72-1.14-3.72-.85-5.46,0-.05-.1-.11-.13-.05a15.43,15.43,0,0,0-1.35,5.44,6.31,6.31,0,0,0-.82.53c-.61-1.31-1.24-2.62-1.78-4,0-.06-.18-.11-.16,0,.35,1.64.64,3.29.89,4.94a9.85,9.85,0,0,0-.88,1c-.25-.28-.5-.55-.76-.82a31.4,31.4,0,0,1,1.58-8.35c0-.06-.1-.13-.13-.07a28,28,0,0,0-2.49,7.41c-.62-.57-1.28-1.12-2-1.66a21,21,0,0,1-.65-5.37c0-.05-.11-.12-.14-.05a21.63,21.63,0,0,0-1.32,7.75c-.18-1-.36-2-.51-3,0-.08-.22-.15-.21,0a54.79,54.79,0,0,1-.19,6.27,56.18,56.18,0,0,0-3.54-10.18c0-.07-.22-.11-.19,0a38.59,38.59,0,0,1,1.3,8.43c-.53-.91-1.08-1.8-1.58-2.74,0-.05-.16-.09-.15,0,0,.29.08.58.11.87,0,0-.05,0-.05,0a40.16,40.16,0,0,0,.35,5.77C282.09,423.19,282.08,423.51,282.08,423.83Zm21.26-13.07c.5,2.27.87,4.59,1.22,6.89-.21-.38-.43-.75-.65-1.13.06-.36.13-.71.21-1.07,0-.06-.1-.13-.13-.07-.1.25-.21.49-.32.72-.37-.63-.75-1.26-1.15-1.9C302.55,412.93,302.67,411.51,303.34,410.76Zm-.85,5.11c0-.09,0-.2,0-.31.15.71.27,1.43.39,2.15-.18.38-.36.76-.51,1.15C302.39,417.87,302.42,416.87,302.49,415.87Zm-11.93,2.44c-.21,1.48-.35,3-.42,4.53-.38-2-.7-4.07-1-6.11,0-.32-.1-.65-.17-1A27.59,27.59,0,0,1,290.56,418.31Z" transform="translate(-36.34 -30.49)"/><path class="cls-13" d="M202.2,430.93l79.58-7.07a56.93,56.93,0,0,1-1-10.12c0-.07-.13-.13-.14-.05-.47,2.73-1,5.4-1.16,8.09a74.66,74.66,0,0,0-3.38-9.94c0-.06-.15-.08-.14,0A86,86,0,0,1,277.58,423c-.13-.42-.26-.84-.41-1.26-.57-1.64-1.69-3.07-2.17-4.73,0,0-.1-.07-.1,0q.36,3.43.73,6.88c-.73-1.9-1.6-3.74-2.49-5.6a.64.64,0,0,0,0-.07s-.05-.09-.1-.09c-.37-.78-.74-1.55-1.1-2.34,0,0-.16-.08-.14,0,.3,1.09.56,2.2.79,3.32-.37.76-.77,1.51-1.09,2.28l-.09-.15c0-.87,0-1.73.1-2.6.09-1.34-.17-4.13.93-5.2,0,0,0-.1-.09-.08a7.05,7.05,0,0,0-2.59,3,13.47,13.47,0,0,0-1.3,4.14c0-.4,0-.8,0-1.2a34.84,34.84,0,0,1,.26-3.82,11.59,11.59,0,0,1,.42-2,3.68,3.68,0,0,1,.45-1s.06,0,.07,0l0,0c0-.05-.06-.1-.11-.08-1.35.44-2.38,2-2.94,3.38a14.25,14.25,0,0,1,1.34-5.22c0-.06-.08-.15-.15-.11a7.87,7.87,0,0,0-2,1.64,10.63,10.63,0,0,0-2.93,3c-.1.17-.19.35-.28.52a33.83,33.83,0,0,1,1.67-10.5c0-.06-.09-.13-.12-.06a32.17,32.17,0,0,0-3.19,13.49q-.56-3-1-6.11c-.32-2.22-1.1-4.77-.94-7,0-.05-.11-.11-.13-.05a21.67,21.67,0,0,0-1.33,7.75q-.27-1.47-.51-3c0-.08-.22-.15-.21,0a52.82,52.82,0,0,1-.18,6.28,56.83,56.83,0,0,0-3.55-10.19c0-.07-.22-.11-.18,0,1.4,4.58,1.19,9.68,1.79,14.4.1.75.18,1.5.27,2.25-.13-.56-.27-1.12-.43-1.67a51.57,51.57,0,0,1-1.47-5c0-.09-.25-.18-.25,0,.09,1.65.07,3.29,0,4.94a62.32,62.32,0,0,1-1.29-11.66c0-.07-.14-.13-.15-.05-.47,2.73-1,5.4-1.15,8.09a76.63,76.63,0,0,0-3.38-9.94c0-.06-.16-.08-.14,0a87.65,87.65,0,0,1,1.63,11.17c-.13-.43-.26-.85-.41-1.27-.57-1.64-1.68-3.07-2.17-4.73,0,0-.1-.07-.09,0q.34,3.44.72,6.88c-1.05-2.76-2.41-5.37-3.67-8.1,0-.05-.16-.08-.14,0,.19.69.36,1.38.52,2.08a7.21,7.21,0,0,0-2.56,2.95,13.85,13.85,0,0,0-1.38,4.79,19.16,19.16,0,0,1-.28-6.16c0-.06-.14-.15-.17-.07a23.41,23.41,0,0,0-1.16,4.26l0-.18c-.38-1.72-1.15-3.72-.85-5.46,0-.05-.11-.11-.13-.05a15.19,15.19,0,0,0-1.36,5.43,6.33,6.33,0,0,0-.81.54c-.62-1.31-1.24-2.62-1.79-4,0-.06-.18-.12-.16,0,.35,1.63.64,3.28.9,4.94a13,13,0,0,0-.89,1c-.24-.27-.5-.54-.76-.81a31.33,31.33,0,0,1,1.58-8.35c0-.06-.09-.14-.13-.07a28.33,28.33,0,0,0-2.49,7.4c-.62-.56-1.28-1.11-2-1.66a20.89,20.89,0,0,1-.65-5.36c0-.05-.11-.12-.13-.06a21.71,21.71,0,0,0-1.33,7.75c-.18-1-.36-2-.51-3,0-.08-.22-.16-.21,0a52.73,52.73,0,0,1-.19,6.27,56.28,56.28,0,0,0-3.54-10.19c0-.07-.22-.1-.18,0,1.27,4.18,1.22,8.8,1.65,13.17l-.61,0a24.23,24.23,0,0,1-.88-3.13c0-.1-.26-.19-.25,0,.06,1,.07,2.1.06,3.16h-.35a56,56,0,0,1-1-9.88c0-.06-.14-.13-.15,0a81.16,81.16,0,0,0-1.15,8.09,76.83,76.83,0,0,0-3.39-9.95c0-.05-.15-.08-.13,0a87.5,87.5,0,0,1,1.63,11.16c-.13-.42-.26-.84-.41-1.26-.57-1.64-1.68-3.08-2.17-4.74,0,0-.1-.06-.09,0,.23,2.28.47,4.58.72,6.87-.72-1.9-1.6-3.74-2.49-5.59,0,0,0-.05,0-.07s-.05-.1-.09-.09q-.57-1.17-1.11-2.34c0-.06-.16-.08-.14,0,.3,1.09.56,2.2.79,3.32-.37.76-.77,1.5-1.09,2.28l-.09-.16c0-.86,0-1.73.1-2.59.09-1.35-.17-4.14.93-5.21,0,0,0-.09-.08-.08a7.23,7.23,0,0,0-2.6,3,13.85,13.85,0,0,0-1.38,4.79,19.16,19.16,0,0,1-.28-6.16c0-.06-.14-.15-.18-.07a24.49,24.49,0,0,0-1.15,4.26l0-.18c-.38-1.72-1.15-3.72-.85-5.46,0-.05-.11-.11-.14-.05a16.46,16.46,0,0,0-1.39,7.67c-.83-1.88-1.78-3.73-2.56-5.7,0-.06-.18-.12-.16,0,.54,2.49.94,5,1.26,7.52a25.07,25.07,0,0,0-5.35-5.34c-.09-.07-.2,0-.13.09a30.58,30.58,0,0,1,4.89,10.24Zm70.63-10.72c.18,1,.35,2,.51,3l-.35.6-.29-.5A25,25,0,0,1,272.83,420.21Zm-29.65-6.57c.51,2.28.87,4.6,1.22,6.89-.2-.37-.43-.75-.64-1.12.05-.36.12-.72.2-1.07,0-.06-.1-.14-.13-.07-.09.24-.2.48-.31.72-.37-.63-.76-1.27-1.15-1.91C242.4,415.82,242.52,414.39,243.18,413.64Zm-.85,5.12c0-.1,0-.2,0-.31.15.71.27,1.43.39,2.14-.18.38-.36.76-.51,1.16C242.23,420.75,242.26,419.75,242.33,418.76ZM230.4,421.2c-.21,1.47-.34,3-.42,4.52-.38-2-.7-4.06-1-6.1,0-.33-.1-.66-.16-1A26.27,26.27,0,0,1,230.4,421.2Zm-17.73,1.9c.19,1,.35,2,.51,3l-.35.6-.28-.5A25,25,0,0,1,212.67,423.1Z" transform="translate(-36.34 -30.49)"/><path class="cls-11" d="M222.81,424.11V424l0,.17Z" transform="translate(-36.34 -30.49)"/><path class="cls-10" d="M208.79,414.21a43.1,43.1,0,0,0-6.09,10.58c.07-4.8.23-9.6.57-14.36,0-.19-.18-.08-.2,0-.73,3.8-1.68,7.38-2.49,11a44.68,44.68,0,0,0-2.83-14.41c0-.12-.18,0-.16.11.62,3.27-.09,7.11-.33,10.4,0,.12,0,.24,0,.36a61.5,61.5,0,0,0-2.06-8c-.05-.15-.23,0-.21.15a55.25,55.25,0,0,1,.5,11.69,36.83,36.83,0,0,0-2.43-9c-.73-1.71-2.32-4.62-3.72-5.39-.06,0-.15.08-.1.15,1.55,1.94,1.61,7.24,1.91,9.78.2,1.63.35,3.27.49,4.9a2.81,2.81,0,0,0-.1.31c-.52-1.45-1.13-2.82-1.7-4.23q.19-3.21.54-6.35c0-.16-.15-.1-.17,0-.36,1.53-.73,3-1.09,4.53-.06,0-.13.11-.11.18l0,.14c-.87,3.58-1.73,7.14-2.4,10.8,0-4.36,0-8.73,0-13.08,0-.1-.11,0-.12,0-.39,3.18-1.62,6-2.12,9.15-.12.81-.23,1.62-.34,2.43-.06-7.12,0-14.25.54-21.28,0-.16-.16-.11-.18,0-1.26,6.44-2.31,12.64-2.94,19.12-.61-5.09-1.61-10.1-2.58-15.22,0-.16-.19,0-.18.1a155,155,0,0,1,.11,18.79l-.43,0c-.16-2-.3-4-.37-6,0-.26-.3-.07-.31.11-.11,2.05-.39,4-.69,6l-.77.1c-.05-8.31-.76-17,.29-25.09,0-.21-.21-.13-.24,0a146.13,146.13,0,0,0-3.11,19.6c-.48-4-.94-7.93-1.1-11.87,0-.21-.26-.06-.27.1-.06,1.89-.14,3.78-.24,5.66a59.23,59.23,0,0,0-2.76-14.57c0-.12-.17,0-.16.11a59.28,59.28,0,0,1-.09,10.22c-.81,1.1-1.57,2.2-2.28,3.32a73.06,73.06,0,0,0-4.21-13.81c-.05-.12-.18,0-.15.14a86.16,86.16,0,0,1,3.17,15.68c-.3.53-.58,1.06-.85,1.61-.37-.59-.81-1.21-1.27-1.81.09-3.16.23-6.3.45-9.44,0-.19-.17-.08-.2,0-.5,2.66-1.12,5.2-1.72,7.73a10.24,10.24,0,0,0-1.11-.95,41,41,0,0,0-2.48-10.17c0-.12-.18,0-.16.11.62,3.27-.09,7.11-.33,10.4,0,.12,0,.24,0,.36a61.5,61.5,0,0,0-2.06-8c0-.15-.23,0-.21.15a55.25,55.25,0,0,1,.5,11.69,37.29,37.29,0,0,0-2.43-9c-.73-1.69-2.28-4.55-3.68-5.36.11-1.34.23-2.66.38-4,0-.16-.15-.1-.18,0-1.22,5.26-2.6,10.34-3.56,15.65q0-6.56,0-13.09c0-.09-.11,0-.12,0-.39,3.17-1.62,6-2.12,9.15-.13.8-.23,1.61-.34,2.42-.07-7.12,0-14.25.54-21.28,0-.16-.16-.1-.18,0-1.26,6.43-2.31,12.63-2.94,19.11-.61-5.08-1.61-10.09-2.58-15.21,0-.16-.2,0-.19.09a174.79,174.79,0,0,1,0,22.19c-.28-3.11-.54-6.22-.65-9.34,0-.26-.31-.06-.32.11-.17,3.26-.78,6.36-1.18,9.56-.13,1.05-.23,2.12-.31,3.2q0-2.14,0-4.29c.11-9-.85-18.63.3-27.43,0-.22-.21-.14-.24,0a143.24,143.24,0,0,0-3.11,19.6c-.48-4-.94-7.93-1.1-11.87,0-.21-.26-.05-.27.1-.06,1.9-.15,3.78-.24,5.66a59.53,59.53,0,0,0-2.76-14.56c0-.12-.17,0-.16.11.52,4.22-.14,9.12-.24,13.36-.09,3.88-.21,7.77-.42,11.65-.95-9-2.48-17.1-5.92-25.29,0-.12-.19,0-.15.14A93.09,93.09,0,0,1,125,410.52c-.14-.32-.28-.64-.43-1a19.27,19.27,0,0,0-4.15-5.49,12.24,12.24,0,0,0-2.85-2.94c-.09-.06-.22.13-.17.24a38.27,38.27,0,0,1,2.44,9.76c-.92-2.58-2.45-5.43-4.23-6.15-.06,0-.17.08-.13.17l0,.08s.08,0,.1,0a10.17,10.17,0,0,1,.71,1.84,32.13,32.13,0,0,1,.8,3.78c.42,2.38.64,4.79.86,7.2.07.76.12,1.52.17,2.28a35.78,35.78,0,0,0-2.22-7.73c-.73-1.7-2.32-4.62-3.72-5.39-.06,0-.15.09-.1.15,1.55,1.94,1.61,7.25,1.91,9.79.2,1.63.35,3.26.49,4.9,0,.1-.07.2-.1.3-.52-1.44-1.13-2.81-1.7-4.22q.2-3.21.54-6.35c0-.16-.15-.1-.17,0-.36,1.52-.73,3-1.09,4.53-.06,0-.13.1-.11.18l0,.14c-.87,3.58-1.73,7.14-2.4,10.8q0-6.56,0-13.08c0-.1-.11,0-.12,0-.39,3.18-1.62,6-2.12,9.15-.12.8-.23,1.61-.34,2.42-.06-7.11,0-14.24.54-21.28,0-.15-.16-.1-.18,0-1.26,6.43-2.31,12.63-2.94,19.12-.61-5.09-1.61-10.1-2.58-15.22,0-.16-.19,0-.18.1a176.67,176.67,0,0,1,0,22.19c-.14-1.6-.28-3.2-.39-4.8.17-3.63-.18-7.4-.36-11,0-.06,0-.06-.06,0,0-.56,0-1.11,0-1.66,0-.18-.17-.11-.2,0-.5,1.83-1.09,3.55-1.63,5.31a105.32,105.32,0,0,1,.49-16.06c0-.21-.21-.13-.24,0a144.66,144.66,0,0,0-3.11,19.59c-.48-4-.94-7.92-1.1-11.86,0-.22-.26-.06-.27.09-.06,1.9-.14,3.78-.24,5.67a59.61,59.61,0,0,0-2.76-14.57c0-.12-.17,0-.16.11a59.29,59.29,0,0,1-.09,10.22c-.81,1.1-1.57,2.19-2.28,3.31a73,73,0,0,0-4.21-13.8c0-.12-.18,0-.15.13A86.27,86.27,0,0,1,88,417.23c-.3.53-.58,1.06-.85,1.6-.38-.59-.81-1.21-1.27-1.81.09-3.15.23-6.3.45-9.43,0-.2-.17-.08-.2,0-.5,2.65-1.12,5.2-1.72,7.73a9.23,9.23,0,0,0-1.11-.95,41.49,41.49,0,0,0-2.48-10.18c0-.11-.18,0-.16.11.61,3.28-.09,7.12-.33,10.41,0,.12,0,.24,0,.36a61.5,61.5,0,0,0-2.06-8c0-.15-.23,0-.21.14a55.34,55.34,0,0,1,.5,11.7,37.29,37.29,0,0,0-2.43-9c-.73-1.69-2.29-4.56-3.68-5.37.11-1.33.23-2.66.38-4,0-.16-.15-.1-.18,0C71.37,406,70,411,69,416.33c0-4.36,0-8.73,0-13.08,0-.1-.11,0-.12,0-.39,3.18-1.62,6-2.12,9.15-.13.81-.24,1.62-.34,2.43-.07-7.12,0-14.25.54-21.28,0-.16-.16-.11-.18,0-1.26,6.44-2.32,12.64-2.94,19.12-.61-5.09-1.61-10.1-2.59-15.22,0-.16-.19,0-.18.1a174.79,174.79,0,0,1,0,22.19c-.1-1.08-.19-2.17-.28-3.25l0-1c.08-2.44.37-6.53-.53-8.74,0-.06-.08,0-.1,0l-.06.11s0,.07,0,.05c-.47.39-.94,4.85-1.13,5.71-.15.71-.29,1.42-.42,2.14-.12-7.73-.66-15.76.31-23.19,0-.21-.2-.13-.24,0a144.53,144.53,0,0,0-3.1,19.6c-.48-4-.94-7.93-1.1-11.87,0-.21-.26-.06-.27.09-.06,1.9-.15,3.79-.24,5.67a59.7,59.7,0,0,0-2.76-14.57c0-.12-.17,0-.16.11.51,4.23-.14,9.12-.24,13.36-.09,3.89-.21,7.78-.42,11.65-1-9-2.48-17.09-5.92-25.28-.05-.12-.19,0-.15.14a93.09,93.09,0,0,1,3.58,19.74c-.14-.32-.28-.65-.43-1-1.05-2.18-3.88-6-5.88-6.5,0,0,0,0,0-.06l-.14-.22c-.08-.11-.23.09-.16.21,3.62,6,4.6,13.58,5.42,20.85.26,2.36.33,4.92.43,7.5l156.55,10q.11-3.46.45-6.89A72.3,72.3,0,0,1,209,414.37C209,414.19,208.89,414.08,208.79,414.21Zm-136.11.89c-.18-.44-.35-.88-.5-1.34-.05-.12-.18,0-.16.14.15.67.29,1.34.41,2-.23.73-.46,1.46-.67,2.19.13-4.38.27-8.81.61-13.15.95,1.36,1.3,4.05,1.51,6.44C73.46,412.63,73.06,413.87,72.68,415.1Zm1.22,3c.06-1.37.1-2.74.2-4.1,0,.21,0,.41.06.59.22,1.88.4,3.77.55,5.65C74.47,419.48,74.18,418.77,73.9,418.07Zm17.38-3c-.09,3.89-.21,7.77-.41,11.65-.31-2.93-.69-5.76-1.17-8.53.5-1.74,1.06-3.42,1.66-5C91.33,413.79,91.3,414.42,91.28,415Zm21.59,12.06c-.17-.37-.34-.74-.53-1.11.07-1.92.14-3.84.24-5.76.29,2,.47,3.93.59,5.9Zm36.92-11.71c-.18-.44-.35-.88-.5-1.33,0-.13-.18,0-.16.13.16.67.29,1.34.41,2-.22.73-.46,1.46-.67,2.19.13-4.37.28-8.8.61-13.15,1,1.36,1.3,4.05,1.51,6.44C150.57,412.93,150.17,414.17,149.79,415.39Zm1.22,3c.06-1.36.1-2.73.2-4.09,0,.2,0,.4.06.58.23,1.88.4,3.77.55,5.66C151.58,419.78,151.3,419.07,151,418.36Zm17.39-3c-.09,3.89-.22,7.78-.42,11.65-.31-2.92-.69-5.76-1.17-8.53.5-1.74,1.06-3.42,1.66-5C168.44,414.08,168.41,414.72,168.4,415.33ZM190,427.39c-.17-.37-.34-.74-.53-1.11.07-1.92.14-3.84.24-5.76.29,2,.47,3.93.59,5.9Z" transform="translate(-36.34 -30.49)"/><path class="cls-11" d="M150.48,429.1c0-.05,0-.09,0-.14s0,.12,0,.18Z" transform="translate(-36.34 -30.49)"/><path class="cls-11" d="M149.87,435h-.07c0-.08,0-.15,0-.22A1.6,1.6,0,0,1,149.87,435Z" transform="translate(-36.34 -30.49)"/><path class="cls-12" d="M208.79,424a27,27,0,0,0-6.09,6.64c.07-3.08.23-6.15.56-9.19,0-.13-.17-.06-.19,0-.73,2.42-1.68,4.69-2.49,7a20.38,20.38,0,0,0-2.83-9.3c0-.07-.18,0-.16.07.62,2.11-.09,4.56-.33,6.66,0,.08,0,.15,0,.23a29.69,29.69,0,0,0-2.06-5.16c-.05-.09-.23,0-.21.09a23,23,0,0,1,.5,7.51,18.2,18.2,0,0,0-2.43-5.8c-.73-1.11-2.32-3-3.72-3.54-.06,0-.15.05-.1.09,1.55,1.28,1.61,4.68,1.91,6.32.2,1.05.35,2.1.49,3.15a1.74,1.74,0,0,0-.1.19c-.52-.93-1.13-1.83-1.7-2.75.13-1.36.31-2.72.54-4.05,0-.11-.15-.07-.17,0-.36,1-.73,1.92-1.09,2.87-.06,0-.13.07-.11.12l0,.09c-.87,2.27-1.73,4.53-2.4,6.87q0-4.2,0-8.39c0-.06-.11,0-.12,0-.39,2-1.62,3.81-2.12,5.82-.12.51-.23,1-.34,1.55a98.15,98.15,0,0,1,.54-13.63c0-.1-.16-.07-.18,0a84,84,0,0,0-2.94,12.18c-.61-3.27-1.61-6.5-2.58-9.81,0-.1-.19,0-.18.06a64.68,64.68,0,0,1,.11,12.05h-.43c-.16-1.28-.3-2.56-.37-3.84,0-.17-.3-.05-.31.06A25.94,25.94,0,0,1,177,432l-.78.05c0-5.33-.75-10.94.3-16.07,0-.14-.21-.09-.24,0a62.37,62.37,0,0,0-3.11,12.49,63,63,0,0,1-1.1-7.64c0-.13-.26,0-.27.06-.06,1.21-.14,2.42-.24,3.62a27,27,0,0,0-2.76-9.4c0-.07-.17,0-.16.07a24.41,24.41,0,0,1-.09,6.55q-1.22,1-2.28,2.07a36.55,36.55,0,0,0-4.21-8.94c-.05-.08-.18,0-.15.08a39.3,39.3,0,0,1,3.17,10.13c-.3.33-.58.66-.85,1a16.41,16.41,0,0,0-1.27-1.19c.09-2,.23-4,.45-6,0-.13-.17-.06-.2,0-.5,1.69-1.12,3.31-1.72,4.92a8.51,8.51,0,0,0-1.11-.64,19.71,19.71,0,0,0-2.48-6.58c0-.07-.18,0-.16.07.61,2.11-.09,4.56-.33,6.66,0,.08,0,.16,0,.23a29.26,29.26,0,0,0-2.06-5.15c0-.1-.23,0-.21.08a23,23,0,0,1,.5,7.51,18.2,18.2,0,0,0-2.43-5.8,10.28,10.28,0,0,0-3.68-3.52c.11-.85.23-1.7.38-2.54,0-.1-.15-.07-.18,0-1.22,3.35-2.6,6.57-3.56,9.95q0-4.2,0-8.39c0-.06-.11,0-.12,0-.39,2-1.62,3.8-2.12,5.81-.13.52-.24,1-.34,1.55a96.69,96.69,0,0,1,.54-13.63c0-.1-.16-.07-.18,0A83.77,83.77,0,0,0,141,421.64a101,101,0,0,0-2.58-9.82c0-.1-.2,0-.19.06a71.88,71.88,0,0,1,0,14.22c-.28-2-.54-4-.65-6,0-.16-.31-.05-.32.07a55,55,0,0,1-1.18,6.09c-.13.68-.23,1.36-.31,2.05,0-.92,0-1.83,0-2.75.11-5.76-.86-12,.3-17.58,0-.14-.21-.09-.25,0a61.67,61.67,0,0,0-3.1,12.49,63.17,63.17,0,0,1-1.1-7.63c0-.14-.26,0-.27.05-.06,1.22-.15,2.42-.24,3.63a26.9,26.9,0,0,0-2.76-9.4c0-.08-.17,0-.16.07.51,2.71-.14,5.84-.24,8.55-.09,2.49-.21,5-.42,7.46a40.76,40.76,0,0,0-5.92-16.34c0-.08-.19,0-.15.08A41.79,41.79,0,0,1,125,419.68c-.14-.21-.28-.42-.43-.62a15,15,0,0,0-4.15-3.62,11.36,11.36,0,0,0-2.85-1.95c-.09,0-.22.07-.17.15a18.25,18.25,0,0,1,2.44,6.31c-.92-1.68-2.45-3.53-4.23-4-.06,0-.17,0-.13.11l0,.05s.08,0,.1,0a5.59,5.59,0,0,1,.71,1.19,14.8,14.8,0,0,1,.8,2.44,37.44,37.44,0,0,1,.86,4.64c.07.49.12,1,.17,1.46a17.77,17.77,0,0,0-2.22-5c-.74-1.11-2.32-3-3.72-3.54-.06,0-.15.05-.1.09,1.55,1.28,1.61,4.68,1.91,6.32.19,1.05.35,2.1.49,3.15l-.1.19c-.52-.93-1.13-1.83-1.7-2.74.13-1.37.31-2.73.54-4.06,0-.1-.15-.07-.17,0-.36,1-.73,1.92-1.09,2.87-.06,0-.13.07-.11.12l0,.09c-.87,2.27-1.74,4.53-2.4,6.87,0-2.8,0-5.6,0-8.39,0-.06-.11,0-.12,0-.39,2-1.62,3.81-2.12,5.82-.13.51-.23,1-.34,1.55a98.21,98.21,0,0,1,.54-13.63c0-.1-.16-.07-.18,0a83.77,83.77,0,0,0-2.94,12.19,101,101,0,0,0-2.58-9.82c0-.1-.2,0-.19.06a71.88,71.88,0,0,1,0,14.22c-.14-1-.28-2.05-.39-3.08a47,47,0,0,0-.36-7s0,0-.06,0c0-.35,0-.71,0-1.06,0-.11-.16-.07-.19,0-.5,1.16-1.09,2.25-1.63,3.36A43.28,43.28,0,0,1,99.4,414c0-.14-.21-.09-.24,0a61,61,0,0,0-3.11,12.49A63.17,63.17,0,0,1,95,418.9c0-.14-.26,0-.27.05-.06,1.22-.15,2.42-.24,3.63a26.9,26.9,0,0,0-2.76-9.4c0-.08-.17,0-.16.06a24.41,24.41,0,0,1-.09,6.55c-.81.69-1.57,1.37-2.28,2.07a36.72,36.72,0,0,0-4.21-8.94c0-.08-.18,0-.15.08A39.3,39.3,0,0,1,88,423.13c-.3.33-.58.67-.85,1-.38-.39-.81-.8-1.27-1.19.09-2,.23-4,.45-6,0-.12-.17-.05-.2,0-.5,1.69-1.12,3.31-1.72,4.92a9.84,9.84,0,0,0-1.11-.64,19.71,19.71,0,0,0-2.48-6.58c0-.07-.18,0-.16.07.61,2.11-.09,4.56-.33,6.66a2,2,0,0,0,0,.23,29.26,29.26,0,0,0-2.06-5.15c0-.1-.23,0-.21.08a23,23,0,0,1,.5,7.51,18.2,18.2,0,0,0-2.43-5.8,10.28,10.28,0,0,0-3.68-3.52c.11-.85.23-1.7.38-2.54,0-.1-.15-.07-.18,0-1.22,3.35-2.6,6.57-3.56,9.95q0-4.2,0-8.39c0-.06-.1,0-.11,0-.39,2-1.62,3.8-2.12,5.81-.13.52-.24,1-.34,1.55A96.75,96.75,0,0,1,67,407.49c0-.1-.16-.07-.18,0a83.11,83.11,0,0,0-2.94,12.19,98.25,98.25,0,0,0-2.59-9.82c0-.1-.19,0-.18.06a72,72,0,0,1,0,14.23c-.1-.7-.19-1.4-.28-2.09l0-.68c.08-1.56.36-4.17-.53-5.61,0,0-.08,0-.1,0l-.06.07s0,0,0,0c-.47.24-.94,3.09-1.13,3.64s-.29.9-.42,1.36c-.12-5-.66-10.12.31-14.86,0-.13-.2-.09-.24,0a61.67,61.67,0,0,0-3.1,12.49,63.17,63.17,0,0,1-1.1-7.63c0-.14-.26,0-.27.05-.06,1.22-.15,2.43-.24,3.63a27,27,0,0,0-2.76-9.4c0-.08-.17,0-.16.07.51,2.71-.14,5.84-.24,8.55-.09,2.49-.21,5-.42,7.46a40.82,40.82,0,0,0-5.92-16.34c-.05-.08-.19,0-.15.08a41.79,41.79,0,0,1,3.58,12.74c-.14-.21-.28-.42-.43-.62-1.05-1.42-3.88-4-5.88-4.3,0,0,0,0,0,0l-.14-.15c-.08-.07-.23.06-.16.13,3.62,4,4.6,8.82,5.42,13.49a45.69,45.69,0,0,1,.43,4.82l156.55,10a40.66,40.66,0,0,1,.45-4.41A32.81,32.81,0,0,1,209,424.07C209,424,208.89,423.88,208.79,424ZM72.68,421.41c-.18-.28-.35-.57-.5-.86-.05-.09-.18,0-.16.08.15.43.29.86.41,1.3-.23.46-.46.92-.67,1.38.13-2.8.27-5.63.61-8.41.95.89,1.3,2.63,1.51,4.16C73.46,419.85,73.06,420.64,72.68,421.41Zm1.22,1.94c.06-.88.1-1.76.2-2.63,0,.14,0,.26.06.38.22,1.21.4,2.42.55,3.64C74.47,424.26,74.18,423.8,73.9,423.35Zm17.38-1.55c-.09,2.49-.21,5-.41,7.46-.31-1.88-.69-3.71-1.17-5.5a30.69,30.69,0,0,1,1.66-3.17C91.33,421,91.3,421.41,91.28,421.8ZM112.87,430c-.17-.24-.34-.48-.53-.73.07-1.23.14-2.46.24-3.68a29.23,29.23,0,0,1,.59,3.79Zm36.92-6.66a9.34,9.34,0,0,1-.5-.87c0-.08-.18,0-.16.09.16.43.29.86.41,1.29-.23.47-.46.93-.67,1.39.13-2.8.27-5.63.61-8.41,1,.89,1.3,2.62,1.51,4.16C150.57,421.81,150.17,422.6,149.79,423.37ZM151,425.3c.06-.87.1-1.75.2-2.62,0,.14,0,.26.06.38.23,1.21.4,2.42.55,3.64C151.58,426.22,151.3,425.76,151,425.3Zm17.39-1.54c-.1,2.49-.22,5-.42,7.46-.31-1.88-.69-3.71-1.17-5.5a31.64,31.64,0,0,1,1.66-3.17C168.44,423,168.41,423.36,168.4,423.76ZM190,432c-.17-.24-.34-.49-.53-.73.07-1.23.14-2.46.24-3.68a29,29,0,0,1,.59,3.79Z" transform="translate(-36.34 -30.49)"/><path class="cls-13" d="M149,437.57l54.5,3.48c0-.15,0-.31.07-.46.82-4,1.8-8.13,5.42-11.16.07-.05-.08-.18-.16-.13l-.15.11s0,0,0,0c-2,.05-4.83,1.94-5.88,3.05-.15.16-.29.33-.43.5A29.75,29.75,0,0,1,206,422.29c0-.06-.1-.16-.15-.1a29.22,29.22,0,0,0-5.93,13.59c-.2-2.19-.32-4.39-.41-6.57-.1-2.39-.75-5.2-.24-7.52,0-.05-.12-.14-.16-.08a19.25,19.25,0,0,0-2.76,7.89c-.09-1.06-.18-2.13-.24-3.2,0-.08-.26-.19-.27-.08a45.93,45.93,0,0,1-1.1,6.55,53.2,53.2,0,0,0-3.1-11.3c0-.08-.27-.15-.24,0,1,4.27.43,8.71.31,13-.13-.42-.27-.83-.42-1.25s-.66-3.05-1.13-3.31c0,0,.06,0,0,0l-.06-.06s-.07-.05-.1,0c-.9,1.15-.61,3.47-.53,4.85l0,.59c-.09.59-.18,1.19-.28,1.79a55.15,55.15,0,0,1,0-12.45c0-.06-.15-.15-.18-.07a70.51,70.51,0,0,0-2.59,8.28,71.41,71.41,0,0,0-2.94-11c0-.06-.19-.11-.18,0a75.28,75.28,0,0,1,.54,12c-.1-.46-.21-.93-.34-1.39-.5-1.82-1.73-3.53-2.12-5.35,0,0-.12-.09-.12,0q0,3.66,0,7.33c-1-3.07-2.34-6.05-3.56-9.13,0-.06-.2-.11-.18,0,.15.75.27,1.51.38,2.27a8.21,8.21,0,0,0-3.68,2.64,12.76,12.76,0,0,0-2.43,4.78,17.21,17.21,0,0,1,.5-6.51c0-.06-.16-.18-.21-.1A21,21,0,0,0,170,432.5c0-.06,0-.13,0-.2-.24-1.87-.95-4.09-.33-5.87,0-.05-.11-.13-.16-.08a14.05,14.05,0,0,0-2.48,5.46,9,9,0,0,0-1.11.43c-.6-1.49-1.22-3-1.72-4.51,0-.07-.22-.16-.2,0,.22,1.78.36,3.55.45,5.33-.46.29-.9.6-1.27.89-.27-.33-.55-.66-.85-1a27.86,27.86,0,0,1,3.17-8.48c0-.06-.1-.16-.15-.1a26.26,26.26,0,0,0-4.21,7.33c-.71-.7-1.47-1.39-2.28-2.09a18.81,18.81,0,0,1-.09-5.74c0-.05-.12-.14-.16-.08a19.25,19.25,0,0,0-2.76,7.9c-.1-1.07-.18-2.13-.24-3.21,0-.08-.26-.19-.27-.08a45.93,45.93,0,0,1-1.1,6.55,53.84,53.84,0,0,0-3.11-11.3c0-.08-.27-.15-.24,0a33.92,33.92,0,0,1,.49,9.06c-.54-1-1.13-2.07-1.63-3.14,0-.07-.2-.12-.2,0,0,.31,0,.62,0,.93,0,0-.06,0-.06,0a34.25,34.25,0,0,0-.36,6.1C149.09,436.89,149,437.23,149,437.57Zm28.92-10c.34,2.48.48,5,.61,7.44-.21-.43-.45-.86-.67-1.29a11,11,0,0,1,.41-1.09c0-.06-.11-.16-.16-.09a8.17,8.17,0,0,1-.5.7c-.38-.73-.78-1.46-1.2-2.21C176.6,429.74,177,428.26,177.9,427.59Zm-1.79,5.22q0-.15.06-.33c.1.78.14,1.55.2,2.32a13.74,13.74,0,0,0-.81,1.12C175.71,434.88,175.88,433.84,176.11,432.81Zm-15.54.46a40.87,40.87,0,0,0-1.17,4.67c-.2-2.19-.33-4.39-.42-6.57,0-.35,0-.71-.07-1.07A31.8,31.8,0,0,1,160.57,433.27Z" transform="translate(-36.34 -30.49)"/><path class="cls-13" d="M46.14,431l102.46,6.55a50.49,50.49,0,0,1,.1-10.79c0-.06-.15-.15-.18-.07a74.5,74.5,0,0,0-2.59,8.28,71.36,71.36,0,0,0-2.93-11c0-.06-.19-.11-.18,0a76.52,76.52,0,0,1,.54,12c-.11-.46-.22-.93-.34-1.39-.5-1.82-1.73-3.52-2.12-5.35,0,0-.12-.09-.12,0q0,3.66,0,7.33c-.67-2.12-1.53-4.2-2.4-6.3l0-.07s0-.11-.11-.11c-.36-.88-.73-1.76-1.09-2.65,0-.06-.19-.11-.17,0,.23,1.2.41,2.4.54,3.62-.57.73-1.18,1.44-1.7,2.2a1.62,1.62,0,0,0-.1-.18c.14-.91.29-1.81.49-2.7.3-1.4.36-4.37,1.91-5.3.05,0,0-.11-.1-.09a8.08,8.08,0,0,0-3.72,2.65,12.48,12.48,0,0,0-2.22,4.11c0-.42.1-.84.17-1.27a28.37,28.37,0,0,1,.85-3.95,11.11,11.11,0,0,1,.81-2,4,4,0,0,1,.71-.95s.07.05.1,0l0,0c0-.05-.07-.12-.13-.11a6.61,6.61,0,0,0-4.23,3,13,13,0,0,1,2.44-5.22c0-.07-.08-.18-.17-.16a10.34,10.34,0,0,0-2.85,1.36A12.5,12.5,0,0,0,125.7,425c-.15.16-.29.33-.43.5a29.86,29.86,0,0,1,3.58-10.72c0-.05-.1-.15-.15-.09a29.22,29.22,0,0,0-5.93,13.59c-.2-2.19-.32-4.39-.41-6.58-.1-2.38-.75-5.2-.24-7.51,0-.05-.12-.14-.16-.08A19.25,19.25,0,0,0,119.2,422c-.09-1.06-.18-2.13-.24-3.2,0-.08-.26-.2-.27-.08a46.17,46.17,0,0,1-1.1,6.55,53,53,0,0,0-3.1-11.3c0-.08-.27-.15-.24,0,1.15,5,.18,10.36.29,15.42q0,1.2,0,2.4c-.08-.61-.18-1.22-.31-1.82a46.62,46.62,0,0,1-1.18-5.48c0-.1-.31-.24-.32-.09-.11,1.73-.37,3.45-.65,5.17a55.15,55.15,0,0,1,0-12.45c0-.06-.16-.16-.19-.07a71.16,71.16,0,0,0-2.58,8.28,72.25,72.25,0,0,0-2.94-11c0-.06-.19-.11-.18,0a75.28,75.28,0,0,1,.54,12c-.11-.47-.21-.93-.34-1.4-.5-1.81-1.73-3.52-2.12-5.34,0,0-.12-.09-.12,0,0,2.43,0,4.88,0,7.33-1-3.07-2.34-6-3.56-9.13,0-.06-.2-.11-.18,0,.15.75.27,1.51.38,2.27a8.16,8.16,0,0,0-3.68,2.64,12.69,12.69,0,0,0-2.43,4.78,17.21,17.21,0,0,1,.5-6.51c0-.07-.16-.18-.21-.1A21,21,0,0,0,92.89,425c0-.06,0-.13,0-.2-.24-1.87-1-4.1-.33-5.87,0,0-.12-.14-.16-.08a13.85,13.85,0,0,0-2.48,5.46,10.87,10.87,0,0,0-1.11.42c-.6-1.48-1.22-3-1.72-4.5,0-.07-.22-.16-.2-.05.22,1.78.36,3.56.45,5.34a14,14,0,0,0-1.27.89c-.27-.33-.55-.66-.85-1a28.06,28.06,0,0,1,3.17-8.48c0-.05-.1-.15-.15-.09A26.21,26.21,0,0,0,84,424.14c-.71-.69-1.47-1.39-2.28-2.08a18.81,18.81,0,0,1-.09-5.74c0-.05-.12-.14-.16-.08a19.11,19.11,0,0,0-2.76,7.89c-.1-1.06-.19-2.13-.24-3.2,0-.08-.26-.2-.27-.08a46.17,46.17,0,0,1-1.1,6.55A53.67,53.67,0,0,0,74,416.1c0-.08-.27-.15-.24,0,1,4.61.34,9.44.29,14.1l-.77-.14a21.61,21.61,0,0,1-.69-3.44c0-.1-.3-.24-.31-.09-.07,1.11-.21,2.21-.37,3.32l-.44-.07a49.35,49.35,0,0,1,.12-10.53c0-.06-.15-.16-.18-.07a73.85,73.85,0,0,0-2.59,8.28,71.36,71.36,0,0,0-2.93-11c0-.06-.19-.11-.18,0a76.47,76.47,0,0,1,.54,12c-.11-.47-.22-.93-.34-1.4-.5-1.81-1.73-3.52-2.12-5.34,0,0-.12-.09-.12,0,0,2.43,0,4.88,0,7.33-.67-2.12-1.53-4.2-2.4-6.3l0-.07s-.05-.11-.11-.11c-.37-.88-.73-1.76-1.09-2.65,0-.06-.19-.11-.17,0,.23,1.2.41,2.4.54,3.61-.57.74-1.18,1.45-1.7,2.2a1.62,1.62,0,0,0-.1-.18c.14-.9.29-1.8.49-2.69.3-1.4.36-4.37,1.91-5.3.05,0,0-.11-.1-.1A8.17,8.17,0,0,0,57.23,420a12.69,12.69,0,0,0-2.43,4.78,17,17,0,0,1,.5-6.51c0-.07-.16-.18-.21-.1A21,21,0,0,0,53,422.42c0-.06,0-.13,0-.2-.25-1.87-.95-4.09-.33-5.87,0-.05-.12-.14-.16-.08a14.6,14.6,0,0,0-2.83,7.8c-.81-2.12-1.76-4.22-2.49-6.42,0-.07-.21-.16-.2,0,.34,2.7.5,5.4.57,8.1a30.24,30.24,0,0,0-6.09-6.53c-.1-.09-.25,0-.18.06a30.28,30.28,0,0,1,4.82,11.6A.77.77,0,0,1,46.14,431Zm91.55,1.16c.1,1.09.17,2.17.24,3.25-.19.19-.36.38-.53.58l-.3-.58A21.32,21.32,0,0,1,137.69,432.15Zm-36.9-12.09c.33,2.47.48,5,.61,7.44-.21-.43-.45-.87-.67-1.3.12-.36.25-.72.41-1.08,0-.06-.11-.16-.16-.09-.15.24-.33.47-.5.7-.38-.73-.78-1.47-1.2-2.21C99.49,422.21,99.84,420.73,100.79,420.06ZM99,425.27c0-.09,0-.2.06-.32.09.77.14,1.55.2,2.32a11,11,0,0,0-.81,1.12C98.6,427.35,98.77,426.31,99,425.27Zm-15.54.47a40.87,40.87,0,0,0-1.17,4.67c-.2-2.19-.33-4.39-.42-6.58,0-.34,0-.7-.07-1.06A30.57,30.57,0,0,1,83.46,425.74Zm-22.88-1.12c.1,1.08.17,2.17.24,3.25-.19.19-.36.38-.53.57l-.3-.57A21.32,21.32,0,0,1,60.58,424.62Z" transform="translate(-36.34 -30.49)"/><path class="cls-11" d="M73.37,427.46s0-.09,0-.14,0,.13,0,.19Z" transform="translate(-36.34 -30.49)"/><path class="cls-10" d="M347.56,401.62a52.48,52.48,0,0,0-4.34,12.27c-.52-5.17-1-10.35-1.23-15.52,0-.21-.17-.06-.18.07-.2,4.19-.64,8.18-.95,12.21a53.94,53.94,0,0,0-4.37-15.07c-.06-.12-.17,0-.14.14,1,3.43.79,7.66,1,11.24,0,.13,0,.26,0,.39a74.77,74.77,0,0,0-2.87-8.27c-.07-.15-.21.06-.18.19a69,69,0,0,1,1.89,12.5,43.69,43.69,0,0,0-3.34-9.28c-.89-1.73-2.71-4.62-4.1-5.25-.06,0-.12.12-.07.18,1.67,1.86,2.37,7.55,3,10.24.38,1.72.72,3.46,1,5.2,0,.11,0,.22-.05.34-.65-1.48-1.39-2.86-2.09-4.3-.13-2.31-.23-4.62-.27-6.9,0-.18-.15-.09-.16,0-.14,1.69-.3,3.36-.45,5,0,0-.11.13-.08.21a.57.57,0,0,1,0,.14c-.37,4-.73,7.93-.9,12-.53-4.69-1.07-9.39-1.61-14.06,0-.11-.11,0-.11.06,0,3.48-.76,6.69-.84,10.15,0,.89,0,1.77,0,2.66-.93-7.64-1.76-15.31-2.1-23,0-.17-.15-.09-.16,0-.38,7.1-.6,13.93-.38,21-1.19-5.38-2.73-10.62-4.25-16-.05-.16-.18,0-.16.13a196.37,196.37,0,0,1,2.4,20.2l-.39.1c-.39-2.12-.76-4.24-1.07-6.38,0-.27-.29,0-.28.17.15,2.21.13,4.39.1,6.57l-.71.22c-1.05-8.92-2.78-18.22-2.78-27,0-.24-.21-.12-.23,0a184.24,184.24,0,0,0-.48,21.53c-.93-4.19-1.83-8.38-2.46-12.6,0-.23-.25,0-.24.14.18,2.05.33,4.09.47,6.13a71.64,71.64,0,0,0-4.33-15.25c-.05-.13-.15,0-.13.14a74.57,74.57,0,0,1,1.16,11c-.61,1.3-1.19,2.59-1.7,3.9a85.78,85.78,0,0,0-5.58-14.22c-.06-.12-.17.06-.12.17a103,103,0,0,1,4.84,16.39c-.21.62-.41,1.23-.59,1.86-.42-.58-.89-1.19-1.39-1.76-.3-3.41-.56-6.81-.73-10.21,0-.22-.18-.06-.18.07-.15,2.93-.41,5.75-.65,8.57a8.17,8.17,0,0,0-1.15-.86,49.09,49.09,0,0,0-3.53-10.58c-.06-.11-.16,0-.14.15,1,3.42.79,7.66,1,11.24,0,.13,0,.25,0,.38a73.25,73.25,0,0,0-2.87-8.26c-.07-.16-.21.06-.18.18A68.32,68.32,0,0,1,299,414.93a43.49,43.49,0,0,0-3.34-9.28c-.88-1.71-2.67-4.56-4.05-5.22-.07-1.45-.11-2.9-.14-4.33,0-.18-.15-.09-.16,0-.49,5.84-1.14,11.51-1.39,17.35-.53-4.69-1.07-9.39-1.61-14.06,0-.11-.11,0-.11.06,0,3.48-.76,6.69-.84,10.15,0,.89,0,1.77,0,2.66-.93-7.64-1.76-15.31-2.1-23,0-.17-.15-.09-.16,0-.38,7.11-.6,13.93-.38,21-1.19-5.37-2.73-10.61-4.25-16-.05-.16-.18,0-.16.13A220.87,220.87,0,0,1,283,418.37c-.64-3.3-1.26-6.61-1.74-9.95,0-.27-.29,0-.28.17.24,3.52,0,7,.07,10.44,0,1.16,0,2.33.1,3.49-.17-1.53-.33-3.07-.49-4.61-1-9.68-3.06-19.91-3.07-29.54,0-.24-.21-.12-.23,0a184.24,184.24,0,0,0-.48,21.53c-.93-4.19-1.83-8.38-2.46-12.6,0-.23-.25,0-.24.15.18,2,.33,4.08.47,6.12a71.81,71.81,0,0,0-4.33-15.25c-.05-.12-.15,0-.13.14,1,4.46,1,9.83,1.41,14.4.39,4.19.75,8.39,1,12.59-2-9.52-4.38-18-8.56-26.31-.06-.12-.17.06-.12.17A112.87,112.87,0,0,1,269.66,410l-.51-1a19.93,19.93,0,0,0-4.51-5.3,12.07,12.07,0,0,0-3-2.73c-.09-.06-.2.17-.14.28A45.72,45.72,0,0,1,265,411.46c-1.16-2.64-2.92-5.47-4.66-6-.06,0-.15.11-.1.2l0,.08c0,.05.08,0,.09-.05a12.23,12.23,0,0,1,.88,1.86,37.55,37.55,0,0,1,1.2,3.95c.68,2.5,1.18,5.05,1.67,7.61.16.82.3,1.63.44,2.43a41.33,41.33,0,0,0-3-8c-.88-1.72-2.71-4.62-4.1-5.24-.05,0-.12.11-.06.18,1.66,1.85,2.36,7.54,2.95,10.23.38,1.72.72,3.46,1.05,5.2l-.06.34c-.65-1.47-1.38-2.86-2.08-4.29-.14-2.32-.24-4.63-.27-6.91,0-.17-.16-.08-.17,0-.14,1.69-.29,3.36-.45,5-.05,0-.1.13-.08.21s0,.1.05.14c-.37,4-.73,7.94-.9,12q-.79-7.05-1.62-14.07c0-.1-.1,0-.1.06,0,3.48-.77,6.69-.84,10.16,0,.88,0,1.77,0,2.65-.92-7.64-1.76-15.31-2.09-23,0-.17-.16-.09-.17,0-.38,7.11-.6,13.93-.38,21-1.19-5.38-2.72-10.62-4.25-16,0-.17-.18,0-.15.13a220.68,220.68,0,0,1,2.67,23.86c-.32-1.69-.65-3.39-.95-5.09-.28-3.93-1.06-7.94-1.66-11.73,0-.06,0-.06-.07,0-.06-.59-.13-1.18-.18-1.78,0-.19-.16-.09-.18,0-.24,2-.57,4-.86,5.95A132.75,132.75,0,0,1,245,405.36c0-.23-.21-.11-.22,0a184.29,184.29,0,0,0-.48,21.53c-.93-4.19-1.84-8.38-2.47-12.59,0-.23-.25,0-.23.14q.26,3.07.46,6.12a71.8,71.8,0,0,0-4.32-15.25c-.06-.12-.16,0-.14.14a73.23,73.23,0,0,1,1.16,11c-.61,1.29-1.18,2.59-1.7,3.9a85.84,85.84,0,0,0-5.57-14.23c-.06-.12-.17.06-.13.17a103.16,103.16,0,0,1,4.84,16.4c-.2.61-.4,1.23-.59,1.85-.41-.58-.89-1.18-1.39-1.76-.3-3.4-.55-6.81-.73-10.21,0-.21-.17-.06-.18.07-.14,2.93-.4,5.76-.65,8.57a9,9,0,0,0-1.14-.86A49.39,49.39,0,0,0,228,409.83c0-.12-.16,0-.13.14,1,3.43.79,7.67,1,11.24l0,.39a72.7,72.7,0,0,0-2.88-8.27c-.06-.15-.21.06-.17.19A68.08,68.08,0,0,1,227.7,426a43.69,43.69,0,0,0-3.34-9.28c-.87-1.71-2.66-4.55-4.05-5.22-.06-1.45-.11-2.89-.13-4.33,0-.17-.16-.08-.17,0-.49,5.85-1.14,11.51-1.38,17.36q-.8-7.05-1.62-14.07c0-.1-.1,0-.1.07,0,3.47-.77,6.68-.84,10.15,0,.88,0,1.77,0,2.66-.93-7.65-1.77-15.32-2.1-23,0-.17-.16-.08-.17,0-.38,7.1-.59,13.92-.38,21-1.19-5.38-2.72-10.62-4.25-16,0-.17-.18,0-.15.13a220.68,220.68,0,0,1,2.67,23.86c-.22-1.15-.44-2.3-.65-3.45,0-.38-.07-.76-.1-1.13-.23-2.64-.46-7.08-1.56-9.32,0-.06-.08,0-.09,0l0,.12s0,.08,0,0c-.39.48-.27,5.36-.34,6.31-.06.78-.1,1.57-.13,2.36-1.06-8.29-2.53-16.85-2.54-25,0-.23-.21-.11-.22.05a184.07,184.07,0,0,0-.48,21.52c-.93-4.18-1.84-8.38-2.47-12.59,0-.23-.25,0-.23.14q.25,3.07.46,6.13A71.73,71.73,0,0,0,199,399.45c-.06-.12-.16.05-.14.15,1,4.46,1,9.82,1.41,14.39.39,4.2.75,8.4,1,12.59-2-9.52-4.39-18-8.56-26.31-.06-.12-.17.06-.13.17a113,113,0,0,1,5.72,20.7c-.16-.33-.33-.65-.51-1-1.23-2.19-4.33-5.93-6.23-6.11,0,0,0-.05,0-.07l-.17-.22c-.08-.11-.19.13-.12.25,4.09,6,5.91,13.92,7.55,21.62.54,2.5.92,5.24,1.32,8l145.93-12.4q-.31-3.74-.42-7.46a90.8,90.8,0,0,1,2-22C347.79,401.55,347.64,401.45,347.56,401.62ZM221.85,422.71c-.21-.44-.43-.89-.63-1.36-.05-.13-.16.06-.12.17.22.69.42,1.4.62,2.1-.12.82-.25,1.63-.35,2.45-.41-4.72-.82-9.51-1-14.23,1,1.33,1.69,4.17,2.18,6.7C222.28,419.94,222.06,421.34,221.85,422.71Zm1.49,3c-.11-1.48-.23-3-.31-4.44,0,.22.08.43.13.62.43,2,.82,4,1.2,6C224,427.16,223.69,426.44,223.34,425.73Zm15.7-5.84c.39,4.2.75,8.4,1,12.59-.65-3.1-1.34-6.09-2.12-9q.38-2.93.92-5.63C238.93,418.54,239,419.23,239,419.89Zm21.43,9.78c-.21-.38-.41-.75-.63-1.12-.17-2.07-.34-4.15-.48-6.23.51,2.07.91,4.16,1.26,6.26Zm32.7-18.05c-.22-.45-.43-.9-.63-1.36-.06-.14-.16.06-.13.16.23.7.43,1.4.63,2.1-.12.82-.25,1.64-.36,2.46-.41-4.73-.82-9.51-1-14.24,1,1.33,1.7,4.17,2.18,6.71C293.59,408.85,293.37,410.24,293.17,411.62Zm1.48,3c-.11-1.48-.23-3-.31-4.43.05.22.09.43.13.62.44,2,.83,4,1.2,6C295.35,416.06,295,415.34,294.65,414.63Zm15.71-5.83c.39,4.19.75,8.39,1,12.59-.64-3.1-1.33-6.09-2.11-9,.24-1.94.55-3.83.92-5.63C310.25,407.45,310.3,408.13,310.36,408.8Zm21.42,9.77c-.2-.37-.4-.74-.62-1.11-.17-2.08-.34-4.16-.48-6.23.5,2.06.91,4.15,1.26,6.26C331.88,417.85,331.84,418.21,331.78,418.57Z" transform="translate(-36.34 -30.49)"/><path class="cls-11" d="M295.48,426.25v-.15l0,.2Z" transform="translate(-36.34 -30.49)"/><path class="cls-11" d="M295.64,432.73l-.07,0v-.24C295.59,432.58,295.62,432.65,295.64,432.73Z" transform="translate(-36.34 -30.49)"/><path class="cls-12" d="M348.75,412.11a30.23,30.23,0,0,0-4.82,8c-.31-3.32-.54-6.64-.6-10,0-.13-.17,0-.18.05-.37,2.71-1,5.29-1.44,7.9a23.86,23.86,0,0,0-3.75-9.58c0-.07-.17,0-.14.1.83,2.18.48,4.91.51,7.21v.25a32.71,32.71,0,0,0-2.53-5.24c-.06-.1-.21,0-.18.12a28.73,28.73,0,0,1,1.38,8,20.4,20.4,0,0,0-3-5.87c-.81-1.09-2.51-2.9-3.87-3.26-.06,0-.13.07-.07.11,1.58,1.15,2,4.8,2.53,6.51.31,1.1.57,2.21.83,3.32a1.87,1.87,0,0,1-.07.22c-.59-.93-1.26-1.8-1.9-2.7,0-1.49-.05-3,0-4.45,0-.11-.15-.05-.17,0-.21,1.09-.43,2.17-.65,3.25-.05,0-.11.09-.09.14a.36.36,0,0,1,0,.09c-.53,2.58-1.05,5.14-1.38,7.75q-.51-4.51-1-9c0-.07-.11,0-.11,0-.11,2.24-1,4.34-1.25,6.57-.05.57-.09,1.14-.12,1.72a123.69,123.69,0,0,1-1.17-14.74c0-.11-.15-.05-.16,0a103.85,103.85,0,0,0-1.23,13.54c-1-3.43-2.29-6.76-3.59-10.17,0-.11-.18,0-.16.09A81,81,0,0,1,322,425.13l-.4.08c-.31-1.36-.59-2.72-.81-4.08,0-.18-.29,0-.29.11a31.31,31.31,0,0,1-.16,4.23l-.71.17c-.69-5.72-2-11.66-1.69-17.33,0-.15-.2-.06-.22,0a78,78,0,0,0-1.35,13.89,76.63,76.63,0,0,1-1.95-8.05c0-.14-.25,0-.24.1.09,1.32.16,2.63.22,3.94a31.42,31.42,0,0,0-3.7-9.7c-.05-.08-.16,0-.14.09a30.21,30.21,0,0,1,.71,7.06c-.66.85-1.28,1.7-1.85,2.56a40.77,40.77,0,0,0-5-9c-.06-.08-.17,0-.13.11a45.36,45.36,0,0,1,4.16,10.42c-.23.4-.45.8-.66,1.21a15,15,0,0,0-1.32-1.09c-.16-2.19-.27-4.37-.31-6.56,0-.14-.17,0-.19.05-.26,1.89-.63,3.72-1,5.54a8.38,8.38,0,0,0-1.11-.51,22.15,22.15,0,0,0-3.09-6.71c-.05-.08-.16,0-.14.09.83,2.18.48,4.92.51,7.22a2.18,2.18,0,0,0,0,.25,34,34,0,0,0-2.53-5.24c-.06-.1-.22,0-.19.12a28.31,28.31,0,0,1,1.38,8,20.45,20.45,0,0,0-3-5.88c-.8-1.07-2.47-2.85-3.82-3.24,0-.93,0-1.86,0-2.79,0-.11-.15-.05-.17,0-.72,3.78-1.6,7.45-2.08,11.23q-.51-4.51-1-9c0-.07-.1,0-.11,0-.11,2.24-1,4.34-1.25,6.57-.05.57-.09,1.14-.12,1.72a123.69,123.69,0,0,1-1.17-14.74c0-.11-.15-.05-.16,0a103.85,103.85,0,0,0-1.23,13.54c-1-3.43-2.29-6.76-3.59-10.17,0-.11-.18,0-.16.09a90,90,0,0,1,1.7,15.3c-.5-2.12-1-4.23-1.33-6.36,0-.18-.29,0-.28.11.09,2.27-.23,4.48-.35,6.73,0,.75-.05,1.5,0,2.25-.11-1-.22-2-.31-3-.6-6.21-2.25-12.74-1.87-18.95,0-.15-.2-.06-.22,0A78,78,0,0,0,278,419.61a76.63,76.63,0,0,1-2-8.05c0-.14-.25,0-.24.1.09,1.32.16,2.63.22,3.94a31.42,31.42,0,0,0-3.7-9.7c-.05-.08-.16,0-.14.09.81,2.85.59,6.31.83,9.24.22,2.69.4,5.39.52,8.08-1.58-6.07-3.64-11.48-7.47-16.69-.05-.08-.17,0-.13.11a49.62,49.62,0,0,1,4.87,13.16c-.16-.2-.31-.41-.48-.6A14,14,0,0,0,266,416a10.12,10.12,0,0,0-2.87-1.67c-.1,0-.21.11-.15.19a20.69,20.69,0,0,1,3,6.42c-1.06-1.67-2.69-3.44-4.4-3.72-.07,0-.16.08-.11.14l0,0s.07,0,.08,0a6,6,0,0,1,.8,1.18,17.63,17.63,0,0,1,1.05,2.5,45.43,45.43,0,0,1,1.35,4.86c.13.52.24,1,.34,1.55a19.73,19.73,0,0,0-2.67-5.05c-.81-1.09-2.51-2.9-3.87-3.26,0,0-.13.08-.07.12,1.58,1.14,2.05,4.79,2.53,6.51.31,1.1.58,2.2.83,3.31a2,2,0,0,1-.07.23c-.59-.93-1.26-1.8-1.9-2.71,0-1.49-.05-3,0-4.44,0-.11-.15-.05-.17,0-.21,1.1-.43,2.18-.65,3.26-.05,0-.11.09-.08.14l0,.09c-.53,2.58-1.05,5.13-1.38,7.74-.34-3-.68-6-1-9,0-.06-.1,0-.11,0-.11,2.24-1,4.33-1.25,6.57q-.08.86-.12,1.71A123.69,123.69,0,0,1,254,418c0-.11-.15-.06-.16,0a103.85,103.85,0,0,0-1.23,13.54c-1-3.43-2.29-6.76-3.59-10.17,0-.11-.18,0-.16.09a90.14,90.14,0,0,1,1.7,15.3c-.25-1.08-.5-2.17-.74-3.26a58,58,0,0,0-1.18-7.5s0,0-.07,0c0-.38-.08-.77-.11-1.15,0-.12-.16-.05-.18,0-.32,1.32-.73,2.58-1.09,3.86a54,54,0,0,1-.81-11.13c0-.15-.2-.07-.22,0a78.07,78.07,0,0,0-1.35,13.89,76.46,76.46,0,0,1-1.95-8c0-.15-.25,0-.24.1.1,1.31.16,2.62.22,3.93a31.52,31.52,0,0,0-3.7-9.7c-.05-.08-.16,0-.14.1a30.07,30.07,0,0,1,.72,7.05c-.67.86-1.29,1.71-1.86,2.57a40.61,40.61,0,0,0-5-9c0-.08-.17,0-.13.11A45.54,45.54,0,0,1,237,429.08c-.23.4-.45.81-.66,1.22a15.07,15.07,0,0,0-1.32-1.1c-.16-2.18-.27-4.37-.31-6.56,0-.13-.17,0-.18.06-.26,1.89-.64,3.72-1,5.54a7.26,7.26,0,0,0-1.1-.52,22.4,22.4,0,0,0-3.1-6.71c-.05-.07-.16,0-.14.1.83,2.18.48,4.91.51,7.21,0,.08,0,.17,0,.25a34.5,34.5,0,0,0-2.53-5.24c-.06-.1-.21,0-.18.13a28.6,28.6,0,0,1,1.37,8,20.3,20.3,0,0,0-2.95-5.88c-.81-1.08-2.48-2.86-3.83-3.25,0-.93,0-1.86,0-2.78,0-.11-.15-.05-.17,0-.72,3.79-1.6,7.45-2.08,11.23q-.5-4.51-1-9c0-.06-.1,0-.11.05-.11,2.24-1,4.33-1.24,6.57-.06.57-.1,1.14-.13,1.71a123.69,123.69,0,0,1-1.17-14.74c0-.1-.15-.05-.16,0a103.85,103.85,0,0,0-1.23,13.54c-1-3.43-2.28-6.76-3.59-10.17,0-.11-.18,0-.16.09a90.14,90.14,0,0,1,1.7,15.3c-.17-.74-.34-1.47-.5-2.21l-.06-.72c-.12-1.69-.17-4.55-1.18-6,0,0-.07,0-.09,0l-.05.09s0,0,.05,0c-.41.32-.49,3.46-.6,4.07s-.16,1-.23,1.53c-.71-5.31-1.84-10.78-1.52-16,0-.15-.2-.07-.22,0a78.07,78.07,0,0,0-1.35,13.89,77.06,77.06,0,0,1-1.95-8c0-.15-.24,0-.24.1.1,1.31.16,2.62.22,3.93a31.52,31.52,0,0,0-3.7-9.7c0-.08-.16,0-.14.1.81,2.84.59,6.3.83,9.23.22,2.69.41,5.39.52,8.09-1.58-6.08-3.64-11.48-7.47-16.7-.05-.08-.17,0-.13.11a49.47,49.47,0,0,1,4.87,13.17l-.47-.61c-1.15-1.37-4.08-3.69-6-3.75a0,0,0,0,0,0,0l-.15-.13c-.08-.07-.2.09-.13.16,3.83,3.72,5.33,8.8,6.65,13.7.43,1.6.7,3.35,1,5.12l145.93-12.4c-.11-1.6-.15-3.2-.12-4.79a40.57,40.57,0,0,1,2.92-14.26C349,412.06,348.84,412,348.75,412.11ZM222.62,429.5c-.19-.28-.39-.56-.57-.86-.05-.08-.16.05-.13.11.19.45.37.89.53,1.34-.15.53-.31,1.06-.45,1.59-.22-3-.43-6.1-.46-9.14,1,.82,1.52,2.63,1.9,4.25C223.16,427.7,222.88,428.61,222.62,429.5Zm1.36,1.9c0-.95-.11-1.9-.13-2.85,0,.14.07.27.1.4.36,1.26.67,2.54,1,3.82C224.62,432.3,224.31,431.85,224,431.4Zm15.89-4.24c.22,2.69.41,5.39.52,8.09-.51-2-1.08-3.89-1.74-5.74a34.68,34.68,0,0,1,1.14-3.66C239.81,426.3,239.83,426.74,239.87,427.16Zm21,5.66-.58-.71c-.09-1.33-.17-2.66-.23-4a34.74,34.74,0,0,1,1,4C261,432.35,260.89,432.58,260.83,432.82Zm33.31-12.62c-.2-.29-.39-.57-.57-.86-.05-.09-.16,0-.13.11.19.44.37.89.53,1.33-.15.53-.31,1.07-.45,1.59-.22-3-.43-6.1-.46-9.13,1,.82,1.52,2.63,1.9,4.25C294.68,418.4,294.4,419.3,294.14,420.2Zm1.36,1.89c-.05-.95-.11-1.9-.13-2.85,0,.14.07.28.1.4.36,1.27.66,2.55,1,3.83C296.14,423,295.82,422.54,295.5,422.09Zm15.89-4.23c.22,2.69.4,5.39.52,8.08-.52-2-1.08-3.88-1.75-5.74a37,37,0,0,1,1.15-3.65C311.33,417,311.35,417.43,311.39,417.86Zm20.95,5.65c-.19-.23-.37-.47-.57-.7-.09-1.33-.17-2.66-.23-4a34.9,34.9,0,0,1,1,4C332.47,423,332.41,423.28,332.34,423.51Z" transform="translate(-36.34 -30.49)"/><path class="cls-13" d="M295.13,435.58l50.79-4.32c0-.17,0-.34,0-.51.26-4.41.67-9,3.64-12.79.06-.08-.09-.19-.16-.12l-.12.14s0,0,0,0c-1.84.35-4.23,2.8-5.07,4.16-.12.2-.23.39-.33.59a37.08,37.08,0,0,1,2-12c0-.07-.11-.16-.15-.08A35.77,35.77,0,0,0,342,426.13c-.45-2.33-.84-4.67-1.19-7-.38-2.56-1.33-5.48-1.13-8.05,0-.05-.13-.13-.16-.06a24,24,0,0,0-1.59,8.9c-.21-1.13-.43-2.27-.61-3.41,0-.09-.26-.18-.26-.05a57.8,57.8,0,0,1-.22,7.2A63.13,63.13,0,0,0,332.55,412c0-.09-.26-.13-.22,0,1.42,4.44,1.46,9.3,1.88,14-.17-.43-.35-.85-.54-1.27s-1-3.19-1.45-3.4c0,0,.06,0,0,0l-.06-.07s-.07,0-.09,0c-.69,1.36-.14,3.82.09,5.29,0,.21.07.42.1.63,0,.65,0,1.31,0,2a69.07,69.07,0,0,1-1.55-13.38c0-.07-.16-.15-.18-.05a91.6,91.6,0,0,0-1.38,9.28,85.48,85.48,0,0,0-4.06-11.41c0-.06-.19-.09-.17,0a92.38,92.38,0,0,1,2,12.81c-.15-.49-.31-1-.48-1.45-.69-1.88-2-3.53-2.61-5.43,0,0-.12-.08-.11,0q.42,3.93.87,7.89c-1.27-3.16-2.9-6.17-4.41-9.3,0-.06-.19-.09-.17,0,.23.78.44,1.58.63,2.38a8.46,8.46,0,0,0-3.08,3.38,15.81,15.81,0,0,0-1.66,5.51,21.48,21.48,0,0,1-.33-7.08c0-.07-.17-.17-.21-.08a25.66,25.66,0,0,0-1.38,4.89c0-.07,0-.14-.05-.21-.45-2-1.37-4.26-1-6.26,0-.06-.12-.13-.15-.06a17,17,0,0,0-1.63,6.23,9.88,9.88,0,0,0-1,.62c-.73-1.5-1.49-3-2.14-4.59,0-.07-.22-.13-.19,0,.42,1.88.77,3.77,1.07,5.67-.39.38-.75.77-1.06,1.14-.29-.32-.6-.63-.91-.94a34.51,34.51,0,0,1,1.9-9.58c0-.07-.12-.15-.16-.08a31.65,31.65,0,0,0-3,8.5c-.74-.65-1.53-1.28-2.36-1.91a22.85,22.85,0,0,1-.79-6.16c0-.05-.13-.13-.16-.06a23.86,23.86,0,0,0-1.58,8.9c-.22-1.13-.43-2.26-.62-3.41,0-.09-.26-.17-.25,0a59.91,59.91,0,0,1-.22,7.2,63,63,0,0,0-4.25-11.69c0-.09-.27-.12-.23,0a41.55,41.55,0,0,1,1.55,9.67c-.62-1-1.29-2.06-1.89-3.14,0-.06-.19-.1-.18,0,.05.33.09.67.13,1,0,0,0,0,0,0a43.59,43.59,0,0,0,.41,6.62C295.14,434.84,295.13,435.21,295.13,435.58Zm25.51-15c.61,2.6,1.05,5.27,1.47,7.9-.25-.43-.52-.86-.78-1.29.07-.41.15-.82.25-1.23,0-.06-.12-.15-.16-.08-.11.29-.24.56-.37.83l-1.38-2.19C319.7,423.07,319.85,421.44,320.64,420.58Zm-1,5.87c0-.11,0-.23,0-.36.18.82.32,1.64.47,2.46-.22.44-.44.88-.62,1.33C319.51,428.73,319.54,427.59,319.62,426.45Zm-14.31,2.8a51,51,0,0,0-.51,5.19c-.45-2.33-.83-4.67-1.18-7-.06-.37-.13-.75-.2-1.14A33.1,33.1,0,0,1,305.31,429.25Z" transform="translate(-36.34 -30.49)"/><path class="cls-13" d="M199.26,443.72l95.51-8.11A63.59,63.59,0,0,1,293.55,424c0-.07-.16-.15-.18-.05a91.6,91.6,0,0,0-1.38,9.28,85.48,85.48,0,0,0-4.06-11.41c0-.06-.19-.09-.16,0a95.73,95.73,0,0,1,2,12.81c-.16-.48-.32-1-.49-1.45-.69-1.88-2-3.53-2.61-5.43,0,0-.12-.08-.11,0,.28,2.62.57,5.26.87,7.89-.87-2.18-1.92-4.29-3-6.42a.24.24,0,0,0,0-.08c0-.05-.06-.11-.11-.11-.45-.89-.89-1.78-1.33-2.68,0-.06-.19-.09-.16,0,.36,1.25.67,2.53.94,3.81-.44.87-.92,1.73-1.3,2.62l-.12-.18c0-1,.05-2,.12-3,.11-1.54-.19-4.74,1.12-6,.05-.05-.05-.11-.1-.09-1.26.52-2.54,2.34-3.11,3.4a14.9,14.9,0,0,0-1.56,4.75c0-.46,0-.92,0-1.39a35.54,35.54,0,0,1,.32-4.37,13.2,13.2,0,0,1,.49-2.31,5,5,0,0,1,.54-1.14s.07,0,.09,0l0-.05c0-.06-.08-.12-.14-.1-1.62.51-2.85,2.29-3.53,3.88a15.55,15.55,0,0,1,1.62-6c0-.07-.1-.18-.19-.14a9.6,9.6,0,0,0-2.46,1.89,12.65,12.65,0,0,0-3.52,3.48c-.12.2-.22.4-.33.6a37.11,37.11,0,0,1,2-12.05c0-.07-.12-.15-.16-.08a35.77,35.77,0,0,0-3.82,15.49c-.45-2.33-.83-4.67-1.19-7-.38-2.55-1.32-5.48-1.13-8.05,0-.05-.13-.13-.16-.06a24.07,24.07,0,0,0-1.59,8.9c-.21-1.13-.42-2.27-.61-3.41,0-.09-.26-.17-.25,0a59.91,59.91,0,0,1-.22,7.2,63.69,63.69,0,0,0-4.25-11.69c0-.09-.27-.13-.23,0,1.68,5.26,1.43,11.12,2.15,16.53.12.87.22,1.73.32,2.59-.15-.65-.31-1.29-.51-1.92a56.05,56.05,0,0,1-1.76-5.71c0-.11-.31-.21-.3-.06.11,1.89.08,3.77,0,5.66A69,69,0,0,1,258.51,419c0-.07-.16-.15-.18-.05a91.6,91.6,0,0,0-1.38,9.28,85.48,85.48,0,0,0-4.06-11.41c0-.06-.19-.09-.16,0a95.73,95.73,0,0,1,2,12.81c-.16-.49-.32-1-.49-1.45-.69-1.88-2-3.53-2.61-5.43,0,0-.12-.08-.11,0,.28,2.62.57,5.26.87,7.89-1.26-3.16-2.9-6.17-4.41-9.29,0-.07-.19-.1-.16,0,.22.79.43,1.58.62,2.38a8.43,8.43,0,0,0-3.07,3.38,15.62,15.62,0,0,0-1.67,5.51,21.48,21.48,0,0,1-.33-7.08c0-.07-.17-.17-.21-.07a26,26,0,0,0-1.38,4.89c0-.08,0-.15,0-.22-.46-2-1.38-4.26-1-6.26,0-.06-.13-.13-.16-.06a17,17,0,0,0-1.63,6.24,9.73,9.73,0,0,0-1,.61c-.73-1.5-1.48-3-2.14-4.59,0-.07-.21-.13-.19,0,.43,1.88.77,3.77,1.07,5.67-.39.38-.75.77-1.06,1.14-.29-.32-.59-.63-.91-.93a34.5,34.5,0,0,1,1.9-9.59c0-.07-.12-.15-.16-.08a31.65,31.65,0,0,0-3,8.5c-.74-.65-1.53-1.28-2.36-1.9a23.78,23.78,0,0,1-.79-6.16c0-.06-.12-.14-.15-.06a23.59,23.59,0,0,0-1.59,8.89c-.22-1.13-.43-2.26-.62-3.4,0-.1-.26-.18-.25-.05a57.91,57.91,0,0,1-.22,7.2,63,63,0,0,0-4.25-11.69c0-.08-.27-.12-.23,0,1.54,4.8,1.47,10.1,2,15.11l-.73,0a25.55,25.55,0,0,1-1.06-3.6c0-.11-.31-.21-.3-.06.07,1.21.08,2.42.07,3.63h-.41a61.31,61.31,0,0,1-1.18-11.34c0-.07-.16-.14-.18-.05a91.37,91.37,0,0,0-1.38,9.29,83.15,83.15,0,0,0-4.06-11.41c0-.07-.18-.09-.16,0a96,96,0,0,1,2,12.81c-.16-.48-.31-1-.49-1.45-.68-1.88-2-3.53-2.61-5.43,0,0-.12-.08-.11,0,.28,2.62.57,5.26.87,7.89-.87-2.18-1.92-4.29-3-6.42,0,0,0-.05,0-.08s-.06-.11-.11-.11c-.44-.89-.89-1.78-1.33-2.68,0-.06-.19-.09-.16,0,.36,1.25.67,2.53.94,3.81-.44.87-.92,1.73-1.3,2.62a1.74,1.74,0,0,1-.11-.18c0-1,0-2,.12-3,.11-1.54-.2-4.74,1.11-6,.05-.05,0-.11-.09-.09-1.27.52-2.55,2.34-3.12,3.4a15.41,15.41,0,0,0-1.66,5.5,21.42,21.42,0,0,1-.34-7.07c0-.07-.17-.17-.21-.08a26.19,26.19,0,0,0-1.38,4.89c0-.07,0-.14,0-.21-.46-2-1.38-4.27-1-6.26,0-.06-.13-.13-.16-.06a18,18,0,0,0-1.67,8.8c-1-2.16-2.14-4.28-3.08-6.54,0-.07-.21-.13-.18,0,.64,2.86,1.11,5.75,1.51,8.64a29.5,29.5,0,0,0-6.43-6.13c-.11-.08-.24,0-.15.1a34.21,34.21,0,0,1,5.86,11.75A1.24,1.24,0,0,1,199.26,443.72ZM284,431.43c.23,1.15.43,2.3.62,3.46-.15.23-.28.46-.42.69-.11-.19-.22-.38-.34-.57A28.5,28.5,0,0,1,284,431.43Zm-35.58-7.54c.61,2.61,1.05,5.27,1.47,7.9-.24-.43-.51-.86-.77-1.29q.09-.62.24-1.23c0-.06-.12-.15-.15-.07-.12.28-.25.55-.38.82l-1.38-2.19C247.5,426.38,247.65,424.75,248.44,423.89Zm-1,5.87c0-.11,0-.23,0-.36.18.82.32,1.64.47,2.46-.22.44-.44.88-.62,1.33C247.31,432,247.34,430.9,247.42,429.76Zm-14.31,2.8a51,51,0,0,0-.5,5.19c-.46-2.33-.84-4.67-1.19-7-.06-.37-.13-.75-.2-1.14A33.1,33.1,0,0,1,233.11,432.56Zm-21.28,2.18c.22,1.15.42,2.31.61,3.46-.15.23-.28.46-.41.69l-.35-.57A26.73,26.73,0,0,1,211.83,434.74Z" transform="translate(-36.34 -30.49)"/><path class="cls-11" d="M224,435.9v-.15l0,.2Z" transform="translate(-36.34 -30.49)"/><polygon class="cls-9" points="100.4 3.88 96.17 0 91.21 390.91 95.32 390.91 100.4 3.88"/><polygon class="cls-2" points="8.08 395.57 7.31 426.54 166.68 428.35 166.77 409.96 8.08 395.57"/><polygon class="cls-4" points="166.96 428.3 309.27 409.6 309.27 399.02 166.77 409.96 166.96 428.3"/><path class="cls-14" d="M172.15,171.81a4.34,4.34,0,0,1-1.35-1.1,7.94,7.94,0,0,1-1.16-1.81,11.87,11.87,0,0,1-.83-2.38,14.46,14.46,0,0,1-.37-2.81,8,8,0,0,1,.22-2.24,3.63,3.63,0,0,1,.73-1.5,1.82,1.82,0,0,1,1.15-.63,2.48,2.48,0,0,1,1.46.36,5.87,5.87,0,0,1,1.81,1.7,8.75,8.75,0,0,1,1.24,2.57L173.61,165a5.2,5.2,0,0,0-.68-1.49,2.63,2.63,0,0,0-.92-.93.89.89,0,0,0-.65-.12.83.83,0,0,0-.5.38,2.22,2.22,0,0,0-.31.83,5.77,5.77,0,0,0-.08,1.23,8.44,8.44,0,0,0,.16,1.36,7.43,7.43,0,0,0,.37,1.18,4.31,4.31,0,0,0,.55.92,2.22,2.22,0,0,0,.69.59,1,1,0,0,0,.9.08,1.63,1.63,0,0,0,.77-.7l.08,3.2A1.41,1.41,0,0,1,172.15,171.81Zm1.66-3.18-1.33-.7-.07-2.37,3,1.6.16,6.31-1.64-.83Z" transform="translate(-36.34 -30.49)"/><path class="cls-14" d="M179,175.41a4,4,0,0,1-1.25-1,6.14,6.14,0,0,1-.95-1.43,8.44,8.44,0,0,1-.59-1.69,8.18,8.18,0,0,1-.24-1.75,6,6,0,0,1,.28-2.11,1.82,1.82,0,0,1,1-1.12,1.85,1.85,0,0,1,1.6.26,4.69,4.69,0,0,1,1.64,1.5,7.82,7.82,0,0,1,1,2.14,8.66,8.66,0,0,1,.38,2.33c0,.16,0,.32,0,.48s0,.3,0,.42l-3.76-2a2.63,2.63,0,0,0,.17.79,2,2,0,0,0,.36.58,1.66,1.66,0,0,0,.43.35.77.77,0,0,0,.6.08.52.52,0,0,0,.35-.44l1.66,1.6a2.25,2.25,0,0,1-.57.9,1.57,1.57,0,0,1-.89.36A2.2,2.2,0,0,1,179,175.41Zm-1-5.83,1.78.95a2.75,2.75,0,0,0-.17-.75,2.12,2.12,0,0,0-.31-.6,1.46,1.46,0,0,0-.44-.39.59.59,0,0,0-.43-.08.52.52,0,0,0-.3.27A1.57,1.57,0,0,0,178,169.58Z" transform="translate(-36.34 -30.49)"/><path class="cls-14" d="M188,179.82l-1.93-1-.06-4.59a2.35,2.35,0,0,0-.19-1,1,1,0,0,0-.42-.49.45.45,0,0,0-.34-.05.61.61,0,0,0-.33.22,1.33,1.33,0,0,0-.24.46l.07,4.65-1.93-1-.15-8.39,1.76,1,0,1.26a1.11,1.11,0,0,1,.48-.5,1.16,1.16,0,0,1,.68-.08,2.39,2.39,0,0,1,.85.31,2.54,2.54,0,0,1,.88.77,3.64,3.64,0,0,1,.5,1,5.44,5.44,0,0,1,.23,1.09,8.46,8.46,0,0,1,.06.94Z" transform="translate(-36.34 -30.49)"/><path class="cls-14" d="M191.51,181.79a4.4,4.4,0,0,1-1.25-1,6.44,6.44,0,0,1-.92-1.37,7,7,0,0,1-.58-1.61,6.81,6.81,0,0,1-.21-1.66,5.19,5.19,0,0,1,.31-2,1.68,1.68,0,0,1,1-1,2,2,0,0,1,1.62.29,4.91,4.91,0,0,1,1.62,1.46,7.53,7.53,0,0,1,1.34,4.25c0,.15,0,.31,0,.45s0,.28,0,.4l-3.76-2a2.23,2.23,0,0,0,.16.76,1.79,1.79,0,0,0,.35.55,1.46,1.46,0,0,0,.43.34.86.86,0,0,0,.59.1.51.51,0,0,0,.37-.41l1.65,1.56a1.91,1.91,0,0,1-.59.82,1.59,1.59,0,0,1-.9.32A2.52,2.52,0,0,1,191.51,181.79Zm-.95-5.51,1.78.95a3.17,3.17,0,0,0-.15-.72,2.6,2.6,0,0,0-.31-.57,1.56,1.56,0,0,0-.44-.38.65.65,0,0,0-.43-.08.49.49,0,0,0-.31.24A1.47,1.47,0,0,0,190.56,176.28Z" transform="translate(-36.34 -30.49)"/><path class="cls-14" d="M198.7,179.89a3.26,3.26,0,0,0-1-.37.69.69,0,0,0-.69.24v4.68l-1.92-1,0-7.88,1.78,1V178a1.55,1.55,0,0,1,.72-.83,1,1,0,0,1,.91.07l.16.09.09.06Z" transform="translate(-36.34 -30.49)"/><path class="cls-14" d="M198.94,183.11a2.12,2.12,0,0,1,.3-1.21,1.1,1.1,0,0,1,.82-.49,2.19,2.19,0,0,1,1.2.31,4.12,4.12,0,0,1,.6.39,2.72,2.72,0,0,1,.48.48v-.23a1.68,1.68,0,0,0-.22-.89,1.64,1.64,0,0,0-.71-.63,1.71,1.71,0,0,0-.84-.25,2.42,2.42,0,0,0-.83.19l-.55-2.05a2.31,2.31,0,0,1,1.14-.13,4,4,0,0,1,1.29.46,5.15,5.15,0,0,1,2,1.89,5.33,5.33,0,0,1,.68,2.74l0,1.44a1.46,1.46,0,0,0,.08.58.77.77,0,0,0,.28.32l0,2.31a2.55,2.55,0,0,1-.44-.12,2.74,2.74,0,0,1-.38-.15,2.07,2.07,0,0,1-.78-.67,2.28,2.28,0,0,1-.34-1l0-.29a1.36,1.36,0,0,1-1.83.41,2.88,2.88,0,0,1-1-.81,4.14,4.14,0,0,1-.67-1.22A4.25,4.25,0,0,1,198.94,183.11Zm3.13,1.81a.58.58,0,0,0,.19-.15.35.35,0,0,0,.07-.23V184c-.11-.11-.24-.22-.38-.34a2.19,2.19,0,0,0-.37-.25.66.66,0,0,0-.58-.07.45.45,0,0,0-.25.47,1.14,1.14,0,0,0,.08.4,1.28,1.28,0,0,0,.23.37,1.14,1.14,0,0,0,.32.26,1.24,1.24,0,0,0,.36.11A.77.77,0,0,0,202.07,184.92Z" transform="translate(-36.34 -30.49)"/><path class="cls-14" d="M208,190.19a4.31,4.31,0,0,1-1.25-.95,5.54,5.54,0,0,1-.91-1.32,7.22,7.22,0,0,1-.56-1.53,7.05,7.05,0,0,1-.18-1.56,3.84,3.84,0,0,1,.37-1.72,1.56,1.56,0,0,1,1-.88,2.29,2.29,0,0,1,1.62.35,4.84,4.84,0,0,1,1.63,1.46,6.75,6.75,0,0,1,1,2l-1.91-.23a2.28,2.28,0,0,0-.31-.58,1.49,1.49,0,0,0-.43-.37.6.6,0,0,0-.48-.07.64.64,0,0,0-.35.34,1.92,1.92,0,0,0-.14.77,3.14,3.14,0,0,0,.12.89,2.22,2.22,0,0,0,.33.71,1.32,1.32,0,0,0,.48.44,1,1,0,0,0,.29.09.58.58,0,0,0,.26-.06.72.72,0,0,0,.2-.19l1.87,1.77a1.82,1.82,0,0,1-.6.73,1.55,1.55,0,0,1-.89.26A2.57,2.57,0,0,1,208,190.19Z" transform="translate(-36.34 -30.49)"/><path class="cls-14" d="M211.32,183.76l0-2.22,2,1.09,0,2.21Zm-.15,7.93.14-7.31,1.95,1.06-.17,7.24Z" transform="translate(-36.34 -30.49)"/><path class="cls-14" d="M216.69,194.66a4.42,4.42,0,0,1-1.25-.94,5.47,5.47,0,0,1-.9-1.28A7,7,0,0,1,214,191a6.3,6.3,0,0,1-.15-1.48,4,4,0,0,1,.22-1.3,1.87,1.87,0,0,1,.59-.87,1.39,1.39,0,0,1,1-.3,2.8,2.8,0,0,1,1.28.4,5.11,5.11,0,0,1,1.26,1,5.75,5.75,0,0,1,.9,1.29,6,6,0,0,1,.53,1.44,5.69,5.69,0,0,1,.14,1.46,3.65,3.65,0,0,1-.23,1.24,2,2,0,0,1-.59.85,1.53,1.53,0,0,1-.94.33A2.81,2.81,0,0,1,216.69,194.66Zm-.84-4.12a2.61,2.61,0,0,0,.1.85,2,2,0,0,0,.32.68,1.38,1.38,0,0,0,.48.43.62.62,0,0,0,.5.08.6.6,0,0,0,.35-.32,1.62,1.62,0,0,0,.14-.72,2.55,2.55,0,0,0-.1-.84,2,2,0,0,0-.32-.68,1.42,1.42,0,0,0-.48-.44.68.68,0,0,0-.5-.09.56.56,0,0,0-.35.33A1.56,1.56,0,0,0,215.85,190.54Zm1.67-3.17-1.22-1.11.57-1.63,1.74,1Z" transform="translate(-36.34 -30.49)"/><path class="cls-14" d="M225.67,199.12l-1.93-1,.15-3.73a1.63,1.63,0,0,0-.15-.81,1.07,1.07,0,0,0-.41-.45.67.67,0,0,0-.35-.07.83.83,0,0,0-.35.15,1.07,1.07,0,0,0-.26.35l-.14,3.79-1.93-1,.23-6.85,1.76,1,0,1a1,1,0,0,1,.51-.35,1.38,1.38,0,0,1,.7,0,3.2,3.2,0,0,1,.86.33,2.77,2.77,0,0,1,.87.73,3,3,0,0,1,.47.88,3.78,3.78,0,0,1,.18.9,7.11,7.11,0,0,1,0,.78Z" transform="translate(-36.34 -30.49)"/><g id="Capa_1-2-2" data-name="Capa 1-2"><path class="cls-14" d="M222.28,215.59a2.63,2.63,0,0,1,.6,2c-1.5.87-2.8.27-4.56-2.44-1.4-2.16-2.65-4.5-4-6.84-.9.1-1.72.28-2.59.29s-1.74-.41-2.21-1.93-.07-2.19.67-2.57,1.84,0,2.81.67a7.86,7.86,0,0,0,1-8.7c-.61-1.1-1.19-.69-2-1.71.68-.93,1.64-.66,2.67,0a6.3,6.3,0,0,1,2.63,4.44,10.06,10.06,0,0,1-1.27,7.45,13.28,13.28,0,0,1-.84,1.1C217.16,212.8,219.26,215.2,222.28,215.59Zm-11.9-9.34c1,.78,1.38.3,1.73-.58C211.16,205.12,210.6,205.15,210.38,206.25Z" transform="translate(-36.34 -30.49)"/><path class="cls-14" d="M204.45,199.93c1.27-1.47,1.27-4.33,2.18-6.3a2.73,2.73,0,0,1,.74,2.84c-.3,1.65-1.12,2.79-1.15,4.71l0,0c.36-.73.72-1.46,1.08-2.17s1-1.39,2.11-.47c.57.79.17,1.41.51,2.12s.74.06,1,1c-1.12.09-1.5,1.59-2.38,1.84-.79-.09-1.15-.92-1.7-1.53-.54.54-1.24.75-1.81,0-2.07-.93-1.21,4.48-3.92,1.71-.36-1.87.92-1.33,1.1-2.38l-1.3-1.62c-.62-.38-.9.55-1.54,0a5.61,5.61,0,0,1,.41-5.45c.86,1.26.86,1.26.53,3.49l-.24.87v0l.29-.79c.86-1.82,1.67-3.78,4.16-1.27.6,1.51-.08,2.28-.06,3.47l-.08.12A.56.56,0,0,1,204.45,199.93Zm-2.15-.19a2.84,2.84,0,0,0,.8-3.09C202.19,197.08,202,198,202.3,199.74Zm6.14,2.49c1-.4.3-2,.63-2.73C208.53,200,208.08,200.63,208.44,202.23Zm-6.75,1c.05,0,.11.12.15.11s0-.09.06-.15Z" transform="translate(-36.34 -30.49)"/><path class="cls-14" d="M221.65,201.69c-1-.06-1.65,1.4-3-.84-.13-2,1.07-.55,1.75-.42,1.52.2,1.56-3.36,4.4-.46l-2.73,12.51a2.14,2.14,0,0,1-2.13-.95c.16-3.62,1.48-6.32,1.7-9.88Z" transform="translate(-36.34 -30.49)"/><path class="cls-14" d="M198.23,194.9c-.84-1.26-.18-2.4-1.1-3.4-.57,0-.33.71-.21,1.25.34,1.54.78,3.08,1.1,4.61.4,1.9.37,3.5-.74,4.12s-2.46,0-3.7-1.47a4.58,4.58,0,0,1-.81-4.23c.33-1.14,1.12-1.26,2-.4a2.42,2.42,0,0,1,.82,2.71c-1.06.06-.86-1.48-1.4-2.18-.85-.09-1.16.59-1,1.86a2.94,2.94,0,0,0,1.54,2.34c.91.44,1.5.09,1.66-1.09a12.83,12.83,0,0,0-.66-4.5c-.41-1.71-.91-3.48-.35-4.84,1.16-.42,2.14.58,2.95,2.47C198.9,193.35,199.18,194.52,198.23,194.9Z" transform="translate(-36.34 -30.49)"/><path class="cls-14" d="M200.44,194.07c-1-1.28-.76-1.75-.26-2.21C201,192.9,200.93,193.46,200.44,194.07Z" transform="translate(-36.34 -30.49)"/><path class="cls-14" d="M210.47,194.32v0Z" transform="translate(-36.34 -30.49)"/></g></svg>