<?xml version="1.0" encoding="UTF-8" standalone="no"?>
<svg
   xmlns:dc="http://purl.org/dc/elements/1.1/"
   xmlns:cc="http://creativecommons.org/ns#"
   xmlns:rdf="http://www.w3.org/1999/02/22-rdf-syntax-ns#"
   xmlns:svg="http://www.w3.org/2000/svg"
   xmlns="http://www.w3.org/2000/svg"
   xmlns:sodipodi="http://sodipodi.sourceforge.net/DTD/sodipodi-0.dtd"
   xmlns:inkscape="http://www.inkscape.org/namespaces/inkscape"
   version="1.1"
   id="svg2"
   xml:space="preserve"
   width="4266.6665"
   height="2666.6667"
   viewBox="0 0 4266.6665 2666.6667"
   sodipodi:docname="11070.eps"><metadata
     id="metadata8"><rdf:RDF><cc:Work
         rdf:about=""><dc:format>image/svg+xml</dc:format><dc:type
           rdf:resource="http://purl.org/dc/dcmitype/StillImage" /></cc:Work></rdf:RDF></metadata><defs
     id="defs6"><clipPath
       clipPathUnits="userSpaceOnUse"
       id="clipPath396"><path
         d="m 11623.4,8610.5 c -7.7,0 -15.5,0.1 -23.3,0.3 -192.7,4.4 -384.6,63.4 -550.8,177.8 -42.1,28.9 -82.5,61.5 -120.9,97.6 -408.1,384 -427.7,1026.1 -43.7,1434.3 14.2,15 28.7,29.6 43.5,43.5 194.3,183.3 444.7,275.9 695.6,275.9 58.2,0 116.3,-5 173.8,-15 144.9,-25 285.5,-81.7 410.9,-170.3 38.4,-27.1 75.3,-57.3 110.5,-90.4 0.2,-0.1 0.4,-0.3 0.5,-0.5 v -1334 l 122.6,-4.5 c -24.2,-32.9 -50.7,-64.7 -79.4,-95.2 -141.4,-150.3 -317.6,-247.8 -504.4,-292.1 -77,-18.2 -155.9,-27.4 -234.9,-27.4"
         id="path394" /></clipPath></defs><sodipodi:namedview
     pagecolor="#ffffff"
     bordercolor="#666666"
     borderopacity="1"
     objecttolerance="10"
     gridtolerance="10"
     guidetolerance="10"
     inkscape:pageopacity="0"
     inkscape:pageshadow="2"
     inkscape:window-width="640"
     inkscape:window-height="480"
     id="namedview4" /><g
     id="g10"
     inkscape:groupmode="layer"
     inkscape:label="ink_ext_XXXXXX"
     transform="matrix(1.3333333,0,0,-1.3333333,0,2666.6667)"><g
       id="g12"
       transform="scale(0.1)"><path
         d="M 0,0 H 32000 V 20000 H 0 Z"
         style="fill:#ffffff;fill-opacity:1;fill-rule:nonzero;stroke:none"
         id="path14" /><path
         d="m 3722.51,1813.9 c 0,0 -2974.205,838.4 -1610.4,4677.9 1363.8,3839.5 3958.1,2183.1 3208.47,5541 -988.53,4427.8 3197.45,7438.9 7799.42,6212.5 4602,-1226.4 3368.6,-2589.5 8776.7,-1216.7 6593,1673.5 7149.1,-5289.1 5620,-7601.8 -1529.1,-2312.8 4174,-2646.2 1818.4,-7612.9 H 3722.51"
         style="fill:#ebf3fa;fill-opacity:1;fill-rule:nonzero;stroke:none"
         id="path16" /><path
         d="m 24512.5,10524.1 c 0,0 762,1553.8 1188.2,1415.9 426.2,-137.9 -1188.2,-1415.9 -1188.2,-1415.9"
         style="fill:#cde0fb;fill-opacity:1;fill-rule:nonzero;stroke:none"
         id="path18" /><path
         d="m 23964.4,9821.2 c 0,0 1825.5,1789.3 2534.9,1463 709.3,-326.3 -432.4,-676.3 -867.9,-771.6 -435.5,-95.3 -1667,-691.4 -1667,-691.4"
         style="fill:#cde0fb;fill-opacity:1;fill-rule:nonzero;stroke:none"
         id="path20" /><path
         d="m 28539.2,3076.4 c 652.1,428.4 32.7,1562.8 32.7,1562.8 0,0 -1521.2,409.5 -1629.2,638.2 -108,228.8 1368.9,-96.1 1368.9,-96.1 -106.8,476.8 -1059.4,1468.9 -1059.4,1468.9 0,0 -1436.7,-553.4 -1485,-305.1 -48.4,248.3 1297.1,425.2 1297.1,425.2 -280.8,403.2 -939.5,649.7 -939.5,649.7 -1020.9,243.2 -1280.5,-1080.2 -1280.5,-1080.2 0,0 -502,-181.1 -1186.1,-58.6 v 0 c 0,0 -130.5,35.5 -336.6,47.5 l 40,-122 c 36,0.8 71.2,0.2 105.5,-2 l 0.6,-0.1 1.5,-0.1 c 21.6,-2.2 52.3,-5.4 89.9,-9.6 l 0.1,-0.1 h 0.2 c 85.2,-13.3 147.3,-20.8 191.4,-24 h 0.4 c 265.5,-36.6 616.5,-99.6 714.2,-186.4 0,0 14.6,19.7 47.4,44.5 -15.1,-14.2 -30.8,-29 -47.4,-44.5 -378.8,-355.3 -111.3,-1423.4 198.6,-1965.7 309.9,-542.4 390.8,-235.2 554.3,165.1 163.6,400.4 -121.6,1033.4 -80.8,1261.4 40.8,228 238.1,-21 335.3,-418.4 97.3,-397.4 -226.8,-718.3 -81.2,-1364.1 145.6,-645.7 1479.8,-736.7 1479.8,-736.7 -275.9,388.4 -291.5,1241.9 -152.2,1320.5 139.3,78.7 500.7,-1074.2 604.1,-1238.4 103.4,-164.3 563.8,-360.1 1215.9,68.3"
         style="fill:#cde0fb;fill-opacity:1;fill-rule:nonzero;stroke:none"
         id="path22" /><path
         d="m 7944.48,8783.7 c 0,0 -961.15,1959.7 -1498.71,1785.8 -537.58,-174 1498.71,-1785.8 1498.71,-1785.8"
         style="fill:#dfebfd;fill-opacity:1;fill-rule:nonzero;stroke:none"
         id="path24" /><path
         d="m 8635.71,7897 c 0,0 -2302.42,2256.8 -3197.12,1845.3 -894.71,-411.6 545.37,-852.9 1094.64,-973.1 C 7082.5,8649 8635.71,7897 8635.71,7897"
         style="fill:#dfebfd;fill-opacity:1;fill-rule:nonzero;stroke:none"
         id="path26" /><path
         d="m 4294.76,6601.4 c 11.83,685.7 1145.58,758.5 1145.58,758.5 0,0 1018.95,-937.6 1239.65,-910.3 220.69,27.2 -714.65,971.7 -714.65,971.7 404.41,144.8 1589.03,-96.7 1589.03,-96.7 0,0 263.88,-1327.4 471.08,-1246.6 207.21,80.7 -293.61,1163.3 -293.61,1163.3 431.52,-19.1 924.06,-392.6 924.06,-392.6 660.38,-644.1 -200.76,-1458.8 -200.76,-1458.8 0,0 101.38,-458 513.81,-908.6 h 0.01 c 0,0 87.68,-80.3 193.41,-227.7 L 9053,4226 c -16.33,27 -33.33,52.9 -51.11,77.4 l -0.33,0.4 -0.78,1.1 c -11.75,15 -28.59,36.3 -49.4,62.2 l -0.08,0.1 -0.11,0.1 c -49.92,57 -84.69,99.6 -107.77,130.9 l -0.19,0.3 C 8691.29,4678.6 7364.07,4190 6815.57,4165.4 c -548.5,-24.7 -358.3,179.8 -137.75,489.4 220.56,309.6 824.8,395.1 975.01,532.6 150.21,137.5 -127.48,167 -468.4,52.5 -340.91,-114.5 -427,-506.1 -975.12,-701.3 -548.12,-195.2 -1242.64,753.2 -1242.64,753.2 418.16,-22.5 1059.5,366.9 1052.5,507.4 -7.01,140.5 -1033.27,-132.8 -1203.86,-133.2 -170.58,-0.3 -532.39,249.7 -520.55,935.4"
         style="fill:#cde0fb;fill-opacity:1;fill-rule:nonzero;stroke:none"
         id="path28" /><path
         d="M 15821.9,1863.3 H 7725.82 c -175.87,0 -318.46,142.9 -318.46,319.3 v 10816.3 c 0,181.1 149.97,326 330.4,319.2 l 8402.54,-387.5 v -10748 c 0,-176.4 -142.6,-319.3 -318.4,-319.3"
         style="fill:#f99746;fill-opacity:1;fill-rule:nonzero;stroke:none"
         id="path30" /><path
         d="m 16458.8,1863.3 h 8096 c 175.9,0 318.5,142.9 318.5,319.3 V 12999 c 0,181 -150,325.9 -330.4,319.1 l -8402.6,-387.5 v -10748 c 0,-176.4 142.6,-319.3 318.5,-319.3"
         style="fill:#f99746;fill-opacity:1;fill-rule:nonzero;stroke:none"
         id="path32" /><path
         d="m 8020.42,12848.9 -262.5,-213.3 c -37.09,-30.1 -58.71,-75.9 -58.71,-124.4 V 2025 c 0,-87.8 69.52,-158.9 155.27,-158.9 h 653.57 c 89.45,0 160.41,77.1 154.98,168.5 l -642.61,10814.3"
         style="fill:#aec3ff;fill-opacity:1;fill-rule:nonzero;stroke:none"
         id="path34" /><path
         d="m 24276.2,12848.9 262.5,-213.3 c 37.1,-30.1 58.8,-75.9 58.8,-124.4 V 2025 c 0,-87.8 -69.6,-158.9 -155.3,-158.9 h -653.6 c -89.4,0 -160.4,77.1 -155,168.5 l 642.6,10814.3"
         style="fill:#aec3ff;fill-opacity:1;fill-rule:nonzero;stroke:none"
         id="path36" /><path
         d="M 15840.7,1863.3 H 8223.34 c -165.48,0 -299.63,138.1 -299.63,308.5 V 12622 c 0,174.9 141.09,314.9 310.86,308.3 l 6648.93,-256.9 c 701.6,-27.1 1256.8,-620.7 1256.8,-1343.6 v -9158 c 0,-170.4 -134.1,-308.5 -299.6,-308.5"
         style="fill:#fff7f0;fill-opacity:1;fill-rule:nonzero;stroke:none"
         id="path38" /><path
         d="m 16415.3,1863.3 h 7666.6 c 151.9,0 275,126.7 275,283.1 v 10502 c 0,160.5 -129.5,288.9 -285.3,282.9 L 17256,12667.9 c -622.8,-24 -1115.7,-551 -1115.7,-1192.7 V 2146.4 c 0,-156.4 123.1,-283.1 275,-283.1"
         style="fill:#fff7f0;fill-opacity:1;fill-rule:nonzero;stroke:none"
         id="path40" /><path
         d="m 16161,4065 h -41.3 v 6785.5 h 41.3 V 4065"
         style="fill:#f9dec7;fill-opacity:1;fill-rule:nonzero;stroke:none"
         id="path42" /><path
         d="m 20126.9,11527.9 c 15.3,-17.7 17.2,-37.5 9.4,-58.5 l -0.2,-0.3 c -14.4,-38.9 -61.2,-82 -115.7,-125.1 -6.9,-5.6 -13.1,-10.6 -18.5,-15.2 -1.4,-1.3 -2.8,-2.5 -4.2,-3.7 -1.1,-1 -2.1,-2 -3.2,-2.9 -50.7,-46.1 -31.8,-56.9 -123.2,-150.7 -104.1,-106.8 -175.3,-108.2 -195.5,-98.3 -17,8.5 18.2,65.3 57.2,129.1 1.9,3.1 3.7,6.2 5.7,9.3 5.2,8.5 10.3,17.1 15.5,25.7 45.7,76.8 34.4,113.1 24.5,228 -8.1,93.4 -141.5,522.4 -141.5,522.4 l 198.3,32.7 c 0,0 57.3,-341.3 122.6,-394.2 35,-28.2 74.3,-28.9 108,-49.8 2.3,-1.5 4.7,-3 6.9,-4.5 19.2,-12.9 38.6,-26.2 53.9,-44"
         style="fill:#ffb27d;fill-opacity:1;fill-rule:nonzero;stroke:none"
         id="path44" /><path
         d="m 20126.9,11527.9 c 15.3,-17.7 17.2,-37.5 9.4,-58.5 l -0.2,-0.3 c -17.5,-38.8 -63.2,-81.8 -115.8,-124.7 -6.9,-5.6 -13,-10.8 -18.4,-15.6 -1.4,-1.3 -2.8,-2.5 -4.2,-3.7 -1.1,-1 -2.1,-2 -3.2,-2.9 -50.7,-46.1 -31.8,-56.9 -123.2,-150.7 -104.1,-106.8 -175.3,-108.2 -195.5,-98.3 -17,8.5 18.2,65.3 57.2,129.1 20.2,7.2 113.9,44.6 185.2,134.5 62.8,79 105.1,180.7 147.9,239.6 2.3,-1.5 4.7,-3 6.9,-4.5 19.2,-12.9 38.6,-26.2 53.9,-44"
         style="fill:#233862;fill-opacity:1;fill-rule:nonzero;stroke:none"
         id="path46" /><path
         d="m 18530.5,11662.9 c -12.7,-61 -99.8,-50.2 -197,-25.7 -97.2,24.4 -74.3,-4 -212.7,12.3 -138.5,16.3 -180.1,68.3 -184.2,88.9 -3.7,18.4 64.8,24.3 138.4,32.3 9.2,0.9 18.5,2 27.8,3.1 83,9.8 144.1,62.9 219.7,106.3 71.7,41.1 179.4,210 179.4,210 l 189.9,-16.4 c 0,0 -100.8,-150.8 -139.8,-216.4 -23,-38.6 -22.2,-89.8 -19.6,-129.4 1.3,-21.5 2.6,-43.5 -1.9,-65"
         style="fill:#ffb27d;fill-opacity:1;fill-rule:nonzero;stroke:none"
         id="path48" /><path
         d="m 18333.5,11637.2 c -97.2,24.4 -74.3,-4 -212.7,12.3 -138.5,16.3 -180.1,68.3 -184.2,88.9 -3.7,18.4 64.8,24.3 138.4,32.3 l 0.6,-1.5 c 0,0 82.7,-59.5 198.1,-63 94,-3 193.8,23.2 258.7,21.7 1.3,-21.5 2.6,-43.5 -1.9,-65 -12.7,-61 -99.8,-50.2 -197,-25.7"
         style="fill:#233862;fill-opacity:1;fill-rule:nonzero;stroke:none"
         id="path50" /><path
         d="m 19912.2,11835.4 c 0,0 -13.2,-8.6 -33,-19.5 -23.5,-13 -56.3,-29.2 -86.6,-37.7 -32.3,-9.1 -65.4,-11.4 -89.1,-11.6 -20.6,-0.2 -34.2,1.2 -34.2,1.2 l -227.6,626 -41.1,113.1 -43.8,120.5 -15.2,41.9 -74.1,203.8 c 0,0 181.1,464.5 365.8,243.1 22.5,-27 43.6,-66.3 63.3,-114.4 13.5,-32.9 26.3,-69.9 38.5,-110 9.1,-30.1 18,-62 26.5,-95.1 23,-90.2 43.4,-189.8 61.2,-289.8 59.4,-333.8 89.4,-671.5 89.4,-671.5"
         style="fill:#233862;fill-opacity:1;fill-rule:nonzero;stroke:none"
         id="path52" /><path
         d="m 21135.3,12821 -922.9,-38.8 c -202.2,41.8 -372.8,148.8 -488.8,206.2 -9.6,4.8 -18.6,9.3 -27,13.4 -39.6,19.6 -66.8,33 -78,35.4 -70.2,14.6 -106.3,-99.8 -165.8,-240.5 -12.2,-28.7 -25.2,-58.3 -39.7,-88.3 -10.4,-21.4 -29.9,-49 -56.3,-81 -4.9,-5.9 -9.9,-12 -15.2,-18.1 -204.3,-238.6 -730.1,-682.8 -730.1,-682.8 0,0 -6.2,0 -16.2,0.2 -32.1,0.6 -103.8,3.6 -138.1,16.7 -19.8,7.6 -34.4,16 -44.8,23.3 -15.1,10.7 -21.3,19.1 -21.3,19.1 0,0 629.2,1230.2 955,1565.3 v 0.1 c 4.7,4.9 9.3,9.5 14,14 35.5,34.7 67.1,57.7 93.4,65.9 111,35 829,-4 829,-4 l 22.9,37.3 38.4,2.7 6.6,0.4 31.9,2.4 h 0.1 l 44.2,3.1 65.6,4.6 177.4,12.6 28.5,2.1 328.1,23.3 c 0,0 14.9,-33.8 35.2,-89.7 7.9,-21.9 16.5,-47 25.4,-74.9 58.6,-183.2 134.4,-512.7 48.5,-730"
         style="fill:#2b478b;fill-opacity:1;fill-rule:nonzero;stroke:none"
         id="path54" /><path
         d="m 21345.2,14938.5 c -163.9,139.9 -280.9,174.6 -297.2,396.2 -8.8,120.2 -170.3,518.1 -443.4,483.3 -22.9,-2.9 -45.9,-4.9 -68.9,-4 -31.9,1.2 -84.6,-3 -138.8,-34.8 -131.5,-77 -373.7,-789 -210.4,-1039.1 29.3,-44.9 71.6,-75 130.2,-83.7 6.9,-3.9 13.8,-7.9 21,-11.9 h 0.1 c 29.4,-16.5 61.7,-34.6 95.8,-54 193,-108.8 445.7,-252.7 575.2,-325.4 v 0 c 7.9,-4.4 15.2,-8.6 22.1,-12.5 15,-8.4 27.7,-15.4 37.7,-20.9 15.1,-8.3 24,-12.9 24.7,-12.9 0,0 33.3,-12.9 80,-22.6 65.1,-13.5 156.3,-21.1 219.8,20.4 25.1,16.4 48.6,36.7 69.5,60.2 131.4,147 166,419.9 -117.4,661.7"
         style="fill:#233862;fill-opacity:1;fill-rule:nonzero;stroke:none"
         id="path56" /><path
         d="m 20532.6,14775.1 c -1.2,-0.7 125.9,-45.1 211.3,-8 80.3,34.8 141.9,166.2 140.7,166.3 -36.4,1.9 -76.2,34.1 -105.5,243.3 l -15.6,-5.4 -261.5,-92.1 c 0,0 18.3,-83.8 30,-163.6 9.8,-67 14.9,-131.2 0.6,-140.5"
         style="fill:#ffb27d;fill-opacity:1;fill-rule:nonzero;stroke:none"
         id="path58" /><path
         d="m 20502,15079.2 c 0,0 11.1,-58.7 26.6,-142.7 150.1,25.9 213.3,153.9 234.9,234.8 l -261.5,-92.1"
         style="fill:#ed975d;fill-opacity:1;fill-rule:nonzero;stroke:none"
         id="path60" /><path
         d="m 20462.6,14996.4 c 0,0 357.2,45.4 325.5,267.5 -31.6,222 -6.9,377.4 -236.3,357.9 -229.5,-19.6 -261.6,-110.7 -269.1,-187.4 -7.4,-76.7 86.1,-444.1 179.9,-438"
         style="fill:#ffb27d;fill-opacity:1;fill-rule:nonzero;stroke:none"
         id="path62" /><path
         d="m 20296.6,15555.9 c 0,0 227.1,-198.5 382.4,-215.5 155.3,-17 214.5,32.5 214.5,32.5 0,0 -91,76.7 -145.3,199.9 -16,36.3 -50.2,61.4 -89.7,65 -110.9,10.4 -321.2,16.3 -361.9,-81.9"
         style="fill:#233862;fill-opacity:1;fill-rule:nonzero;stroke:none"
         id="path64" /><path
         d="m 20439.6,15572.5 c 0,0 -77,-73.3 -101.5,-128 -23.6,-52.7 -31.4,-179.2 -13.3,-229.6 0,0 -117.5,232.5 -49.2,344.5 72.3,118.8 164,13.1 164,13.1"
         style="fill:#233862;fill-opacity:1;fill-rule:nonzero;stroke:none"
         id="path66" /><path
         d="m 20228.3,14251.4 c 5.7,-722.6 -1.1,-571.6 77.5,-640.7 18.9,-16.6 72.4,-26.9 142.8,-32 221.4,-16.3 611.2,17.5 626.3,58.3 52.1,141.3 16.3,185.6 60.5,402.2 4.6,23 10.3,48 16.9,75.1 36.6,148.7 71.6,199.2 -52.9,439.4 -112.8,217.6 -230.4,394.4 -241.1,388.1 -303,-177 -326.3,-26.3 -326.3,-26.3 0,0 -306.5,-311.6 -303.7,-664.1"
         style="fill:#aec3ff;fill-opacity:1;fill-rule:nonzero;stroke:none"
         id="path68" /><path
         d="m 19912.2,11835.4 c 0,0 -13.2,-8.6 -33,-19.5 -23.5,-13 -56.3,-29.2 -86.6,-37.7 -32.3,-9.1 -65.4,-11.4 -89.1,-11.6 -20.6,-0.2 -34.2,1.2 -34.2,1.2 l -227.6,626 66.7,113.1 170.7,289.8 56,95.1 c 9.1,-30.1 18,-62 26.5,-95.1 23,-90.2 43.4,-189.8 61.2,-289.8 59.4,-333.8 89.4,-671.5 89.4,-671.5"
         style="fill:#2b478b;fill-opacity:1;fill-rule:nonzero;stroke:none"
         id="path70" /><path
         d="m 20532,14915.6 c 0,0 -310.9,-50.5 -348.3,-183.9 -37.4,-133.4 -257.5,-917.8 -257.5,-917.8 0,0 157.6,-29.5 231.1,42.9 73.4,72.4 258.5,674.8 258.5,674.8 l 116.2,384"
         style="fill:#aec3ff;fill-opacity:1;fill-rule:nonzero;stroke:none"
         id="path72" /><path
         d="m 20448.6,13578.7 c 221.4,-16.3 611.2,17.5 626.3,58.3 52.1,141.3 16.3,185.6 60.5,402.2 l -104.8,301.7 c 0,0 15.3,-335.3 -84.1,-422.7 -99.3,-87.4 -405.8,-167.3 -454.4,-240.6 -23.4,-35.2 -38.9,-70.5 -43.5,-98.9"
         style="fill:#95b3ef;fill-opacity:1;fill-rule:nonzero;stroke:none"
         id="path74" /><path
         d="m 20703.4,13717.8 c 0,0 -218.2,50.2 -253.6,31.1 -35.4,-19.2 -122.1,-89.2 -133.1,-113.7 -10.9,-24.5 78.7,18.1 107.8,25.7 18.8,4.9 68.2,-12.7 92.7,-21 102.9,-35.1 166.2,-17.9 166.2,-17.9 l 20,95.8"
         style="fill:#ffb27d;fill-opacity:1;fill-rule:nonzero;stroke:none"
         id="path76" /><path
         d="m 20858.5,14942 c 0,0 293.3,-20.2 393.9,-162.6 141.6,-200.5 419.4,-1052.6 256,-1164.9 -184.1,-126.4 -833.7,-27.5 -833.7,-27.5 0,0 -20.9,101.3 9.5,150 30.5,48.7 520.4,124.3 543.1,146.8 22.7,22.4 -279.2,442.3 -278.7,510.1 0.5,67.7 -90.1,548.1 -90.1,548.1"
         style="fill:#aec3ff;fill-opacity:1;fill-rule:nonzero;stroke:none"
         id="path78" /><path
         d="m 20438.8,13688.1 c 0,0 -46.2,-58.7 -61.3,-65.7 -15.1,-6.9 -24.8,-5.1 -24.8,-5.1 l 31.3,55.3 54.8,15.5"
         style="fill:#ffb27d;fill-opacity:1;fill-rule:nonzero;stroke:none"
         id="path80" /><path
         d="m 20449.8,13748.9 -133.6,-63.7 c 0,0 5.6,-9.3 22,-8.7 16.4,0.6 57.8,15.4 57.8,15.4 l 53.8,57"
         style="fill:#ffb27d;fill-opacity:1;fill-rule:nonzero;stroke:none"
         id="path82" /><path
         d="m 20406,13560 -1053.3,7.5 -311.3,790.1 1051.7,-7.4 312.9,-790.2"
         style="fill:#f99746;fill-opacity:1;fill-rule:nonzero;stroke:none"
         id="path84" /><path
         d="m 19340.5,13598.2 1391,-9.8 -0.3,-30.7 -1378.5,9.8 -12.2,30.7"
         style="fill:#ed7d2b;fill-opacity:1;fill-rule:nonzero;stroke:none"
         id="path86" /><path
         d="m 19621.3,13959.6 c -7.7,27.7 8.5,50 36.2,49.8 27.7,-0.1 56.4,-22.8 64.2,-50.6 7.7,-27.7 -8.5,-50 -36.2,-49.9 -27.7,0.2 -56.4,22.9 -64.2,50.7"
         style="fill:#ffffff;fill-opacity:1;fill-rule:nonzero;stroke:none"
         id="path88" /><path
         d="m 9009.36,1870.2 h 5622.44 c 391.1,0 708.1,317.1 708.1,708.1 v 29.6 c 0,391 -317,708.1 -708.1,708.1 H 9009.36 c -391.08,0 -708.11,-317.1 -708.11,-708.1 v -29.6 c 0,-391 317.03,-708.1 708.11,-708.1"
         style="fill:#2b478b;fill-opacity:1;fill-rule:nonzero;stroke:none"
         id="path90" /><path
         d="m 12195.8,2785.4 -5,-315.9 c -4.5,-279.5 218.5,-509.8 498,-514.2 l 3736.8,-59.7 1.1,62.9 c -209.7,109.1 -351.2,329.8 -347.2,582.1 l 1.8,111.2 c 4,252.3 152.5,468.4 365.5,570.7 l 0.1,1.3 -3736.9,59.7 c -279.5,4.4 -509.7,-218.6 -514.2,-498.1"
         style="fill:#f9dec7;fill-opacity:1;fill-rule:nonzero;stroke:none"
         id="path92" /><path
         d="m 16523.5,1870.2 h -3936.8 c -253.9,0 -452.8,317.8 -452.8,723.4 0,405.6 198.9,723.3 452.8,723.3 h 3936.8 c 32.7,0 59.2,-26.5 59.2,-59.2 0,-32.7 -26.5,-59.2 -59.2,-59.2 h -3936.8 c -181.3,0 -334.5,-277 -334.5,-604.9 0,-327.9 153.2,-605 334.5,-605 h 3936.8 c 32.7,0 59.2,-26.5 59.2,-59.2 0,-32.7 -26.5,-59.2 -59.2,-59.2"
         style="fill:#1b3770;fill-opacity:1;fill-rule:nonzero;stroke:none"
         id="path94" /><path
         d="m 16147.9,2922.4 h -3385.5 v 9.4 h 3385.5 v -9.4"
         style="fill:#e8c2a3;fill-opacity:1;fill-rule:nonzero;stroke:none"
         id="path96" /><path
         d="m 16099.8,2791.2 h -1285.2 v 8.5 h 1285.2 v -8.5"
         style="fill:#e8c2a3;fill-opacity:1;fill-rule:nonzero;stroke:none"
         id="path98" /><path
         d="m 16099.8,2342.2 h -2242.1 v 8.6 h 2242.1 v -8.6"
         style="fill:#e8c2a3;fill-opacity:1;fill-rule:nonzero;stroke:none"
         id="path100" /><path
         d="m 13182.8,2927.1 c 0,0 173.7,-72.7 194.4,-318.1 20.6,-245.3 0,-376.1 0,-376.1 l -209.7,99.8 -211.7,-99.8 v 383.6 c 0,0 -7.8,310.6 -296.7,310.6 h 523.7"
         style="fill:#f78248;fill-opacity:1;fill-rule:nonzero;stroke:none"
         id="path102" /><path
         d="m 8558.59,3316 h 4325.91 c 256,0 463.5,207.5 463.5,463.5 v 161.2 c 0,256 -207.5,463.5 -463.5,463.5 H 8558.59 c -256,0 -463.53,-207.5 -463.53,-463.5 v -161.2 c 0,-256 207.53,-463.5 463.53,-463.5"
         style="fill:#699dee;fill-opacity:1;fill-rule:nonzero;stroke:none"
         id="path104" /><path
         d="m 11001.6,4005.4 -3.8,-237.5 c -3.3,-210 163.1,-383.1 371.7,-386.5 l 2788.8,-44.8 0.8,47.3 c -156.5,81.9 -262.1,247.9 -259.1,437.5 l 1.3,83.6 c 3,189.6 113.9,352.1 272.8,429 l 0.1,0.9 -2788.8,44.9 c -208.6,3.3 -380.5,-164.3 -383.8,-374.4"
         style="fill:#f9dec7;fill-opacity:1;fill-rule:nonzero;stroke:none"
         id="path106" /><path
         d="m 14231.3,3317.5 h -2938 c -189.5,0 -338,238.8 -338,543.7 0,304.9 148.5,543.8 338,543.8 h 2938 c 24.4,0 44.2,-20 44.2,-44.5 0,-24.6 -19.8,-44.5 -44.2,-44.5 h -2938 c -135.3,0 -249.6,-208.3 -249.6,-454.8 0,-246.5 114.3,-454.7 249.6,-454.7 h 2938 c 24.4,0 44.2,-19.9 44.2,-44.5 0,-24.6 -19.8,-44.5 -44.2,-44.5"
         style="fill:#4b87dd;fill-opacity:1;fill-rule:nonzero;stroke:none"
         id="path108" /><path
         d="m 13951,4108.7 h -2121.4 v 6.4 H 13951 v -6.4"
         style="fill:#e8c2a3;fill-opacity:1;fill-rule:nonzero;stroke:none"
         id="path110" /><path
         d="M 13915.1,4009.8 H 12956 v 6.4 h 959.1 v -6.4"
         style="fill:#e8c2a3;fill-opacity:1;fill-rule:nonzero;stroke:none"
         id="path112" /><path
         d="m 13915.1,3672.3 h -1673.2 v 6.4 h 1673.2 v -6.4"
         style="fill:#e8c2a3;fill-opacity:1;fill-rule:nonzero;stroke:none"
         id="path114" /><path
         d="m 23385,5306.5 c 0,0 54.1,-166.4 49.4,-204.5 -4.6,-38.1 -38.6,-168.2 -62.8,-201.5 -24.2,-33.3 -36.2,135.7 -55.4,161.1 -19.2,25.4 -3.9,-63.6 -17.4,-71.9 -13.6,-8.2 -41.8,65.5 -53.9,91.5 -12.1,26 29.7,121.9 29.8,188.8 0.1,66.8 110.3,36.5 110.3,36.5"
         style="fill:#ffb27d;fill-opacity:1;fill-rule:nonzero;stroke:none"
         id="path116" /><path
         d="m 22113.8,6628.9 c -15,190.9 192.4,321.7 356.1,222.4 3.4,-2 6.7,-4.1 10,-6.2 245.1,-157.8 774,-894 810.4,-967.7 36.4,-73.8 143.8,-660.5 143.8,-660.5 0,0 -132.7,-48.6 -194.8,1.8 0,0 -215.3,556.5 -247.2,584.3 -31.8,27.8 -861.2,493.2 -868.3,667.6 -1.9,46.2 -5.6,101.6 -10,158.3"
         style="fill:#233862;fill-opacity:1;fill-rule:nonzero;stroke:none"
         id="path118" /><path
         d="m 21020.6,6936.8 72.1,-207.1 -1041.7,-362.7 -72.1,207.1 1041.7,362.7"
         style="fill:#f99746;fill-opacity:1;fill-rule:nonzero;stroke:none"
         id="path120" /><path
         d="m 19772.7,6386.2 278.3,-19.2 -72.1,207.1 z"
         style="fill:#f9ddbf;fill-opacity:1;fill-rule:nonzero;stroke:none"
         id="path122" /><path
         d="m 21165.6,6910.3 22.8,-65.5 c 14,-40.3 -7.3,-84.3 -47.5,-98.3 l -48.2,-16.8 -72.1,207.1 52.4,18.2 c 37.9,13.3 79.4,-6.8 92.6,-44.7"
         style="fill:#f9ddbf;fill-opacity:1;fill-rule:nonzero;stroke:none"
         id="path124" /><path
         d="m 23593.9,2319.7 c 0,0 98.8,-90.2 79.5,-154.3 -19.3,-64 -108.5,-106.8 -120.5,-185.1 -12.1,-78.3 -60.3,-121 -103.7,-121 -43.4,0 -206.8,0 -206.8,0 0,0 -32,55.1 45.2,71.7 77.1,16.6 106.2,108.6 101.4,194.1 -4.9,85.4 7.2,199.4 7.2,199.4 l 163.9,37.9 33.8,-42.7"
         style="fill:#1f4075;fill-opacity:1;fill-rule:nonzero;stroke:none"
         id="path126" /><path
         d="m 22381.4,2086.4 c 0,0 17.7,-205.2 -25.7,-226.6 l -555.3,1.2 c 0,0 0,64 89.2,78.3 89.2,14.2 245.9,66.4 272.4,182.7 26.5,116.3 219.4,-35.6 219.4,-35.6"
         style="fill:#1f4075;fill-opacity:1;fill-rule:nonzero;stroke:none"
         id="path128" /><path
         d="m 21912.6,4985.9 c 0,0 29.3,-359.8 63.7,-792.3 46.8,-587.5 103,-1309.1 108.6,-1445.9 9.6,-237.4 48.2,-617.1 48.2,-617.1 0,0 91.6,-90.2 274.8,-52.2 0,0 163.3,542.1 210,1115.7 0.7,9.4 1.4,18.8 2.1,28.3 43.4,583.9 110.9,1813.4 110.9,1813.4 l -818.3,-49.9"
         style="fill:#f99746;fill-opacity:1;fill-rule:nonzero;stroke:none"
         id="path130" /><path
         d="m 21912.6,4985.9 c 0,0 29.3,-359.8 63.7,-792.3 l 641.6,-999.5 c 0.7,9.4 1.4,18.8 2.1,28.3 43.4,583.9 110.9,1813.4 110.9,1813.4 l -818.3,-49.9"
         style="fill:#ef7e29;fill-opacity:1;fill-rule:nonzero;stroke:none"
         id="path132" /><path
         d="m 22046.3,4943.2 c 0,0 527.9,-1303 875,-1915.4 347.1,-612.4 455.6,-783.3 455.6,-783.3 0,0 198.9,78.4 217,131.8 0,0 -132.8,1182.2 -365.2,1470.4 -131.4,162.8 -285.7,651.5 -292.9,822.4 -7.2,170.9 -47,509.1 -47,509.1 l -842.5,-235"
         style="fill:#f99746;fill-opacity:1;fill-rule:nonzero;stroke:none"
         id="path134" /><path
         d="m 22501.5,6897.9 c 0,0 -353.7,-179.4 -560.8,-119.6 0,0 49.4,65 137.1,114.3 -7.9,41.2 -14.2,76.9 -18,107.3 -10.1,70 -10.8,109.7 -10.8,109.7 l 135.6,111.1 128.6,106.3 c -4.5,-291.8 188.3,-429.1 188.3,-429.1"
         style="fill:#ffb27d;fill-opacity:1;fill-rule:nonzero;stroke:none"
         id="path136" /><path
         d="m 22852.8,5075.1 c -142.8,-86.5 -278,-151.4 -436.2,-187.9 -186.6,-44.3 -416,-31.2 -492.7,-42.9 -7.9,-1.1 -15.4,1 -22.4,5.6 -6,3.1 -39.9,230.8 -73.8,518.1 -1.5,11.5 -3.1,23.2 -3.7,34.9 l -0.5,3.9 c -13.2,112.3 -24.8,230.3 -34.8,348.6 -8.2,92 -14.9,183 -19.6,268.5 -5.9,106.9 -8.3,205.2 -5.9,286 1.1,36.9 3.2,70.1 6.5,99 20.3,167.8 100.3,287.7 175.7,377 l 62.5,71.2 c 72.5,-4.6 146.6,9.1 216.4,55.2 76.4,50.3 159.1,109.9 174.7,100.8 117.1,-64 212,-235.5 280.1,-454.7 39,-126.1 69,-269.3 88.2,-420.9 6.1,-47.1 11.4,-95.3 15.4,-143.4 0.8,-8.9 1.4,-17.8 2.1,-26.5 9.2,-131.4 24.2,-254.6 40.8,-364.5 22.4,-148.3 47.9,-272.6 65.9,-360.1 9,-44.5 15.9,-78.9 20,-103.6 3.6,-21.5 -39.5,-52.3 -58.7,-64.3"
         style="fill:#2b478b;fill-opacity:1;fill-rule:nonzero;stroke:none"
         id="path138" /><path
         d="m 22317.8,7215.6 c 0,0 -87,-166.3 -258,-215.7 -10.1,70 -10.8,109.7 -10.8,109.7 l 135.6,111.1 133.2,-5.1"
         style="fill:#ed985f;fill-opacity:1;fill-rule:nonzero;stroke:none"
         id="path140" /><path
         d="m 21986,7113.1 c 0,0 341.8,-48.9 369.6,161.1 27.9,210.1 90.7,345.2 -126.3,385.4 -217.1,40.1 -270.2,-34.6 -296.8,-102.5 -26.6,-67.9 -34.6,-425.8 53.5,-444"
         style="fill:#ffb27d;fill-opacity:1;fill-rule:nonzero;stroke:none"
         id="path142" /><path
         d="m 22471.3,7689.5 c 3,3.6 10.1,6.6 25.9,7.8 0,0 -12.8,7.7 -29.8,7.7 -3.8,22 -16.3,60.9 -54.5,69.6 0,0 20.7,-10.5 23.8,-33.9 -44.9,44.3 -139.8,75.4 -400.5,49.6 -343.5,-34 -225.8,-252.1 -180.7,-277.4 45.1,-25.4 155.8,48.8 238.9,43.9 83.1,-5 101.3,-124.6 129.8,-140.5 28.4,-15.9 16.8,13 54.5,31 37.8,17.9 42.7,-45.1 32.5,-86.4 -10.2,-41.2 43.2,-94.3 43.2,-94.3 0,0 0,0 51.8,58 51.7,58 96.8,300.3 71.7,351.2 -2.2,4.5 -4.4,9.1 -6.6,13.7"
         style="fill:#2c3a64;fill-opacity:1;fill-rule:nonzero;stroke:none"
         id="path144" /><path
         d="m 22362.7,6291.2 c 0,0 -288.1,-219.3 -593.6,-267.3 -5.9,106.9 -8.3,205.2 -5.9,286 l 599.5,-18.7"
         style="fill:#233862;fill-opacity:1;fill-rule:nonzero;stroke:none"
         id="path146" /><path
         d="m 20593,6574.1 c -4.5,4.9 -63.3,201.3 -164.9,187 -66.3,-9.3 -174.6,-47.7 -145.9,-135.1 11.4,-34.3 213.4,-152.6 213.4,-152.6 l 97.4,100.7"
         style="fill:#ffb27d;fill-opacity:1;fill-rule:nonzero;stroke:none"
         id="path148" /><path
         d="m 22398.4,6714.8 c 164.3,-98.3 151,-343.1 -24.8,-419.1 -3.6,-1.6 -7.2,-3.1 -10.8,-4.5 -270.6,-108.6 -1075.6,-120.6 -1258.3,-100.6 -198.1,21.7 -621.8,265.1 -621.8,265.1 0,0 37.3,136.4 114.3,157.8 0,0 447.6,-126.8 619.5,-136.7 108.8,-6.2 900.7,416.7 1047.1,321.5 38.7,-25.2 86,-54.3 134.8,-83.5"
         style="fill:#2b478b;fill-opacity:1;fill-rule:nonzero;stroke:none"
         id="path150" /><path
         d="m 18461.9,2824.7 -1831.4,-90.1 V 4566 l 1831.4,90 V 2824.7"
         style="fill:#f9dec7;fill-opacity:1;fill-rule:nonzero;stroke:none"
         id="path152" /><path
         d="m 16768.1,2950.6 540.9,1001.9 397.8,-523 198.6,226.9 420.9,-629.2 -1558.2,-76.6"
         style="fill:#fff7f0;fill-opacity:1;fill-rule:nonzero;stroke:none"
         id="path154" /><path
         d="m 17566.8,4105.1 c 0,77.4 62.7,143.1 140,146.9 77.3,3.8 140,-55.8 140,-133.1 0,-77.3 -62.7,-143.1 -140,-146.9 -77.3,-3.8 -140,55.8 -140,133.1"
         style="fill:#fff7f0;fill-opacity:1;fill-rule:nonzero;stroke:none"
         id="path156" /><path
         d="m 23904.1,9827.3 -2638.4,-129.6 v 2638.4 l 2638.4,129.6 V 9827.3"
         style="fill:#f9dec7;fill-opacity:1;fill-rule:nonzero;stroke:none"
         id="path158" /><path
         d="m 21463.8,10008.8 779.4,1443.3 573,-753.4 286.1,326.8 606.4,-906.4 -2244.9,-110.3"
         style="fill:#fff7f0;fill-opacity:1;fill-rule:nonzero;stroke:none"
         id="path160" /><path
         d="m 22614.5,11672.1 c 0,111.3 90.3,206.1 201.7,211.6 111.4,5.4 201.7,-80.4 201.7,-191.8 0,-111.4 -90.3,-206.1 -201.7,-211.6 -111.4,-5.5 -201.7,80.4 -201.7,191.8"
         style="fill:#fff7f0;fill-opacity:1;fill-rule:nonzero;stroke:none"
         id="path162" /><path
         d="m 19210.5,7836.7 -2580,-126.8 v 150.3 l 2580,126.8 v -150.3"
         style="fill:#f99746;fill-opacity:1;fill-rule:nonzero;stroke:none"
         id="path164" /><path
         d="m 18013.7,7473.7 -1383.2,-68 v 75.2 l 1383.2,67.9 v -75.1"
         style="fill:#f9dec7;fill-opacity:1;fill-rule:nonzero;stroke:none"
         id="path166" /><path
         d="m 17608.3,7203.8 -977.8,-48.1 v 75.1 l 977.8,48.1 v -75.1"
         style="fill:#f9dec7;fill-opacity:1;fill-rule:nonzero;stroke:none"
         id="path168" /><path
         d="m 18775.8,7261.2 -977.7,-48.1 v 75.1 l 977.7,48.1 v -75.1"
         style="fill:#f9dec7;fill-opacity:1;fill-rule:nonzero;stroke:none"
         id="path170" /><path
         d="M 20106.5,7326.5 18915.1,7268 v 75.1 l 1191.4,58.6 v -75.2"
         style="fill:#f9dec7;fill-opacity:1;fill-rule:nonzero;stroke:none"
         id="path172" /><path
         d="m 17479.3,6952.6 -848.8,-41.8 v 75.2 l 848.8,41.7 v -75.1"
         style="fill:#f9dec7;fill-opacity:1;fill-rule:nonzero;stroke:none"
         id="path174" /><path
         d="m 18493,7002.4 -848.8,-41.7 v 75.1 l 848.8,41.7 v -75.1"
         style="fill:#f9dec7;fill-opacity:1;fill-rule:nonzero;stroke:none"
         id="path176" /><path
         d="m 19648.2,7059.2 -1034.3,-50.9 v 75.2 l 1034.3,50.8 v -75.1"
         style="fill:#f9dec7;fill-opacity:1;fill-rule:nonzero;stroke:none"
         id="path178" /><path
         d="m 19210.5,9532.5 -2580,-126.8 V 9556 l 2580,126.8 v -150.3"
         style="fill:#f99746;fill-opacity:1;fill-rule:nonzero;stroke:none"
         id="path180" /><path
         d="m 18013.7,9169.5 -1383.2,-68 v 75.2 l 1383.2,68 v -75.2"
         style="fill:#f9dec7;fill-opacity:1;fill-rule:nonzero;stroke:none"
         id="path182" /><path
         d="m 19665.3,9250.7 -1383.1,-68 v 75.2 l 1383.1,67.9 v -75.1"
         style="fill:#f9dec7;fill-opacity:1;fill-rule:nonzero;stroke:none"
         id="path184" /><path
         d="m 17608.3,8899.6 -977.8,-48.1 v 75.2 l 977.8,48 v -75.1"
         style="fill:#f9dec7;fill-opacity:1;fill-rule:nonzero;stroke:none"
         id="path186" /><path
         d="m 18775.8,8957 -977.7,-48.1 v 75.2 l 977.7,48 V 8957"
         style="fill:#f9dec7;fill-opacity:1;fill-rule:nonzero;stroke:none"
         id="path188" /><path
         d="m 20106.5,9022.4 -1191.4,-58.6 v 75.2 l 1191.4,58.5 v -75.1"
         style="fill:#f9dec7;fill-opacity:1;fill-rule:nonzero;stroke:none"
         id="path190" /><path
         d="m 17479.3,8648.4 -848.8,-41.7 v 75.1 l 848.8,41.7 v -75.1"
         style="fill:#f9dec7;fill-opacity:1;fill-rule:nonzero;stroke:none"
         id="path192" /><path
         d="m 18493,8698.2 -848.8,-41.7 v 75.1 l 848.8,41.7 v -75.1"
         style="fill:#f9dec7;fill-opacity:1;fill-rule:nonzero;stroke:none"
         id="path194" /><path
         d="m 19648.2,8755 -1034.3,-50.8 v 75.1 l 1034.3,50.8 V 8755"
         style="fill:#f9dec7;fill-opacity:1;fill-rule:nonzero;stroke:none"
         id="path196" /><path
         d="m 23065.7,9323.4 -1814.9,-89.2 v 105.7 l 1814.9,89.2 v -105.7"
         style="fill:#f99746;fill-opacity:1;fill-rule:nonzero;stroke:none"
         id="path198" /><path
         d="m 22223.8,9068 -973,-47.8 v 52.9 l 973,47.8 V 9068"
         style="fill:#f9dec7;fill-opacity:1;fill-rule:nonzero;stroke:none"
         id="path200" /><path
         d="m 23385.7,9125.1 -973,-47.8 v 52.9 l 973,47.8 v -52.9"
         style="fill:#f9dec7;fill-opacity:1;fill-rule:nonzero;stroke:none"
         id="path202" /><path
         d="m 21938.6,8878.2 -687.8,-33.9 v 52.9 l 687.8,33.8 v -52.8"
         style="fill:#f9dec7;fill-opacity:1;fill-rule:nonzero;stroke:none"
         id="path204" /><path
         d="m 22760,8918.5 -687.8,-33.8 v 52.9 l 687.8,33.8 v -52.9"
         style="fill:#f9dec7;fill-opacity:1;fill-rule:nonzero;stroke:none"
         id="path206" /><path
         d="m 23696.1,8964.5 -838.1,-41.2 v 52.9 l 838.1,41.2 v -52.9"
         style="fill:#f9dec7;fill-opacity:1;fill-rule:nonzero;stroke:none"
         id="path208" /><path
         d="m 21848,8701.4 -597.2,-29.3 v 52.8 l 597.2,29.4 v -52.9"
         style="fill:#f9dec7;fill-opacity:1;fill-rule:nonzero;stroke:none"
         id="path210" /><path
         d="m 22561,8736.5 -597.1,-29.4 v 52.9 l 597.1,29.3 v -52.8"
         style="fill:#f9dec7;fill-opacity:1;fill-rule:nonzero;stroke:none"
         id="path212" /><path
         d="m 23373.7,8776.4 -727.6,-35.7 v 52.8 l 727.6,35.8 v -52.9"
         style="fill:#f9dec7;fill-opacity:1;fill-rule:nonzero;stroke:none"
         id="path214" /><path
         d="m 19210.5,6067.7 -2580,-126.8 v 150.3 l 2580,126.8 v -150.3"
         style="fill:#f99746;fill-opacity:1;fill-rule:nonzero;stroke:none"
         id="path216" /><path
         d="m 18013.7,5704.7 -1383.2,-68 v 75.1 l 1383.2,68 v -75.1"
         style="fill:#f9dec7;fill-opacity:1;fill-rule:nonzero;stroke:none"
         id="path218" /><path
         d="m 19665.3,5785.9 -1383.1,-68 v 75.1 l 1383.1,68 v -75.1"
         style="fill:#f9dec7;fill-opacity:1;fill-rule:nonzero;stroke:none"
         id="path220" /><path
         d="m 17608.3,5434.8 -977.8,-48.1 v 75.1 l 977.8,48.1 v -75.1"
         style="fill:#f9dec7;fill-opacity:1;fill-rule:nonzero;stroke:none"
         id="path222" /><path
         d="m 18775.8,5492.1 -977.7,-48 v 75.1 l 977.7,48.1 v -75.2"
         style="fill:#f9dec7;fill-opacity:1;fill-rule:nonzero;stroke:none"
         id="path224" /><path
         d="M 20106.5,5557.5 18915.1,5499 v 75.1 l 1191.4,58.6 v -75.2"
         style="fill:#f9dec7;fill-opacity:1;fill-rule:nonzero;stroke:none"
         id="path226" /><path
         d="m 17479.3,5183.5 -848.8,-41.7 v 75.2 l 848.8,41.7 v -75.2"
         style="fill:#f9dec7;fill-opacity:1;fill-rule:nonzero;stroke:none"
         id="path228" /><path
         d="m 18493,5233.4 -848.8,-41.8 v 75.2 l 848.8,41.7 v -75.1"
         style="fill:#f9dec7;fill-opacity:1;fill-rule:nonzero;stroke:none"
         id="path230" /><path
         d="m 19648.2,5290.1 -1034.3,-50.8 v 75.1 l 1034.3,50.9 v -75.2"
         style="fill:#f9dec7;fill-opacity:1;fill-rule:nonzero;stroke:none"
         id="path232" /><path
         d="m 20927,3711.2 -1992.8,-97.9 v 150.3 l 1992.8,97.9 v -150.3"
         style="fill:#f99746;fill-opacity:1;fill-rule:nonzero;stroke:none"
         id="path234" /><path
         d="m 20002.5,3361.6 -1068.3,-52.5 v 75.1 l 1068.3,52.5 v -75.1"
         style="fill:#f9dec7;fill-opacity:1;fill-rule:nonzero;stroke:none"
         id="path236" /><path
         d="M 21278.3,3424.3 20210,3371.8 v 75.1 l 1068.3,52.5 v -75.1"
         style="fill:#f9dec7;fill-opacity:1;fill-rule:nonzero;stroke:none"
         id="path238" /><path
         d="m 19689.4,3096.2 -755.2,-37.1 v 75.1 l 755.2,37.1 v -75.1"
         style="fill:#f9dec7;fill-opacity:1;fill-rule:nonzero;stroke:none"
         id="path240" /><path
         d="m 20591.3,3140.5 -755.3,-37.1 v 75.1 l 755.3,37.2 v -75.2"
         style="fill:#f9dec7;fill-opacity:1;fill-rule:nonzero;stroke:none"
         id="path242" /><path
         d="m 21619.1,3191 -920.2,-45.2 v 75.2 l 920.2,45.2 V 3191"
         style="fill:#f9dec7;fill-opacity:1;fill-rule:nonzero;stroke:none"
         id="path244" /><path
         d="m 19589.8,2846.4 -655.6,-32.2 v 75.2 l 655.6,32.2 v -75.2"
         style="fill:#f9dec7;fill-opacity:1;fill-rule:nonzero;stroke:none"
         id="path246" /><path
         d="m 20372.8,2884.9 -655.7,-32.2 v 75.1 l 655.7,32.2 v -75.1"
         style="fill:#f9dec7;fill-opacity:1;fill-rule:nonzero;stroke:none"
         id="path248" /><path
         d="m 21265.1,2928.8 -798.9,-39.3 v 75.1 l 798.9,39.3 v -75.1"
         style="fill:#f9dec7;fill-opacity:1;fill-rule:nonzero;stroke:none"
         id="path250" /><path
         d="m 15194.6,8925.3 -2875.1,104.4 v 2875.1 l 2875.1,-104.4 V 8925.3"
         style="fill:#f9dec7;fill-opacity:1;fill-rule:nonzero;stroke:none"
         id="path252" /><path
         d="m 12535.5,9350.3 849.2,1500.2 624.5,-874.4 311.8,329.5 660.7,-1044.1 -2446.2,88.8"
         style="fill:#fff7f0;fill-opacity:1;fill-rule:nonzero;stroke:none"
         id="path254" /><path
         d="m 13789.4,11055.6 c 0,121.4 98.4,216.2 219.8,211.8 121.3,-4.4 219.7,-106.4 219.7,-227.8 0,-121.3 -98.4,-216.2 -219.7,-211.7 -121.4,4.4 -219.8,106.3 -219.8,227.7"
         style="fill:#fff7f0;fill-opacity:1;fill-rule:nonzero;stroke:none"
         id="path256" /><path
         d="m 14851.1,7791.5 -2579.9,93.7 v 150.3 l 2579.9,-93.7 v -150.3"
         style="fill:#f99746;fill-opacity:1;fill-rule:nonzero;stroke:none"
         id="path258" /><path
         d="m 13654.3,7530.8 -1383.1,50.2 v 75.1 l 1383.1,-50.2 v -75.1"
         style="fill:#f9dec7;fill-opacity:1;fill-rule:nonzero;stroke:none"
         id="path260" /><path
         d="m 13248.9,7295.5 -977.7,35.5 v 75.1 l 977.7,-35.5 v -75.1"
         style="fill:#f9dec7;fill-opacity:1;fill-rule:nonzero;stroke:none"
         id="path262" /><path
         d="m 14416.5,7253.1 -977.8,35.5 v 75.1 l 977.8,-35.4 v -75.2"
         style="fill:#f9dec7;fill-opacity:1;fill-rule:nonzero;stroke:none"
         id="path264" /><path
         d="m 15747.1,7204.8 -1191.3,43.3 v 75.1 l 1191.3,-43.2 v -75.2"
         style="fill:#f9dec7;fill-opacity:1;fill-rule:nonzero;stroke:none"
         id="path266" /><path
         d="m 13120,7055.3 -848.8,30.8 v 75.2 l 848.8,-30.9 v -75.1"
         style="fill:#f9dec7;fill-opacity:1;fill-rule:nonzero;stroke:none"
         id="path268" /><path
         d="m 14133.6,7018.5 -848.8,30.8 v 75.2 l 848.8,-30.8 v -75.2"
         style="fill:#f9dec7;fill-opacity:1;fill-rule:nonzero;stroke:none"
         id="path270" /><path
         d="m 15288.9,6976.6 -1034.3,37.5 v 75.2 l 1034.3,-37.6 v -75.1"
         style="fill:#f9dec7;fill-opacity:1;fill-rule:nonzero;stroke:none"
         id="path272" /><path
         d="m 14851.1,6022.5 -2579.9,93.7 v 150.3 l 2579.9,-93.7 v -150.3"
         style="fill:#f99746;fill-opacity:1;fill-rule:nonzero;stroke:none"
         id="path274" /><path
         d="m 13654.3,5761.8 -1383.1,50.2 v 75.1 l 1383.1,-50.2 v -75.1"
         style="fill:#f9dec7;fill-opacity:1;fill-rule:nonzero;stroke:none"
         id="path276" /><path
         d="m 15306,5701.8 -1383.2,50.2 v 75.2 L 15306,5777 v -75.2"
         style="fill:#f9dec7;fill-opacity:1;fill-rule:nonzero;stroke:none"
         id="path278" /><path
         d="m 13248.9,5526.5 -977.7,35.5 v 75.1 l 977.7,-35.5 v -75.1"
         style="fill:#f9dec7;fill-opacity:1;fill-rule:nonzero;stroke:none"
         id="path280" /><path
         d="m 14416.5,5484.1 -977.8,35.5 v 75.1 l 977.8,-35.5 v -75.1"
         style="fill:#f9dec7;fill-opacity:1;fill-rule:nonzero;stroke:none"
         id="path282" /><path
         d="m 15747.1,5435.8 -1191.3,43.3 v 75.1 l 1191.3,-43.3 v -75.1"
         style="fill:#f9dec7;fill-opacity:1;fill-rule:nonzero;stroke:none"
         id="path284" /><path
         d="m 13120,5286.3 -848.8,30.8 v 75.2 l 848.8,-30.9 v -75.1"
         style="fill:#f9dec7;fill-opacity:1;fill-rule:nonzero;stroke:none"
         id="path286" /><path
         d="m 14133.6,5249.5 -848.8,30.8 v 75.2 l 848.8,-30.9 v -75.1"
         style="fill:#f9dec7;fill-opacity:1;fill-rule:nonzero;stroke:none"
         id="path288" /><path
         d="m 15288.9,5207.6 -1034.3,37.5 v 75.2 l 1034.3,-37.6 v -75.1"
         style="fill:#f9dec7;fill-opacity:1;fill-rule:nonzero;stroke:none"
         id="path290" /><path
         d="m 11185.3,12183.2 -2579.99,93.7 v 150.2 l 2579.99,-93.6 v -150.3"
         style="fill:#f99746;fill-opacity:1;fill-rule:nonzero;stroke:none"
         id="path292" /><path
         d="m 9988.44,11922.5 -1383.13,50.2 v 75.1 l 1383.13,-50.2 v -75.1"
         style="fill:#f9dec7;fill-opacity:1;fill-rule:nonzero;stroke:none"
         id="path294" /><path
         d="m 11640.1,11862.5 -1383.1,50.2 v 75.1 l 1383.1,-50.2 v -75.1"
         style="fill:#f9dec7;fill-opacity:1;fill-rule:nonzero;stroke:none"
         id="path296" /><path
         d="m 9583.05,11687.2 -977.74,35.5 v 75.1 l 977.74,-35.5 v -75.1"
         style="fill:#f9dec7;fill-opacity:1;fill-rule:nonzero;stroke:none"
         id="path298" /><path
         d="m 10750.6,11644.8 -977.71,35.5 v 75.1 l 977.71,-35.5 v -75.1"
         style="fill:#f9dec7;fill-opacity:1;fill-rule:nonzero;stroke:none"
         id="path300" /><path
         d="m 12081.3,11596.5 -1191.4,43.2 v 75.2 l 1191.4,-43.3 v -75.1"
         style="fill:#f9dec7;fill-opacity:1;fill-rule:nonzero;stroke:none"
         id="path302" /><path
         d="m 9454.14,11447 -848.83,30.8 v 75.1 l 848.83,-30.8 v -75.1"
         style="fill:#f9dec7;fill-opacity:1;fill-rule:nonzero;stroke:none"
         id="path304" /><path
         d="m 10467.8,11410.2 -848.85,30.8 v 75.1 l 848.85,-30.8 v -75.1"
         style="fill:#f9dec7;fill-opacity:1;fill-rule:nonzero;stroke:none"
         id="path306" /><path
         d="m 11623,11368.2 -1034.3,37.6 v 75.1 l 1034.3,-37.5 v -75.2"
         style="fill:#f9dec7;fill-opacity:1;fill-rule:nonzero;stroke:none"
         id="path308" /><path
         d="m 10270.3,14628.4 -234.2,326.6 -62.31,-397.1 z m -414.29,595.5 226.39,53.7 745.3,-1010.3 -256.7,-61 -161.5,226.1 -471.89,-112.2 -42.57,-274.5 -250.3,-59.5 211.27,1237.7"
         style="fill:#afcdfb;fill-opacity:1;fill-rule:nonzero;stroke:none"
         id="path310" /><path
         d="m 11125.7,15885.2 c 32.3,324.5 303.3,566.1 653.9,531.2 215.2,-21.4 327.8,-114.9 423.4,-229.8 l -167.2,-157.9 c -80.1,88.6 -150.4,143.4 -280.9,156.3 -192.4,19.1 -346.9,-126.9 -366.6,-325.8 -19.5,-195.7 99.7,-372.2 295.4,-391.7 130.4,-12.9 215.5,31.3 313.3,103.9 l 142.8,-187 c -129.9,-114 -267.1,-169.5 -487.3,-147.6 -335.9,33.4 -559.6,317.4 -526.8,648.4"
         style="fill:#afcdfb;fill-opacity:1;fill-rule:nonzero;stroke:none"
         id="path312" /><path
         d="m 15269.7,15367.9 c 110,17.8 170,67.3 155.9,154.7 -12.3,76 -76.4,113.8 -204.2,93.1 l -288,-46.4 40.2,-249.2 z m -140,445.5 c 110,17.8 173.8,64.6 159.7,152 -12,74.4 -77,107 -182.2,90 l -245.9,-39.6 38.7,-239.5 z m -546.3,381.6 525.8,84.9 c 129.4,20.9 237,1.7 312.2,-52.5 60.1,-43.5 96.2,-102.4 109.3,-183.3 20.6,-127.8 -35.9,-209.9 -109.4,-268.3 139.1,-29 232.3,-91.9 257.3,-247.2 33.5,-207.1 -118.1,-337.8 -373.7,-379.1 l -538.7,-86.9 -182.8,1132.4"
         style="fill:#afcdfb;fill-opacity:1;fill-rule:nonzero;stroke:none"
         id="path314" /><path
         d="m 12610.6,14302.8 c 27.7,324.9 303.4,569.5 649.5,540.1 205.8,-17.5 325.1,-83.5 435.7,-194.9 l -174.6,-177.6 c -81.9,81 -156.7,130.1 -289,141.4 -182.8,15.5 -341.9,-133.8 -358.7,-331.4 -17.8,-209 112.9,-374.7 315.3,-391.9 91.5,-7.7 175.1,8.2 242.6,48.5 l 13.9,163.3 -253.1,21.5 18.5,217.1 496.4,-42.2 -42.2,-496.3 c -126.1,-89.6 -294.7,-157.5 -503.7,-139.8 -355.9,30.3 -579.6,300.9 -550.6,642.2"
         style="fill:#afcdfb;fill-opacity:1;fill-rule:nonzero;stroke:none"
         id="path316" /><path
         d="m 26397.6,13276.2 -149.8,194.1 194.4,143.1 149.1,-205.7 c 30.7,42.1 51.1,91.4 63.7,150.7 40.7,192.4 -66.5,382.5 -265.3,424.6 -198.8,42.1 -369.9,-85.9 -411.3,-281.5 -40.7,-192.4 66.5,-382.5 265.3,-424.6 54.5,-11.5 106.6,-10.8 153.9,-0.7 z m 148.6,-200.6 c -107.5,-40.9 -228.8,-52.1 -353.9,-25.7 -346.3,73.3 -540.2,384 -472,706.2 67.5,319.1 374.5,527.1 720.8,453.9 346.3,-73.3 540.2,-384 472,-706.2 -24.8,-117.1 -83.8,-221.8 -167.6,-301.2 l 94.8,-122.3 -194.1,-141.5 -100,136.8"
         style="fill:#afcdfb;fill-opacity:1;fill-rule:nonzero;stroke:none"
         id="path318" /><path
         d="m 23964.4,15498.5 230.6,31.2 627.5,-627.7 -94.8,699.9 246.8,33.4 154,-1136.7 -212.7,-28.8 -648.4,648 97.9,-722.6 -246.8,-33.4 -154.1,1136.7"
         style="fill:#afcdfb;fill-opacity:1;fill-rule:nonzero;stroke:none"
         id="path320" /><path
         d="m 16483.8,14895.8 268.9,-28 156.1,-797.1 336.5,749.2 215.1,-22.3 175.3,-802.4 316.7,748 262.4,-27.3 -509,-1108.6 -218.4,22.7 -180,773.3 -335.1,-719.8 -218.4,22.7 -270.1,1189.6"
         style="fill:#afcdfb;fill-opacity:1;fill-rule:nonzero;stroke:none"
         id="path322" /><path
         d="m 4695.88,2200.4 c 0,-13.8 0.82,-27.5 2.55,-40.9 5.17,-42.9 18.45,-83.3 38.16,-119.6 15.45,-28.4 34.9,-54.2 57.53,-76.8 60.79,-60.7 144.58,-98.2 237.28,-98.2 h 4718.81 c 185.3,0 335.59,150.2 335.59,335.5 0,92.7 -37.5,176.6 -98.31,237.3 -60.71,60.8 -144.59,98.3 -237.28,98.3 H 5031.4 c -185.3,0 -335.52,-150.2 -335.52,-335.6"
         style="fill:#f78248;fill-opacity:1;fill-rule:nonzero;stroke:none"
         id="path324" /><path
         d="m 5055.81,2596.7 h 1617.91 c 28.32,0 51.49,23.2 51.49,51.5 0,28.3 -23.17,51.5 -51.49,51.5 H 5055.81 c -28.32,0 -51.5,-23.2 -51.5,-51.5 0,-28.3 23.18,-51.5 51.5,-51.5"
         style="fill:#f78248;fill-opacity:1;fill-rule:nonzero;stroke:none"
         id="path326" /><path
         d="m 5145.17,2536 h 175.37 v 60.7 H 5145.17 V 2536"
         style="fill:#ea642f;fill-opacity:1;fill-rule:nonzero;stroke:none"
         id="path328" /><path
         d="m 4736.59,2039.9 c 15.45,-28.4 34.9,-54.2 57.53,-76.8 60.79,-60.7 144.58,-98.2 237.28,-98.2 h 999.54 v 175 H 4736.59"
         style="fill:#ea642f;fill-opacity:1;fill-rule:nonzero;stroke:none"
         id="path330" /><path
         d="m 10710.4,2298.7 v -196.6 c 0,-21.5 -2.9,-42.4 -8.3,-62.2 -27.2,-100.9 -119.4,-175 -228.9,-175 H 5557.76 c -109.51,0 -201.66,74.1 -228.92,175 -5.36,19.8 -8.26,40.7 -8.26,62.2 v 196.6 c 0,131.1 106.14,237.3 237.18,237.3 h 4915.44 c 131.1,0 237.2,-106.2 237.2,-237.3"
         style="fill:#f99746;fill-opacity:1;fill-rule:nonzero;stroke:none"
         id="path332" /><path
         d="m 10702.1,2039.9 c -27.2,-100.9 -119.4,-175 -228.9,-175 H 5557.76 c -109.51,0 -201.66,74.1 -228.92,175 h 5373.26"
         style="fill:#ef873a;fill-opacity:1;fill-rule:nonzero;stroke:none"
         id="path334" /><path
         d="m 10222.2,2199.2 c 0,-104.2 37.9,-197.4 97.6,-259.1 1.4,-1.4 2.7,-2.7 4,-4.1 46.2,-46 104.7,-73.5 168.4,-73.5 99.5,0 346.2,150.1 499,249.8 76.2,49.7 129.1,86.9 129.1,86.9 0,0 -52.9,37.2 -129.1,86.9 -152.8,99.8 -399.5,249.9 -499,249.9 -28.8,0 -56.5,-5.6 -82.6,-16 -43.9,-17.6 -83,-48.9 -113.8,-89.8 -34,-44.9 -58.1,-101.4 -68.3,-164.2 l -0.3,-2.2 c -3.3,-20.8 -5,-42.4 -5,-64.6"
         style="fill:#cde0fb;fill-opacity:1;fill-rule:nonzero;stroke:none"
         id="path336" /><path
         d="m 10222.2,2199.2 c 0,-104.2 37.9,-197.4 97.6,-259.1 l 756.6,260.3 -849.2,63.4 c -3.3,-20.8 -5,-42.4 -5,-64.6"
         style="fill:#a6c7ed;fill-opacity:1;fill-rule:nonzero;stroke:none"
         id="path338" /><path
         d="m 10295.8,2430.2 754.8,-206.1 -641,295.9 c -43.9,-17.6 -83,-48.9 -113.8,-89.8"
         style="fill:#e3f0ff;fill-opacity:1;fill-rule:nonzero;stroke:none"
         id="path340" /><path
         d="m 10942,2199.2 c 0,-40.1 20.5,-74.2 49.2,-86.9 76.2,49.7 129.1,86.9 129.1,86.9 0,0 -52.9,37.2 -129.1,86.9 -28.7,-12.6 -49.2,-46.7 -49.2,-86.9"
         style="fill:#f99746;fill-opacity:1;fill-rule:nonzero;stroke:none"
         id="path342" /><path
         d="m 8750.02,1842.7 v 0 c 33.76,-0.2 69.19,24.5 79.15,55 l 2033.73,6248.2 c 10,30.6 -9.3,55.6 -43.1,55.8 -33.7,0.2 -69.2,-24.5 -79.1,-55 L 8706.91,1898.4 c -9.95,-30.5 9.35,-55.5 43.11,-55.7"
         style="fill:#233862;fill-opacity:1;fill-rule:nonzero;stroke:none"
         id="path344" /><path
         d="m 7110.94,1852.3 v 0 c 33.76,-0.2 69.19,24.4 79.14,55 l 2033.76,6248.2 c 9.95,30.6 -9.35,55.5 -43.11,55.7 -33.76,0.2 -69.19,-24.4 -79.14,-55 L 7067.83,1908 c -9.95,-30.5 9.35,-55.5 43.11,-55.7"
         style="fill:#233862;fill-opacity:1;fill-rule:nonzero;stroke:none"
         id="path346" /><path
         d="m 8875.78,7284.9 1645.92,-9.6 c 31.7,-0.2 65.4,23.1 74.7,51.9 9.4,28.7 -8.9,52.4 -40.7,52.6 l -1645.9,9.6 c -31.73,0.2 -65.35,-23.2 -74.71,-51.9 -9.35,-28.8 8.96,-52.4 40.69,-52.6"
         style="fill:#233862;fill-opacity:1;fill-rule:nonzero;stroke:none"
         id="path348" /><path
         d="m 8520.69,6194 1645.91,-9.6 c 31.8,-0.2 65.4,23.1 74.7,51.9 9.4,28.7 -8.9,52.4 -40.7,52.6 l -1645.88,9.6 c -31.74,0.2 -65.36,-23.2 -74.72,-51.9 -9.35,-28.8 8.96,-52.4 40.69,-52.6"
         style="fill:#233862;fill-opacity:1;fill-rule:nonzero;stroke:none"
         id="path350" /><path
         d="m 8178.7,5143.3 1645.93,-9.6 c 31.74,-0.2 65.36,23.2 74.72,51.9 9.35,28.7 -8.96,52.4 -40.7,52.6 l -1645.93,9.6 c -31.73,0.2 -65.35,-23.2 -74.71,-51.9 -9.35,-28.8 8.96,-52.4 40.69,-52.6"
         style="fill:#233862;fill-opacity:1;fill-rule:nonzero;stroke:none"
         id="path352" /><path
         d="m 7793.7,3960.4 1645.93,-9.6 c 31.73,-0.2 65.35,23.2 74.71,52 9.35,28.7 -8.96,52.4 -40.69,52.6 l -1645.94,9.6 c -31.73,0.1 -65.35,-23.2 -74.71,-52 -9.35,-28.7 8.96,-52.4 40.7,-52.6"
         style="fill:#233862;fill-opacity:1;fill-rule:nonzero;stroke:none"
         id="path354" /><path
         d="m 7390.72,2722.4 1645.93,-9.6 c 31.74,-0.2 65.36,23.2 74.71,51.9 9.36,28.8 -8.95,52.4 -40.69,52.6 l -1645.93,9.6 c -31.73,0.2 -65.36,-23.2 -74.71,-51.9 -9.36,-28.7 8.95,-52.4 40.69,-52.6"
         style="fill:#233862;fill-opacity:1;fill-rule:nonzero;stroke:none"
         id="path356" /><path
         d="m 10434.9,9560.7 c 0,0 19.4,43.8 32,64.5 12.6,20.7 66.5,81.5 75.7,67.7 9.1,-13.7 45.8,-106.3 26.3,-132.2 -19.5,-25.9 1.3,-71 -95.6,-98.3 l -38.4,98.3"
         style="fill:#ffb27d;fill-opacity:1;fill-rule:nonzero;stroke:none"
         id="path358" /><path
         d="m 9358.37,9837.1 c 0,0 495.88,-413.9 689.23,-375.6 151.2,30 383.2,109.5 383.2,109.5 l 46.5,-118.7 c 0,0 -208.1,-282.3 -425.1,-284.1 -339.14,-2.9 -589.7,146.8 -589.7,146.8 l -104.13,522.1"
         style="fill:#ef7e29;fill-opacity:1;fill-rule:nonzero;stroke:none"
         id="path360" /><path
         d="m 8488.7,5471 c 0,0 14.39,-232.2 59.32,-235.5 5.97,-0.5 227.86,-0.5 227.86,-0.5 l 283.26,1.7 c 0,0 -1.86,68.2 -84.66,82.6 -82.79,14.5 -221.37,72.7 -271.53,182.1 -52.76,115.1 -214.25,-30.4 -214.25,-30.4"
         style="fill:#1c3d72;fill-opacity:1;fill-rule:nonzero;stroke:none"
         id="path362" /><path
         d="m 8472.37,5454.9 c 0,0 86.11,-28.8 153.33,-28.8 74.99,0 143.15,20.4 143.15,20.4 0,0 16.21,156.8 105.42,502.2 46.77,181.1 113.56,413.8 208.59,703.1 262.73,799.5 342.63,1267.1 349.92,1311.4 0.39,2.4 0.54,3.5 0.54,3.5 l -0.85,0.4 -807.75,354.7 c 0,0 99.84,-1101.9 -27.54,-1524.8 -17.84,-59.1 -33.12,-128 -46.23,-202.6 -80.44,-459.4 -78.58,-1139.5 -78.58,-1139.5"
         style="fill:#2b478b;fill-opacity:1;fill-rule:nonzero;stroke:none"
         id="path364" /><path
         d="m 8874.27,5948.7 c 46.77,181.1 113.56,413.8 208.59,703.1 262.73,799.5 342.63,1267.1 349.92,1311.4 -0.08,1.4 -0.16,2.6 -0.31,3.9 l -807.75,354.7 c 0,0 99.84,-1101.9 -27.54,-1524.8 -17.84,-59.1 277.09,-848.3 277.09,-848.3"
         style="fill:#233862;fill-opacity:1;fill-rule:nonzero;stroke:none"
         id="path366" /><path
         d="m 9119.59,5471 c 0,0 14.39,-232.2 59.32,-235.5 5.98,-0.5 227.87,-0.5 227.87,-0.5 l 283.25,1.7 c 0,0 -1.86,68.2 -84.65,82.6 -82.8,14.5 -221.38,72.7 -271.54,182.1 -52.76,115.1 -214.25,-30.4 -214.25,-30.4"
         style="fill:#1c3d72;fill-opacity:1;fill-rule:nonzero;stroke:none"
         id="path368" /><path
         d="m 9577.55,8295.8 c 0,0 10.5,-714 -113.04,-1590.6 -123.53,-876.7 -81.66,-1248.8 -81.66,-1248.8 0,0 -84.87,-27.5 -119.12,-30.3 -87.27,-7.1 -176.75,20.4 -176.75,20.4 0,0 -176.81,877 -126.12,1315.8 50.7,438.8 -242.12,1505.7 -242.12,1505.7 l 858.81,27.8"
         style="fill:#2b478b;fill-opacity:1;fill-rule:nonzero;stroke:none"
         id="path370" /><path
         d="m 9004.79,9966.6 157.68,-103.4 143.62,40.7 c 26.25,37.4 33.2,109.6 33.59,172.2 0.38,62 -5.64,114.6 -5.64,114.6 l -212.73,93.9 -79.37,35 c 0.23,-1.2 6.18,-65.2 7.02,-74.5 14.83,-165.8 -44.17,-278.5 -44.17,-278.5"
         style="fill:#ffb27d;fill-opacity:1;fill-rule:nonzero;stroke:none"
         id="path372" /><path
         d="m 9581.17,8097.3 c -196.25,-189.5 -938.99,-157.6 -984.76,51.2 -45.7,208.7 49.91,1777.2 385.16,1875.7 69.56,20.4 441.48,-99.8 441.48,-99.8 0,0 58.36,-152.6 96.63,-347 7.43,-37.8 29.11,-438.6 45.34,-813.6 7.57,-175.4 13.97,-345.1 17.25,-469.4 2.98,-116.5 3.13,-192.9 -1.1,-197.1"
         style="fill:#f99746;fill-opacity:1;fill-rule:nonzero;stroke:none"
         id="path374" /><path
         d="m 9064.87,10242.1 c 43.16,-72.9 194.58,-136.8 274.81,-166 0.38,62 -5.64,114.6 -5.64,114.6 l -212.73,93.9 c -47.02,0.6 -75.67,-9.9 -56.44,-42.5"
         style="fill:#fca56b;fill-opacity:1;fill-rule:nonzero;stroke:none"
         id="path376" /><path
         d="m 9414.28,10203.7 c 0,0 -342.76,-106.9 -406.06,107.5 -63.29,214.5 -150.16,345.2 66,422.5 216.17,77.3 283.03,8.1 321.57,-58.4 38.55,-66.4 106.02,-438.3 18.49,-471.6"
         style="fill:#ffb27d;fill-opacity:1;fill-rule:nonzero;stroke:none"
         id="path378" /><path
         d="m 9382.33,10696 c 0,0 -21.86,-249.6 -73.47,-238.7 -51.61,10.8 -108.43,34 -100.87,-41.3 7.55,-75.2 -50.19,-204.2 -124.62,-203.9 -159.62,0.7 -333.06,410.3 -289.36,488 126.08,224.1 770.56,269.3 588.32,-4.1"
         style="fill:#163560;fill-opacity:1;fill-rule:nonzero;stroke:none"
         id="path380" /><path
         d="m 9331.9,10018.8 c -4.41,1.8 -255.15,114.3 -284.47,104.6 -29.32,-9.6 -65.88,-99.2 -65.88,-99.2 l 441.51,-99.8 c 0,0 -34.75,70.6 -91.16,94.4"
         style="fill:#ef7e29;fill-opacity:1;fill-rule:nonzero;stroke:none"
         id="path382" /><path
         d="M 10892.9,8804.1 9487.38,7480.8 c -27.56,-26 -62.29,-34.2 -77.2,-18.4 l -47.45,50.4 c -14.91,15.8 -4.57,50 22.98,75.9 l 1405.59,1323.4 c 27.5,25.9 62.2,34.2 77.2,18.3 l 47.4,-50.3 c 14.9,-15.9 4.6,-50.1 -23,-76"
         style="fill:#1f4d84;fill-opacity:1;fill-rule:nonzero;stroke:none"
         id="path384" /><path
         d="m 10104.2,8061.5 -616.82,-580.7 c -27.56,-26 -62.29,-34.2 -77.2,-18.4 l -47.45,50.4 c -14.91,15.8 -4.57,50 22.98,75.9 l 616.79,580.8 101.7,-108"
         style="fill:#f78248;fill-opacity:1;fill-rule:nonzero;stroke:none"
         id="path386" /><path
         d="m 10884.7,10320.5 c 242.6,257.9 588.4,360.7 913,304.5 189.1,-32.8 371,-119.4 521.3,-260.8 408.2,-384 427.7,-1026.1 43.7,-1434.2 -141.4,-150.3 -317.6,-247.8 -504.4,-292.1 -320.6,-75.9 -672,5.6 -929.9,248.3 -408.1,384 -427.7,1026.1 -43.7,1434.3 m -314.8,-1016.8 c 53.9,-177.8 153.9,-344.3 298.9,-480.8 443.2,-416.9 1140.4,-395.6 1557.3,47.4 411.4,437.4 396.1,1122 -30.3,1540.6 -5.6,5.6 -11.4,11.2 -17.3,16.6 -443,416.9 -1140.2,395.8 -1557.1,-47.4 -280.4,-298 -362.7,-711 -251.5,-1076.4"
         style="fill:#1f4d84;fill-opacity:1;fill-rule:nonzero;stroke:none"
         id="path388" /><g
         id="g390"><g
           id="g392"
           clip-path="url(#clipPath396)"><path
             d="m 10500.7,8610.5 h 1941.4 v 2029.37 h -1941.4 z"
             style="fill:#d9e3f5;fill-opacity:1;fill-rule:nonzero;stroke:none"
             id="path398" /></g></g><path
         d="m 12442.1,9025.2 -122.6,4.5 v 1334 c 72.7,-68.5 133.1,-145.2 181,-227.3 0.1,-0.2 0.2,-0.3 0.3,-0.5 0.2,-0.3 0.4,-0.6 0.5,-0.8 44.2,-76 77.8,-156.7 100.6,-239.7 0,-0.1 0,-0.1 0.1,-0.2 0.2,-0.7 0.3,-1.3 0.5,-2 32.9,-120.6 43.2,-246.3 30.8,-370.2 l -97.8,-172.7 64.5,-2.4 c -32.3,-113.8 -84.8,-223.3 -157.9,-322.7"
         style="fill:#d6d6e0;fill-opacity:1;fill-rule:nonzero;stroke:none"
         id="path400" /><path
         d="m 12600,9347.9 -64.5,2.4 97.8,172.7 c -6,-58.9 -17.1,-117.6 -33.3,-175.1"
         style="fill:#d9e3f5;fill-opacity:1;fill-rule:nonzero;stroke:none"
         id="path402" /><path
         d="m 11623.5,8610.5 c -7.8,0 -15.6,0.1 -23.4,0.3 7.8,-0.2 15.6,-0.3 23.3,-0.3 79,0 157.9,9.2 234.9,27.4 186.8,44.3 363,141.8 504.4,292.1 28.7,30.5 55.2,62.3 79.4,95.2 73.1,99.4 125.6,208.9 157.9,322.7 16.2,57.5 27.3,116.2 33.3,175.1 12.4,123.9 2.1,249.6 -30.8,370.2 89.8,-329.4 11.3,-696.4 -239.8,-963.2 -141.3,-150.3 -317.6,-247.8 -504.4,-292.1 -77,-18.2 -155.9,-27.4 -234.8,-27.4 m -574.2,178.1 c -42.1,28.9 -82.5,61.5 -120.9,97.6 -408.1,384 -427.7,1026.1 -43.7,1434.3 14.2,15 28.7,29.6 43.5,43.5 -14.8,-13.9 -29.3,-28.5 -43.5,-43.5 -384,-408.2 -364.4,-1050.3 43.7,-1434.3 38.4,-36.1 78.8,-68.7 120.9,-97.6 M 12602,9895.2 c -0.1,0.1 -0.1,0.1 -0.1,0.2 0,-0.1 0,-0.1 0.1,-0.2 m -100.7,239.9 c -0.1,0.2 -0.3,0.5 -0.5,0.8 0.2,-0.3 0.4,-0.6 0.5,-0.8 m -0.8,1.3 c -47.9,82.1 -108.3,158.8 -181,227.3 -0.1,0.2 -0.3,0.4 -0.5,0.5 -35.2,33.1 -72.1,63.3 -110.5,90.4 38.4,-27.1 75.3,-57.2 110.5,-90.4 72.9,-68.6 133.5,-145.5 181.5,-227.8"
         style="fill:#698ebf;fill-opacity:1;fill-rule:nonzero;stroke:none"
         id="path404" /><path
         d="M 9582.27,8294.4 C 8807.8,8846.2 8872.2,9582.6 8872.2,9582.6 9155.26,9423 9436.15,9070 9565.02,8763.8 c 7.57,-175.4 13.97,-345.1 17.25,-469.4"
         style="fill:#ef7e29;fill-opacity:1;fill-rule:nonzero;stroke:none"
         id="path406" /><path
         d="m 10346.6,8545.7 c 54.7,12.6 91.3,53.9 99,61.1 0,0 23.2,-1.6 -3.9,-51.3 -2.2,-4.2 -7.3,-14.8 -11.1,-22.4 -1.5,-3.1 0.6,-6.6 4.1,-6.9 31.5,-2.4 63.2,10.1 123.9,-2.6 8.4,-1.7 10.8,-21.8 10.5,-30.4 -0.6,-14.4 0.5,-30.7 -16.3,-52.8 -9.8,-13 -37.1,-26.8 -97.9,-51.3 -23.1,-9.3 -89.4,-2.3 -151.4,19 l -49.6,23 15.4,92.1 12.4,-2.6 c 19.8,-4.1 44.3,20 64.9,25.1"
         style="fill:#f99746;fill-opacity:1;fill-rule:nonzero;stroke:none"
         id="path408" /><path
         d="m 9112.55,9924.4 c 0,0 -695.88,-132.5 204.74,-1140.2 144.03,-161.2 922.21,-371 922.21,-371 0,0 78.9,67.1 39.2,121.5 0,0 -535.85,389.1 -653.75,450.9 -53.03,27.9 -205.83,621.1 -292.29,763.9 -86.45,142.9 -220.11,174.9 -220.11,174.9"
         style="fill:#f99746;fill-opacity:1;fill-rule:nonzero;stroke:none"
         id="path410" /><path
         d="m 10453.7,9548.5 c 0,0 22.8,43.5 27.2,66.4 4.5,23 33.1,89.9 45,101.7 4.7,4.7 20.3,-1.4 22.1,-21.7 0.8,-8.8 -3.5,-24.9 -11.2,-44 -12.4,-31.1 -10.4,-73.4 -14.7,-87.4 -10.8,-35.1 -68.4,-15 -68.4,-15"
         style="fill:#ffb27d;fill-opacity:1;fill-rule:nonzero;stroke:none"
         id="path412" /><path
         d="m 29875.4,1759 -27926.25,9.6 c -20.79,0 -37.79,17 -37.79,37.8 l 0.02,29.8 c 0,20.8 17.01,37.8 37.8,37.8 l 27926.22,-9.6 c 20.8,0 37.8,-17 37.8,-37.8 v -29.8 c 0,-20.8 -17,-37.8 -37.8,-37.8"
         style="fill:#2e3552;fill-opacity:1;fill-rule:nonzero;stroke:none"
         id="path414" /></g></g></svg>
