<?xml version="1.0" encoding="UTF-8" standalone="no"?>
<svg
   xmlns:dc="http://purl.org/dc/elements/1.1/"
   xmlns:cc="http://creativecommons.org/ns#"
   xmlns:rdf="http://www.w3.org/1999/02/22-rdf-syntax-ns#"
   xmlns:svg="http://www.w3.org/2000/svg"
   xmlns="http://www.w3.org/2000/svg"
   xmlns:sodipodi="http://sodipodi.sourceforge.net/DTD/sodipodi-0.dtd"
   xmlns:inkscape="http://www.inkscape.org/namespaces/inkscape"
   version="1.1"
   id="svg2"
   xml:space="preserve"
   width="5333.3335"
   height="3333.3333"
   viewBox="0 0 5333.3335 3333.3333"
   sodipodi:docname="4385.eps"><metadata
     id="metadata8"><rdf:RDF><cc:Work
         rdf:about=""><dc:format>image/svg+xml</dc:format><dc:type
           rdf:resource="http://purl.org/dc/dcmitype/StillImage" /></cc:Work></rdf:RDF></metadata><defs
     id="defs6" /><sodipodi:namedview
     pagecolor="#ffffff"
     bordercolor="#666666"
     borderopacity="1"
     objecttolerance="10"
     gridtolerance="10"
     guidetolerance="10"
     inkscape:pageopacity="0"
     inkscape:pageshadow="2"
     inkscape:window-width="640"
     inkscape:window-height="480"
     id="namedview4" /><g
     id="g10"
     inkscape:groupmode="layer"
     inkscape:label="ink_ext_XXXXXX"
     transform="matrix(1.3333333,0,0,-1.3333333,0,3333.3333)"><g
       id="g12"
       transform="scale(0.1)"><path
         d="M 0,0 H 40000 V 25000 H 0 Z"
         style="fill:#ffffff;fill-opacity:1;fill-rule:nonzero;stroke:none"
         id="path14" /><path
         d="m 8932.28,4577.6 c -171.34,0 -350,6.4 -532.51,21.3 H 9486.7 c -172.3,-13 -358.81,-21.3 -554.42,-21.3 m 1678.92,329.8 H 7009.64 c -1232.22,487.4 -2292.09,1628 -2222.71,4129.1 111.08,4003.9 5221.47,8358.8 6902.77,9919.1 1243.8,1154.2 3029.4,2544 6310.5,2544 597.6,0 1244.4,-46 1946.9,-148 3010.9,-437 9781.3,-1813.2 13140.3,-3648.5 3359,-1835.3 4154.8,-4932.4 2135,-8335.4 -1103.9,-1859.8 -2508,-3061.2 -3554.6,-3768.4 -49.8,143.9 -112.1,296.2 -182.9,443.4 -534.6,1110.1 -1324.7,1584.7 -2394.7,1584.7 -384.3,0 -804.7,-61.2 -1262.3,-176.1 v 0 c -1547.1,2129 -3053.4,4249.2 -3053.4,4249.2 l -1000.8,222 v 0 l -226.3,50.2 -551.6,122.3 c -0.4,1.1 -0.6,1.7 -0.6,1.8 0,0 0,0 -0.1,0 v 0 l -909,689 101.7,332.9 c 190.1,-124.3 402.5,-208.7 632,-243.9 79.3,-12.1 158.3,-18 237,-18 667.3,0 1298.5,426.9 1696.7,1096 23.8,13.7 47.6,29.3 71.1,46.5 157.3,115.1 288.5,294.4 369.4,504.9 95.5,248.5 107,507.9 33.1,705.3 272.5,175.9 493.7,513.7 876.3,1154.3 l -1165.5,340.3 c -272.6,602.3 -757.3,1033.6 -1359.3,1125.8 -79.3,12.2 -158.3,18.1 -237,18.1 -985.4,0 -1891.9,-930.8 -2086,-2198 -10.9,-71.1 -19.3,-141.9 -25.4,-212.2 l -231.5,34.2 -224.4,-530.3 v 0 l -607.6,-1435.5 -1846.5,-1332.1 -12.7,-3.8 v 0 l -58.9,-18 -2704.9,-826.5 -2674.6,-1911.7 c -173.1,-85.7 -343.7,-170.9 -508.6,-253.8 L 11121,8164.5 10908.4,6806.1 v 0 l -297.2,-1898.7"
         style="fill:#cee3ff;fill-opacity:1;fill-rule:nonzero;stroke:none"
         id="path16" /><path
         d="m 4404.55,12656.7 c -2504.61,0 -2054.63,9126.8 2988.05,9909.7 534.68,83 1058.03,119 1557.4,119 2775.9,0 4822.4,-1113.5 4103.9,-1468.1 C 7571.32,18512 5396.82,12860.1 4668.26,12688.6 c -91.21,-21.5 -179.17,-31.9 -263.71,-31.9"
         style="fill:#cee3ff;fill-opacity:1;fill-rule:nonzero;stroke:none"
         id="path18" /><path
         d="m 3920.72,13955.9 h 9505.58 v 4938.7 H 3920.72 Z m 9530.58,-50 H 3895.72 c -13.81,0 -25,11.2 -25,25 v 4988.7 c 0,13.8 11.19,25 25,25 h 9555.58 c 13.8,0 25,-11.2 25,-25 v -4988.7 c 0,-13.8 -11.2,-25 -25,-25"
         style="fill:#9ec8ff;fill-opacity:1;fill-rule:nonzero;stroke:none"
         id="path20" /><path
         d="M 13451.3,15568.8 H 3895.72 c -13.81,0 -25,11.2 -25,25 0,13.8 11.19,25 25,25 h 9555.58 c 13.8,0 25,-11.2 25,-25 0,-13.8 -11.2,-25 -25,-25"
         style="fill:#9ec8ff;fill-opacity:1;fill-rule:nonzero;stroke:none"
         id="path22" /><path
         d="M 13451.3,17231.7 H 3895.72 c -13.81,0 -25,11.2 -25,25 0,13.8 11.19,25 25,25 h 9555.58 c 13.8,0 25,-11.2 25,-25 0,-13.8 -11.2,-25 -25,-25"
         style="fill:#9ec8ff;fill-opacity:1;fill-rule:nonzero;stroke:none"
         id="path24" /><path
         d="m 10266.1,13905.9 c -13.8,0 -25,11.2 -25,25 v 4988.7 c 0,13.8 11.2,25 25,25 13.8,0 25,-11.2 25,-25 v -4988.7 c 0,-13.8 -11.2,-25 -25,-25"
         style="fill:#9ec8ff;fill-opacity:1;fill-rule:nonzero;stroke:none"
         id="path26" /><path
         d="m 7080.9,13905.9 c -13.81,0 -25,11.2 -25,25 v 4988.7 c 0,13.8 11.19,25 25,25 13.81,0 25,-11.2 25,-25 v -4988.7 c 0,-13.8 -11.19,-25 -25,-25"
         style="fill:#9ec8ff;fill-opacity:1;fill-rule:nonzero;stroke:none"
         id="path28" /><path
         d="M 19727.4,12604.1 15543.7,11325.8 11121,8164.5 10589,4765.8 c 0,0 1740.6,-3.3 4175.9,-4.3 5276.9,-1.9 13816,7.3 14980.2,85.8 -1873.5,2493.8 -4970.6,6853.2 -4970.6,6853.2 l -3211.8,712.4 -1835.3,191.2"
         style="fill:#ffffff;fill-opacity:1;fill-rule:nonzero;stroke:none"
         id="path30" /><path
         d="m 16605.1,4907.4 h -1840.3 c 693.8,235.9 1633.5,834.3 1633.5,834.3 l 206.8,-834.3"
         style="fill:#cdeaf3;fill-opacity:1;fill-rule:nonzero;stroke:none"
         id="path32" /><path
         d="m 21764.7,4907.4 h -193.4 l -2551.3,3944.1 632.3,960.8 -296.3,148.9 -248.7,315.9 969.3,-154.2 c 0,0 -600.6,-831.7 -515.4,-946.4 85.2,-114.7 2246.8,-3793.9 2246.8,-3793.9 l 1398.5,4065.6 -585.2,782.1 c 0,0 907.5,418.3 878.8,533 -15.7,63.1 -167.1,460.5 -300,805.2 16.3,4.8 32.3,10 48.1,15.5 l 452,-889.9 -707.2,-615.5 400.6,-711.6 -1628.9,-4459.6 m -3084.2,5912 -450.7,572.7 c 0,0 -29.6,-7.2 -84.1,-20.9 l -30.2,740.4 133.1,40.7 58.9,18 7.4,-0.2 365.6,-1350.7"
         style="fill:#cdeaf3;fill-opacity:1;fill-rule:nonzero;stroke:none"
         id="path34" /><path
         d="m 20177.2,13513.8 -1862.4,-1343.5 499.9,-1846.6 1261.9,-200.8 c 0,0 -600.6,-831.7 -515.4,-946.4 85.2,-114.7 2246.8,-3793.9 2246.8,-3793.9 l 1398.5,4065.6 -585.2,782.1 c 0,0 907.5,418.3 878.8,533 -28.6,114.7 -505,1333.5 -505,1333.5 l -1244.4,943.2 -1573.5,473.8"
         style="fill:#ffffff;fill-opacity:1;fill-rule:nonzero;stroke:none"
         id="path36" /><path
         d="m 22246.6,18227.7 c 0,0 -1462.4,-57.4 -1949.9,-745.6 -487.5,-688.2 57.3,-1645.3 -229.4,-2199.1 -286.8,-553.7 2.1,-1441.5 217.7,-1497.3 215.6,-55.7 1961.6,4442 1961.6,4442"
         style="fill:#303c60;fill-opacity:1;fill-rule:nonzero;stroke:none"
         id="path38" /><path
         d="m 20998.7,15472 -1386,-3274.9 1987.3,-4032.6 586.3,3838.3 -241.3,321.5 879.5,2877.9 -1825.8,269.8"
         style="fill:#f09959;fill-opacity:1;fill-rule:nonzero;stroke:none"
         id="path40" /><path
         d="m 24543.2,4907.4 h -523.5 c 141.6,540.7 752.6,2985.2 735.7,4861.8 0,0 114.7,-1453 57.3,-2509.6 -47.8,-880.5 -215.1,-2002.7 -269.5,-2352.2"
         style="fill:#cdeaf3;fill-opacity:1;fill-rule:nonzero;stroke:none"
         id="path42" /><path
         d="m 10908.4,6806.1 v 0 l 212.6,1358.4 -212.6,-1358.4 m 212.6,1358.4 1239.5,995.8 c 164.9,82.9 335.5,168.1 508.6,253.8 L 11121,8164.5"
         style="fill:#b4dcf3;fill-opacity:1;fill-rule:nonzero;stroke:none"
         id="path44" /><path
         d="m 12781.5,4907.4 h -1637.9 c -20.5,371.8 -79.6,1351.7 -134.4,1414.9 -21,24 -58.7,221.8 -100.8,483.8 l 212.6,1358.4 1748.1,1249.6 c 933.5,461.9 1939.6,938 2512.2,1141.6 1097.5,390.4 2421.8,729.8 2764.4,815.5 l 33.5,-818.9 1176.8,-591.1 45.2,-57.4 c 0,0 -228.3,-455.6 -1400.8,-650.8 19.9,-89.5 108.8,-395.9 0,-568.1 -519.3,-821.6 -2380.7,-2211.7 -2727.5,-2529 -826.4,-756.3 -1736.5,-1095.2 -2491.4,-1248.5"
         style="fill:#cdeaf3;fill-opacity:1;fill-rule:nonzero;stroke:none"
         id="path46" /><path
         d="m 19356,9961.2 -1176.8,591.1 -33.5,818.9 c 54.5,13.7 84.1,20.9 84.1,20.9 l 450.7,-572.7 134.2,-495.7 292.6,-46.6 248.7,-315.9"
         style="fill:#b4e0ed;fill-opacity:1;fill-rule:nonzero;stroke:none"
         id="path48" /><path
         d="m 19107.3,10277.1 -292.6,46.6 -134.2,495.7 426.8,-542.3"
         style="fill:#cdeaf3;fill-opacity:1;fill-rule:nonzero;stroke:none"
         id="path50" /><path
         d="m 18742.8,11742.3 c 432.3,134.6 767.7,89.5 625.1,-128.4 -58.2,-88.8 -199,-221.8 -199,-221.8 l -939.1,141.4 513,208.8"
         style="fill:#9ec8ff;fill-opacity:1;fill-rule:nonzero;stroke:none"
         id="path52" /><path
         d="m 25209.4,9295.1 -57.1,-154.5 -6965.1,2448.1 138.6,375.3 6883.6,-2668.9"
         style="fill:#ffffff;fill-opacity:1;fill-rule:nonzero;stroke:none"
         id="path54" /><path
         d="m 18213,11600.8 6927.4,-2434.8 43.4,117.6 -6846.3,2654.4 z m 6951.3,-2485.6 -18.6,6.5 -6984.3,2454.8 152.7,413.5 19,-7.4 6901.9,-2675.9 -70.7,-191.5"
         style="fill:#2e5b9a;fill-opacity:1;fill-rule:nonzero;stroke:none"
         id="path56" /><path
         d="m 27827.9,7451.3 c 1731.9,435.1 2930.5,100.2 3657,-1408.6 269.7,-560.3 414.2,-1193.3 226.2,-1164.3 -188,29 -2960.2,-31.1 -2960.2,-31.1 l -923,2604"
         style="fill:#ffffff;fill-opacity:1;fill-rule:nonzero;stroke:none"
         id="path58" /><path
         d="m 18693.7,11713.9 c -70.6,-237.8 -438.3,-338.4 -821.3,-224.7 -382.9,113.8 -636,398.9 -565.3,636.7 70.6,237.9 438.3,338.4 821.2,224.7 383,-113.8 636.1,-398.8 565.4,-636.7"
         style="fill:#f39892;fill-opacity:1;fill-rule:nonzero;stroke:none"
         id="path60" /><path
         d="m 21264.4,10099.9 c -90.6,170.5 -1052.3,550.8 -891.1,496.1 161.1,-54.6 675,-231 513.2,-41.4 -161.8,189.5 -1397.7,1028.1 -1791.1,1038.9 -368.5,10.1 -884.7,74.7 -1144.3,-124.7 -643,-494 -1205,-687.2 -1205,-687.2 0,0 -385.8,-148.8 -403,-151.9 -816.6,-143.9 -1251.8,-3078.2 -1251.8,-3078.2 103.6,2.3 1886.2,1418.4 2733.8,2089.8 168,-58.6 699.2,-32.6 1118.4,185.2 229.2,119.1 549.4,351.3 549.4,351.3 0,0 572.7,-165.2 739.2,-209.9 447.6,-120 1123,-38.4 1032.3,132"
         style="fill:#9ec8ff;fill-opacity:1;fill-rule:nonzero;stroke:none"
         id="path62" /><path
         d="m 10882.7,7983.1 c -720.6,-863.1 -884.39,-3021.3 -119.2,-3125.6 1795.2,-244.7 6946.3,4002 6946.3,4002 l -835.5,2003.5 c 0,0 -4964.1,-1649.2 -5991.6,-2879.9"
         style="fill:#ffffff;fill-opacity:1;fill-rule:nonzero;stroke:none"
         id="path64" /><path
         d="M 36356.2,4598.9 H 3860.56 c -85.19,0 -154.24,69.1 -154.24,154.3 0,85.2 69.05,154.2 154.24,154.2 H 36356.2 c 85.2,0 154.2,-69 154.2,-154.2 0,-85.2 -69,-154.3 -154.2,-154.3"
         style="fill:#2e5b9a;fill-opacity:1;fill-rule:nonzero;stroke:none"
         id="path66" /><path
         d="m 25089.9,9203 c -5.7,0 -11.5,0.9 -17.1,3 l -823,301.1 c -25.9,9.5 -39.3,38.2 -29.8,64.2 9.5,25.9 38.3,39.2 64.2,29.7 l 822.9,-301.1 c 25.9,-9.5 39.3,-38.2 29.8,-64.1 -7.4,-20.3 -26.6,-32.8 -47,-32.8"
         style="fill:#9ec8ff;fill-opacity:1;fill-rule:nonzero;stroke:none"
         id="path68" /><path
         d="m 24129.5,9554.4 c -5.8,0 -11.6,1 -17.2,3.1 l -201.5,73.7 c -25.9,9.5 -39.3,38.2 -29.8,64.1 9.5,25.9 38.3,39.3 64.1,29.8 l 201.5,-73.7 c 26,-9.5 39.3,-38.2 29.8,-64.2 -7.4,-20.2 -26.6,-32.8 -46.9,-32.8"
         style="fill:#9ec8ff;fill-opacity:1;fill-rule:nonzero;stroke:none"
         id="path70" /><path
         d="m 23780.7,9682 c -5.7,0 -11.5,1 -17.1,3 l -1705.7,624.1 c -25.9,9.5 -39.3,38.2 -29.8,64.2 9.5,25.9 38.3,39.3 64.2,29.7 l 1705.6,-624 c 25.9,-9.5 39.3,-38.2 29.8,-64.2 -7.4,-20.2 -26.6,-32.8 -47,-32.8"
         style="fill:#9ec8ff;fill-opacity:1;fill-rule:nonzero;stroke:none"
         id="path72" /><path
         d="m 21764.7,10419.6 c -5.7,0 -11.5,1 -17.1,3.1 l -464.3,169.9 c -26,9.5 -39.3,38.2 -29.8,64.1 9.5,26 38.2,39.3 64.1,29.8 l 464.3,-169.9 c 26,-9.5 39.3,-38.2 29.8,-64.1 -7.4,-20.3 -26.6,-32.9 -47,-32.9"
         style="fill:#9ec8ff;fill-opacity:1;fill-rule:nonzero;stroke:none"
         id="path74" /><path
         d="m 21083.3,10669 c -5.7,0 -11.5,0.9 -17.1,3 l -393.7,144.1 c -26,9.4 -39.3,38.2 -29.8,64.1 9.5,25.9 38.2,39.3 64.1,29.8 l 393.7,-144.1 c 26,-9.5 39.3,-38.2 29.8,-64.1 -7.4,-20.3 -26.6,-32.8 -47,-32.8"
         style="fill:#9ec8ff;fill-opacity:1;fill-rule:nonzero;stroke:none"
         id="path76" /><path
         d="m 24198,5345.4 c -173.6,0 -314.4,140.7 -314.4,314.3 v 3191.8 h 628.7 V 5659.7 c 0,-173.6 -140.7,-314.3 -314.3,-314.3"
         style="fill:#ffffff;fill-opacity:1;fill-rule:nonzero;stroke:none"
         id="path78" /><path
         d="M 23903.6,8831.5 V 5659.7 c 0,-162.3 132.1,-294.3 294.4,-294.3 162.3,0 294.3,132 294.3,294.3 V 8831.5 Z M 24198,5325.4 c -184.4,0 -334.4,149.9 -334.4,334.3 v 3211.8 h 668.7 V 5659.7 c 0,-184.4 -150,-334.3 -334.3,-334.3"
         style="fill:#2e5b9a;fill-opacity:1;fill-rule:nonzero;stroke:none"
         id="path80" /><path
         d="m 25209.4,5345.4 c -173.6,0 -314.3,140.7 -314.3,314.3 v 3191.8 h 628.7 V 5659.7 c 0,-173.6 -140.8,-314.3 -314.4,-314.3"
         style="fill:#ffffff;fill-opacity:1;fill-rule:nonzero;stroke:none"
         id="path82" /><path
         d="M 24915.1,8831.5 V 5659.7 c 0,-162.3 132,-294.3 294.3,-294.3 162.3,0 294.4,132 294.4,294.3 v 3171.8 z m 294.3,-3506.1 c -184.3,0 -334.3,149.9 -334.3,334.3 v 3211.8 h 668.7 V 5659.7 c 0,-184.4 -150,-334.3 -334.4,-334.3"
         style="fill:#2e5b9a;fill-opacity:1;fill-rule:nonzero;stroke:none"
         id="path84" /><path
         d="m 26262.7,5345.4 c -173.6,0 -314.3,140.7 -314.3,314.3 V 8851.5 H 26577 V 5659.7 c 0,-173.6 -140.7,-314.3 -314.3,-314.3"
         style="fill:#ffffff;fill-opacity:1;fill-rule:nonzero;stroke:none"
         id="path86" /><path
         d="M 25968.4,8831.5 V 5659.7 c 0,-162.3 132,-294.3 294.3,-294.3 162.3,0 294.3,132 294.3,294.3 v 3171.8 z m 294.3,-3506.1 c -184.4,0 -334.3,149.9 -334.3,334.3 V 8871.5 H 26597 V 5659.7 c 0,-184.4 -150,-334.3 -334.3,-334.3"
         style="fill:#2e5b9a;fill-opacity:1;fill-rule:nonzero;stroke:none"
         id="path88" /><path
         d="m 26262.7,5492.3 c -123.1,0 -222.9,99.8 -222.9,222.9 v 2262.9 h 445.7 V 5715.2 c 0,-123.1 -99.7,-222.9 -222.8,-222.9"
         style="fill:#9ec8ff;fill-opacity:1;fill-rule:nonzero;stroke:none"
         id="path90" /><path
         d="m 25209.4,5492.3 c -123,0 -222.8,99.8 -222.8,222.9 v 1329.7 h 445.7 V 5715.2 c 0,-123.1 -99.8,-222.9 -222.9,-222.9"
         style="fill:#9ec8ff;fill-opacity:1;fill-rule:nonzero;stroke:none"
         id="path92" /><path
         d="m 27274.2,5345.4 c -173.6,0 -314.4,140.7 -314.4,314.3 v 3191.8 h 628.7 V 5659.7 c 0,-173.6 -140.7,-314.3 -314.3,-314.3"
         style="fill:#ffffff;fill-opacity:1;fill-rule:nonzero;stroke:none"
         id="path94" /><path
         d="M 26979.8,8831.5 V 5659.7 c 0,-162.3 132.1,-294.3 294.4,-294.3 162.3,0 294.3,132 294.3,294.3 v 3171.8 z m 294.4,-3506.1 c -184.4,0 -334.4,149.9 -334.4,334.3 v 3211.8 h 668.7 V 5659.7 c 0,-184.4 -150,-334.3 -334.3,-334.3"
         style="fill:#2e5b9a;fill-opacity:1;fill-rule:nonzero;stroke:none"
         id="path96" /><path
         d="m 27274.2,5490.5 c -119.7,0 -216.6,97 -216.6,216.6 v 2502.2 h 433.2 V 5707.1 c 0,-119.6 -97,-216.6 -216.6,-216.6"
         style="fill:#9ec8ff;fill-opacity:1;fill-rule:nonzero;stroke:none"
         id="path98" /><path
         d="m 25259.4,8200.6 25,-544 c 1.9,-41.4 -30.1,-76.5 -71.5,-78.4 -41.4,-1.9 -76.5,30.1 -78.4,71.5 -0.2,2.3 -0.1,4.7 0,6.9 l 24.9,544 c 1.3,27.6 24.7,48.9 52.3,47.7 26,-1.2 46.5,-22.3 47.7,-47.7"
         style="fill:#9ec8ff;fill-opacity:1;fill-rule:nonzero;stroke:none"
         id="path100" /><path
         d="m 25259.4,9100 21.7,-561.2 c 1.5,-39.5 -29.3,-72.9 -68.9,-74.4 -39.6,-1.5 -72.9,29.3 -74.4,68.9 -0.1,1.8 -0.1,3.8 0,5.5 l 21.6,561.2 c 1.1,27.6 24.4,49.2 52,48.1 26.2,-1 47,-22.3 48,-48.1"
         style="fill:#9ec8ff;fill-opacity:1;fill-rule:nonzero;stroke:none"
         id="path102" /><path
         d="m 28178.5,6404.4 h -4858 c -62.5,0 -113.7,51.1 -113.7,113.7 v 103.4 c 0,62.6 51.2,113.7 113.7,113.7 h 4858 c 62.5,0 113.7,-51.1 113.7,-113.7 v -103.4 c 0,-62.6 -51.2,-113.7 -113.7,-113.7"
         style="fill:#f5dc95;fill-opacity:1;fill-rule:nonzero;stroke:none"
         id="path104" /><path
         d="m 28178.5,4907.4 h -4858 c -62.5,0 -113.7,51.1 -113.7,113.7 v 103.4 c 0,62.6 51.2,113.7 113.7,113.7 h 4858 c 62.5,0 113.7,-51.1 113.7,-113.7 v -103.4 c 0,-62.6 -51.2,-113.7 -113.7,-113.7"
         style="fill:#f5dc95;fill-opacity:1;fill-rule:nonzero;stroke:none"
         id="path106" /><path
         d="m 23567.7,5072.8 h -133.8 c -53.6,0 -97.5,43.9 -97.5,97.5 v 1302 c 0,53.6 43.9,97.5 97.5,97.5 h 133.8 c 53.6,0 97.5,-43.9 97.5,-97.5 v -1302 c 0,-53.6 -43.9,-97.5 -97.5,-97.5"
         style="fill:#f5dc95;fill-opacity:1;fill-rule:nonzero;stroke:none"
         id="path108" /><path
         d="m 28070.7,5072.8 h -115.2 c -51.4,0 -93.5,42.1 -93.5,93.5 v 1310 c 0,51.4 42.1,93.5 93.5,93.5 h 115.2 c 51.4,0 93.5,-42.1 93.5,-93.5 v -1310 c 0,-51.4 -42.1,-93.5 -93.5,-93.5"
         style="fill:#f5dc95;fill-opacity:1;fill-rule:nonzero;stroke:none"
         id="path110" /><path
         d="m 23773.7,11922.5 -226.3,50.2 226.3,-50.2 v 0 m -778.5,174.3 c 0,0 0,0 -0.1,0 0.1,0 0.1,0 0.1,0"
         style="fill:#c0dbff;fill-opacity:1;fill-rule:nonzero;stroke:none"
         id="path112" /><path
         d="m 23248.2,11584 -228.8,450.6 c -12.9,33.1 -21.2,54.3 -23.6,60.4 l 551.6,-122.3 226.3,-50.2 c -128.8,-123.8 -309.2,-263 -525.5,-338.5"
         style="fill:#e2eeff;fill-opacity:1;fill-rule:nonzero;stroke:none"
         id="path114" /><path
         d="m 23200.1,11568.5 c -75.6,196.3 -145.3,375.4 -180.7,466.1 l 228.8,-450.6 c -15.8,-5.5 -31.8,-10.7 -48.1,-15.5"
         style="fill:#bfe0f7;fill-opacity:1;fill-rule:nonzero;stroke:none"
         id="path116" /><path
         d="m 22898.3,11528 c -190.3,0 -470,3.2 -764.8,129 l 52.8,345.8 -241.3,321.5 141.1,461.5 909,-689 v 0 c 0.1,0 0.1,0 0.1,0 0,-0.1 0.3,-0.8 0.6,-1.8 v 0 c 2.4,-6.1 10.7,-27.3 23.6,-60.4 35.4,-90.7 105.1,-269.8 180.7,-466.1 -85.8,-25.5 -176.9,-40.5 -272.2,-40.5 -9.6,0 -19.5,0 -29.6,0"
         style="fill:#e2eeff;fill-opacity:1;fill-rule:nonzero;stroke:none"
         id="path118" /><path
         d="m 20998.7,15472 -224.4,-530.3 c 99.7,-2267.8 740.8,-3158.2 1339.5,-3413.7 l 72.5,474.8 -241.3,321.5 879.5,2877.9 -1825.8,269.8"
         style="fill:#e38540;fill-opacity:1;fill-rule:nonzero;stroke:none"
         id="path120" /><path
         d="m 26103.4,16363.8 c -616.5,-1032.3 -813.9,-1278.3 -1482.3,-1327.4 -668.3,-49 57.4,1743.4 57.4,1743.4 l 1424.9,-416"
         style="fill:#303c60;fill-opacity:1;fill-rule:nonzero;stroke:none"
         id="path122" /><path
         d="m 25142.8,15054.7 c -209.6,-1368.3 -1249.6,-2344.3 -2323,-2179.9 -1073.4,164.4 -1773.7,1406.9 -1564.2,2775.2 209.6,1368.3 1249.6,2344.3 2323,2179.9 1073.5,-164.4 1773.8,-1406.9 1564.2,-2775.2"
         style="fill:#f09959;fill-opacity:1;fill-rule:nonzero;stroke:none"
         id="path124" /><path
         d="m 33229.6,5814.5 c -277.2,0 -501.9,224.7 -501.9,501.9 v 4946.8 h 1003.8 V 6316.4 c 0,-277.2 -224.7,-501.9 -501.9,-501.9"
         style="fill:#ffffff;fill-opacity:1;fill-rule:nonzero;stroke:none"
         id="path126" /><path
         d="M 32747.7,11243.2 V 6316.4 c 0,-265.7 216.1,-481.9 481.9,-481.9 265.7,0 481.9,216.2 481.9,481.9 v 4926.8 z m 481.9,-5448.7 c -287.8,0 -521.9,234.1 -521.9,521.9 v 4966.8 h 1043.8 V 6316.4 c 0,-287.8 -234.2,-521.9 -521.9,-521.9"
         style="fill:#2e5b9a;fill-opacity:1;fill-rule:nonzero;stroke:none"
         id="path128" /><path
         d="m 33229.6,6042.7 c -197.9,0 -358.3,160.4 -358.3,358.2 v 3002.6 h 716.5 V 6400.9 c 0,-197.8 -160.4,-358.2 -358.2,-358.2"
         style="fill:#a2dff2;fill-opacity:1;fill-rule:nonzero;stroke:none"
         id="path130" /><path
         d="m 34072.8,7259.6 h -1772.9 c -80.6,0 -145.9,65.4 -145.9,146 0,80.6 65.3,145.9 145.9,145.9 h 1772.9 c 80.6,0 145.9,-65.3 145.9,-145.9 0,-80.6 -65.3,-146 -145.9,-146"
         style="fill:#f5dc95;fill-opacity:1;fill-rule:nonzero;stroke:none"
         id="path132" /><path
         d="m 34015.6,4926.9 h -1658.5 c -112.2,0 -203.1,90.9 -203.1,203.1 v 159.2 c 0,112.2 90.9,203.1 203.1,203.1 h 1658.5 c 112.2,0 203.1,-90.9 203.1,-203.1 V 5130 c 0,-112.2 -90.9,-203.1 -203.1,-203.1"
         style="fill:#f5dc95;fill-opacity:1;fill-rule:nonzero;stroke:none"
         id="path134" /><path
         d="m 32612.8,5238.2 h -267.6 v 2167.4 h 267.6 V 5238.2"
         style="fill:#f5dc95;fill-opacity:1;fill-rule:nonzero;stroke:none"
         id="path136" /><path
         d="m 34104,5238.2 h -267.7 V 7405.6 H 34104 V 5238.2"
         style="fill:#f5dc95;fill-opacity:1;fill-rule:nonzero;stroke:none"
         id="path138" /><path
         d="m 33504.2,9969.9 c 0,-75.2 -61,-136.2 -136.2,-136.2 -75.3,0 -136.3,61 -136.3,136.2 0,75.2 61,136.2 136.3,136.2 75.2,0 136.2,-61 136.2,-136.2"
         style="fill:#a2dff2;fill-opacity:1;fill-rule:nonzero;stroke:none"
         id="path140" /><path
         d="m 33114.6,10600.8 c 0,-37 -29.9,-66.9 -66.9,-66.9 -36.9,0 -66.9,29.9 -66.9,66.9 0,36.9 30,66.9 66.9,66.9 37,0 66.9,-30 66.9,-66.9"
         style="fill:#a2dff2;fill-opacity:1;fill-rule:nonzero;stroke:none"
         id="path142" /><path
         d="m 33482.7,10960.8 c 0,-92.4 -74.9,-167.2 -167.3,-167.2 -92.4,0 -167.3,74.8 -167.3,167.2 0,92.4 74.9,167.3 167.3,167.3 92.4,0 167.3,-74.9 167.3,-167.3"
         style="fill:#a2dff2;fill-opacity:1;fill-rule:nonzero;stroke:none"
         id="path144" /><path
         d="m 33231.7,11556.7 c 0,-46.2 -37.4,-83.7 -83.6,-83.7 -46.2,0 -83.6,37.5 -83.6,83.7 0,46.2 37.4,83.6 83.6,83.6 46.2,0 83.6,-37.4 83.6,-83.6"
         style="fill:#ffffff;fill-opacity:1;fill-rule:nonzero;stroke:none"
         id="path146" /><path
         d="m 33554.4,10266.2 c 0,-39.6 -32.1,-71.7 -71.7,-71.7 -39.6,0 -71.7,32.1 -71.7,71.7 0,39.6 32.1,71.7 71.7,71.7 39.6,0 71.7,-32.1 71.7,-71.7"
         style="fill:#a2dff2;fill-opacity:1;fill-rule:nonzero;stroke:none"
         id="path148" /><path
         d="m 33186.3,9047.5 c 0,-76.6 -62,-138.7 -138.6,-138.7 -76.5,0 -138.6,62.1 -138.6,138.7 0,76.5 62.1,138.6 138.6,138.6 76.6,0 138.6,-62.1 138.6,-138.6"
         style="fill:#ffffff;fill-opacity:1;fill-rule:nonzero;stroke:none"
         id="path150" /><path
         d="m 33432.5,8784.6 c 0,-35.7 -28.9,-64.5 -64.5,-64.5 -35.7,0 -64.6,28.8 -64.6,64.5 0,35.6 28.9,64.5 64.6,64.5 35.6,0 64.5,-28.9 64.5,-64.5"
         style="fill:#ffffff;fill-opacity:1;fill-rule:nonzero;stroke:none"
         id="path152" /><path
         d="m 33231.7,7909.9 c 0,-25 -20.3,-45.4 -45.4,-45.4 -25,0 -45.4,20.4 -45.4,45.4 0,25.1 20.4,45.5 45.4,45.5 25.1,0 45.4,-20.4 45.4,-45.5"
         style="fill:#ffffff;fill-opacity:1;fill-rule:nonzero;stroke:none"
         id="path154" /><path
         d="m 33432.5,6954.1 c 0,-71.3 -57.8,-129.1 -129.1,-129.1 -71.2,0 -129,57.8 -129,129.1 0,71.2 57.8,129 129,129 71.3,0 129.1,-57.8 129.1,-129"
         style="fill:#ffffff;fill-opacity:1;fill-rule:nonzero;stroke:none"
         id="path156" /><path
         d="m 33229.6,6600.4 c 0,-49 -39.7,-88.7 -88.7,-88.7 -48.9,0 -88.6,39.7 -88.6,88.7 0,48.9 39.7,88.6 88.6,88.6 49,0 88.7,-39.7 88.7,-88.6"
         style="fill:#ffffff;fill-opacity:1;fill-rule:nonzero;stroke:none"
         id="path158" /><path
         d="m 33569.5,12082.4 c 0,-87.5 -71,-158.5 -158.5,-158.5 -87.6,0 -158.5,71 -158.5,158.5 0,87.6 70.9,158.5 158.5,158.5 87.5,0 158.5,-70.9 158.5,-158.5"
         style="fill:#ffffff;fill-opacity:1;fill-rule:nonzero;stroke:none"
         id="path160" /><path
         d="m 33052.5,12509.4 c 0,-56.3 -45.6,-102 -101.9,-102 -56.4,0 -102,45.7 -102,102 0,56.3 45.6,101.9 102,101.9 56.3,0 101.9,-45.6 101.9,-101.9"
         style="fill:#ffffff;fill-opacity:1;fill-rule:nonzero;stroke:none"
         id="path162" /><path
         d="m 8268.2,9197.8 v 1781 H 7086.73 v -1781 c 0,-29.8 -3.6,-59.5 -10.74,-88.5 L 6146.67,5337.1 c -57.47,-233.3 119.11,-458.7 359.37,-458.7 H 8848.9 c 240.26,0 416.84,225.4 359.37,458.7 l -929.32,3772.2 c -7.14,29 -10.75,58.7 -10.75,88.5"
         style="fill:#ffffff;fill-opacity:1;fill-rule:nonzero;stroke:none"
         id="path164" /><path
         d="m 7106.73,10958.8 v -1761 c 0,-31.4 -3.81,-62.8 -11.32,-93.3 L 6166.09,5332.3 c -25.91,-105.2 -2.46,-214.4 64.36,-299.7 66.81,-85.3 167.26,-134.2 275.59,-134.2 H 8848.9 c 108.33,0 208.78,48.9 275.59,134.2 66.81,85.3 90.27,194.5 64.36,299.7 l -929.32,3772.2 c -7.52,30.5 -11.33,61.9 -11.33,93.3 v 1761 z M 8848.9,4858.4 H 6506.04 c -120.71,0 -232.63,54.5 -307.08,149.5 -74.44,95 -100.58,216.7 -71.71,333.9 l 929.32,3772.3 c 6.75,27.3 10.16,55.5 10.16,83.7 v 1801 H 8288.2 v -1801 c 0,-28.2 3.42,-56.4 10.17,-83.7 l 929.32,-3772.3 c 28.87,-117.2 2.73,-238.9 -71.71,-333.9 -74.45,-95 -186.38,-149.5 -307.08,-149.5"
         style="fill:#2e5b9a;fill-opacity:1;fill-rule:nonzero;stroke:none"
         id="path166" /><path
         d="m 8224.79,8837 c -119.16,2.7 -650.59,-177.9 -1153.44,-152.1 L 6329.4,5584.7 c -45.15,-228.1 93.58,-448.4 282.33,-448.4 h 2131.48 c 188.75,0 327.47,220.3 282.32,448.4 L 8224.79,8837"
         style="fill:#9ec8ff;fill-opacity:1;fill-rule:nonzero;stroke:none"
         id="path168" /><path
         d="m 8281.47,7807.1 c 0,-123 -99.65,-222.6 -222.59,-222.6 -122.94,0 -222.6,99.6 -222.6,222.6 0,122.9 99.66,222.6 222.6,222.6 122.94,0 222.59,-99.7 222.59,-222.6"
         style="fill:#ffffff;fill-opacity:1;fill-rule:nonzero;stroke:none"
         id="path170" /><path
         d="m 7511.28,8937.3 c 0,-54.8 -44.42,-99.2 -99.21,-99.2 -54.8,0 -99.22,44.4 -99.22,99.2 0,54.8 44.42,99.2 99.22,99.2 54.79,0 99.21,-44.4 99.21,-99.2"
         style="fill:#9ec8ff;fill-opacity:1;fill-rule:nonzero;stroke:none"
         id="path172" /><path
         d="m 7908.03,9953.4 c 0,-56.4 -45.73,-102.2 -102.14,-102.2 -56.41,0 -102.14,45.8 -102.14,102.2 0,56.4 45.73,102.1 102.14,102.1 56.41,0 102.14,-45.7 102.14,-102.1"
         style="fill:#9ec8ff;fill-opacity:1;fill-rule:nonzero;stroke:none"
         id="path174" /><path
         d="m 7771.65,10511.1 c 0,-118.3 -95.83,-214.1 -214.04,-214.1 -118.21,0 -214.04,95.8 -214.04,214.1 0,118.2 95.83,214 214.04,214 118.21,0 214.04,-95.8 214.04,-214"
         style="fill:#9ec8ff;fill-opacity:1;fill-rule:nonzero;stroke:none"
         id="path176" /><path
         d="m 7836.28,6301.9 c 0,-109.6 -88.83,-198.5 -198.42,-198.5 -109.59,0 -198.43,88.9 -198.43,198.5 0,109.6 88.84,198.4 198.43,198.4 109.59,0 198.42,-88.8 198.42,-198.4"
         style="fill:#ffffff;fill-opacity:1;fill-rule:nonzero;stroke:none"
         id="path178" /><path
         d="m 7405.51,8397.3 c 0,-80.3 -65.16,-145.5 -145.54,-145.5 -80.39,0 -145.55,65.2 -145.55,145.5 0,80.4 65.16,145.6 145.55,145.6 80.38,0 145.54,-65.2 145.54,-145.6"
         style="fill:#ffffff;fill-opacity:1;fill-rule:nonzero;stroke:none"
         id="path180" /><path
         d="m 7103.86,7105.4 c 0,-47.3 -38.33,-85.6 -85.62,-85.6 -47.28,0 -85.61,38.3 -85.61,85.6 0,47.3 38.33,85.6 85.61,85.6 47.29,0 85.62,-38.3 85.62,-85.6"
         style="fill:#ffffff;fill-opacity:1;fill-rule:nonzero;stroke:none"
         id="path182" /><path
         d="m 7018.24,5466.8 c 0,-85.1 -68.99,-154.1 -154.1,-154.1 -85.11,0 -154.11,69 -154.11,154.1 0,85.1 69,154.1 154.11,154.1 85.11,0 154.1,-69 154.1,-154.1"
         style="fill:#ffffff;fill-opacity:1;fill-rule:nonzero;stroke:none"
         id="path184" /><path
         d="M 9384.61,8122.5 V 9448.2 H 8505.19 V 8122.5 c 0,-22.2 -2.69,-44.3 -8,-65.9 L 7805.46,5248.8 c -42.78,-173.6 88.66,-341.4 267.49,-341.4 h 1743.9 c 178.83,0 310.25,167.8 267.45,341.4 l -691.69,2807.8 c -5.32,21.6 -8,43.7 -8,65.9"
         style="fill:#ffffff;fill-opacity:1;fill-rule:nonzero;stroke:none"
         id="path186" /><path
         d="M 8525.19,9428.2 V 8122.5 c 0,-23.8 -2.89,-47.5 -8.58,-70.7 L 7824.88,5244 c -18.91,-76.7 -1.79,-156.5 46.97,-218.7 48.75,-62.2 122.05,-97.9 201.1,-97.9 h 1743.9 c 79.04,0 152.34,35.7 201.05,97.9 48.8,62.2 65.9,142 47,218.7 l -691.71,2807.8 c -5.69,23.2 -8.58,46.9 -8.58,70.7 V 9428.2 Z M 9816.85,4887.4 h -1743.9 c -91.43,0 -176.2,41.3 -232.59,113.2 -56.39,72 -76.19,164.2 -54.32,253 l 691.73,2807.8 c 4.92,20 7.42,40.6 7.42,61.1 v 1345.7 h 919.42 V 8122.5 c 0,-20.5 2.49,-41.1 7.42,-61.1 l 691.77,-2807.8 c 21.8,-88.8 2,-181 -54.4,-253 -56.35,-71.9 -141.13,-113.2 -232.55,-113.2"
         style="fill:#2e5b9a;fill-opacity:1;fill-rule:nonzero;stroke:none"
         id="path188" /><path
         d="m 9588.54,6691.2 c -57.36,-58 -284.86,-68.1 -407.86,-58 -385.47,31.3 -503.69,127 -860.86,145.3 L 7987.38,5378.2 c -32.07,-162 66.46,-318.5 200.53,-318.5 h 1513.98 c 134.07,0 232.6,156.5 200.53,318.5 l -313.88,1313"
         style="fill:#9bd6e8;fill-opacity:1;fill-rule:nonzero;stroke:none"
         id="path190" /><path
         d="m 9435.59,6977.9 c 0,-91.5 -74.18,-165.6 -165.69,-165.6 -91.51,0 -165.69,74.1 -165.69,165.6 0,91.6 74.18,165.7 165.69,165.7 91.51,0 165.69,-74.1 165.69,-165.7"
         style="fill:#9bd6e8;fill-opacity:1;fill-rule:nonzero;stroke:none"
         id="path192" /><path
         d="m 9292.77,7584.5 c 0,-40.8 -33.06,-73.9 -73.85,-73.9 -40.79,0 -73.85,33.1 -73.85,73.9 0,40.8 33.06,73.8 73.85,73.8 40.79,0 73.85,-33 73.85,-73.8"
         style="fill:#9bd6e8;fill-opacity:1;fill-rule:nonzero;stroke:none"
         id="path194" /><path
         d="m 8989.06,8760.9 c 0,-41.9 -34.04,-76 -76.02,-76 -42,0 -76.03,34.1 -76.03,76 0,42 34.03,76.1 76.03,76.1 41.98,0 76.02,-34.1 76.02,-76.1"
         style="fill:#9bd6e8;fill-opacity:1;fill-rule:nonzero;stroke:none"
         id="path196" /><path
         d="m 9072.35,8384.5 c 0,-88 -71.33,-159.3 -159.31,-159.3 -87.99,0 -159.32,71.3 -159.32,159.3 0,88 71.33,159.3 159.32,159.3 87.98,0 159.31,-71.3 159.31,-159.3"
         style="fill:#9bd6e8;fill-opacity:1;fill-rule:nonzero;stroke:none"
         id="path198" /><path
         d="m 8844.06,5741.7 c 0,-81.6 -66.12,-147.7 -147.69,-147.7 -81.58,0 -147.7,66.1 -147.7,147.7 0,81.5 66.12,147.7 147.7,147.7 81.57,0 147.69,-66.2 147.69,-147.7"
         style="fill:#ffffff;fill-opacity:1;fill-rule:nonzero;stroke:none"
         id="path200" /><path
         d="m 8781.83,6500.3 c 0,-59.8 -48.5,-108.3 -108.33,-108.3 -59.83,0 -108.34,48.5 -108.34,108.3 0,59.8 48.51,108.3 108.34,108.3 59.83,0 108.33,-48.5 108.33,-108.3"
         style="fill:#ffffff;fill-opacity:1;fill-rule:nonzero;stroke:none"
         id="path202" /><path
         d="m 9282.65,5677.9 c 0,-35.2 -28.53,-63.7 -63.73,-63.7 -35.19,0 -63.72,28.5 -63.72,63.7 0,35.2 28.53,63.8 63.72,63.8 35.2,0 63.73,-28.6 63.73,-63.8"
         style="fill:#ffffff;fill-opacity:1;fill-rule:nonzero;stroke:none"
         id="path204" /><path
         d="m 8454.2,5345.4 c 0,-63.4 -51.35,-114.7 -114.7,-114.7 -63.35,0 -114.71,51.3 -114.71,114.7 0,63.3 51.36,114.7 114.71,114.7 63.35,0 114.7,-51.4 114.7,-114.7"
         style="fill:#ffffff;fill-opacity:1;fill-rule:nonzero;stroke:none"
         id="path206" /><path
         d="m 9614.02,5308.3 c 0,-95 -77.03,-172 -172.06,-172 -95.03,0 -172.06,77 -172.06,172 0,95 77.03,172.1 172.06,172.1 95.03,0 172.06,-77.1 172.06,-172.1"
         style="fill:#ffffff;fill-opacity:1;fill-rule:nonzero;stroke:none"
         id="path208" /><path
         d="m 24264.1,15141.6 c -5.3,5.4 -133.7,132.6 -389.8,111.1 l -16.7,199.3 c 356.6,29.9 543.6,-164.2 551.4,-172.5 l -145.6,-137.1 0.7,-0.8"
         style="fill:#ffffff;fill-opacity:1;fill-rule:nonzero;stroke:none"
         id="path210" /><path
         d="m 23013.3,14331.4 v 0 c -61.4,0 -122.5,9.8 -181.5,30.4 -108.5,37.9 -199.2,107.5 -266.8,203.8 l 1244.3,579.7 c -9.6,-78.4 -29.3,-157.7 -59.2,-235.3 -134.4,-349.8 -440.2,-578.6 -736.8,-578.6 m -572.6,732 c 7,92.2 28.1,186.1 63.3,277.7 13,33.9 27.7,66.6 43.7,98.1 l 929.7,427.5 c 92.2,-44 169,-113.1 226.8,-203.6 -390.9,-185.9 -863,-410.1 -1263.5,-599.7"
         style="fill:#e5bfa2;fill-opacity:1;fill-rule:nonzero;stroke:none"
         id="path212" /><path
         d="m 24258.2,15002 c 141,255.7 358.6,420.7 554.2,420.7 36.5,0 72.2,-5.7 106.5,-17.7 25.2,-8.7 48.9,-20.7 71,-35.8 l -731.7,-367.2"
         style="fill:#e5bfa2;fill-opacity:1;fill-rule:nonzero;stroke:none"
         id="path214" /><path
         d="m 25144.7,15067.1 c 2.5,16.8 4.8,33.3 7.1,50.1 3.5,-13.6 6.7,-27.4 9.5,-41.4 l -16.6,-8.7"
         style="fill:#d5e4f5;fill-opacity:1;fill-rule:nonzero;stroke:none"
         id="path216" /><path
         d="m 24116.9,14531.6 c 3.7,57.9 12.9,117.6 27.5,177.8 l 967.4,515 c 2.1,-4.3 4.2,-8.6 6.2,-13 13.7,-29.5 25,-61 33.8,-94.2 -2.3,-16.8 -4.6,-33.3 -7.1,-50.1 l -1027.8,-535.5"
         style="fill:#e5bfa2;fill-opacity:1;fill-rule:nonzero;stroke:none"
         id="path218" /><path
         d="m 24871.2,14171.8 c 57,117.9 107.2,241.9 149.6,371 l 101.9,59.6 c -6.7,-20.8 -14,-41.6 -22,-62.3 -56.2,-146.2 -137.1,-272.3 -229.5,-368.3"
         style="fill:#d5e4f5;fill-opacity:1;fill-rule:nonzero;stroke:none"
         id="path220" /><path
         d="m 24478,13971.8 c -36.5,0 -72.2,5.8 -106.5,17.7 -52,18.2 -97.9,50.1 -136,94.2 l 785.3,459.1 c -42.4,-129.1 -92.6,-253.1 -149.6,-371 -121.1,-125.8 -262.1,-200 -393.2,-200"
         style="fill:#e5bfa2;fill-opacity:1;fill-rule:nonzero;stroke:none"
         id="path222" /><path
         d="m 23240.9,15919.7 c -296.6,0 -602.4,-228.8 -736.9,-578.6 -89.1,-232 -87.8,-478.2 3.6,-675.5 69,-148.8 181.2,-253.9 324.2,-303.8 59,-20.6 120.1,-30.4 181.5,-30.4 296.6,0 602.3,228.8 736.8,578.6 89.2,232 87.9,478.2 -3.6,675.5 -69,148.9 -181.1,253.9 -324.2,303.8 -59,20.6 -120,30.4 -181.4,30.4 m -229.1,-1688 c -71.9,0 -143.6,11.5 -212.9,35.7 -166.8,58.1 -302.5,184.6 -382,356.2 -102.8,221.6 -105,496.3 -6.2,753.4 181.5,472.1 650,744.3 1044.6,606.7 166.8,-58.1 302.4,-184.6 382,-356.1 102.8,-221.7 105,-496.3 6.2,-753.5 -149.6,-389.1 -494.2,-642.4 -831.7,-642.4"
         style="fill:#ffffff;fill-opacity:1;fill-rule:nonzero;stroke:none"
         id="path224" /><path
         d="m 24812.4,15422.7 c -231.1,0 -492.8,-230.3 -622.7,-568.3 -93.3,-242.6 -99.7,-493.5 -17.3,-671.3 44.9,-96.9 113.7,-163.8 199.1,-193.6 251.6,-87.8 578.8,159.3 729.2,550.6 93.3,242.6 99.7,493.6 17.3,671.3 -44.9,96.9 -113.7,163.9 -199.1,193.6 -34.3,12 -70,17.7 -106.5,17.7 m -335.3,-1550.8 c -47.6,0 -94.1,7.7 -138.6,23.2 -111.4,38.9 -200.3,123.9 -256.9,246 -93.5,201.8 -88,481.9 14.8,749.2 80.9,210.5 212.1,389.9 369.4,505 163.3,119.5 335.9,156.5 486.1,104.1 111.4,-38.8 200.3,-123.9 256.9,-245.9 93.5,-201.8 88,-481.9 -14.8,-749.3 -80.9,-210.5 -212.1,-389.8 -369.4,-504.9 -114.9,-84.1 -234.5,-127.4 -347.5,-127.4"
         style="fill:#ffffff;fill-opacity:1;fill-rule:nonzero;stroke:none"
         id="path226" /><path
         d="m 25020.8,14542.8 c 53.5,162.9 94.8,334.1 122,511.9 0.6,4.1 1.3,8.3 1.9,12.4 l 16.6,8.7 c 27.9,-141.3 14.8,-307.7 -38.6,-473.4 l -101.9,-59.6"
         style="fill:#dfebf7;fill-opacity:1;fill-rule:nonzero;stroke:none"
         id="path228" /><path
         d="m 24235.5,14083.7 c -24.4,28.3 -45.6,61.6 -63.1,99.4 -45.6,98.4 -64,219.1 -55.5,348.5 l 1027.8,535.5 c -0.6,-4.1 -1.3,-8.3 -1.9,-12.4 -27.2,-177.8 -68.5,-349 -122,-511.9 l -785.3,-459.1"
         style="fill:#ebcfb9;fill-opacity:1;fill-rule:nonzero;stroke:none"
         id="path230" /><path
         d="m 24191.9,14058.2 c -87.8,106.4 -132.3,266.1 -126.1,446.8 l 51.1,26.6 c -8.5,-129.4 9.9,-250.1 55.5,-348.5 17.5,-37.8 38.7,-71.1 63.1,-99.4 l -43.6,-25.5 m 930.8,544.2 c 53.4,165.7 66.5,332.1 38.6,473.4 l 45.8,23.8 c 29.2,-135.1 23.8,-295.3 -21.3,-460.3 l -63.1,-36.9"
         style="fill:#ffffff;fill-opacity:1;fill-rule:nonzero;stroke:none"
         id="path232" /><path
         d="m 24144.4,14709.4 c 11.6,48.3 26.8,96.8 45.3,145 19.9,51.9 43,101.2 68.5,147.6 l 731.7,367.2 c 49.5,-33.7 90.8,-82.6 121.9,-144.8 l -967.4,-515"
         style="fill:#ebcfb9;fill-opacity:1;fill-rule:nonzero;stroke:none"
         id="path234" /><path
         d="m 24086.4,14678.6 c 12.8,63.7 31.6,128.8 56.6,193.8 12.1,31.5 25.3,62 39.5,91.6 l 75.7,38 c -25.5,-46.4 -48.6,-95.7 -68.5,-147.6 -18.5,-48.2 -33.7,-96.7 -45.3,-145 l -58,-30.8 m 1025.4,545.8 c -31.1,62.2 -72.4,111.1 -121.9,144.8 l 49.9,25.1 c 47.4,-37.7 86.4,-87.4 116.1,-146.5 l -44.1,-23.4"
         style="fill:#ffffff;fill-opacity:1;fill-rule:nonzero;stroke:none"
         id="path236" /><path
         d="m 22565,14565.6 c -21.6,30.7 -40.7,64.1 -57.4,100 -55.3,119.4 -77.6,256.6 -66.9,397.8 400.5,189.6 872.6,413.8 1263.5,599.7 15.5,-24.4 29.7,-50.3 42.3,-77.6 60.9,-131.3 81.8,-284.2 62.8,-440.2 L 22565,14565.6"
         style="fill:#ebcfb9;fill-opacity:1;fill-rule:nonzero;stroke:none"
         id="path238" /><path
         d="m 22519.3,14544.4 c -92,134.4 -138.5,308.5 -129.9,494.7 16.9,8 34.1,16.1 51.3,24.3 -10.7,-141.2 11.6,-278.4 66.9,-397.8 16.7,-35.9 35.8,-69.3 57.4,-100 l -45.7,-21.2 m 1290,600.9 c 19,156 -1.9,308.9 -62.8,440.2 -12.6,27.3 -26.8,53.2 -42.3,77.6 15.2,7.2 30.2,14.3 45.2,21.4 88.9,-141.6 129.7,-322.9 112.5,-514.6 l -52.6,-24.6"
         style="fill:#ffffff;fill-opacity:1;fill-rule:nonzero;stroke:none"
         id="path240" /><path
         d="m 22547.7,15439.2 c 149.9,293.9 425.3,480.5 693.2,480.5 61.4,0 122.4,-9.8 181.4,-30.4 19,-6.6 37.3,-14.1 55.1,-22.6 l -929.7,-427.5"
         style="fill:#ebcfb9;fill-opacity:1;fill-rule:nonzero;stroke:none"
         id="path242" /><path
         d="m 22477,15406.7 c 150.9,342.8 460.8,563 764,563 66.9,0 133.4,-10.7 197.8,-33.2 33.7,-11.7 65.7,-26.4 95.9,-43.5 l -57.3,-26.3 c -17.8,8.5 -36.1,16 -55.1,22.6 -59,20.6 -120,30.4 -181.4,30.4 -267.9,0 -543.3,-186.6 -693.2,-480.5 l -70.7,-32.5"
         style="fill:#ffffff;fill-opacity:1;fill-rule:nonzero;stroke:none"
         id="path244" /><path
         d="m 21691.7,15236.9 c -334.2,-155 -189.9,420.6 -196.1,903.7 -4.2,320 -580.2,2058.4 269.1,2445.5 849.4,387.1 1608.2,117.1 2101.3,317.8 493,200.8 1893.3,-203.1 2036.7,-877 113.7,-534.5 391.4,-902.8 582.8,-1247.1 191.4,-344.3 -489.9,-936.7 -1041.6,-975.2 -822.8,-57.3 -1920.7,1505.5 -2516,1376.4 -595.3,-129 -959.4,-1815.8 -1236.2,-1944.1"
         style="fill:#303c60;fill-opacity:1;fill-rule:nonzero;stroke:none"
         id="path246" /><path
         d="m 21248.8,16672.3 1415.9,-961.3 -170.2,-224.1 -1306.2,1105.8 60.5,79.6"
         style="fill:#ffffff;fill-opacity:1;fill-rule:nonzero;stroke:none"
         id="path248" /><path
         d="m 21501.8,16006.4 c 0,-461.7 -208.6,-898.6 -503.8,-898.6 -295.3,0 -534.6,374.3 -534.6,836 0,461.7 239.3,836 534.6,836 295.2,0 503.8,-311.6 503.8,-773.4"
         style="fill:#f09959;fill-opacity:1;fill-rule:nonzero;stroke:none"
         id="path250" /><path
         d="m 31129.1,4907.4 h -888 c -439.6,44.3 -795.7,132.8 -813.1,165.4 -27,50.7 384.1,2096.3 384.1,2096.3 831.6,-191.2 1271.3,-681.5 1443.3,-1201 161,-485.9 417.7,-957.1 -126.3,-1060.7"
         style="fill:#cdeaf3;fill-opacity:1;fill-rule:nonzero;stroke:none"
         id="path252" /><path
         d="m 30733,4881.3 c -166.9,0 -334.7,10.2 -491.9,26.1 h 888 c -37.6,-7.2 -79.2,-12.6 -124.8,-16.1 -88.8,-6.9 -179.9,-10 -271.3,-10"
         style="fill:#6599c1;fill-opacity:1;fill-rule:nonzero;stroke:none"
         id="path254" /><path
         d="m 30280.4,7044.9 c 917.7,-396.7 802.4,-1785.8 522.5,-1902.3 -1306.3,-543.7 -1964.5,-184.5 -2510.7,95.6 -546.3,280.1 -430.2,804.5 -430.2,804.5 0,0 25.3,283.4 889,646.3 630.9,265.1 1529.4,355.9 1529.4,355.9"
         style="fill:#9ec8ff;fill-opacity:1;fill-rule:nonzero;stroke:none"
         id="path256" /><path
         d="m 30607.2,6825 c -694.9,690.7 -1654.6,604 -2085.6,434.6 -431,-169.4 -1159.2,-461.1 -659.6,-524.4 499.6,-63.3 1156.7,28.1 1386.1,-46.2 229.4,-74.3 1359.1,136 1359.1,136"
         style="fill:#9ec8ff;fill-opacity:1;fill-rule:nonzero;stroke:none"
         id="path258" /><path
         d="m 12901.3,16383.8 h 969 l 484.5,839.1 -484.5,839.2 h -969 l -484.4,-839.2 z m 997.9,-100 h -1026.7 c -17.9,0 -34.4,9.5 -43.3,25 l -513.4,889.1 c -8.9,15.5 -8.9,34.6 0,50 l 513.4,889.2 c 8.9,15.4 25.4,25 43.3,25 h 1026.7 c 17.8,0 34.3,-9.6 43.3,-25 l 513.3,-889.2 c 8.9,-15.4 8.9,-34.5 0,-50 l -513.3,-889.1 c -9,-15.5 -25.5,-25 -43.3,-25"
         style="fill:#ffffff;fill-opacity:1;fill-rule:nonzero;stroke:none"
         id="path260" /><path
         d="m 14173,17197.9 c -8.6,0 -17,4.5 -21.6,12.5 l -393.6,681.8 c -6.9,11.9 -2.8,27.2 9.1,34.1 12,6.9 27.3,2.8 34.2,-9.1 l 393.6,-681.8 c 6.9,-11.9 2.8,-27.2 -9.2,-34.1 -3.9,-2.3 -8.2,-3.4 -12.5,-3.4"
         style="fill:#ffffff;fill-opacity:1;fill-rule:nonzero;stroke:none"
         id="path262" /><path
         d="m 12598.6,17197.9 c -4.2,0 -8.5,1.1 -12.5,3.4 -11.9,6.9 -16,22.2 -9.1,34.1 l 393.6,681.8 c 6.9,11.9 22.2,16 34.1,9.1 12,-6.9 16.1,-22.2 9.2,-34.1 l -393.6,-681.8 c -4.6,-8 -13.1,-12.5 -21.7,-12.5"
         style="fill:#ffffff;fill-opacity:1;fill-rule:nonzero;stroke:none"
         id="path264" /><path
         d="m 13779.4,16516.2 h -787.2 c -13.8,0 -25,11.2 -25,25 0,13.8 11.2,25 25,25 h 787.2 c 13.8,0 25,-11.2 25,-25 0,-13.8 -11.2,-25 -25,-25"
         style="fill:#ffffff;fill-opacity:1;fill-rule:nonzero;stroke:none"
         id="path266" /><path
         d="m 15962,16283.8 c -17.3,0 -34.1,9 -43.3,25 l -513.4,889.1 c -8.9,15.5 -8.9,34.6 0,50 l 513.4,889.2 c 8.9,15.4 25.4,25 43.3,25 h 1026.6 c 27.7,0 50,-22.4 50,-50 0,-27.6 -22.3,-50 -50,-50 h -997.8 l -484.4,-839.2 498.9,-864.1 c 13.8,-23.9 5.6,-54.5 -18.3,-68.3 -7.9,-4.5 -16.5,-6.7 -25,-6.7"
         style="fill:#ffffff;fill-opacity:1;fill-rule:nonzero;stroke:none"
         id="path268" /><path
         d="m 12344.2,15394.7 c -8.5,0 -17,2.1 -24.9,6.7 -23.9,13.8 -32.1,44.4 -18.3,68.3 l 513.3,889.1 c 13.8,23.9 44.4,32.1 68.3,18.3 23.9,-13.8 32.1,-44.4 18.3,-68.3 l -513.3,-889.1 c -9.3,-16.1 -26.1,-25 -43.4,-25"
         style="fill:#ffffff;fill-opacity:1;fill-rule:nonzero;stroke:none"
         id="path270" /><path
         d="m 16988.6,18062.1 c -8.5,0 -17.1,2.1 -25,6.7 -23.9,13.8 -32.1,44.4 -18.3,68.3 l 513.4,889.1 c 13.8,23.9 44.3,32.1 68.3,18.3 23.9,-13.8 32.1,-44.4 18.3,-68.3 l -513.4,-889.1 c -9.2,-16.1 -26,-25 -43.3,-25"
         style="fill:#ffffff;fill-opacity:1;fill-rule:nonzero;stroke:none"
         id="path272" /><path
         d="m 15448.6,17172.9 h -1026.7 c -17.8,0 -34.3,9.6 -43.3,25 l -513.3,889.2 c -8.9,15.4 -8.9,34.5 0,50 l 513.3,889.1 c 13.8,23.9 44.4,32.1 68.3,18.3 24,-13.8 32.2,-44.4 18.3,-68.3 l -498.9,-864.1 484.5,-839.2 h 997.8 c 27.6,0 50,-22.3 50,-50 0,-27.6 -22.4,-50 -50,-50"
         style="fill:#ffffff;fill-opacity:1;fill-rule:nonzero;stroke:none"
         id="path274" /><path
         d="m 19260.5,19266.7 h -1444.9 c -73.2,0 -133.1,59.9 -133.1,133.1 0,73.2 59.9,133.1 133.1,133.1 h 1444.9 c 73.2,0 133,-59.9 133,-133.1 0,-73.2 -59.8,-133.1 -133,-133.1"
         style="fill:#ffffff;fill-opacity:1;fill-rule:nonzero;stroke:none"
         id="path276" /><path
         d="m 19260.5,19665.9 h -1444.9 c -73.2,0 -133.1,59.9 -133.1,133.1 0,73.2 59.9,133.1 133.1,133.1 h 1444.9 c 73.2,0 133,-59.9 133,-133.1 0,-73.2 -59.8,-133.1 -133,-133.1"
         style="fill:#ffffff;fill-opacity:1;fill-rule:nonzero;stroke:none"
         id="path278" /><path
         d="m 18098.2,17821.8 h -622.3 c -79.8,0 -145.1,65.3 -145.1,145.1 0,79.9 65.3,145.2 145.1,145.2 h 622.3 c 79.8,0 145.1,-65.3 145.1,-145.2 0,-79.8 -65.3,-145.1 -145.1,-145.1"
         style="fill:#ffffff;fill-opacity:1;fill-rule:nonzero;stroke:none"
         id="path280" /><path
         d="m 15230,19171.7 h -541.9 c -94.1,0 -171.1,76.9 -171.1,171.1 v 19 c 0,94.1 77,171.1 171.1,171.1 h 541.9 c 94.1,0 171.1,-77 171.1,-171.1 v -19 c 0,-94.2 -77,-171.1 -171.1,-171.1"
         style="fill:#ffffff;fill-opacity:1;fill-rule:nonzero;stroke:none"
         id="path282" /><path
         d="m 17387.8,15759 h -1064.7 c -94.1,0 -171.1,77 -171.1,171.1 v 76.1 c 0,94.1 77,171.1 171.1,171.1 h 1064.7 c 94.1,0 171.1,-77 171.1,-171.1 v -76.1 c 0,-94.1 -77,-171.1 -171.1,-171.1"
         style="fill:#ffffff;fill-opacity:1;fill-rule:nonzero;stroke:none"
         id="path284" /><path
         d="m 12083.5,14979.6 h -608.4 c -94.1,0 -171.1,77 -171.1,171.1 v 9.5 c 0,94.1 77,171.1 171.1,171.1 h 608.4 c 94.1,0 171.1,-77 171.1,-171.1 v -9.5 c 0,-94.1 -77,-171.1 -171.1,-171.1"
         style="fill:#ffffff;fill-opacity:1;fill-rule:nonzero;stroke:none"
         id="path286" /><path
         d="m 30630.8,15035.6 h 753.7 l 376.9,652.7 -376.9,652.8 h -753.7 l -376.8,-652.8 z m 782.6,-100 H 30602 c -17.9,0 -34.4,9.5 -43.3,25 l -405.8,702.7 c -8.9,15.5 -8.9,34.6 0,50 l 405.8,702.8 c 8.9,15.4 25.4,25 43.3,25 h 811.4 c 17.9,0 34.4,-9.6 43.3,-25 l 405.7,-702.8 c 9,-15.4 9,-34.5 0,-50 l -405.7,-702.7 c -8.9,-15.5 -25.4,-25 -43.3,-25"
         style="fill:#ffffff;fill-opacity:1;fill-rule:nonzero;stroke:none"
         id="path288" /><path
         d="m 31877.9,14315.6 h 753.8 l 376.8,652.7 -376.8,652.7 h -753.8 l -376.8,-652.7 z m 782.6,-100 h -811.4 c -17.9,0 -34.4,9.5 -43.3,25 l -405.7,702.7 c -9,15.5 -9,34.5 0,50 l 405.7,702.7 c 8.9,15.5 25.4,25 43.3,25 h 811.4 c 17.9,0 34.4,-9.5 43.3,-25 l 405.7,-702.7 c 9,-15.5 9,-34.5 0,-50 l -405.7,-702.7 c -8.9,-15.5 -25.4,-25 -43.3,-25"
         style="fill:#ffffff;fill-opacity:1;fill-rule:nonzero;stroke:none"
         id="path290" /><path
         d="m 30166.2,14215.6 c -8.5,0 -17.1,2.1 -25,6.7 -23.9,13.8 -32.1,44.4 -18.3,68.3 l 405.7,702.7 c 13.8,23.9 44.4,32.1 68.3,18.3 23.9,-13.8 32.1,-44.4 18.3,-68.3 l -405.7,-702.7 c -9.2,-16 -26.1,-25 -43.3,-25"
         style="fill:#ffffff;fill-opacity:1;fill-rule:nonzero;stroke:none"
         id="path292" /><path
         d="m 34290.1,14223.2 c -17.3,0 -34.1,9 -43.4,25 L 33841,14951 c -13.8,23.9 -5.6,54.4 18.3,68.3 23.9,13.8 54.5,5.6 68.3,-18.4 l 405.7,-702.7 c 13.8,-23.9 5.7,-54.5 -18.3,-68.3 -7.8,-4.5 -16.4,-6.7 -24.9,-6.7"
         style="fill:#ffffff;fill-opacity:1;fill-rule:nonzero;stroke:none"
         id="path294" /><path
         d="m 30166.2,15621 h -811.4 c -27.6,0 -50,22.4 -50,50 0,27.7 22.4,50 50,50 h 811.4 c 27.6,0 50,-22.3 50,-50 0,-27.6 -22.4,-50 -50,-50"
         style="fill:#ffffff;fill-opacity:1;fill-rule:nonzero;stroke:none"
         id="path296" /><path
         d="m 33877.7,14935.6 h -811.5 c -17.8,0 -34.3,9.5 -43.3,25 l -405.7,702.7 c -8.9,15.5 -8.9,34.6 0,50 l 405.7,702.8 c 13.8,23.9 44.4,32.1 68.3,18.3 24,-13.8 32.1,-44.4 18.3,-68.3 l -391.2,-677.8 376.8,-652.7 h 782.6 c 27.6,0 50,-22.4 50,-50 0,-27.6 -22.4,-50 -50,-50"
         style="fill:#ffffff;fill-opacity:1;fill-rule:nonzero;stroke:none"
         id="path298" /><path
         d="m 32864.1,14930.9 c -8.6,0 -17,4.5 -21.6,12.5 l -327.1,566.6 c -7,11.9 -2.9,27.2 9.1,34.1 11.9,6.9 27.2,2.9 34.2,-9.1 l 327.1,-566.6 c 6.9,-11.9 2.8,-27.2 -9.2,-34.1 -3.9,-2.3 -8.2,-3.4 -12.5,-3.4"
         style="fill:#ffffff;fill-opacity:1;fill-rule:nonzero;stroke:none"
         id="path300" /><path
         d="m 30696.2,15109.2 c -8.6,0 -17,4.5 -21.7,12.6 l -327.1,566.5 c -6.9,12 -2.8,27.3 9.2,34.2 11.9,6.9 27.2,2.8 34.1,-9.2 l 327.1,-566.5 c 6.9,-12 2.8,-27.3 -9.1,-34.2 -4,-2.3 -8.3,-3.4 -12.5,-3.4"
         style="fill:#ffffff;fill-opacity:1;fill-rule:nonzero;stroke:none"
         id="path302" /><path
         d="m 31623.7,15663.3 c -8.7,0 -17.1,4.5 -21.7,12.5 l -327.1,566.6 c -6.9,12 -2.8,27.2 9.1,34.2 12,6.8 27.3,2.8 34.2,-9.2 l 327.1,-566.6 c 6.9,-11.9 2.8,-27.2 -9.2,-34.1 -3.9,-2.3 -8.2,-3.4 -12.4,-3.4"
         style="fill:#ffffff;fill-opacity:1;fill-rule:nonzero;stroke:none"
         id="path304" /><path
         d="m 34620.6,15097.6 h -661.1 c -74.4,0 -135.3,60.8 -135.3,135.2 v 12.8 c 0,74.4 60.9,135.3 135.3,135.3 h 661.1 c 74.4,0 135.2,-60.9 135.2,-135.3 v -12.8 c 0,-74.4 -60.8,-135.2 -135.2,-135.2"
         style="fill:#ffffff;fill-opacity:1;fill-rule:nonzero;stroke:none"
         id="path306" /><path
         d="m 33336.7,16560.1 h -540.9 c -74.4,0 -135.3,60.9 -135.3,135.3 v 123.9 c 0,74.4 60.9,135.3 135.3,135.3 h 540.9 c 74.4,0 135.3,-60.9 135.3,-135.3 v -123.9 c 0,-74.4 -60.9,-135.3 -135.3,-135.3"
         style="fill:#ffffff;fill-opacity:1;fill-rule:nonzero;stroke:none"
         id="path308" /><path
         d="m 35014,13841.4 h -860.3 c -74.4,0 -135.2,60.8 -135.2,135.2 v 33.8 c 0,74.4 60.8,135.2 135.2,135.2 h 860.3 c 74.4,0 135.2,-60.8 135.2,-135.2 v -33.8 c 0,-74.4 -60.8,-135.2 -135.2,-135.2"
         style="fill:#ffffff;fill-opacity:1;fill-rule:nonzero;stroke:none"
         id="path310" /><path
         d="m 30166.2,13849.8 h -811.4 c -74.4,0 -135.2,60.9 -135.2,135.2 v 17 c 0,74.3 60.8,135.2 135.2,135.2 h 811.4 c 74.4,0 135.3,-60.9 135.3,-135.2 v -17 c 0,-74.3 -60.9,-135.2 -135.3,-135.2"
         style="fill:#ffffff;fill-opacity:1;fill-rule:nonzero;stroke:none"
         id="path312" /><path
         d="m 29084.4,15522.5 h -676.2 c -74.4,0 -135.2,60.9 -135.2,135.2 v 68.5 c 0,74.4 60.8,135.2 135.2,135.2 h 676.2 c 74.3,0 135.2,-60.8 135.2,-135.2 v -68.5 c 0,-74.3 -60.9,-135.2 -135.2,-135.2"
         style="fill:#ffffff;fill-opacity:1;fill-rule:nonzero;stroke:none"
         id="path314" /><path
         d="m 5723.37,15444.7 c 0,-258.6 -209.63,-468.2 -468.22,-468.2 -258.59,0 -468.22,209.6 -468.22,468.2 0,258.6 209.63,468.2 468.22,468.2 258.59,0 468.22,-209.6 468.22,-468.2"
         style="fill:#ffffff;fill-opacity:1;fill-rule:nonzero;stroke:none"
         id="path316" /><path
         d="M 8031.39,14472.1 H 4805.88 c -47.32,0 -86.03,38.8 -86.03,86.1 0,47.3 38.71,86 86.03,86 h 3225.51 c 47.32,0 86.03,-38.7 86.03,-86 0,-47.3 -38.71,-86.1 -86.03,-86.1"
         style="fill:#ffffff;fill-opacity:1;fill-rule:nonzero;stroke:none"
         id="path318" /><path
         d="M 8031.39,14109.4 H 4805.88 c -47.32,0 -86.03,38.7 -86.03,86 0,47.3 38.71,86 86.03,86 h 3225.51 c 47.32,0 86.03,-38.7 86.03,-86 0,-47.3 -38.71,-86 -86.03,-86"
         style="fill:#ffffff;fill-opacity:1;fill-rule:nonzero;stroke:none"
         id="path320" /><path
         d="m 11086.1,11658.8 c 0,-454 -368.1,-822 -822.1,-822 -453.99,0 -822.04,368 -822.04,822 0,454 368.05,822.1 822.04,822.1 454,0 822.1,-368.1 822.1,-822.1"
         style="fill:#ffffff;fill-opacity:1;fill-rule:nonzero;stroke:none"
         id="path322" /><path
         d="m 10264,12202.2 c -299.59,0 -543.34,-243.8 -543.34,-543.4 0,-299.6 243.75,-543.3 543.34,-543.3 299.6,0 543.4,243.7 543.4,543.3 0,299.6 -243.8,543.4 -543.4,543.4 z m 0,-1136.7 c -327.15,0 -593.34,266.1 -593.34,593.3 0,327.2 266.19,593.4 593.34,593.4 327.2,0 593.4,-266.2 593.4,-593.4 0,-327.2 -266.2,-593.3 -593.4,-593.3"
         style="fill:#9ec8ff;fill-opacity:1;fill-rule:nonzero;stroke:none"
         id="path324" /><path
         d="m 11171.8,12081.3 c -18,0 -35.5,9.8 -44.4,26.9 -12.7,24.5 -3.2,54.7 21.3,67.5 l 2954.1,1537.8 c 24.4,12.8 54.6,3.3 67.4,-21.2 12.7,-24.5 3.2,-54.7 -21.3,-67.4 l -2954,-1537.9 c -7.4,-3.9 -15.3,-5.7 -23.1,-5.7"
         style="fill:#ffffff;fill-opacity:1;fill-rule:nonzero;stroke:none"
         id="path326" /><path
         d="m 12939.1,11608.8 -2.2,0.1 -1635,71 c -27.6,1.2 -49,24.5 -47.8,52.1 1.2,27.6 24.6,48.7 52.1,47.8 l 1635,-71 c 27.6,-1.2 49,-24.6 47.8,-52.1 -1.2,-26.9 -23.3,-47.9 -49.9,-47.9"
         style="fill:#ffffff;fill-opacity:1;fill-rule:nonzero;stroke:none"
         id="path328" /><path
         d="m 14955,13922.1 c 0,-197.3 -160,-357.3 -357.4,-357.3 -197.3,0 -357.3,160 -357.3,357.3 0,197.4 160,357.4 357.3,357.4 197.4,0 357.4,-160 357.4,-357.4"
         style="fill:#ffffff;fill-opacity:1;fill-rule:nonzero;stroke:none"
         id="path330" /><path
         d="m 13924.7,11658.8 c 0,-211.1 -171.2,-382.3 -382.3,-382.3 -211.2,0 -382.4,171.2 -382.4,382.3 0,211.2 171.2,382.4 382.4,382.4 211.1,0 382.3,-171.2 382.3,-382.4"
         style="fill:#ffffff;fill-opacity:1;fill-rule:nonzero;stroke:none"
         id="path332" /><path
         d="m 28347.4,12613.6 c -35.6,0 -64.7,-29 -64.7,-64.7 V 11933 c 0,-35.7 29.1,-64.7 64.7,-64.7 h 616 c 35.7,0 64.7,29 64.7,64.7 v 615.9 c 0,35.7 -29,64.7 -64.7,64.7 z m 616,-845.3 h -616 c -90.8,0 -164.7,73.8 -164.7,164.7 v 615.9 c 0,90.8 73.9,164.7 164.7,164.7 h 616 c 90.8,0 164.7,-73.9 164.7,-164.7 V 11933 c 0,-90.9 -73.9,-164.7 -164.7,-164.7"
         style="fill:#ffffff;fill-opacity:1;fill-rule:nonzero;stroke:none"
         id="path334" /><path
         d="m 28347.4,11235.7 c -35.6,0 -64.7,-29 -64.7,-64.7 v -615.9 c 0,-35.7 29.1,-64.7 64.7,-64.7 h 616 c 35.7,0 64.7,29 64.7,64.7 v 615.9 c 0,35.7 -29,64.7 -64.7,64.7 z m 616,-845.3 h -616 c -90.8,0 -164.7,73.8 -164.7,164.7 v 615.9 c 0,90.8 73.9,164.7 164.7,164.7 h 616 c 90.8,0 164.7,-73.9 164.7,-164.7 v -615.9 c 0,-90.9 -73.9,-164.7 -164.7,-164.7"
         style="fill:#ffffff;fill-opacity:1;fill-rule:nonzero;stroke:none"
         id="path336" /><path
         d="m 28655.4,12013.3 c -0.9,0 -1.8,0 -2.7,0.1 -14.2,0.8 -27.4,7.5 -36.3,18.6 l -267.6,333.3 c -17.3,21.5 -13.9,53 7.7,70.3 21.5,17.3 53,13.8 70.2,-7.7 l 232.8,-289.8 515,515 c 19.5,19.5 51.2,19.5 70.7,0 19.5,-19.6 19.5,-51.2 0,-70.7 l -554.4,-554.5 c -9.4,-9.4 -22.2,-14.6 -35.4,-14.6"
         style="fill:#f39892;fill-opacity:1;fill-rule:nonzero;stroke:none"
         id="path338" /><path
         d="m 28655.4,10669 c -0.9,0 -1.8,0 -2.7,0 -14.2,0.8 -27.4,7.6 -36.3,18.7 l -267.6,333.3 c -17.3,21.5 -13.9,53 7.7,70.3 21.5,17.3 53,13.8 70.2,-7.7 l 232.8,-289.9 515,515 c 19.5,19.6 51.2,19.6 70.7,0 19.5,-19.5 19.5,-51.1 0,-70.7 l -554.4,-554.4 c -9.4,-9.4 -22.2,-14.6 -35.4,-14.6"
         style="fill:#f39892;fill-opacity:1;fill-rule:nonzero;stroke:none"
         id="path340" /><path
         d="m 31538.5,12170.3 h -1692.8 c -46.9,0 -85.2,38.3 -85.2,85.1 0,46.8 38.3,85.1 85.2,85.1 h 1692.8 c 46.8,0 85.1,-38.3 85.1,-85.1 0,-46.8 -38.3,-85.1 -85.1,-85.1"
         style="fill:#ffffff;fill-opacity:1;fill-rule:nonzero;stroke:none"
         id="path342" /><path
         d="m 31538.5,11838.8 h -1692.8 c -46.9,0 -85.2,38.3 -85.2,85.1 0,46.8 38.3,85.1 85.2,85.1 h 1692.8 c 46.8,0 85.1,-38.3 85.1,-85.1 0,-46.8 -38.3,-85.1 -85.1,-85.1"
         style="fill:#ffffff;fill-opacity:1;fill-rule:nonzero;stroke:none"
         id="path344" /><path
         d="m 31538.5,10777.9 h -1692.8 c -46.9,0 -85.2,38.3 -85.2,85.1 0,46.8 38.3,85.1 85.2,85.1 h 1692.8 c 46.8,0 85.1,-38.3 85.1,-85.1 0,-46.8 -38.3,-85.1 -85.1,-85.1"
         style="fill:#ffffff;fill-opacity:1;fill-rule:nonzero;stroke:none"
         id="path346" /><path
         d="m 30874,10448.7 h -1028.3 c -46.9,0 -85.2,38.4 -85.2,85.2 0,46.8 38.3,85.1 85.2,85.1 H 30874 c 46.8,0 85.1,-38.3 85.1,-85.1 0,-46.8 -38.3,-85.2 -85.1,-85.2"
         style="fill:#ffffff;fill-opacity:1;fill-rule:nonzero;stroke:none"
         id="path348" /><path
         d="m 34222.7,20960.6 h -430.1 c -63.1,0 -114.7,51.6 -114.7,114.7 v 430.1 c 0,63.1 51.6,114.7 114.7,114.7 h 430.1 c 63.1,0 114.7,-51.6 114.7,-114.7 v -430.1 c 0,-63.1 -51.6,-114.7 -114.7,-114.7"
         style="fill:#cee3ff;fill-opacity:1;fill-rule:nonzero;stroke:none"
         id="path350" /><path
         d="m 35545.5,20960.6 h -430.1 c -63.1,0 -114.7,51.6 -114.7,114.7 v 430.1 c 0,63.1 51.6,114.7 114.7,114.7 h 430.1 c 63.1,0 114.7,-51.6 114.7,-114.7 v -430.1 c 0,-63.1 -51.6,-114.7 -114.7,-114.7"
         style="fill:#cee3ff;fill-opacity:1;fill-rule:nonzero;stroke:none"
         id="path352" /><path
         d="m 36966.3,20960.6 h -430.1 c -63.1,0 -114.8,51.6 -114.8,114.7 v 430.1 c 0,63.1 51.7,114.7 114.8,114.7 h 430.1 c 63.1,0 114.7,-51.6 114.7,-114.7 v -430.1 c 0,-63.1 -51.6,-114.7 -114.7,-114.7"
         style="fill:#9ec8ff;fill-opacity:1;fill-rule:nonzero;stroke:none"
         id="path354" /><path
         d="M 6858.87,18565.5 H 5398.88 c -47.32,0 -86.03,38.8 -86.03,86.1 0,47.3 38.71,86 86.03,86 h 1459.99 c 47.32,0 86.03,-38.7 86.03,-86 0,-47.3 -38.71,-86.1 -86.03,-86.1"
         style="fill:#ffffff;fill-opacity:1;fill-rule:nonzero;stroke:none"
         id="path356" /><path
         d="M 6858.87,18258.5 H 5398.88 c -47.32,0 -86.03,38.7 -86.03,86.1 0,47.3 38.71,86 86.03,86 h 1459.99 c 47.32,0 86.03,-38.7 86.03,-86 0,-47.4 -38.71,-86.1 -86.03,-86.1"
         style="fill:#ffffff;fill-opacity:1;fill-rule:nonzero;stroke:none"
         id="path358" /><path
         d="M 6858.87,17889.8 H 5398.88 c -47.32,0 -86.03,38.7 -86.03,86 0,47.4 38.71,86.1 86.03,86.1 h 1459.99 c 47.32,0 86.03,-38.7 86.03,-86.1 0,-47.3 -38.71,-86 -86.03,-86"
         style="fill:#ffffff;fill-opacity:1;fill-rule:nonzero;stroke:none"
         id="path360" /><path
         d="m 9938.63,15770 h -1740 c -77.18,0 -139.75,62.6 -139.75,139.8 v 620.5 c 0,77.1 62.57,139.7 139.75,139.7 h 1740 c 77.17,0 139.77,-62.6 139.77,-139.7 v -620.5 c 0,-77.2 -62.6,-139.8 -139.77,-139.8"
         style="fill:#9ec8ff;fill-opacity:1;fill-rule:nonzero;stroke:none"
         id="path362" /><path
         d="m 35888.7,19799 h -5945.1 c -66,0 -120,54 -120,120 v 81 c 0,66 54,120 120,120 h 5945.1 c 66,0 120,-54 120,-120 v -81 c 0,-66 -54,-120 -120,-120"
         style="fill:#cee3ff;fill-opacity:1;fill-rule:nonzero;stroke:none"
         id="path364" /><path
         d="m 35888.7,19191.8 h -5945.1 c -66,0 -120,54 -120,120 v 80.9 c 0,66 54,120 120,120 h 5945.1 c 66,0 120,-54 120,-120 v -80.9 c 0,-66 -54,-120 -120,-120"
         style="fill:#cee3ff;fill-opacity:1;fill-rule:nonzero;stroke:none"
         id="path366" /></g></g></svg>
