<?xml version="1.0" encoding="UTF-8" standalone="no"?>
<svg
   xmlns:dc="http://purl.org/dc/elements/1.1/"
   xmlns:cc="http://creativecommons.org/ns#"
   xmlns:rdf="http://www.w3.org/1999/02/22-rdf-syntax-ns#"
   xmlns:svg="http://www.w3.org/2000/svg"
   xmlns="http://www.w3.org/2000/svg"
   xmlns:sodipodi="http://sodipodi.sourceforge.net/DTD/sodipodi-0.dtd"
   xmlns:inkscape="http://www.inkscape.org/namespaces/inkscape"
   version="1.1"
   id="svg2"
   xml:space="preserve"
   width="4266.6665"
   height="2666.6667"
   viewBox="0 0 4266.6665 2666.6667"
   sodipodi:docname="6913.eps"><metadata
     id="metadata8"><rdf:RDF><cc:Work
         rdf:about=""><dc:format>image/svg+xml</dc:format><dc:type
           rdf:resource="http://purl.org/dc/dcmitype/StillImage" /></cc:Work></rdf:RDF></metadata><defs
     id="defs6" /><sodipodi:namedview
     pagecolor="#ffffff"
     bordercolor="#666666"
     borderopacity="1"
     objecttolerance="10"
     gridtolerance="10"
     guidetolerance="10"
     inkscape:pageopacity="0"
     inkscape:pageshadow="2"
     inkscape:window-width="640"
     inkscape:window-height="480"
     id="namedview4" /><g
     id="g10"
     inkscape:groupmode="layer"
     inkscape:label="ink_ext_XXXXXX"
     transform="matrix(1.3333333,0,0,-1.3333333,0,2666.6667)"><g
       id="g12"
       transform="scale(0.1)"><path
         d="M 32000,0 H 0 V 20000 H 32000 V 0"
         style="fill:#ffffff;fill-opacity:1;fill-rule:nonzero;stroke:none"
         id="path14" /><path
         d="m 3274.04,2431.6 c 0,0 -1993.48,2236.6 -1008.14,6556.6 619.76,2717.3 3250.68,4391.1 6713.1,3934.9 3205.5,-422.2 3151.6,1272.5 5956.1,2889.7 C 20934,19272.2 29611.5,17803 27534.7,10021.6 26529.6,6256 30695.9,6195.7 28625.3,2431.6 H 3274.04"
         style="fill:#ebf3fa;fill-opacity:1;fill-rule:nonzero;stroke:none"
         id="path16" /><path
         d="m 19402,15391.4 c 44.7,63.3 102.5,121.6 174.4,172.5 15.2,11 33.4,21.4 53,31.5 84.9,42.3 199.9,70.3 282.4,66.2 631.5,-32.6 856.5,-782.3 358.6,-1157.5 -8.3,-6 -16.5,-12.1 -25,-18 -79.4,-55.5 -224.7,-97.2 -321.3,-93.3 -50.7,2.2 -98.9,8.9 -144.2,19.5 -452.7,107.7 -632,618.3 -377.9,979.1 z m 869.6,1126.8 -280,12.7 -6.6,0.3 c -34.1,1.4 -63.7,-22.9 -68.9,-56.4 l -36,-231.3 c -0.5,-3.8 -1.4,-7.5 -2.6,-11 -8.5,-24.5 -30.6,-42.6 -57,-44.4 -155.1,-12.8 -305.7,-56 -443.6,-127.8 -5.8,-2.9 -11.8,-4.9 -17.8,-6.2 -22.9,-4.4 -47.2,3.7 -63.2,21.5 l -128.4,147.2 c -17.1,19.2 -43.7,26.6 -67.5,20.4 -7.2,-2.1 -14.6,-5.2 -21.4,-9.8 l -234.5,-164.1 c -28.8,-20.1 -37.6,-59.6 -19.7,-90.3 l 130.5,-224.7 c 12.8,-22.2 11.7,-49.6 -2.9,-70.7 -20.7,-30.7 -40.2,-62 -58.2,-94.9 -33.9,-61.6 -61.5,-124.8 -83.2,-189 l -0.1,-0.3 c -9.1,-26.8 -33.1,-45 -61.4,-46.2 l -263.7,-10.6 -13.2,-0.6 c -33.9,-1.1 -61.8,-28.5 -63.4,-62.9 l -13.1,-286.2 c -1.4,-34.8 23.4,-65.5 58,-70.9 l 257.4,-40.1 c 28.6,-4.3 51.2,-26.6 55.7,-54.8 21.2,-119.2 60.3,-234.7 116.9,-341.8 14,-27.5 7.8,-60.8 -15.5,-81.3 l -174.1,-152.6 c -26.5,-23.3 -30.8,-62.2 -10.8,-90.6 l 164.6,-235.6 c 19.6,-27.8 57.1,-35.9 86.1,-19 l 264.4,153 c 22.3,13.1 50.2,12.2 71.9,-2 26.7,-17.7 54.2,-34.4 82.7,-50.1 53.8,-29.5 108.7,-54.4 164.1,-74.7 25.4,-9 42.9,-32.3 43.6,-59.2 l 12.4,-316.9 c 1.6,-34.9 29.2,-62.6 63.9,-64.3 l 287.2,-13.3 c 30.4,-1.2 57.9,18.5 66.7,47 0.9,2.9 1.9,6.2 2.2,9.4 l 44.6,285.6 c 4,26.6 23.1,48.2 49,54.8 2.3,0.7 4.6,1.3 6.9,1.5 7.1,1.1 13.6,2 20.7,3.8 81.9,14 162.4,37.1 239.8,68.4 25.7,10.9 55.7,3.5 74.1,-18 l 161.4,-183.8 c 22.7,-26.1 61.9,-30.6 90.3,-10.7 l 52.2,36.5 181.8,127.5 c 28.7,19.8 37.1,58.4 19.7,88.8 l -128.5,221.4 c -14,23.5 -11,53 6.3,74.1 45.5,55.3 86.9,116.1 122.9,181.6 26.7,48.5 49.8,98.7 68.8,149.2 l 55.3,2.1 227,9.2 c 28.1,0.9 52.1,19.8 60,45.8 1.8,5.4 2.7,11 2.9,17 l 13.8,288.1 c 1.3,34.1 -23.3,63.6 -56.7,69 l -175.9,27.1 c -29.7,4.6 -53.2,29.3 -56.1,59.2 -11.6,124.2 -42.6,245.4 -91.9,358.8 -11.8,26.9 -5.1,57.7 16.7,76 l 220.1,192.8 c 24.5,21.8 29,58.3 10.2,85.3 l -166.8,237.9 c -19.7,28.3 -57.5,36.6 -86.7,19.3 l -275,-159.2 c -23.6,-14 -53.1,-11.8 -74.8,5.1 -46.4,36.1 -96.7,68.7 -150.2,98.1 -28.7,15.8 -57.9,30.3 -87.4,43.5 -23,10.4 -38.3,32.9 -39.6,58.1 l -12,303.9 c -1.4,35.2 -29.1,63.3 -64.4,65.3"
         style="fill:#dfedfb;fill-opacity:1;fill-rule:nonzero;stroke:none"
         id="path18" /><path
         d="m 22520.7,12965.8 c 80.5,88.4 180.3,166.6 300.2,230.9 25.3,13.9 55.2,26.4 87.1,38.1 138.3,48.4 319.8,69.3 445.5,47.1 961.1,-171 1162.1,-1362.5 327.4,-1841.8 -13.8,-7.7 -27.6,-15.4 -41.8,-22.8 -132.3,-69.9 -362.8,-105.9 -510.1,-81.4 -77.3,13 -149.7,32.6 -217.1,57.5 -672.9,251.8 -849.7,1068.3 -391.2,1572.4 z m 1548.2,1559.5 -426.5,73.2 -10.2,1.7 c -52,8.6 -102,-22.8 -116.3,-73.2 l -99.4,-347.4 c -1.7,-5.8 -3.7,-11.2 -6.2,-16.4 -17.8,-35.8 -55.1,-59.4 -95.8,-57.1 -240,10.2 -479.1,-27.2 -704.2,-110.8 -9.3,-3.3 -18.9,-5.2 -28.3,-6 -36,-2.4 -71.7,14.6 -92.7,45 l -168.6,250.1 c -22.5,32.7 -61.8,49.2 -99.5,44.3 -11.4,-1.9 -23.4,-5.2 -34.5,-11 l -390.8,-206.5 c -48,-25.3 -69.1,-84 -47.5,-134.5 l 156.8,-369.3 c 15.4,-36.4 8.5,-78.2 -18,-107.7 -37.5,-43.1 -73.4,-87.3 -107.4,-134.2 -63.7,-87.9 -118.1,-179.4 -163.5,-273.6 l -0.3,-0.4 c -19.1,-39.4 -59.4,-62.7 -102.9,-59 l -406,34.3 -20.4,1.5 c -52.1,4.9 -100.2,-31.7 -109.1,-84.1 l -75,-436 c -8.8,-53.1 23.3,-104.8 75.2,-119.7 l 386.7,-110.7 c 43,-12.2 73.3,-50.7 74.9,-94.8 9.5,-186.6 47.4,-371 113.4,-546 16.3,-44.7 0.4,-94.6 -39.3,-121.5 l -295.9,-200.5 c -45,-30.6 -59.2,-89.3 -34,-136.7 l 207.1,-392.4 c 24.6,-46.4 80.6,-66 128.3,-45.6 l 434.3,183.7 c 36.8,15.7 79.3,8.9 109.8,-17 37.4,-32.2 76.5,-63 117.1,-92.5 76.7,-55.6 156,-104.2 237.1,-145.9 37.1,-18.7 59.5,-57.7 55.4,-99 l -41.8,-487.9 c -4.2,-53.8 32.7,-101.5 85.5,-110.7 l 437.5,-75.5 c 46.4,-7.6 92.3,17.3 111.3,59.2 1.9,4.3 4,9.1 5.1,14 l 123,429 c 11.3,39.9 44.7,69.4 85.7,74.5 3.6,0.6 7.2,1.2 10.9,1 10.9,0.3 21.2,0.5 32.3,1.9 128.2,5.7 256,25.7 380.5,58.8 41.4,11.7 86,-5.4 110.1,-41.9 l 212,-312.4 c 29.8,-44.4 89,-58.8 136.3,-33.7 l 86.9,45.8 303.1,160.6 c 47.7,24.8 67.9,82.3 47.1,132.2 l -154.4,363.8 c -16.8,38.8 -6.7,83.3 23.9,112.4 80.3,75.9 155.4,161.2 223.1,254.5 50.2,69.3 95.1,141.7 134,215.4 l 85.2,-7.3 349.4,-29.4 c 43.2,-4.1 83.7,20.3 100.7,58.6 3.9,7.9 6.2,16.4 7.7,25.4 l 76.4,438.8 c 8.6,52 -23.6,101.9 -73.6,116.6 l -264.4,75.2 c -44.5,12.8 -75.9,55.1 -74.5,101.5 6,192.4 -18.3,384 -72.1,567.3 -12.8,43.4 3.4,89.3 40.3,113.1 l 374.1,253.4 c 41.6,28.6 55.6,83.6 31.9,128.6 l -209.9,396.5 c -24.7,47 -81.1,67 -129.1,46.1 l -451.9,-191.2 c -38.7,-16.9 -83.5,-7.8 -113.6,22.2 -64.1,64.2 -134.9,123.8 -211.2,179.1 -41,29.7 -82.9,57.6 -125.5,83.4 -33.3,20.4 -52.5,57.6 -49.5,96.6 l 39.8,467.8 c 4.6,54.3 -32.5,102.7 -86.1,112.4"
         style="fill:#cde3fd;fill-opacity:1;fill-rule:nonzero;stroke:none"
         id="path20" /><path
         d="m 9896.05,11425.4 c -24.04,595 474.65,859.3 984.55,859.3 509.9,0 1064.8,-132.1 1112.9,-923.2 30.9,-509 -240.4,-822.2 -1021.7,-822.2 -263.5,0 -468.3,41.6 -625.1,115.7 l -390.56,-347 191.96,479.7 c -170.05,158 -241.68,381 -252.05,637.7"
         style="fill:#dfedfb;fill-opacity:1;fill-rule:nonzero;stroke:none"
         id="path22" /><path
         d="m 5044.74,2459.8 c 0,0 -21.17,164.9 -70.19,263 -49.03,98 -361.02,35.6 -361.02,35.6 0,0 -62.4,-53.4 -75.77,-303 l 506.98,4.4"
         style="fill:#233862;fill-opacity:1;fill-rule:nonzero;stroke:none"
         id="path24" /><path
         d="m 6107.7,2462 c -73.31,44.8 -31.6,378.6 -31.6,378.6 0,0 341.6,273.3 388.57,64 46.97,-209.2 324.52,-303.1 482.51,-328.7 109.06,-17.7 142.82,-78.1 153.28,-113.9 H 6107.7"
         style="fill:#233862;fill-opacity:1;fill-rule:nonzero;stroke:none"
         id="path26" /><path
         d="m 5400.14,4889.9 c 13.91,-76.6 22.73,-139.5 25.07,-184.5 31.76,-619.4 521.4,-2035.7 608.98,-2068.7 135.52,-51.2 348.92,57.5 460.56,93.1 46.27,14.8 77.49,61.5 67.19,108.8 -242.48,1114.7 -331.6,2719.9 -364.02,3670.2 -16.38,478.7 -98.54,809.4 -98.54,809.4 0,0 -1194.23,318.6 -1201.32,-84.5 -6.28,-356.6 395.58,-1755.4 502.08,-2343.8"
         style="fill:#213f7a;fill-opacity:1;fill-rule:nonzero;stroke:none"
         id="path28" /><path
         d="m 5400.14,4889.9 797.78,1618.9 c -16.38,478.7 -98.54,809.4 -98.54,809.4 0,0 -1194.23,318.6 -1201.32,-84.5 -6.28,-356.6 395.58,-1755.4 502.08,-2343.8"
         style="fill:#233862;fill-opacity:1;fill-rule:nonzero;stroke:none"
         id="path30" /><path
         d="M 5665.85,7232.3 5034.53,2656.7 c 0,0 -277.24,-66.8 -492.87,-13.3 0,0 -184.83,2433.5 -169.42,3021.8 15.4,588.3 -132.66,1574.2 33.79,1683 166.44,108.7 1259.82,-115.9 1259.82,-115.9"
         style="fill:#213f7a;fill-opacity:1;fill-rule:nonzero;stroke:none"
         id="path32" /><path
         d="m 4361.67,8407.1 -78.69,-1098.5 c -3.04,-41.4 23.41,-79 63.23,-90.5 88.05,-25.6 189.59,-43.4 385.42,-83.9 183.91,-38.2 431.36,-72.1 735.41,-73.9 483.59,-3.1 666.67,163.6 666.67,163.6 20.83,-0.4 -11,100.8 -39.68,582 -9.71,163 -19.1,369.6 -25.85,630.8 -6.11,235 -10.23,514.1 -10.61,845.3 -0.51,398.4 -617.15,827 -628.54,827 l -0.12,-0.2 c 0,-57.4 -90.42,-163.2 -229.65,-172.3 -165.27,-10.8 -368.02,71.4 -368.02,166.6 0,0.9 -298.77,-478 -404.88,-988.2 -13.5,-64.7 -23.92,-132.9 -32.22,-204.8 -0.13,-1.1 -0.25,-2.2 -0.39,-3.3 -1.54,-13.1 -2.95,-26.3 -4.3,-39.6 -0.26,-2.3 -0.45,-4.7 -0.71,-7 -1.22,-12.1 -2.45,-24.3 -3.53,-36.6 -0.33,-3.4 -0.59,-7 -0.91,-10.5 -1.03,-11.3 -1.99,-22.5 -2.89,-33.8 -0.07,-1.1 -0.19,-2.1 -0.26,-3.1 -0.71,-8.5 -1.29,-16.9 -1.93,-25.4 -0.45,-6 -0.9,-12.1 -1.35,-18.2 -0.71,-9.9 -1.35,-19.8 -2.05,-29.9 -0.33,-5 -0.65,-10.1 -0.97,-15.1 -0.58,-9.6 -1.16,-19.1 -1.73,-28.9 -0.26,-4.2 -0.52,-8.5 -0.78,-12.8 -0.77,-13.9 -1.54,-27.9 -2.25,-42.1 -0.06,-1.1 -0.13,-2.2 -0.19,-3.4 -0.71,-13.5 -1.36,-27.2 -1.99,-41 -0.2,-3.4 -0.33,-6.8 -0.45,-10.2 -0.65,-12.9 -1.23,-25.9 -1.74,-39 -0.07,-1.9 -0.19,-3.9 -0.26,-5.8 -1.35,-31.9 -2.57,-64.4 -3.79,-97.3 -0.07,-0.8 -0.07,-1.7 -0.13,-2.5 l 0.13,2.5"
         style="fill:#f99746;fill-opacity:1;fill-rule:nonzero;stroke:none"
         id="path34" /><path
         d="m 5429.02,10109 c 0,0 573.41,4.8 711.4,-188.7 138,-193.5 440.58,-1234.7 282.69,-1581.1 -157.9,-346.5 -453.34,143.3 -617.32,355.5 -163.97,212.2 -376.77,1414.3 -376.77,1414.3"
         style="fill:#f99746;fill-opacity:1;fill-rule:nonzero;stroke:none"
         id="path36" /><path
         d="m 5434.88,10196.5 -0.32,-59.3 c 0,0 16.14,-185.4 -212.12,-212.4 -228.27,-27.2 -397.39,35.2 -391.2,178.3 20.56,110.7 39.32,223.8 40.84,315.5 0.57,34 -1.77,70.2 -8.11,111 l 442.32,8.8 130.28,-21.3 -1.69,-320.6"
         style="fill:#ffb27d;fill-opacity:1;fill-rule:nonzero;stroke:none"
         id="path38" /><path
         d="m 5436.57,10517.1 -1.69,-320.6 c -46.98,-21.9 -100,-35.2 -159.44,-35.2 -203.28,0 -334.68,149.1 -403.36,257.3 0.57,34 -1.77,70.2 -8.11,111 l 442.32,8.8 130.28,-21.3"
         style="fill:#e2915a;fill-opacity:1;fill-rule:nonzero;stroke:none"
         id="path40" /><path
         d="m 4830.08,10600.8 c 51.32,-276.2 407.7,-267.2 561.72,-249.8 43.34,4.8 70.61,10.3 70.61,10.3 48.87,13.1 76.13,90.1 88.81,190.9 25.14,199.5 -6.63,492.5 -40.32,567.4 -50.74,112.7 -146.3,234.6 -505.2,146.7 -358.96,-88.1 -241.47,-311.7 -175.62,-665.5"
         style="fill:#ffb27d;fill-opacity:1;fill-rule:nonzero;stroke:none"
         id="path42" /><path
         d="m 6015.38,9333 c 0,0 221.77,-489.7 215.32,-636.5 0,0 -109.82,3.7 -215.32,-27.7 -173.37,-51.7 0,664.2 0,664.2"
         style="fill:#ed7d2b;fill-opacity:1;fill-rule:nonzero;stroke:none"
         id="path44" /><path
         d="m 5621.04,11382.5 c 0,0 -157.98,12.1 -344.31,93.1 -151.23,65.8 -342.03,-6.6 -403.97,-39.2 1.67,9.9 5.65,23.6 15.11,37.2 0,0 -27.81,-19.7 -31.91,-47.3 -2.86,-2.1 -4.14,-3.5 -3.4,-4 0,0 -31.52,5.8 -51.78,-3.4 0,0 14.18,2.1 19.24,-7 0.54,-1 1.34,-1.8 2.27,-2.6 -235.91,-113.9 -257.69,-486.8 -181.78,-573 91.34,-103.8 200.86,-337.6 200.86,-337.6 0,0 39.93,55.2 23.33,146.6 -16.61,91.3 62.27,91.3 161.91,132.8 99.64,41.6 16.61,157.8 103.79,228.4 87.19,70.6 406.86,29 402.71,83 118.66,43.2 87.93,280.8 87.93,293"
         style="fill:#233862;fill-opacity:1;fill-rule:nonzero;stroke:none"
         id="path46" /><path
         d="m 4757.8,8415.6 c 93.63,-375.9 1106.08,-570.2 1336.23,-609.7 -9.71,163 -19.1,369.6 -25.85,630.8 L 4757.8,8415.6"
         style="fill:#ed7d2b;fill-opacity:1;fill-rule:nonzero;stroke:none"
         id="path48" /><path
         d="m 4980.04,8293.4 c -9.64,0 -225.07,32.2 -263.66,51.5 -38.58,19.3 -215.05,270.1 -99.49,334.4 115.57,64.3 425.82,-193 425.82,-193 l -62.67,-192.9"
         style="fill:#ffb27d;fill-opacity:1;fill-rule:nonzero;stroke:none"
         id="path50" /><path
         d="m 6290.33,8218.9 c 0,0 -833.19,-45.2 -1392.34,74.5 0,0 -14.1,161.6 161.62,233.3 0,0 871.46,184.7 1080.81,133.3 209.36,-51.5 149.91,-441.1 149.91,-441.1"
         style="fill:#f99746;fill-opacity:1;fill-rule:nonzero;stroke:none"
         id="path52" /><path
         d="m 4376.91,8872.8 c 172.92,-208.5 398.96,-378.7 648.15,-418.6 h 0.06 c 2.06,3.2 75.43,114.6 61.67,278.3 -6.37,75.8 -31.38,162.8 -90.74,255.4 -18.26,28.5 -34.53,61.8 -49,98.8 -136.07,347.2 -115.81,1016.4 -115.81,1016.4 0,0 -577.87,-60.5 -757.92,-317.8 -110.29,-157.5 30.35,-582.9 303.59,-912.5"
         style="fill:#f99746;fill-opacity:1;fill-rule:nonzero;stroke:none"
         id="path54" /><path
         d="m 5391.8,10351 c 43.34,4.8 70.61,10.3 70.61,10.3 48.87,13.1 76.13,90.1 88.81,190.9 -91.64,-22.6 -133.63,-93.4 -151.13,-123.5 -7.9,-13.6 -9.51,-44 -8.29,-77.7"
         style="fill:#e2915a;fill-opacity:1;fill-rule:nonzero;stroke:none"
         id="path56" /><path
         d="m 5624.61,10194.8 c 0,0 199.58,329.3 44.38,343.6 -155.2,14.3 -217.55,-90.7 -239.97,-129.3 -22.41,-38.6 5.86,-212.6 5.86,-212.6 l 189.73,-1.7"
         style="fill:#ffb27d;fill-opacity:1;fill-rule:nonzero;stroke:none"
         id="path58" /><path
         d="m 4863.97,8743.6 c 6.11,-41.8 18.58,-80.2 34.02,-114.4 48.74,-108.2 127.07,-175 127.07,-175 h 0.06 c 518.31,234 623.2,1037.4 640.75,1478.8 7.08,177.4 0,296.4 0,296.4 -233.81,77.4 -299.54,-57.1 -299.54,-57.1 0,0 -276.07,-656.5 -419.28,-1085.6 -54.79,-164.2 -90.09,-295.1 -83.08,-343.1"
         style="fill:#f99746;fill-opacity:1;fill-rule:nonzero;stroke:none"
         id="path60" /><path
         d="m 4376.91,8872.8 c 172.92,-208.5 398.96,-378.7 648.15,-418.6 h 0.06 c 518.31,234 623.2,1037.4 640.75,1478.8 0,0 -245.26,-889.6 -579.08,-1200.5 -60.32,-56.3 -123.6,-93.6 -188.8,-103.3 0,0 -420.95,119 -509.25,231 -6.3,8.1 -10.16,12 -11.83,12.6"
         style="fill:#ed7d2b;fill-opacity:1;fill-rule:nonzero;stroke:none"
         id="path62" /><path
         d="m 20924.6,6006.2 c 0,0 329.3,386.4 18.6,630.4 0,0 -226.8,136.4 -411.4,124.8 0,0 262.8,-438 178.3,-481.9 -84.5,-43.9 -257.7,509.2 -257.7,509.2 0,0 -515.4,48.5 -681,-31.6 0,0 441.5,-359.3 348.8,-381 -92.7,-21.7 -569.5,330.8 -569.5,330.8 0,0 -479.4,-83 -453,-375.5 26.3,-292.5 191.9,-382.4 264.5,-374.4 72.6,8 497,171.3 506.4,111.9 9.5,-59.5 -245.8,-254.7 -424.8,-264.3 0,0 339.1,-372 563.6,-263.8 224.4,108.3 243.1,278.9 383,343.3 139.9,64.4 259.5,64.6 201.9,-0.9 -57.7,-65.4 -311,-129.5 -390.8,-271.4 -79.7,-142 -151.3,-237.7 81.1,-202.1 232.4,35.6 609.9,206.8 625.9,401.6 16.1,194.9 16.1,194.9 16.1,194.9"
         style="fill:#c8dbf4;fill-opacity:1;fill-rule:nonzero;stroke:none"
         id="path64" /><path
         d="m 19333.3,6324.2 c 0,0 1302.6,53.8 1591.3,-318 0,0 64.2,-190.4 260.4,-363.3 l 30.8,-83.1 c 0,0 -226.4,237.4 -307.3,251.5 0,0 125.1,462 -1575.2,512.9"
         style="fill:#c8dbf4;fill-opacity:1;fill-rule:nonzero;stroke:none"
         id="path66" /><path
         d="m 21185,5642.9 c 0,0 280.2,-206 300.6,-575.5 l -50.7,-4.7 c 0,0 -90.4,381.8 -252.2,530.8 -161.8,149 2.3,49.4 2.3,49.4"
         style="fill:#c8dbf4;fill-opacity:1;fill-rule:nonzero;stroke:none"
         id="path68" /><path
         d="m 22671.7,7025 c 0,0 -526.4,292.8 -282.3,692.9 0,0 195.6,245.9 405.6,309.5 0,0 -110.4,-596 1.7,-609.7 112.2,-13.7 75.2,673 75.2,673 0,0 552.9,267.8 770.2,247.4 0,0 -341.8,-582.6 -229.7,-568.3 112.1,14.4 495.9,604 495.9,604 0,0 567.3,106.7 659.3,-229.4 92.1,-336.1 -54.6,-504.7 -138.7,-525.9 -84,-21.3 -623.6,-15.8 -609.4,-85.8 14.2,-70 378.9,-181.2 582,-117.5 0,0 -222.7,-554.3 -517.1,-527 -294.4,27.2 -386,209.1 -568.3,222.6 -182.2,13.6 -315.2,-35.9 -224,-84.7 91.2,-48.8 399.5,-14.9 547,-139.6 147.5,-124.7 266.8,-201.5 -6.3,-258.3 -273.1,-56.8 -763.8,-23.1 -862.5,186.8 -98.6,210 -98.6,210 -98.6,210"
         style="fill:#c8dbf4;fill-opacity:1;fill-rule:nonzero;stroke:none"
         id="path70" /><path
         d="m 24308.7,8038.6 c 0,0 -1470.3,-480.6 -1637,-1013.6 0,0 7.6,-238.3 -138.8,-512 l 0.3,-105.1 c 0,0 153.2,357.8 237.1,407.1 0,0 -330.6,461.6 1538.4,1223.6"
         style="fill:#c8dbf4;fill-opacity:1;fill-rule:nonzero;stroke:none"
         id="path72" /><path
         d="m 22532.9,6513 c 0,0 -226,-345.2 -95.4,-764.4 l 58.3,15.9 c 0,0 -57.9,461.9 60.1,694.6 118.1,232.7 -23,53.9 -23,53.9"
         style="fill:#c8dbf4;fill-opacity:1;fill-rule:nonzero;stroke:none"
         id="path74" /><path
         d="m 21834.4,7428.6 c 0,0 691.7,389.8 367,915.5 0,0 -259.6,322.6 -536.9,404.9 0,0 149.9,-784.7 2.2,-803.6 -147.7,-18.9 -104.1,886.5 -104.1,886.5 0,0 -730.7,349 -1017,320.5 0,0 454.8,-765.4 306.9,-747.4 -147.8,18.1 -658,792.6 -658,792.6 0,0 -748.6,136.5 -867.5,-307.2 -118.8,-443.7 75.8,-664.9 186.7,-692.3 110.9,-27.4 822.2,-16.2 803.9,-108.6 -18.2,-92.4 -498.1,-241.6 -766.2,-159.2 0,0 297.6,-728.9 685.5,-690.9 387.8,38 507.2,278.5 747.4,297.7 240.1,19.1 415.8,-45.1 295.9,-110.1 -119.9,-64.9 -526.5,-22.6 -720,-188 -193.6,-165.5 -350.3,-267.5 10.1,-340.4 360.5,-73 1007,-25 1135.5,252.5 128.6,277.5 128.6,277.5 128.6,277.5"
         style="fill:#d4e4f8;fill-opacity:1;fill-rule:nonzero;stroke:none"
         id="path76" /><path
         d="m 19669.2,8752.8 c 0,0 1941.6,-622.8 2165.2,-1324.2 0,0 -8.4,-314.1 186.6,-673.8 l 0.4,-138.6 c 0,0 -204.5,470.5 -315.6,534.9 0,0 432.5,610.9 -2036.6,1601.7"
         style="fill:#d4e4f8;fill-opacity:1;fill-rule:nonzero;stroke:none"
         id="path78" /><path
         d="m 22021,6754.8 c 0,0 300.4,-453.5 131.4,-1007 l -77,20.5 c 0,0 73,609.3 -84.4,915.2 -157.3,305.9 30,71.3 30,71.3"
         style="fill:#d4e4f8;fill-opacity:1;fill-rule:nonzero;stroke:none"
         id="path80" /><path
         d="m 26350.8,2540.3 -5688.1,-14.1 c -846.1,968.7 -932.2,2278.2 191.8,3381 141.3,138.6 412.4,236.9 704.6,306.2 538.7,127.7 1149.5,156.9 1154.3,159.4 1.8,0.7 322.9,260.8 516.1,494.6 600.4,726.2 1110.8,663.6 1110.8,663.6 611.7,118.8 1133.4,153.5 1520.1,-61.9 0,-0.1 0,-0.1 0.1,-0.3 358.2,-199.8 600.6,-614.6 691,-1376.8 17.2,-144.1 28.9,-300.7 35,-470.5 21.9,-618.5 143.6,-1168.7 215.8,-1634.6 0.1,0 0.1,-0.2 0.1,-0.2 104.6,-674.8 105.3,-1173 -451.6,-1446.4"
         style="fill:#f99746;fill-opacity:1;fill-rule:nonzero;stroke:none"
         id="path82" /><path
         d="m 25557,6705.8 c -371.2,-202.1 -412.5,-868 -993.5,-1039.7 -580.9,-171.9 -1566.9,-155.7 -2126.5,-762.2 -539.8,-585.1 -1134.3,904.3 -877.9,1323.1 538.7,127.6 1149.5,156.8 1154.3,159.4 1.8,0.7 322.9,260.8 516.1,494.6 600.4,726.2 1110.8,663.6 1110.8,663.6 611.7,118.7 1133.4,153.5 1520.1,-62 0,-0.1 0,-0.1 0.1,-0.2 196.2,-214.2 67.7,-574.7 -303.5,-776.6"
         style="fill:#ed7d2b;fill-opacity:1;fill-rule:nonzero;stroke:none"
         id="path84" /><path
         d="m 23278.8,6515.2 c 0,0 -1862.5,24.5 -2110.6,-134.3 -248,-158.7 255.8,-2681 255.8,-2681 0,0 481.7,-14 519.7,113.6 0,0 -89.9,1182.3 -14.7,1386.7 75.3,204.5 27.8,487.5 27.8,487.5 0,0 942.5,-141.2 1241.5,-69.6 298.9,71.6 80.5,897.1 80.5,897.1"
         style="fill:#233862;fill-opacity:1;fill-rule:nonzero;stroke:none"
         id="path86" /><path
         d="m 23709.7,7818.9 c -0.2,-1.5 -262.1,-611 -389.8,-675.9 -127.8,-64.9 -590.3,-596.3 -689.5,-587 -99.1,9.2 116,-80.7 116,-80.7 0,0 808.4,372.7 855.4,395.9 47,23.3 294.6,430.6 328.6,637.4 34,206.7 -220.7,310.3 -220.7,310.3"
         style="fill:#ffb27d;fill-opacity:1;fill-rule:nonzero;stroke:none"
         id="path88" /><path
         d="m 22003.1,3511.8 c -62.1,-119.8 -76.1,-340 -94.6,-414.7 -18.4,-74.6 -343.9,-328.6 -371.9,-315.9 -71.2,32.2 -3.2,156.2 40.3,246.9 1.8,3.6 3.5,7.3 5.1,10.8 42.9,91.4 6,295.4 28.2,400.7 22.2,105.3 -84.5,388.9 -84.5,388.9 l 179.8,227.2 c 0,0 126.3,-240.5 216.7,-284.2 16,-7.8 30.9,-17.2 44.1,-28.1 61.3,-50.5 87.8,-133.1 36.8,-231.6"
         style="fill:#ffb27d;fill-opacity:1;fill-rule:nonzero;stroke:none"
         id="path90" /><path
         d="m 21371,2810.3 c -124.6,-51.3 -277.4,-210.6 -339.7,-255.8 -62.3,-45.1 -474.8,-29.1 -488,-1.4 -35,73.3 109.2,125.4 200.9,167.6 1.4,0.6 2.7,1.3 4.1,1.9 l 0.3,0.2 c 90.6,45.6 192.1,220.7 275.8,285.9 84.9,66.1 186.2,351.6 186.2,351.6 l 283.9,57.6 c 0,0 -58.5,-265.3 -17.6,-357 3.8,-8.7 7.1,-17.4 9.7,-26.2 26,-85.2 -2.6,-177.7 -115.6,-224.4"
         style="fill:#ffb27d;fill-opacity:1;fill-rule:nonzero;stroke:none"
         id="path92" /><path
         d="m 24244.8,8089.4 c -37.9,43.8 561,224.4 688.7,-267.2 0,0 1102.3,293.1 424.7,784.2 -234.6,170 -258.2,351.4 -292.1,517.4 -34,166.1 -268,643.1 -674.3,406.4 0,0 -185.6,-0.8 -303,-102.6 -267.1,-231.4 -559.1,-1702.2 156,-1338.2"
         style="fill:#163560;fill-opacity:1;fill-rule:nonzero;stroke:none"
         id="path94" /><path
         d="m 24056.9,6428.7 c 0,0 -1931.4,-196.3 -2101.1,-393.4 -169.7,-197.1 -837.1,-2760.6 -837.1,-2760.6 0,0 197.1,-109.9 376.3,-7.2 0,0 511,869.6 737.1,1142.6 226.1,273 310.8,1115.9 348.1,1124.5 37.3,8.6 1247.6,-169 1664.4,150.9 416.8,319.9 -187.7,743.2 -187.7,743.2"
         style="fill:#2a4e96;fill-opacity:1;fill-rule:nonzero;stroke:none"
         id="path96" /><path
         d="m 25132.6,8181.2 c 0,0 -460.6,205.8 -1044.8,111.7 -119.4,-19.2 -226.9,-58.4 -312.3,-199 -120.7,-198.6 -177.1,-305.3 -177.1,-305.3 0,0 11.6,-92.1 176.3,-165.4 -44.9,-164.7 41,-452.3 -38.1,-563.9 -79.2,-111.7 -570.1,-388.4 -594.4,-542.3 -44.6,-282.8 838.7,-795.6 1102.2,-740.9 758,157.5 1273,2188.5 888.2,2405.1"
         style="fill:#f9ddbf;fill-opacity:1;fill-rule:nonzero;stroke:none"
         id="path98" /><path
         d="m 24872,8763.9 c 0,0 90.8,178.7 102.9,325.3 8.6,104.7 -79.8,481.4 -458.1,390.3 0,0 -110.3,-21.5 -208.4,-102 -77.9,-64.1 -186.7,-196.8 -21,-517.1 l 45.5,-109.2 539.1,12.7"
         style="fill:#163560;fill-opacity:1;fill-rule:nonzero;stroke:none"
         id="path100" /><path
         d="m 24353.3,8161.2 c -38.3,-40.3 -23.3,-174.4 155.8,-164.4 117.5,6.6 369.4,151.8 345.8,252.3 -11.2,47.7 -101.5,170.8 -122.7,454 l -21.4,-6 -358.7,-100.8 c 0,0 17.3,-114 26,-222 7.4,-90.7 -9,-196.4 -24.8,-213.1"
         style="fill:#ffb27d;fill-opacity:1;fill-rule:nonzero;stroke:none"
         id="path102" /><path
         d="m 24352.1,8596.3 c 0,0 17.3,-114 26,-222 203.5,21.7 296.7,216.2 332.7,322.8 l -358.7,-100.8"
         style="fill:#f4a269;fill-opacity:1;fill-rule:nonzero;stroke:none"
         id="path104" /><path
         d="m 24344.4,8430.5 c 0,0 469.4,118 391.4,409.3 -78,291.2 -70,502.5 -373,439.5 -303,-63.1 -331.2,-189.7 -328.8,-293.3 2.4,-103.5 186.3,-578.7 310.4,-555.5"
         style="fill:#ffb27d;fill-opacity:1;fill-rule:nonzero;stroke:none"
         id="path106" /><path
         d="m 24148,9229.1 c 0,0 157.6,-300.3 455,-332.7 174,-18.9 221.7,-133.6 221.7,-133.6 0,0 -52.2,327.8 -139.7,528.3 0,0 -484.2,126.6 -537,-62"
         style="fill:#163560;fill-opacity:1;fill-rule:nonzero;stroke:none"
         id="path108" /><path
         d="m 24201.8,9189.4 c 0,0 -102.8,-104.9 -134.5,-178.9 -47,-109.5 44.6,-340.3 82.4,-390 0,0 -218.4,370.6 -145.4,531.1 77.4,170.2 197.5,37.8 197.5,37.8"
         style="fill:#163560;fill-opacity:1;fill-rule:nonzero;stroke:none"
         id="path110" /><path
         d="m 22769.9,6486.2 c 0,0 -93.5,-99 -104.8,-104.4 -61.8,-28.9 -139.9,-12 -177.7,-21.5 -37.7,-9.5 -31.2,14 -3.4,33.1 27.8,19 96.3,11.6 68.3,18.5 -28,7 -179.1,35.1 -236,19.9 -90,-24.1 -161.1,4.2 -166.8,13.4 -5.6,9.3 205.7,112.5 266.1,109 60.4,-3.4 233.9,4.9 233.9,4.9 l 120.4,-72.9"
         style="fill:#ffb27d;fill-opacity:1;fill-rule:nonzero;stroke:none"
         id="path112" /><path
         d="m 25291.4,7998.6 c 0,0 56.1,-1376.9 -105.7,-1569.9 -160.8,-191.7 -1145.9,21.3 -1145.9,21.3 l -68.3,100.6 c 0,0 874.5,128 933.2,144.6 84.5,23.9 25.7,972 25.7,972 l 361,331.4"
         style="fill:#ffb27d;fill-opacity:1;fill-rule:nonzero;stroke:none"
         id="path114" /><path
         d="m 25074.2,8202.8 c 14,-0.3 188.1,-57.5 313,-304.9 122.8,-243.1 167.5,-361.1 167.5,-361.1 0,0 -544.7,-422 -761.3,-266.6 -216.6,155.5 81,937.8 280.8,932.6"
         style="fill:#f9ddbf;fill-opacity:1;fill-rule:nonzero;stroke:none"
         id="path116" /><path
         d="m 24039.8,6450 c 0,0 -78.4,-79.4 -108.2,-119.9 -29.9,-40.6 -238.2,-114.1 -242.9,-92.4 -4.7,21.7 93.2,87.9 102.1,112.5 8.8,24.6 115.6,148.5 180.7,162.6 65.1,14.1 68.3,-62.8 68.3,-62.8"
         style="fill:#ffb27d;fill-opacity:1;fill-rule:nonzero;stroke:none"
         id="path118" /><path
         d="m 23971.5,6550.6 c 0,0 -321.3,-74.3 -375.8,-96.6 -54.5,-22.2 -170.2,-185.9 -124.3,-210.5 29,-15.5 155.8,51.5 220.2,65.4 64.3,14 246.6,-17.7 330.1,147.2 9.4,18.5 -50.2,94.5 -50.2,94.5"
         style="fill:#ffb27d;fill-opacity:1;fill-rule:nonzero;stroke:none"
         id="path120" /><path
         d="m 21371,2810.3 c -124.6,-51.3 -277.4,-210.6 -339.7,-255.8 -62.3,-45.1 -474.8,-29.1 -488,-1.4 -35,73.3 109.2,125.4 200.9,167.6 1.4,0.6 2.7,1.3 4.1,1.9 l 0.3,0.2 12.9,4.2 c 0,0 177.9,-63.5 325.8,0 115.4,49.5 286.4,233.1 399.3,307.7 26,-85.2 -2.6,-177.7 -115.6,-224.4"
         style="fill:#2e3552;fill-opacity:1;fill-rule:nonzero;stroke:none"
         id="path122" /><path
         d="m 22003.1,3511.8 c -62.1,-119.8 -76.1,-340 -94.6,-414.7 -18.4,-74.6 -343.9,-328.6 -371.9,-315.9 -71.2,32.2 -3.2,156.2 40.3,246.9 25.6,1.6 59.6,10.4 99.4,37 81.3,54.2 219.3,258.7 231.6,379.5 10.1,98.4 3.8,239.3 58.4,298.8 61.3,-50.5 87.8,-133.1 36.8,-231.6"
         style="fill:#2e3552;fill-opacity:1;fill-rule:nonzero;stroke:none"
         id="path124" /><path
         d="m 23557.2,6202 h -1399.5 l -420.9,1046.9 h 1397.3 L 23557.2,6202"
         style="fill:#f99746;fill-opacity:1;fill-rule:nonzero;stroke:none"
         id="path126" /><path
         d="m 22141.3,6242.8 h 1848.1 V 6202 h -1831.7 l -16.4,40.8"
         style="fill:#ed7d2b;fill-opacity:1;fill-rule:nonzero;stroke:none"
         id="path128" /><path
         d="m 22511,6725.4 c -10.5,36.9 10.7,66.7 47.6,66.7 36.8,0 75.1,-29.8 85.7,-66.7 10.5,-36.7 -10.7,-66.6 -47.5,-66.6 -36.8,0 -75.2,29.9 -85.8,66.6"
         style="fill:#ffffff;fill-opacity:1;fill-rule:nonzero;stroke:none"
         id="path130" /><path
         d="m 25159.2,6208.4 c 0,0 -183,-171.3 -948.6,-195.6 -765.7,-24.3 -1764.1,-870 -1773.6,-1108.9 -9.4,-238.8 1541.4,-602.4 1565.4,-568.2 24,34.2 983.8,858 983.8,858 l 173,1014.7"
         style="fill:#f99746;fill-opacity:1;fill-rule:nonzero;stroke:none"
         id="path132" /><path
         d="m 26802.3,4000.4 c -412.3,742.2 -1353.6,-281.4 -1587.6,64.9 -234,346.4 330.8,785.9 840.2,1164.7 499,371 496.9,855.9 496.6,875.6 17.2,-144.1 28.9,-300.7 35,-470.6 21.9,-618.5 143.6,-1168.7 215.8,-1634.6"
         style="fill:#ed7d2b;fill-opacity:1;fill-rule:nonzero;stroke:none"
         id="path134" /><path
         d="m 20148.2,14364.5 c 4.9,-808.7 -279.1,-1551 -754.5,-2129.9 -409.4,-498.6 -640.1,-1120 -640.1,-1765.3 v -930 c 0,-263.1 -96,-505 -254.8,-692.1 -182.5,-215.4 -449.7,-361 -747.5,-381.2 -24.1,-1.6 -46.5,0.1 -71,0.1 h -1717.5 c -23.1,0 -48.1,-1.5 -70.9,-0.1 -558.5,35.8 -1002.3,506.1 -1002.3,1073.3 v 928.4 c 0,644 -227.3,1265.7 -636.9,1762.8 -473.3,574.7 -757.7,1311.2 -757.7,2113.9 0,1845.4 1498.1,3326.7 3326.7,3326.7 1834.7,0 3315.8,-1471.8 3326.5,-3306.6"
         style="fill:#ffb93e;fill-opacity:1;fill-rule:nonzero;stroke:none"
         id="path136" /><path
         d="m 17751.3,8466 c -8.6,-66.5 -153.4,-1178.4 -154.8,-1189 -23.9,-183.5 -233.7,-323.7 -484.5,-323.7 h -565.2 c -248.5,0 -457.9,138 -484.2,320.3 -27.4,191.8 -132.7,926.9 -170.7,1192.4 h 1859.4"
         style="fill:#ed7d2b;fill-opacity:1;fill-rule:nonzero;stroke:none"
         id="path138" /><path
         d="m 17526.9,8466 h -319.5 C 16692,8317 16180.7,8169.7 15943.8,8102.9 l 12.4,-86.9 0.3,-2 12.6,-88 c 191.9,53.2 652.4,185.1 1778.4,511.5 l 3.7,28.5 h -224.3"
         style="fill:#f99746;fill-opacity:1;fill-rule:nonzero;stroke:none"
         id="path140" /><path
         d="m 16029.5,7504.4 v -0.2 l 0.2,-1.9 v -0.2 l 12.7,-88.3 c 221.9,62.3 679.6,193.6 1632.9,469.9 l 12.6,95.9 v 0.8 l 12.4,95.3 c -602.4,-174.4 -1331.5,-385 -1683.2,-484.9 l 12.4,-86.4"
         style="fill:#f99746;fill-opacity:1;fill-rule:nonzero;stroke:none"
         id="path142" /><path
         d="m 16241.7,7032.3 3.1,-1.8 c 39.5,-23 83.8,-41.6 131.6,-54.7 h 0.2 c 261.4,74.9 649.5,187 1226.7,354.2 l 12.4,96 0.1,0.8 12.5,95.3 c -515.5,-149.2 -1106.9,-320 -1472.2,-424.5 24.7,-24.4 53.5,-46.4 85.6,-65.3"
         style="fill:#f99746;fill-opacity:1;fill-rule:nonzero;stroke:none"
         id="path144" /><path
         d="m 16148.9,8466 -718.9,4243.5 148.4,25.1 723,-4268.6 h -152.5"
         style="fill:#ffeac5;fill-opacity:1;fill-rule:nonzero;stroke:none"
         id="path146" /><path
         d="m 17427.7,8466 h -153.6 l 769.8,4202.5 148,-27.1 -764.2,-4175.4"
         style="fill:#ffeac5;fill-opacity:1;fill-rule:nonzero;stroke:none"
         id="path148" /><path
         d="m 17716.4,12525.2 c -79.1,-76 -132.8,-173.4 -128.7,-248.4 3.1,-54.5 35.6,-93.4 96.8,-115.8 33.6,-12.4 56.6,-3.4 72.5,28.2 35.2,69.9 20.2,219.6 -40.6,336 z m -1680.4,29.1 c -79.5,-70.9 -124.2,-171 -134.2,-262.5 -8.4,-77.7 10.7,-140.8 46.4,-153.5 57.9,-20.6 100.4,-7.5 125.8,39 46.3,84.6 29.5,247.1 -38,377 z m 569.3,-144.3 c -41.7,-52 -74.4,-106.7 -91.9,-158.2 -34.6,-101.8 -6.2,-170.7 84.1,-204.8 36.4,-13.7 84.7,-24.5 107.8,1.7 35.8,40.6 14.8,155.8 -51,280 -14.6,27.5 -31,54.9 -49,81.3 z m 658.5,-3.3 c -90.2,-131.5 -153.6,-280.1 -139.1,-359.9 4.6,-25.3 17.1,-39.4 39,-44.4 89.2,-20.2 144.1,5.8 163,77.4 21.9,82.8 -6.8,212 -62.9,326.9 z m -45.2,-456.6 c -19.2,0 -40.8,2.4 -64.9,7.9 -40.3,9.2 -65.8,37 -73.8,80.7 -17.1,94 56.7,266.5 160.2,412.6 -54.1,94.5 -126.2,172.5 -201.8,195.4 -111.7,33.9 -283.1,-69.3 -402.5,-201 21.8,-31 41.5,-63.2 58.7,-95.7 61.2,-115.4 105.1,-263.1 45,-331.4 -22.3,-25.3 -67.8,-48.2 -158.1,-14.2 -112.7,42.5 -153.2,138 -111.1,262 20.6,60.8 58.6,124 106.8,182.6 -92.4,120.6 -216,212.2 -337.7,196.9 -65,-8.2 -120.8,-31 -167.2,-63.1 77.9,-144.9 95.8,-328.7 41.8,-427.4 -36.8,-67.2 -101.1,-88.4 -181.1,-60 -57.4,20.4 -87.4,99.4 -76.3,201.3 11.3,104.3 63.3,218.5 156.1,297.8 -24.2,37.7 -53.2,71.1 -86.5,97 -209.7,162.8 -383.2,-11.9 -390.5,-19.4 l -32.7,31.7 c 2.1,2.1 209.6,211.2 451.1,23.7 36.6,-28.4 68.4,-64.6 94.8,-105.3 51.5,35 113.1,59.8 184.8,68.9 136.5,17.1 272.7,-79.2 373.8,-207.3 129.9,141.1 314.8,245.4 443.9,206.5 81.6,-24.7 158.5,-103.4 217.3,-200.3 54.8,71 115.8,132.9 175.1,172.1 95,63 157,48.5 192.1,25.4 36.1,-23.7 66.8,-55.7 92.3,-92.3 28.6,22.7 58.6,42.1 88.3,56.9 110.1,54.9 211.2,50.8 284.7,-11.3 l -29.4,-34.8 c -79.3,67.1 -181.3,32.1 -235,5.4 -29.5,-14.8 -58.1,-33.5 -84.7,-54.8 73.3,-132.2 87.6,-304.5 45.6,-387.9 -26.5,-52.4 -73.7,-70.7 -128.9,-50.5 -99.4,36.4 -123.7,105 -126.6,156 -5.4,97.7 62.3,208.9 150.8,290.8 -22.9,34.1 -50.3,63.5 -82.1,84.4 -43,28.3 -101,1.9 -142,-25.2 -59.2,-39.2 -121.2,-103.7 -176,-176.9 68.3,-130 103.7,-281.4 77.8,-379.1 -12.6,-47.4 -48.6,-118.1 -152.1,-118.1"
         style="fill:#ffeac5;fill-opacity:1;fill-rule:nonzero;stroke:none"
         id="path150" /><path
         d="m 18538.8,16391.9 c 273.5,-257.7 239.2,-731.8 -112.6,-837.2 -265.2,-79.6 -660.7,26.6 -856.1,365.1 -195.5,338.5 -105.3,616.8 134.4,755.2 239.8,138.4 549.8,-15.1 834.3,-283.1"
         style="fill:#ffeac5;fill-opacity:1;fill-rule:nonzero;stroke:none"
         id="path152" /><path
         d="m 8278.05,9335.4 c -31.96,61.6 697.19,283.6 708.75,-324.7 0,0 1365.9,33.6 713.72,794.9 -225.78,263.6 -202.56,481.5 -195.79,684.3 6.86,202.9 -140.63,792.5 -646.21,733.2 0,0 -132.41,53.8 -297.64,-31.9 -375.77,-194.9 -1217.55,-2080.1 -282.83,-1855.8"
         style="fill:#163560;fill-opacity:1;fill-rule:nonzero;stroke:none"
         id="path154" /><path
         d="m 10511.1,8655.4 c 0,0 89,135.3 160.6,138 71.7,2.6 204.4,39.8 193.7,13.2 -10.6,-26.5 -92.8,-29.2 -100.8,-45.1 -8,-15.9 122.1,-39.8 159.2,-42.4 37.2,-2.7 124.8,0 122.1,-18.6 -2.6,-18.6 -157.8,-95.6 -267.3,-84.9 -109.5,10.6 -244.9,-31.9 -244.9,-31.9 l -22.6,71.7"
         style="fill:#ffb27d;fill-opacity:1;fill-rule:nonzero;stroke:none"
         id="path156" /><path
         d="m 9225.3,8611.6 c 0,0 48.32,-95.7 135.99,-205.7 105.65,-132.3 268.55,-285.2 473.09,-315.4 97.7,-14.4 193.22,6.7 281.02,45.7 0.3,0 0.4,0 0.4,0 248.4,110.3 435.2,363.9 435.2,363.9 43.7,119.4 -27.9,200.4 -27.9,200.4 0,0 -501.6,-112.8 -549.38,-88.9 -47.77,23.9 -326.44,826.7 -392.76,927.5 -66.4,100.9 -292.53,153.3 -292.53,153.3 L 9225.3,8611.6"
         style="fill:#f9ddbf;fill-opacity:1;fill-rule:nonzero;stroke:none"
         id="path158" /><path
         d="m 9361.29,8405.9 c 105.65,-132.3 268.55,-285.2 473.09,-315.4 97.7,-14.4 193.22,6.7 281.02,45.7 -9.7,-1.3 -257.77,-32 -356.65,145 -100.88,180.5 -209.96,467.1 -359.8,371.5 -64.65,-41.2 -61.79,-143.7 -37.66,-246.8"
         style="fill:#f2ccaa;fill-opacity:1;fill-rule:nonzero;stroke:none"
         id="path160" /><path
         d="m 7353.91,3197.1 c 0,0 -153.06,-139.7 -123.19,-239 29.87,-99.2 167.99,-165.4 186.66,-286.7 18.66,-121.3 93.32,-187.5 160.52,-187.5 67.2,0 320.36,0 320.36,0 0,0 49.46,85.4 -70,111.1 -119.46,25.8 -164.5,168.3 -157.03,300.6 7.46,132.4 -11.2,308.8 -11.2,308.8 l -253.85,58.8 -52.27,-66.1"
         style="fill:#233862;fill-opacity:1;fill-rule:nonzero;stroke:none"
         id="path162" /><path
         d="m 8649.38,3137.8 c 0,0 -55.06,-591.8 12.14,-624.9 l 859.95,1.8 c 0,0 0,99.3 -138.12,121.3 -138.13,22.1 -380.78,102.9 -421.84,283 -41.07,180.2 -312.13,218.8 -312.13,218.8"
         style="fill:#233862;fill-opacity:1;fill-rule:nonzero;stroke:none"
         id="path164" /><path
         d="m 8036.57,7383 c 176.96,396.9 285.25,510.8 264.57,633.9 -15.38,91.7 46.85,1709.4 46.85,1709.4 21,6.5 63.08,12.3 86.1,17.4 72.59,16.1 132.67,67.1 157.67,137.1 30.12,84.4 54.07,209 53.51,365 l 22.67,-4.4 381.15,-75.5 c 0,0 -8.67,-120 -8.92,-233 -0.01,-0.9 -0.01,-1.8 -0.01,-2.8 -0.47,-98.1 63.91,-184.7 158.2,-211.9 48.15,-13.9 90.04,-25.8 90.04,-25.8 0,0 139.96,-399.6 166.69,-810.1 26.73,-410.5 -254.5,-588.8 2.12,-1409.1 262,-837.8 -1518.4,-309.5 -1420.64,-90.2"
         style="fill:#ffb27d;fill-opacity:1;fill-rule:nonzero;stroke:none"
         id="path166" /><path
         d="m 9049.09,10165.9 c 0,0 -8.67,-120 -8.92,-233 -213.29,6.1 -326.03,200.6 -372.23,308.5 l 381.15,-75.5"
         style="fill:#e8945b;fill-opacity:1;fill-rule:nonzero;stroke:none"
         id="path168" /><path
         d="m 9120.32,10058.9 c 0,0 -504.64,-8.3 -504.98,306 -0.35,314.4 -65.72,525 256.47,543.6 322.18,18.6 384.91,-101.3 410.55,-206.2 25.64,-104.9 -30.78,-633.1 -162.04,-643.4"
         style="fill:#ffb27d;fill-opacity:1;fill-rule:nonzero;stroke:none"
         id="path170" /><path
         d="m 9101.65,10916.2 c 0,0 -138.17,-368.8 -350.22,-423.3 -212.04,-54.5 -304.02,2.3 -304.02,2.3 0,0 162.65,129.2 196.4,354.7 0,0 353.61,241.8 457.84,66.3"
         style="fill:#163560;fill-opacity:1;fill-rule:nonzero;stroke:none"
         id="path172" /><path
         d="m 9067.4,10886.3 c 0,0 102.46,-38.4 144.63,-113.1 41.24,-73 76.37,-169.8 68.21,-288.5 0,0 104.1,250.6 -12.89,392.4 -124.04,150.4 -199.95,9.2 -199.95,9.2"
         style="fill:#163560;fill-opacity:1;fill-rule:nonzero;stroke:none"
         id="path174" /><path
         d="m 9010.52,10253.9 c 0,0 34.82,-45.8 104.49,-42.5 56.12,2.7 77.76,51.3 77.76,51.3 0,0 -103.08,24.8 -182.25,-8.8"
         style="fill:#ebf3fa;fill-opacity:1;fill-rule:nonzero;stroke:none"
         id="path176" /><path
         d="m 7987.87,9010.7 c 0,0 -12.82,-180.7 0,-397.5 8.52,-143.7 153.89,-336.2 174.51,-383.8 51.76,-119.4 110.12,-138.9 110.12,-138.9 l 451.51,-110.6 158.76,-38.9 500.65,149.5 c 0,0 228.03,636.5 136.47,994.8 -91.56,358.3 -231.46,607.1 -231.46,607.1 0,0 -408.52,-400 -940.46,33.9 l -360.1,-715.6"
         style="fill:#f9ddbf;fill-opacity:1;fill-rule:nonzero;stroke:none"
         id="path178" /><path
         d="m 8120.02,8554.6 c 8.52,-143.7 21.74,-277.6 42.36,-325.2 51.76,-119.4 110.12,-138.9 110.12,-138.9 l 451.51,-110.6 196.11,57.6 c 0,0 -654.63,99.2 -582.1,662.5 l -218,-145.4"
         style="fill:#f2ccaa;fill-opacity:1;fill-rule:nonzero;stroke:none"
         id="path180" /><path
         d="m 9351.58,7993.9 c 0,0 247.93,-771.7 263.85,-1034.4 C 9631.36,6696.7 9141.5,3227 9121.79,3105.9 9103.21,2991.8 8961.51,2919 8961.51,2919 c 0,0 -65.18,-38.4 -158.19,-12.1 -129.06,36.4 -169.86,80 -169.86,80 0,0 -192.97,2474.6 -73.55,3358.6 119.42,884 120.83,1648.4 120.83,1648.4 h 670.84"
         style="fill:#ed7d2b;fill-opacity:1;fill-rule:nonzero;stroke:none"
         id="path182" /><path
         d="m 8301.14,8016.9 c 0,0 -378.19,-507.4 -413.44,-850.4 -35.26,-343 -55.32,-1547.9 -130.43,-1882.3 -75.11,-334.4 -351.09,-978 -351.09,-2021 0,0 28.68,-59.8 117.26,-91.6 28.32,-10.2 66.27,-20.1 103.12,-28.5 73.04,-16.8 147.99,18.9 181.33,86.1 186.58,375.6 780.91,1587.2 811.38,1838.7 21.57,178 209.23,1356 618.57,2047.2 98.27,166 -60.32,825.9 -60.32,825.9 l -876.38,75.9"
         style="fill:#f99746;fill-opacity:1;fill-rule:nonzero;stroke:none"
         id="path184" /><path
         d="m 9021.74,10245.5 c 0,0 8.72,-37 100.88,-31.3 0,0 77.37,4.7 75,45.5 0,0 -75.02,28.9 -175.88,-14.2"
         style="fill:#ffffff;fill-opacity:1;fill-rule:nonzero;stroke:none"
         id="path186" /><path
         d="m 9391.18,8113.1 c 0,0 -99.53,-78.8 -297.25,-82.7 -236.18,-4.8 -821.41,60.2 -821.41,60.2 0,0 -26,-72.7 -24.94,-149.4 0,0 714.75,-180.3 1128.88,-26.3 0,0 53.42,100.5 14.72,198.2"
         style="fill:#233862;fill-opacity:1;fill-rule:nonzero;stroke:none"
         id="path188" /><path
         d="m 9078.54,7948.8 c 0,-47.6 32.32,-86.3 72.05,-86.3 39.73,0 72.05,38.7 72.05,86.3 0,47.6 -32.32,86.3 -72.05,86.3 -39.73,0 -72.05,-38.7 -72.05,-86.3 z m -35.72,0 c 0,67.3 48.34,122 107.77,122 59.42,0 107.77,-54.7 107.77,-122 0,-67.3 -48.35,-122 -107.77,-122 -59.43,0 -107.77,54.7 -107.77,122"
         style="fill:#ffffff;fill-opacity:1;fill-rule:nonzero;stroke:none"
         id="path190" /><path
         d="m 7503.07,7973.5 732.29,-637.7 872.83,1002.4 -732.29,637.6 -872.83,-1002.3"
         style="fill:#b5453c;fill-opacity:1;fill-rule:nonzero;stroke:none"
         id="path192" /><path
         d="m 8437.69,7971.1 c 0,0 268.31,-31.3 267.47,-95 -0.84,-63.7 -66.86,-194.6 -100,-200.4 -33.14,-5.8 -218.36,177 -218.36,177 l 50.89,118.4"
         style="fill:#ffb27d;fill-opacity:1;fill-rule:nonzero;stroke:none"
         id="path194" /><path
         d="m 8347.97,9726.3 c 0,0 -358.21,-25.1 -495.53,-358.9 -137.31,-333.8 -397.85,-894.3 -397.85,-988.5 0,-94.3 145.54,-385 927.12,-552.1 0,0 80.84,85.1 75.95,152.3 0,0 -487.9,419.1 -486.59,468.1 2.48,92.6 79.99,214.9 508.34,643.4 116.46,116.5 -131.44,635.7 -131.44,635.7"
         style="fill:#f9ddbf;fill-opacity:1;fill-rule:nonzero;stroke:none"
         id="path196" /><path
         d="m 11445.2,2502.2 h -3.4 c -20,0 -36.1,16.5 -35.6,36.5 l 54,2343.1 159.3,18.6 -135.8,-2361.9 c -1.2,-20.4 -18.1,-36.3 -38.5,-36.3"
         style="fill:#95c0f4;fill-opacity:1;fill-rule:nonzero;stroke:none"
         id="path198" /><path
         d="m 14005.9,2502.2 h 3.4 c 20,0 36.1,16.5 35.7,36.5 l -54.1,2343.1 -159.2,18.6 135.8,-2361.9 c 1.1,-20.4 18,-36.3 38.4,-36.3"
         style="fill:#b0d4ff;fill-opacity:1;fill-rule:nonzero;stroke:none"
         id="path200" /><path
         d="m 11339.7,5027.1 v 1605.7 c 0,282.5 229,511.5 511.6,511.5 h 1156.8 c 282.5,0 511.5,-229 511.5,-511.5 v -1667 l -2179.9,61.3"
         style="fill:#b0d4ff;fill-opacity:1;fill-rule:nonzero;stroke:none"
         id="path202" /><path
         d="m 13726.9,4773.6 h -2233.6 c -84.8,0 -153.6,68.8 -153.6,153.6 v 99.9 h 2387.2 v -253.5"
         style="fill:#95c0f4;fill-opacity:1;fill-rule:nonzero;stroke:none"
         id="path204" /><path
         d="m 13994.5,4773.6 h -1689.8 c -62.7,0 -113.5,50.9 -113.5,113.6 v 26.4 c 0,62.7 50.8,113.5 113.5,113.5 h 1689.8 c 62.8,0 113.6,-50.8 113.6,-113.5 v -26.4 c 0,-62.7 -50.8,-113.6 -113.6,-113.6"
         style="fill:#b0d4ff;fill-opacity:1;fill-rule:nonzero;stroke:none"
         id="path206" /><path
         d="m 13928.9,5427.2 c -165.7,-288.4 -374.1,-399.8 -374.1,-399.8 h -867.2 c 0,0 1367.8,619.8 1241.3,399.8"
         style="fill:#233862;fill-opacity:1;fill-rule:nonzero;stroke:none"
         id="path208" /><path
         d="m 13262.9,3195.5 c -22.6,-25.9 -25.4,-54.8 -14.3,-85.7 0,-0.1 0.1,-0.3 0.3,-0.4 20.6,-57.2 89,-121 168.3,-184.7 10.2,-8.2 19.2,-15.7 27.1,-22.6 2,-1.8 4.1,-3.6 6,-5.4 1.6,-1.4 3.2,-2.9 4.7,-4.2 74,-68.2 46.2,-83.9 179.1,-222.3 151.6,-157.8 256,-160.6 285.7,-146.2 25.2,12.2 -25.9,95.9 -82.4,189.9 -2.8,4.5 -5.5,9.1 -8.3,13.7 -7.5,12.5 -15,25.2 -22.5,37.8 -66.3,113.2 -49.2,166.3 -33.5,334.7 12.7,136.9 212.9,764.7 212.9,764.7 l -290.6,50 c 0,0 -87.5,-499.9 -183.9,-576.9 -51.5,-41 -109.2,-41.5 -158.8,-71.9 -3.5,-2.2 -6.9,-4.3 -10.3,-6.6 -28.1,-18.6 -56.8,-37.9 -79.5,-63.9"
         style="fill:#ffb27d;fill-opacity:1;fill-rule:nonzero;stroke:none"
         id="path210" /><path
         d="m 13262.9,3195.5 c -22.6,-25.9 -25.4,-54.8 -14.3,-85.7 0,-0.1 0.1,-0.3 0.3,-0.4 25.3,-57.1 91.9,-120.6 168.6,-184.1 10,-8.4 18.9,-16 26.8,-23.2 2,-1.8 4.1,-3.6 6,-5.4 1.6,-1.4 3.2,-2.9 4.7,-4.2 74,-68.2 46.2,-83.9 179.1,-222.3 151.6,-157.8 256,-160.6 285.7,-146.2 25.2,12.2 -25.9,95.9 -82.4,189.9 -29.6,10.8 -166.7,66.5 -270.3,199.2 -91.3,116.5 -152.2,266.1 -214.4,352.9 -3.5,-2.2 -6.9,-4.3 -10.3,-6.6 -28.1,-18.6 -56.8,-37.9 -79.5,-63.9"
         style="fill:#233862;fill-opacity:1;fill-rule:nonzero;stroke:none"
         id="path212" /><path
         d="m 15605.8,3377 c 17.9,-89.7 145.8,-74.7 288.6,-39.8 142.8,34.9 108.9,-6.6 312.2,15.9 203.2,22.5 264.8,98.3 271,128.5 5.6,26.9 -94.9,36.3 -202.6,48.7 -13.6,1.5 -27.2,3.2 -40.8,4.9 -121.6,15.3 -210.7,93.7 -321.2,158.2 -104.6,61.1 -260.8,309.8 -260.8,309.8 l -278.8,-22 c 0,0 146.3,-222.2 202.9,-318.8 33.3,-56.9 31.5,-132 27.3,-190 -2.1,-31.6 -4.2,-63.8 2.2,-95.4"
         style="fill:#ffb27d;fill-opacity:1;fill-rule:nonzero;stroke:none"
         id="path214" /><path
         d="m 15894.4,3337.2 c 142.8,34.9 108.9,-6.6 312.2,15.9 203.2,22.5 264.8,98.3 271,128.5 5.6,26.9 -94.9,36.3 -202.6,48.7 l -1,-2 c 0,0 -121.9,-86.5 -291.1,-90.5 -137.9,-3.4 -284,36.1 -379.3,34.6 -2.1,-31.6 -4.2,-63.8 2.2,-95.4 17.9,-89.7 145.8,-74.7 288.6,-39.8"
         style="fill:#233862;fill-opacity:1;fill-rule:nonzero;stroke:none"
         id="path216" /><path
         d="m 14537.4,5159.6 -260.6,-701.3 -340.2,-915.6 c 0,0 -92.3,-8.9 -180.8,16.5 -81.4,23.5 -174.8,85.1 -174.8,85.1 0,0 94.5,983.1 270.8,1547.5 45.1,144.9 95.7,262 151.6,328 273.2,322.9 534,-360.2 534,-360.2"
         style="fill:#233862;fill-opacity:1;fill-rule:nonzero;stroke:none"
         id="path218" /><path
         d="m 14272.5,6273.3 c -170.8,55 -657.7,-15.7 -1146.9,-111.4 l -102.4,168.9 -1056.6,82.5 c 0,0 -348.6,-773.1 -157.7,-1265.8 28,-72.4 83.8,-118.8 178.8,-120.4 0,0 15.4,0.1 15.4,0 0,0 628.9,0.4 833.1,0.4 525.4,0 1112,361.2 1187.9,376.4 124.2,24.8 173.9,-223.6 298.1,-484.4 124.2,-260.8 1167.5,-1155.1 1167.5,-1155.1 0,0 160.3,-1.6 226.5,23.2 71.3,26.8 97.3,61.5 97.3,61.5 0,0 -1156,2300 -1541,2424.2"
         style="fill:#2b478b;fill-opacity:1;fill-rule:nonzero;stroke:none"
         id="path220" /><path
         d="m 12981.6,9407.4 c -135.3,71 -341.2,80.6 -374.7,85.1 -400.4,53.8 -641.3,-527.9 -655.5,-704.2 -26.1,-324.9 -198,-374.5 -440,-578 -485.1,-408 -342.8,-882.1 -77.6,-1058.3 159.2,-105.7 439.7,0 439.7,0 4,-2.8 767.3,426.7 1143.5,633.9 564,80.1 309.6,1440.3 -35.4,1621.5"
         style="fill:#b5453c;fill-opacity:1;fill-rule:nonzero;stroke:none"
         id="path222" /><path
         d="m 12701.7,7962.2 c 1.6,-1.1 -185.2,-64.8 -310,-9.5 -117.5,51.9 -206.5,245.2 -204.8,245.3 53.4,2.5 112.1,49.2 157.3,355.8 l 22.8,-8.2 382.6,-137.7 c 0,0 -27.7,-122.7 -45.6,-239.6 -15.1,-98.2 -23.2,-192.2 -2.3,-206.1"
         style="fill:#ffb27d;fill-opacity:1;fill-rule:nonzero;stroke:none"
         id="path224" /><path
         d="m 12749.6,8407.9 c 0,0 -27.7,-122.7 -45.6,-239.6 -219.8,39.5 -306.1,258.5 -337,377.3 l 382.6,-137.7"
         style="fill:#ed975d;fill-opacity:1;fill-rule:nonzero;stroke:none"
         id="path226" /><path
         d="m 12806.6,8286.1 c 0,0 -523.5,70.2 -474.8,395.6 48.8,325.4 14.1,553.6 350.4,522.5 336.4,-31.2 382.5,-165 392.7,-277.6 10.1,-112.5 -130.8,-650.4 -268.3,-640.5"
         style="fill:#ffb27d;fill-opacity:1;fill-rule:nonzero;stroke:none"
         id="path228" /><path
         d="m 13055.8,9105 c 0,0 -335.1,-288.9 -563.1,-312.1 -228,-23.3 -314.3,49.8 -314.3,49.8 0,0 134.4,111.6 215.3,291.7 23.8,53 74.1,89.4 132.1,94.4 162.8,14.1 471.4,20.5 530,-123.8"
         style="fill:#b5453c;fill-opacity:1;fill-rule:nonzero;stroke:none"
         id="path230" /><path
         d="m 12846.3,9130.8 c 0,0 112.1,-108.4 147.4,-188.8 34.1,-77.6 44.3,-263.2 17.2,-336.9 0,0 174.7,339.7 75.8,504.7 -104.9,175 -240.4,21 -240.4,21"
         style="fill:#b5453c;fill-opacity:1;fill-rule:nonzero;stroke:none"
         id="path232" /><path
         d="m 13142.5,7191 c -15.8,-1059.8 -4.3,-838.4 -120.3,-938.9 -27.9,-24.2 -106.4,-38.7 -209.8,-45.5 -324.9,-21.6 -896.2,32 -917.9,92 -75,207.8 -22.1,272.4 -84.6,590.5 -6.5,33.9 -14.6,70.5 -24.1,110.4 -52.1,218.5 -102.8,292.8 82.1,643.8 167.8,318 342.1,576.1 357.8,566.8 442.5,-262.7 478.2,-41.9 478.2,-41.9 0,0 446.4,-460.3 438.6,-977.2"
         style="fill:#f9ddbf;fill-opacity:1;fill-rule:nonzero;stroke:none"
         id="path234" /><path
         d="m 14276.8,4458.3 -340.2,-915.6 c 0,0 -92.3,-8.9 -180.8,16.5 -81.4,23.5 -174.8,85.1 -174.8,85.1 0,0 94.5,983.1 270.8,1547.5 l 425,-733.5"
         style="fill:#2b478b;fill-opacity:1;fill-rule:nonzero;stroke:none"
         id="path236" /><path
         d="m 12704,8168.3 c 0,0 455.4,-77.3 508.9,-273.3 53.4,-196.1 368.1,-1348.8 368.1,-1348.8 0,0 -231.5,-41.6 -338.4,65.3 -107,107 -372.2,992.3 -372.2,992.3 l -166.4,564.5"
         style="fill:#f9ddbf;fill-opacity:1;fill-rule:nonzero;stroke:none"
         id="path238" /><path
         d="m 12812.4,6206.6 c -324.9,-21.6 -896.2,32 -917.9,92 -75,207.8 -22.1,272.4 -84.6,590.5 l 156.7,441.4 c 0,0 -25.9,-491.5 119.1,-620.8 144.8,-129.2 593.4,-249.5 663.9,-357.5 34,-51.9 56.3,-103.8 62.8,-145.6"
         style="fill:#f2ccaa;fill-opacity:1;fill-rule:nonzero;stroke:none"
         id="path240" /><path
         d="m 12440.1,6413.3 c 0,0 320.6,71.4 372.3,43 51.8,-28.5 178.2,-132.1 194,-168.2 15.8,-36 -115.2,27.4 -157.8,38.8 -27.6,7.4 -100.2,-17.8 -136.2,-29.8 -151.3,-50.4 -244,-24.5 -244,-24.5 l -28.3,140.7"
         style="fill:#ffb27d;fill-opacity:1;fill-rule:nonzero;stroke:none"
         id="path242" /><path
         d="m 12225.4,8210.3 c 0,0 -430.5,-26.5 -579.5,-234.3 -209.8,-292.6 -625.9,-1539.5 -387.4,-1705.8 268.6,-187.3 1222.3,-49 1222.3,-49 0,0 31.8,148.3 -12.4,220.1 -44.1,71.8 -761.8,187.7 -794.9,220.8 -33.1,33.1 414,645.9 414,745.3 0,99.3 137.9,802.9 137.9,802.9"
         style="fill:#f9ddbf;fill-opacity:1;fill-rule:nonzero;stroke:none"
         id="path244" /><path
         d="m 12827.9,6367 c 0,0 67.2,-86.6 89.2,-97 22.1,-10.3 36.3,-7.7 36.3,-7.7 l -45.3,81.4 -80.2,23.3"
         style="fill:#ffb27d;fill-opacity:1;fill-rule:nonzero;stroke:none"
         id="path246" /><path
         d="m 12812.4,6456.3 195.3,-94.9 c 0,0 -8.3,-13.6 -32.3,-12.5 -24.1,1.1 -84.7,23.3 -84.7,23.3 l -78.3,84.1"
         style="fill:#ffb27d;fill-opacity:1;fill-rule:nonzero;stroke:none"
         id="path248" /><path
         d="M 12917.1,6137.3 H 14462 l 464.8,1155.7 h -1542.5 l -467.2,-1155.7"
         style="fill:#f99746;fill-opacity:1;fill-rule:nonzero;stroke:none"
         id="path250" /><path
         d="m 14480.2,6182.3 h -2040.1 v -45 H 14462 l 18.2,45"
         style="fill:#ed7d2b;fill-opacity:1;fill-rule:nonzero;stroke:none"
         id="path252" /><path
         d="m 14072.1,6715.1 c 11.6,40.7 -11.9,73.6 -52.5,73.6 -40.6,0 -83,-32.9 -94.7,-73.6 -11.6,-40.6 11.9,-73.5 52.5,-73.5 40.6,0 83,32.9 94.7,73.5"
         style="fill:#ffffff;fill-opacity:1;fill-rule:nonzero;stroke:none"
         id="path254" /><path
         d="m 17812.3,2470 h 4.5 c 26.5,0 47.8,24 47.2,53.2 l -71.5,3418.8 -210.6,27.1 179.6,-3446.1 c 1.5,-29.8 23.8,-53 50.8,-53"
         style="fill:#233862;fill-opacity:1;fill-rule:nonzero;stroke:none"
         id="path256" /><path
         d="m 12491.3,2470 h -4.5 c -26.5,0 -47.8,24 -47.1,53.2 l 71.4,3418.8 210.6,27.1 -179.5,-3446.1 c -1.6,-29.8 -23.9,-53 -50.9,-53"
         style="fill:#233862;fill-opacity:1;fill-rule:nonzero;stroke:none"
         id="path258" /><path
         d="m 18158.1,5892.7 h -5933.5 c -47.1,0 -85.2,38.1 -85.2,85.2 v 74.2 c 0,47 38.1,85.2 85.2,85.2 h 5933.5 c 47.1,0 85.2,-38.2 85.2,-85.2 v -74.2 c 0,-47.1 -38.1,-85.2 -85.2,-85.2"
         style="fill:#233862;fill-opacity:1;fill-rule:nonzero;stroke:none"
         id="path260" /><path
         d="M 30022.1,2431.6 H 1977.93 c -20.75,0 -37.72,16.9 -37.72,37.7 v 29.1 c 0,20.8 16.97,37.7 37.72,37.7 H 30022.1 c 20.7,0 37.7,-16.9 37.7,-37.7 v -29.1 c 0,-20.8 -17,-37.7 -37.7,-37.7"
         style="fill:#2e3552;fill-opacity:1;fill-rule:nonzero;stroke:none"
         id="path262" /><path
         d="m 22440.9,15543.2 1158.3,-183.4 -762.3,536.9 -41.7,-167.7 -283.1,-46.9 -71.2,-138.9"
         style="fill:#9ec3f6;fill-opacity:1;fill-rule:nonzero;stroke:none"
         id="path264" /><path
         d="m 23599.2,15359.8 -958.4,512.9 -946.1,62 z"
         style="fill:#ffffff;fill-opacity:1;fill-rule:nonzero;stroke:none"
         id="path266" /><path
         d="m 22836.9,15896.7 762.3,-536.9 -583.8,829.8 z"
         style="fill:#ffffff;fill-opacity:1;fill-rule:nonzero;stroke:none"
         id="path268" /><path
         d="m 11332,14404.9 -1508.11,-433.5 924.21,838 83,-215.9 383.6,-15.7 117.3,-172.9"
         style="fill:#9ec3f6;fill-opacity:1;fill-rule:nonzero;stroke:none"
         id="path270" /><path
         d="m 9823.89,13971.4 1188.61,838.3 1246.1,237.6 z"
         style="fill:#ebf3fa;fill-opacity:1;fill-rule:nonzero;stroke:none"
         id="path272" /><path
         d="m 10748.1,14809.4 -924.21,-838 639.21,1197.7 z"
         style="fill:#ebf3fa;fill-opacity:1;fill-rule:nonzero;stroke:none"
         id="path274" /></g></g></svg>
