<?xml version="1.0" encoding="UTF-8" standalone="no"?>
<!-- Created with Inkscape (http://www.inkscape.org/) -->

<svg
   version="1.1"
   id="svg2"
   xml:space="preserve"
   width="731.32129"
   height="728.08667"
   viewBox="0 0 731.32129 728.08667"
   xmlns="http://www.w3.org/2000/svg"
   xmlns:svg="http://www.w3.org/2000/svg"><defs
     id="defs6"><clipPath
       clipPathUnits="userSpaceOnUse"
       id="clipPath16"><path
         d="M 0,1080 H 1080 V 0 H 0 Z"
         id="path14" /></clipPath></defs><g
     id="g8"
     transform="matrix(1.3333333,0,0,-1.3333333,-340.06519,1301.4737)"><g
       id="g10"><g
         id="g12"
         clip-path="url(#clipPath16)"><g
           id="g18"
           transform="translate(327.251,369.5956)" /><g
           id="g22"
           transform="translate(434.8364,200.8915)" /><g
           id="g26"
           transform="translate(575.0854,312.7128)" /><g
           id="g30"
           transform="translate(819.1699,378.7694)" /><g
           id="g34"
           transform="translate(337.3809,869.3993)"><path
             d="m 0,0 69.793,-4.894 15.532,68.217 61.769,-32.856 41.935,56 43.063,-55.139 61.089,34.103 16.914,-67.888 69.678,6.307 -12.163,-68.898 66.22,-22.578 -39.133,-57.995 51.311,-47.561 -59.339,-37.063 27.531,-64.32 -69.285,-9.724 -1.01,-69.955 -67.25,19.297 -29.375,-63.497 -53.586,44.982 -52.664,-46.059 -30.659,62.888 -66.844,-20.656 -2.428,69.92 -69.468,8.318 26.221,64.864 -60.078,35.852 50.336,48.591 -40.301,57.19 65.748,23.917 z m -28.008,-148.214 -54.324,-52.44 64.837,-38.693 -28.297,-70.002 74.968,-8.976 2.621,-75.458 72.139,22.293 33.086,-67.869 56.835,49.706 57.831,-48.544 31.704,68.525 72.574,-20.825 1.092,75.497 74.771,10.495 -29.71,69.412 64.04,40 -55.377,51.327 42.235,62.589 -71.465,24.366 13.124,74.355 L 319.479,10.738 301.226,84.002 235.298,47.198 188.825,106.706 143.566,46.269 76.907,81.728 60.143,8.108 -15.176,13.389 -0.547,-60.684 -71.502,-86.496 Z"
             style="fill:#000000;fill-opacity:1;fill-rule:nonzero;stroke:none"
             id="path36" /></g><g
           id="g38"
           transform="translate(516.0474,884.1322)"><path
             d="m 0,0 c 102.6,6.421 191.193,-70.191 197.488,-170.779 6.295,-100.588 -72.056,-187.645 -174.656,-194.066 -102.604,-6.421 -191.2,70.188 -197.495,170.776 C -180.958,-93.48 -102.604,-6.421 0,0 m 23.6,-377.116 c 109.367,6.844 192.878,99.751 186.159,207.104 C 203.041,-62.656 108.599,19.115 -0.768,12.271 -110.139,5.427 -193.652,-87.481 -186.934,-194.837 -180.216,-302.19 -85.771,-383.961 23.6,-377.116"
             style="fill:#000000;fill-opacity:1;fill-rule:nonzero;stroke:none"
             id="path40" /></g><g
           id="g42"
           transform="translate(466.7661,673.0345)"><path
             d="m 0,0 c 2.711,5.868 3.817,8.337 3.954,10.574 1.65,26.817 -2.635,77.633 -5.236,108.309 7.593,0.122 18.934,1.498 29.649,7.438 -0.218,-2.093 -0.157,-3.271 0.144,-4.385 4.784,-17.524 15.366,-24.421 23.399,-27.123 18.741,-6.297 41.685,3.687 49.697,8.958 3.595,-2.38 11.865,-13.686 16.009,-33.596 0.155,-0.742 0.435,-1.425 0.813,-2.033 -0.005,-0.115 -0.031,-0.224 -0.03,-0.339 0.463,-35.584 6.198,-44.522 29.222,-45.542 6.956,-0.307 12.277,-0.239 16.155,-0.19 1.96,0.027 3.959,0.055 5.361,-0.002 0.012,-1.322 -0.058,-3.155 -0.122,-4.846 -0.179,-4.676 -0.448,-11.744 0.051,-21.496 0.159,-3.101 0.389,-5.627 0.578,-7.68 0.036,-0.416 0.078,-0.846 0.115,-1.266 -0.801,0.046 -1.662,0.105 -2.484,0.161 -2.545,0.175 -5.713,0.391 -9.716,0.522 -21.11,0.698 -28.052,2.47 -40.268,14.443 -4.018,3.946 -7.803,4.11 -10.274,3.558 -6.758,-1.521 -9.652,-9.398 -12.715,-17.737 -1.331,-3.623 -3.785,-10.3 -5.467,-11.663 -14.71,-3.937 -37.478,-18.427 -50.241,-36.642 -0.797,5.275 -1.673,10.522 -2.512,15.282 -0.989,5.587 -1.918,10.863 -2.511,14.923 -0.802,5.534 -3.065,9.4 -6.723,11.492 -6.259,3.58 -13.492,0.629 -21.15,-2.497 -3.699,-1.51 -7.526,-3.071 -10.964,-3.754 -1.72,-0.342 -2.671,-0.3 -3.107,-0.238 C -9.234,-22.412 -6.42,-13.885 0,0 m -11.373,5.257 c -7.526,-16.282 -13.231,-30.425 -6.789,-38.607 2.212,-2.808 6.66,-5.793 15.343,-4.067 4.612,0.918 9.202,2.79 13.249,4.441 3.132,1.279 8.307,3.362 10.105,3.198 0.154,-0.294 0.436,-0.995 0.641,-2.397 0.617,-4.247 1.566,-9.615 2.567,-15.297 2.319,-13.132 5.204,-31.982 5.204,-41.504 0,-3.46 2.804,-6.264 6.263,-6.264 3.46,0 6.264,2.804 6.264,6.264 0,0.071 -0.003,0.151 -0.003,0.223 0.096,0.457 0.156,0.926 0.148,1.412 -0.397,21.937 33.069,46.772 50.635,51.352 7.384,1.921 10.648,10.804 13.807,19.395 0.924,2.519 2.312,6.295 3.496,8.553 14.37,-13.759 24.281,-16.245 47.591,-17.015 3.78,-0.124 6.824,-0.332 9.271,-0.5 6.486,-0.445 10.408,-0.715 13.508,2.459 3.031,3.1 2.679,6.952 2.193,12.284 -0.177,1.918 -0.394,4.28 -0.541,7.181 -0.473,9.194 -0.225,15.658 -0.047,20.379 0.269,7.017 0.431,11.252 -2.845,14.613 -3.311,3.389 -7.737,3.333 -15.072,3.238 -3.937,-0.051 -8.835,-0.116 -15.442,0.177 -12.925,0.573 -16.825,0.747 -17.246,33.189 -0.015,1.174 -0.371,2.256 -0.945,3.187 0.025,0.52 0.008,1.046 -0.103,1.578 -4.519,21.712 -14.68,39.475 -24.709,43.195 -3.514,1.304 -7.071,0.861 -9.773,-1.216 -3.921,-3.017 -24.552,-13.046 -39.494,-8.02 -7.421,2.495 -12.373,8.353 -15.121,17.889 0.115,1.559 0.778,5.517 1.189,7.969 1.387,8.282 1.962,11.711 -2.557,13.877 l -4.316,1.977 -3.137,-3.474 C 19.735,131.383 0.711,131.164 -5.27,131.47 c -1.022,0.538 -2.195,0.813 -3.418,0.709 -3.448,-0.289 -6.007,-3.318 -5.718,-6.765 l 0.596,-7.064 c 2.555,-30.123 6.82,-80.435 5.286,-106.608 -0.363,-1.108 -1.733,-4.074 -2.849,-6.485"
             style="fill:#000000;fill-opacity:1;fill-rule:nonzero;stroke:none"
             id="path44" /></g></g></g></g></svg>
