<?xml version="1.0" encoding="UTF-8" standalone="no"?>
<!-- Created with Inkscape (http://www.inkscape.org/) -->

<svg
   version="1.1"
   id="svg2"
   xml:space="preserve"
   width="1337.1519"
   height="623.388"
   viewBox="0 0 1337.1519 623.388"
   xmlns="http://www.w3.org/2000/svg"
   xmlns:svg="http://www.w3.org/2000/svg"><defs
     id="defs6"><clipPath
       clipPathUnits="userSpaceOnUse"
       id="clipPath18"><path
         d="M 0,1080 H 1080 V 0 H 0 Z"
         id="path16" /></clipPath></defs><g
     id="g8"
     transform="matrix(1.3333333,0,0,-1.3333333,-50.238132,1031.6941)"><g
       id="g12"><g
         id="g14"
         clip-path="url(#clipPath18)"><g
           id="g20"
           transform="translate(529.1005,717.0767)"><path
             d="M 0,0 V 4.728 H 61.334 V 0 h -6.517 c -6.816,0 -12.055,-2.855 -15.716,-8.562 -1.789,-2.641 -2.684,-8.774 -2.684,-18.4 V -97.24 c 0,-17.378 -1.725,-30.859 -5.175,-40.443 -3.45,-9.583 -10.222,-17.804 -20.317,-24.661 -10.095,-6.856 -23.831,-10.286 -41.209,-10.286 -18.911,0 -33.267,3.28 -43.062,9.839 -9.797,6.559 -16.739,15.376 -20.828,26.45 -2.726,7.581 -4.089,21.807 -4.089,42.679 v 67.723 c 0,10.647 -1.468,17.633 -4.408,20.956 -2.938,3.322 -7.688,4.983 -14.247,4.983 h -6.517 v 4.728 h 74.878 V 0 h -6.644 c -7.155,0 -12.267,-2.258 -15.333,-6.772 -2.131,-3.067 -3.195,-9.456 -3.195,-19.167 v -75.518 c 0,-6.731 0.617,-14.439 1.853,-23.128 1.233,-8.688 3.47,-15.461 6.708,-20.316 3.236,-4.857 7.9,-8.862 13.992,-12.012 6.09,-3.152 13.565,-4.728 22.425,-4.728 11.329,0 21.468,2.47 30.412,7.412 8.944,4.939 15.056,11.264 18.336,18.974 3.278,7.709 4.92,20.765 4.92,39.165 v 70.151 c 0,10.817 -1.194,17.589 -3.578,20.317 C 18.017,-1.875 13.075,0 6.517,0 Z"
             style="fill:#ffffff;fill-opacity:1;fill-rule:nonzero;stroke:none"
             id="path22" /></g><g
           id="g24"
           transform="translate(630.9921,557.3013)"><path
             d="m 0,0 c 7.572,-1.67 13.923,-2.505 19.052,-2.505 13.833,0 25.312,4.859 34.436,14.58 9.123,9.719 13.685,22.899 13.685,39.535 0,16.756 -4.562,29.964 -13.685,39.624 -9.124,9.661 -20.841,14.491 -35.152,14.491 -5.366,0 -11.48,-0.866 -18.336,-2.594 z m -34.616,-8.766 v 3.31 h 4.562 c 5.127,0 8.766,1.64 10.912,4.919 1.311,1.969 1.968,6.381 1.968,13.238 v 78.355 c 0,7.572 -0.836,12.312 -2.505,14.221 -2.325,2.623 -5.784,3.936 -10.375,3.936 h -4.562 v 3.309 h 49.374 c 18.127,0 31.917,-2.057 41.369,-6.171 9.45,-4.115 17.053,-10.973 22.809,-20.573 5.753,-9.601 8.63,-20.692 8.63,-33.273 0,-16.876 -5.128,-30.98 -15.383,-42.308 C 60.673,-2.445 43.142,-8.766 19.588,-8.766 Z"
             style="fill:#ffffff;fill-opacity:1;fill-rule:nonzero;stroke:none"
             id="path26" /></g><g
           id="g28"
           transform="translate(763.8183,663.2047)"><path
             d="m 0,0 v -47.942 h 26.655 c 6.916,0 11.538,1.042 13.865,3.13 3.099,2.742 4.83,7.572 5.187,14.49 h 3.31 V -72.54 h -3.31 c -0.836,5.903 -1.67,9.689 -2.505,11.359 -1.073,2.087 -2.833,3.727 -5.277,4.92 -2.446,1.192 -6.202,1.789 -11.27,1.789 H 0 v -39.982 c 0,-5.367 0.238,-8.632 0.716,-9.795 0.476,-1.162 1.31,-2.088 2.505,-2.772 1.191,-0.687 3.457,-1.029 6.798,-1.029 h 20.572 c 6.856,0 11.836,0.477 14.937,1.431 3.1,0.953 6.082,2.832 8.945,5.636 3.696,3.696 7.482,9.271 11.359,16.725 h 3.578 l -10.465,-30.411 h -93.47 v 3.31 h 4.293 c 2.862,0 5.575,0.684 8.139,2.057 1.907,0.953 3.205,2.384 3.891,4.293 0.684,1.907 1.029,5.814 1.029,11.718 v 78.801 c 0,7.692 -0.776,12.433 -2.326,14.221 -2.147,2.385 -5.725,3.579 -10.733,3.579 h -4.293 v 3.309 h 93.47 l 1.341,-26.565 h -3.488 c -1.252,6.38 -2.639,10.762 -4.159,13.148 -1.521,2.385 -3.772,4.204 -6.753,5.456 C 43.5,-0.447 39.296,0 33.274,0 Z"
             style="fill:#ffffff;fill-opacity:1;fill-rule:nonzero;stroke:none"
             id="path30" /></g><g
           id="g32"
           transform="translate(994.9833,725.7662)"><path
             d="M 0,0 3.962,-58.907 H 0 c -5.282,17.634 -12.821,30.326 -22.616,38.079 -9.798,7.75 -21.553,11.628 -35.268,11.628 -11.5,0 -21.893,-2.919 -31.178,-8.753 -9.286,-5.836 -16.591,-15.143 -21.914,-27.92 -5.325,-12.778 -7.986,-28.667 -7.986,-47.662 0,-15.675 2.512,-29.262 7.539,-40.762 5.026,-11.5 12.586,-20.316 22.681,-26.45 10.095,-6.133 21.614,-9.2 34.564,-9.2 11.244,0 21.167,2.406 29.773,7.219 8.602,4.812 18.058,14.375 28.367,28.687 l 3.961,-2.556 c -8.69,-15.419 -18.827,-26.706 -30.411,-33.861 -11.587,-7.156 -25.345,-10.733 -41.274,-10.733 -28.708,0 -50.941,10.647 -66.7,31.944 -11.756,15.845 -17.634,34.501 -17.634,55.968 0,17.292 3.875,33.178 11.628,47.661 7.75,14.481 18.42,25.704 32.009,33.67 C -90.873,-3.983 -76.028,0 -59.928,0 c 12.523,0 24.873,-3.067 37.056,-9.2 3.578,-1.875 6.134,-2.812 7.667,-2.812 2.3,0 4.301,0.809 6.006,2.428 2.214,2.3 3.789,5.494 4.727,9.584 z"
             style="fill:#ffffff;fill-opacity:1;fill-rule:nonzero;stroke:none"
             id="path34" /></g><g
           id="g36"
           transform="translate(427.2509,495.313)"><path
             d="M 0,0 V 1.399 H 18.158 V 0 h -1.929 c -2.018,0 -3.569,-0.846 -4.653,-2.535 -0.53,-0.782 -0.795,-2.598 -0.795,-5.447 v -20.807 c 0,-5.145 -0.51,-9.136 -1.532,-11.973 -1.02,-2.837 -3.026,-5.271 -6.015,-7.301 -2.988,-2.03 -7.054,-3.045 -12.2,-3.045 -5.598,0 -9.848,0.971 -12.748,2.913 -2.9,1.941 -4.956,4.551 -6.166,7.831 -0.807,2.244 -1.211,6.456 -1.211,12.635 V -7.68 c 0,3.153 -0.434,5.221 -1.305,6.204 C -31.266,-0.492 -32.672,0 -34.614,0 h -1.929 v 1.399 h 22.168 V 0 h -1.967 c -2.119,0 -3.632,-0.669 -4.54,-2.005 -0.631,-0.908 -0.945,-2.8 -0.945,-5.675 v -22.357 c 0,-1.992 0.182,-4.275 0.548,-6.847 0.365,-2.572 1.027,-4.578 1.986,-6.015 0.958,-1.438 2.339,-2.623 4.143,-3.556 1.802,-0.934 4.015,-1.399 6.638,-1.399 3.355,0 6.356,0.731 9.004,2.194 2.648,1.462 4.457,3.335 5.429,5.617 0.97,2.282 1.456,6.147 1.456,11.595 V -7.68 c 0,3.202 -0.354,5.207 -1.06,6.015 C 5.334,-0.556 3.871,0 1.93,0 Z"
             style="fill:#ffffff;fill-opacity:1;fill-rule:nonzero;stroke:none"
             id="path38" /></g><g
           id="g40"
           transform="translate(445.2197,496.7125)"><path
             d="m 0,0 h 13.922 l 31.36,-38.473 V -8.89 c 0,3.153 -0.353,5.119 -1.059,5.902 -0.933,1.058 -2.409,1.589 -4.426,1.589 H 38.019 V 0 h 17.855 v -1.399 h -1.815 c -2.169,0 -3.707,-0.657 -4.616,-1.968 -0.554,-0.808 -0.832,-2.648 -0.832,-5.523 v -43.239 h -1.362 l -33.819,41.31 v -31.588 c 0,-3.153 0.341,-5.12 1.021,-5.902 0.958,-1.058 2.434,-1.588 4.426,-1.588 h 1.816 v -1.4 H 2.838 v 1.4 h 1.777 c 2.195,0 3.745,0.656 4.654,1.967 0.554,0.807 0.832,2.648 0.832,5.523 V -6.733 C 8.612,-4.993 7.484,-3.847 6.715,-3.291 5.945,-2.737 4.817,-2.22 3.329,-1.74 2.598,-1.514 1.488,-1.399 0,-1.399 Z"
             style="fill:#ffffff;fill-opacity:1;fill-rule:nonzero;stroke:none"
             id="path42" /></g><g
           id="g44"
           transform="translate(526.0995,446.815)"><path
             d="M 0,0 V -1.399 H -21.979 V 0 h 1.816 c 2.118,0 3.656,0.618 4.615,1.854 0.606,0.807 0.907,2.749 0.907,5.826 v 33.138 c 0,2.597 -0.164,4.313 -0.491,5.145 -0.253,0.63 -0.769,1.173 -1.551,1.627 -1.11,0.605 -2.27,0.908 -3.48,0.908 h -1.816 v 1.399 H 0 v -1.399 h -1.854 c -2.093,0 -3.619,-0.619 -4.578,-1.854 -0.63,-0.807 -0.945,-2.749 -0.945,-5.826 V 7.68 c 0,-2.598 0.164,-4.313 0.492,-5.145 C -6.634,1.904 -6.104,1.362 -5.296,0.908 -4.212,0.303 -3.064,0 -1.854,0 Z"
             style="fill:#ffffff;fill-opacity:1;fill-rule:nonzero;stroke:none"
             id="path46" /></g><g
           id="g48"
           transform="translate(582.9951,496.7125)"><path
             d="M 0,0 V -1.399 C -1.816,-1.728 -3.19,-2.308 -4.123,-3.14 -5.461,-4.376 -6.646,-6.268 -7.68,-8.814 L -25.573,-52.47 h -1.4 l -19.216,44.223 c -0.985,2.269 -1.678,3.656 -2.082,4.161 -0.63,0.781 -1.406,1.394 -2.326,1.835 -0.921,0.441 -2.163,0.725 -3.726,0.852 V 0 h 20.958 v -1.399 c -2.371,-0.228 -3.91,-0.631 -4.615,-1.211 -0.708,-0.58 -1.06,-1.325 -1.06,-2.233 0,-1.261 0.58,-3.227 1.74,-5.901 l 13.051,-30.074 12.105,29.696 c 1.186,2.926 1.779,4.956 1.779,6.091 0,0.731 -0.366,1.43 -1.098,2.099 -0.731,0.668 -1.967,1.141 -3.707,1.418 -0.126,0.026 -0.34,0.064 -0.643,0.115 V 0 Z"
             style="fill:#ffffff;fill-opacity:1;fill-rule:nonzero;stroke:none"
             id="path50" /></g><g
           id="g52"
           transform="translate(600.1318,493.9127)"><path
             d="m 0,0 v -20.276 h 11.273 c 2.925,0 4.88,0.441 5.864,1.324 1.31,1.159 2.043,3.202 2.194,6.128 H 20.73 V -30.68 h -1.399 c -0.353,2.497 -0.707,4.099 -1.06,4.805 -0.454,0.883 -1.198,1.576 -2.232,2.081 -1.034,0.504 -2.623,0.756 -4.766,0.756 H 0 v -16.909 c 0,-2.271 0.101,-3.652 0.303,-4.143 0.201,-0.492 0.553,-0.883 1.058,-1.173 0.505,-0.29 1.463,-0.434 2.875,-0.434 h 8.702 c 2.899,0 5.005,0.201 6.317,0.604 1.311,0.404 2.572,1.198 3.783,2.384 1.564,1.563 3.165,3.921 4.805,7.074 h 1.512 L 24.93,-48.497 h -39.533 v 1.399 h 1.817 c 1.21,0 2.357,0.29 3.442,0.87 0.807,0.404 1.356,1.009 1.646,1.817 0.289,0.807 0.434,2.459 0.434,4.955 v 33.328 c 0,3.253 -0.328,5.258 -0.983,6.015 -0.908,1.009 -2.421,1.513 -4.539,1.513 h -1.817 V 2.8 H 24.93 l 0.567,-11.236 h -1.476 c -0.529,2.699 -1.116,4.552 -1.758,5.561 -0.644,1.009 -1.596,1.778 -2.857,2.308 C 18.397,-0.188 16.619,0 14.072,0 Z"
             style="fill:#ffffff;fill-opacity:1;fill-rule:nonzero;stroke:none"
             id="path54" /></g><g
           id="g56"
           transform="translate(647.1913,471.7828)"><path
             d="m 0,0 c 0.479,0 0.896,-0.007 1.249,-0.019 0.353,-0.013 0.643,-0.019 0.869,-0.019 4.893,0 8.581,1.059 11.066,3.178 2.484,2.118 3.726,4.817 3.726,8.095 0,3.203 -1.003,5.807 -3.008,7.812 -2.005,2.005 -4.659,3.008 -7.963,3.008 C 4.477,22.055 2.497,21.814 0,21.336 Z M 36.43,-26.367 H 22.735 L 5.372,-2.384 C 4.086,-2.435 3.039,-2.459 2.232,-2.459 1.904,-2.459 1.551,-2.453 1.173,-2.44 0.795,-2.428 0.403,-2.409 0,-2.384 v -14.904 c 0,-3.229 0.354,-5.233 1.06,-6.015 0.958,-1.11 2.395,-1.665 4.312,-1.665 h 2.005 v -1.399 h -21.979 v 1.399 h 1.929 c 2.169,0 3.72,0.706 4.653,2.119 0.53,0.782 0.794,2.635 0.794,5.561 v 33.139 c 0,3.227 -0.353,5.232 -1.058,6.014 -0.984,1.11 -2.447,1.665 -4.389,1.665 h -1.929 v 1.4 H 4.086 c 5.447,0 9.463,-0.398 12.049,-1.192 2.585,-0.795 4.778,-2.258 6.582,-4.388 1.803,-2.131 2.705,-4.672 2.705,-7.622 0,-3.154 -1.028,-5.89 -3.083,-8.209 -2.057,-2.322 -5.24,-3.96 -9.553,-4.918 l 10.593,-14.716 c 2.421,-3.38 4.502,-5.624 6.242,-6.734 1.739,-1.11 4.01,-1.816 6.809,-2.119 z"
             style="fill:#ffffff;fill-opacity:1;fill-rule:nonzero;stroke:none"
             id="path58" /></g><g
           id="g60"
           transform="translate(718.4628,497.8853)"><path
             d="m 0,0 v -17.742 h -1.4 c -0.454,3.404 -1.267,6.115 -2.44,8.133 -1.173,2.017 -2.844,3.619 -5.013,4.804 -2.168,1.186 -4.413,1.779 -6.733,1.779 -2.623,0 -4.792,-0.801 -6.507,-2.403 -1.715,-1.601 -2.572,-3.424 -2.572,-5.467 0,-1.563 0.542,-2.988 1.627,-4.274 1.563,-1.892 5.282,-4.414 11.159,-7.565 4.791,-2.574 8.064,-4.547 9.816,-5.921 1.753,-1.375 3.103,-2.995 4.048,-4.862 0.947,-1.866 1.419,-3.82 1.419,-5.863 0,-3.884 -1.507,-7.231 -4.52,-10.044 -3.014,-2.812 -6.892,-4.218 -11.633,-4.218 -1.488,0 -2.888,0.114 -4.199,0.341 -0.781,0.126 -2.403,0.586 -4.861,1.381 -2.459,0.794 -4.016,1.192 -4.672,1.192 -0.63,0 -1.129,-0.19 -1.495,-0.568 -0.365,-0.379 -0.636,-1.16 -0.812,-2.346 h -1.4 v 17.591 h 1.4 c 0.655,-3.682 1.537,-6.437 2.647,-8.265 1.11,-1.829 2.806,-3.348 5.088,-4.559 2.282,-1.211 4.786,-1.815 7.51,-1.815 3.152,0 5.643,0.832 7.471,2.496 1.828,1.665 2.743,3.632 2.743,5.901 0,1.261 -0.348,2.535 -1.041,3.821 -0.693,1.286 -1.772,2.484 -3.234,3.594 -0.984,0.757 -3.669,2.364 -8.058,4.823 -4.388,2.459 -7.509,4.42 -9.362,5.883 -1.854,1.462 -3.26,3.076 -4.218,4.842 -0.959,1.765 -1.438,3.707 -1.438,5.825 0,3.683 1.412,6.854 4.237,9.515 2.824,2.66 6.418,3.991 10.781,3.991 2.724,0 5.611,-0.669 8.663,-2.005 1.412,-0.631 2.408,-0.946 2.988,-0.946 0.657,0 1.193,0.195 1.609,0.587 0.416,0.39 0.75,1.178 1.002,2.364 z"
             style="fill:#ffffff;fill-opacity:1;fill-rule:nonzero;stroke:none"
             id="path62" /></g><g
           id="g64"
           transform="translate(749.9365,446.815)"><path
             d="M 0,0 V -1.399 H -21.979 V 0 h 1.816 c 2.118,0 3.656,0.618 4.615,1.854 0.606,0.807 0.907,2.749 0.907,5.826 v 33.138 c 0,2.597 -0.164,4.313 -0.491,5.145 -0.253,0.63 -0.769,1.173 -1.551,1.627 -1.11,0.605 -2.27,0.908 -3.48,0.908 h -1.816 v 1.399 H 0 v -1.399 h -1.854 c -2.093,0 -3.619,-0.619 -4.578,-1.854 -0.63,-0.807 -0.945,-2.749 -0.945,-5.826 V 7.68 c 0,-2.598 0.164,-4.313 0.492,-5.145 C -6.634,1.904 -6.104,1.362 -5.296,0.908 -4.212,0.303 -3.064,0 -1.854,0 Z"
             style="fill:#ffffff;fill-opacity:1;fill-rule:nonzero;stroke:none"
             id="path66" /></g><g
           id="g68"
           transform="translate(767.7919,449.1226)"><path
             d="m 0,0 c 3.202,-0.706 5.889,-1.059 8.058,-1.059 5.85,0 10.706,2.055 14.564,6.166 3.858,4.111 5.788,9.685 5.788,16.721 0,7.086 -1.93,12.673 -5.788,16.758 -3.858,4.086 -8.814,6.129 -14.867,6.129 -2.27,0 -4.856,-0.366 -7.755,-1.098 z m -14.64,-3.707 v 1.399 h 1.929 c 2.169,0 3.707,0.694 4.615,2.081 0.555,0.832 0.832,2.699 0.832,5.599 v 33.139 c 0,3.202 -0.353,5.207 -1.058,6.014 -0.984,1.11 -2.448,1.665 -4.389,1.665 h -1.929 v 1.4 H 6.242 c 7.666,0 13.498,-0.87 17.496,-2.611 3.996,-1.74 7.212,-4.64 9.647,-8.701 2.433,-4.06 3.65,-8.751 3.65,-14.072 0,-7.138 -2.17,-13.102 -6.507,-17.894 C 25.661,-1.034 18.246,-3.707 8.284,-3.707 Z"
             style="fill:#ffffff;fill-opacity:1;fill-rule:nonzero;stroke:none"
             id="path70" /></g><g
           id="g72"
           transform="translate(842.165,465.3892)"><path
             d="M 0,0 -8.701,20.73 -17.629,0 Z m 1.059,-2.799 h -19.861 l -3.48,-8.096 c -0.858,-1.992 -1.286,-3.48 -1.286,-4.463 0,-0.783 0.372,-1.47 1.116,-2.062 0.743,-0.593 2.351,-0.977 4.823,-1.154 v -1.4 h -16.153 v 1.4 c 2.143,0.379 3.53,0.87 4.161,1.475 1.286,1.211 2.711,3.67 4.274,7.377 l 18.045,42.218 h 1.324 l 17.856,-42.672 c 1.437,-3.429 2.743,-5.655 3.915,-6.677 1.173,-1.021 2.806,-1.595 4.899,-1.721 v -1.4 H 0.453 v 1.4 c 2.043,0.1 3.424,0.441 4.143,1.021 0.718,0.58 1.078,1.286 1.078,2.118 0,1.111 -0.505,2.863 -1.513,5.259 z"
             style="fill:#ffffff;fill-opacity:1;fill-rule:nonzero;stroke:none"
             id="path74" /></g><g
           id="g76"
           transform="translate(879.6913,449.1226)"><path
             d="m 0,0 c 3.202,-0.706 5.889,-1.059 8.058,-1.059 5.85,0 10.706,2.055 14.564,6.166 3.858,4.111 5.788,9.685 5.788,16.721 0,7.086 -1.93,12.673 -5.788,16.758 -3.858,4.086 -8.814,6.129 -14.867,6.129 -2.27,0 -4.856,-0.366 -7.755,-1.098 z m -14.64,-3.707 v 1.399 h 1.929 c 2.169,0 3.707,0.694 4.615,2.081 0.555,0.832 0.832,2.699 0.832,5.599 v 33.139 c 0,3.202 -0.353,5.207 -1.058,6.014 -0.984,1.11 -2.448,1.665 -4.389,1.665 h -1.929 v 1.4 H 6.242 c 7.666,0 13.498,-0.87 17.496,-2.611 3.996,-1.74 7.212,-4.64 9.647,-8.701 2.433,-4.06 3.65,-8.751 3.65,-14.072 0,-7.138 -2.17,-13.102 -6.507,-17.894 C 25.661,-1.034 18.246,-3.707 8.284,-3.707 Z"
             style="fill:#ffffff;fill-opacity:1;fill-rule:nonzero;stroke:none"
             id="path78" /></g><g
           id="g80"
           transform="translate(955.0097,449.1226)"><path
             d="m 0,0 c 3.203,-0.706 5.889,-1.059 8.058,-1.059 5.85,0 10.706,2.055 14.564,6.166 3.859,4.111 5.788,9.685 5.788,16.721 0,7.086 -1.929,12.673 -5.788,16.758 -3.858,4.086 -8.813,6.129 -14.866,6.129 C 5.485,44.715 2.9,44.349 0,43.617 Z m -14.64,-3.707 v 1.399 h 1.93 c 2.168,0 3.707,0.694 4.615,2.081 0.554,0.832 0.832,2.699 0.832,5.599 v 33.139 c 0,3.202 -0.353,5.207 -1.059,6.014 -0.984,1.11 -2.447,1.665 -4.388,1.665 h -1.93 v 1.4 H 6.242 c 7.666,0 13.499,-0.87 17.496,-2.611 3.997,-1.74 7.213,-4.64 9.647,-8.701 2.433,-4.06 3.65,-8.751 3.65,-14.072 0,-7.138 -2.169,-13.102 -6.507,-17.894 C 25.661,-1.034 18.247,-3.707 8.285,-3.707 Z"
             style="fill:#ffffff;fill-opacity:1;fill-rule:nonzero;stroke:none"
             id="path82" /></g><g
           id="g84"
           transform="translate(1011.1865,493.9127)"><path
             d="m 0,0 v -20.276 h 11.273 c 2.926,0 4.88,0.441 5.864,1.324 1.311,1.159 2.043,3.202 2.194,6.128 H 20.73 V -30.68 h -1.399 c -0.354,2.497 -0.706,4.099 -1.06,4.805 -0.453,0.883 -1.197,1.576 -2.231,2.081 -1.034,0.504 -2.623,0.756 -4.767,0.756 H 0 v -16.909 c 0,-2.271 0.101,-3.652 0.303,-4.143 0.202,-0.492 0.554,-0.883 1.059,-1.173 0.504,-0.29 1.462,-0.434 2.875,-0.434 h 8.701 c 2.9,0 5.006,0.201 6.318,0.604 1.31,0.404 2.572,1.198 3.782,2.384 1.564,1.563 3.165,3.921 4.805,7.074 h 1.513 L 24.93,-48.497 h -39.532 v 1.399 h 1.816 c 1.211,0 2.358,0.29 3.442,0.87 0.807,0.404 1.356,1.009 1.646,1.817 0.29,0.807 0.435,2.459 0.435,4.955 v 33.328 c 0,3.253 -0.328,5.258 -0.983,6.015 -0.908,1.009 -2.422,1.513 -4.54,1.513 h -1.816 V 2.8 H 24.93 l 0.567,-11.236 h -1.475 c -0.53,2.699 -1.116,4.552 -1.759,5.561 -0.643,1.009 -1.595,1.778 -2.856,2.308 C 18.397,-0.188 16.62,0 14.073,0 Z"
             style="fill:#ffffff;fill-opacity:1;fill-rule:nonzero;stroke:none"
             id="path86" /></g><g
           id="g88"
           transform="translate(444.4062,420.6373)"><path
             d="M 0,0 1.173,-17.439 H 0 c -1.563,5.22 -3.796,8.977 -6.695,11.273 -2.901,2.294 -6.381,3.442 -10.442,3.442 -3.404,0 -6.481,-0.864 -9.23,-2.591 -2.749,-1.728 -4.911,-4.483 -6.487,-8.266 -1.577,-3.783 -2.365,-8.486 -2.365,-14.11 0,-4.641 0.743,-8.663 2.232,-12.068 1.488,-3.405 3.726,-6.014 6.715,-7.831 2.989,-1.815 6.399,-2.723 10.233,-2.723 3.329,0 6.267,0.711 8.814,2.137 2.547,1.424 5.346,4.256 8.398,8.492 l 1.173,-0.756 c -2.573,-4.565 -5.575,-7.907 -9.003,-10.025 -3.431,-2.118 -7.504,-3.178 -12.22,-3.178 -8.499,0 -15.081,3.153 -19.746,9.457 -3.481,4.692 -5.221,10.215 -5.221,16.57 0,5.12 1.148,9.823 3.443,14.11 2.295,4.288 5.453,7.61 9.476,9.969 4.022,2.357 8.417,3.537 13.184,3.537 3.707,0 7.363,-0.908 10.97,-2.724 1.059,-0.555 1.816,-0.833 2.27,-0.833 0.681,0 1.272,0.241 1.777,0.719 0.657,0.682 1.122,1.627 1.401,2.838 z"
             style="fill:#ffffff;fill-opacity:1;fill-rule:nonzero;stroke:none"
             id="path90" /></g><g
           id="g92"
           transform="translate(486.3974,418.065)"><path
             d="M 0,0 V 1.399 H 18.158 V 0 h -1.929 c -2.018,0 -3.57,-0.846 -4.654,-2.535 -0.529,-0.782 -0.794,-2.598 -0.794,-5.447 v -20.807 c 0,-5.145 -0.51,-9.136 -1.532,-11.973 -1.021,-2.837 -3.026,-5.271 -6.015,-7.301 -2.989,-2.03 -7.055,-3.045 -12.2,-3.045 -5.598,0 -9.848,0.971 -12.749,2.913 -2.9,1.941 -4.955,4.551 -6.166,7.831 -0.807,2.244 -1.21,6.456 -1.21,12.635 V -7.68 c 0,3.153 -0.435,5.221 -1.305,6.204 C -31.267,-0.492 -32.673,0 -34.614,0 h -1.93 v 1.399 h 22.168 V 0 h -1.967 c -2.118,0 -3.632,-0.669 -4.539,-2.005 -0.631,-0.908 -0.946,-2.8 -0.946,-5.675 v -22.357 c 0,-1.992 0.182,-4.275 0.549,-6.847 0.365,-2.572 1.027,-4.578 1.986,-6.015 0.958,-1.438 2.339,-2.623 4.142,-3.556 1.802,-0.934 4.016,-1.399 6.639,-1.399 3.354,0 6.356,0.731 9.003,2.194 2.649,1.462 4.458,3.335 5.429,5.617 0.971,2.282 1.456,6.147 1.456,11.595 V -7.68 c 0,3.202 -0.354,5.207 -1.059,6.015 C 5.334,-0.556 3.871,0 1.929,0 Z"
             style="fill:#ffffff;fill-opacity:1;fill-rule:nonzero;stroke:none"
             id="path94" /></g><g
           id="g96"
           transform="translate(504.3661,419.4644)"><path
             d="m 0,0 h 13.922 l 31.36,-38.473 V -8.89 c 0,3.153 -0.353,5.119 -1.059,5.902 -0.933,1.058 -2.409,1.589 -4.426,1.589 H 38.019 V 0 h 17.855 v -1.399 h -1.815 c -2.169,0 -3.707,-0.657 -4.616,-1.968 -0.554,-0.808 -0.832,-2.648 -0.832,-5.523 v -43.239 h -1.362 l -33.819,41.31 v -31.588 c 0,-3.153 0.341,-5.12 1.021,-5.902 0.958,-1.058 2.434,-1.588 4.426,-1.588 h 1.816 v -1.4 H 2.838 v 1.4 h 1.777 c 2.195,0 3.745,0.656 4.654,1.967 0.554,0.807 0.832,2.648 0.832,5.523 V -6.733 C 8.612,-4.993 7.484,-3.847 6.715,-3.291 5.945,-2.737 4.817,-2.22 3.329,-1.74 2.598,-1.514 1.488,-1.399 0,-1.399 Z"
             style="fill:#ffffff;fill-opacity:1;fill-rule:nonzero;stroke:none"
             id="path98" /></g><g
           id="g100"
           transform="translate(577.3017,371.8746)"><path
             d="m 0,0 c 3.202,-0.706 5.889,-1.059 8.058,-1.059 5.85,0 10.706,2.055 14.564,6.166 3.858,4.111 5.788,9.685 5.788,16.721 0,7.086 -1.93,12.673 -5.788,16.758 -3.858,4.086 -8.814,6.129 -14.867,6.129 -2.27,0 -4.856,-0.366 -7.755,-1.098 z m -14.64,-3.707 v 1.399 h 1.929 c 2.169,0 3.707,0.694 4.615,2.081 0.555,0.832 0.832,2.699 0.832,5.599 v 33.139 c 0,3.202 -0.353,5.207 -1.058,6.014 -0.984,1.11 -2.448,1.665 -4.389,1.665 h -1.929 v 1.4 H 6.242 c 7.666,0 13.498,-0.87 17.496,-2.611 3.996,-1.74 7.212,-4.64 9.647,-8.701 2.433,-4.06 3.65,-8.751 3.65,-14.072 0,-7.138 -2.17,-13.102 -6.507,-17.894 C 25.661,-1.034 18.246,-3.707 8.284,-3.707 Z"
             style="fill:#ffffff;fill-opacity:1;fill-rule:nonzero;stroke:none"
             id="path102" /></g><g
           id="g104"
           transform="translate(641.1953,369.567)"><path
             d="M 0,0 V -1.399 H -21.979 V 0 h 1.816 c 2.119,0 3.656,0.618 4.615,1.854 0.606,0.807 0.908,2.749 0.908,5.826 v 33.138 c 0,2.597 -0.164,4.313 -0.492,5.145 -0.252,0.63 -0.769,1.173 -1.551,1.627 -1.11,0.605 -2.269,0.908 -3.48,0.908 h -1.816 v 1.399 H 0 v -1.399 h -1.854 c -2.093,0 -3.619,-0.619 -4.577,-1.854 -0.631,-0.807 -0.946,-2.749 -0.946,-5.826 V 7.68 c 0,-2.598 0.164,-4.313 0.492,-5.145 C -6.633,1.904 -6.104,1.362 -5.296,0.908 -4.212,0.303 -3.063,0 -1.854,0 Z"
             style="fill:#ffffff;fill-opacity:1;fill-rule:nonzero;stroke:none"
             id="path106" /></g><g
           id="g108"
           transform="translate(642.0654,419.4644)"><path
             d="m 0,0 h 13.922 l 31.36,-38.473 V -8.89 c 0,3.153 -0.353,5.119 -1.059,5.902 -0.933,1.058 -2.409,1.589 -4.426,1.589 H 38.019 V 0 h 17.855 v -1.399 h -1.815 c -2.169,0 -3.707,-0.657 -4.616,-1.968 -0.554,-0.808 -0.832,-2.648 -0.832,-5.523 v -43.239 h -1.362 l -33.819,41.31 v -31.588 c 0,-3.153 0.341,-5.12 1.021,-5.902 0.958,-1.058 2.434,-1.588 4.426,-1.588 h 1.816 v -1.4 H 2.838 v 1.4 h 1.777 c 2.195,0 3.745,0.656 4.654,1.967 0.554,0.807 0.832,2.648 0.832,5.523 V -6.733 C 8.612,-4.993 7.484,-3.847 6.715,-3.291 5.945,-2.737 4.817,-2.22 3.329,-1.74 2.598,-1.514 1.488,-1.399 0,-1.399 Z"
             style="fill:#ffffff;fill-opacity:1;fill-rule:nonzero;stroke:none"
             id="path110" /></g><g
           id="g112"
           transform="translate(733.4238,388.1412)"><path
             d="M 0,0 -8.701,20.73 -17.629,0 Z m 1.06,-2.799 h -19.861 l -3.48,-8.096 c -0.859,-1.992 -1.286,-3.48 -1.286,-4.463 0,-0.783 0.371,-1.47 1.115,-2.062 0.744,-0.593 2.351,-0.977 4.823,-1.154 v -1.4 h -16.152 v 1.4 c 2.142,0.379 3.53,0.87 4.161,1.475 1.286,1.211 2.71,3.67 4.274,7.377 l 18.045,42.218 h 1.324 l 17.856,-42.672 c 1.437,-3.429 2.742,-5.655 3.915,-6.677 1.173,-1.021 2.805,-1.595 4.898,-1.721 v -1.4 H 0.454 v 1.4 c 2.043,0.1 3.424,0.441 4.143,1.021 0.718,0.58 1.078,1.286 1.078,2.118 0,1.111 -0.505,2.863 -1.514,5.259 z"
             style="fill:#ffffff;fill-opacity:1;fill-rule:nonzero;stroke:none"
             id="path114" /></g><g
           id="g116"
           transform="translate(786.6874,368.1675)"><path
             d="M 0,0 -19.822,43.163 V 8.89 c 0,-3.153 0.34,-5.12 1.021,-5.902 0.933,-1.058 2.408,-1.589 4.426,-1.589 h 1.815 V 0 h -17.855 v 1.399 h 1.816 c 2.168,0 3.707,0.657 4.616,1.968 0.553,0.807 0.832,2.648 0.832,5.523 v 33.517 c 0,2.27 -0.253,3.908 -0.757,4.917 -0.354,0.732 -1.002,1.344 -1.948,1.835 -0.946,0.492 -2.465,0.738 -4.559,0.738 v 1.4 h 14.526 L 2.724,11.16 21.033,51.297 H 35.56 v -1.4 h -1.778 c -2.194,0 -3.745,-0.656 -4.653,-1.967 -0.555,-0.808 -0.832,-2.648 -0.832,-5.523 V 8.89 c 0,-3.153 0.352,-5.12 1.058,-5.902 0.933,-1.058 2.409,-1.589 4.427,-1.589 H 35.56 V 0 H 13.771 v 1.399 h 1.815 c 2.194,0 3.732,0.657 4.615,1.968 0.555,0.807 0.832,2.648 0.832,5.523 V 43.163 L 1.249,0 Z"
             style="fill:#ffffff;fill-opacity:1;fill-rule:nonzero;stroke:none"
             id="path118" /></g><g
           id="g120"
           transform="translate(858.2607,388.1412)"><path
             d="M 0,0 -8.701,20.73 -17.629,0 Z m 1.06,-2.799 h -19.861 l -3.48,-8.096 c -0.859,-1.992 -1.286,-3.48 -1.286,-4.463 0,-0.783 0.371,-1.47 1.115,-2.062 0.744,-0.593 2.351,-0.977 4.823,-1.154 v -1.4 h -16.152 v 1.4 c 2.142,0.379 3.53,0.87 4.161,1.475 1.286,1.211 2.71,3.67 4.274,7.377 l 18.045,42.218 h 1.324 l 17.856,-42.672 c 1.437,-3.429 2.742,-5.655 3.915,-6.677 1.173,-1.021 2.805,-1.595 4.898,-1.721 v -1.4 H 0.454 v 1.4 c 2.043,0.1 3.424,0.441 4.143,1.021 0.718,0.58 1.078,1.286 1.078,2.118 0,1.111 -0.505,2.863 -1.514,5.259 z"
             style="fill:#ffffff;fill-opacity:1;fill-rule:nonzero;stroke:none"
             id="path122" /></g><g
           id="g124"
           transform="translate(895.7499,394.5347)"><path
             d="m 0,0 c 0.479,0 0.895,-0.007 1.248,-0.019 0.353,-0.013 0.644,-0.019 0.87,-0.019 4.893,0 8.581,1.059 11.066,3.178 2.483,2.118 3.725,4.817 3.725,8.095 0,3.203 -1.002,5.807 -3.007,7.812 -2.005,2.005 -4.66,3.008 -7.964,3.008 C 4.476,22.055 2.496,21.814 0,21.336 Z M 36.43,-26.367 H 22.735 L 5.371,-2.384 C 4.085,-2.435 3.038,-2.459 2.231,-2.459 1.903,-2.459 1.551,-2.453 1.173,-2.44 0.794,-2.428 0.402,-2.409 0,-2.384 v -14.904 c 0,-3.229 0.353,-5.233 1.059,-6.015 0.958,-1.11 2.395,-1.665 4.312,-1.665 h 2.005 v -1.399 h -21.979 v 1.399 h 1.93 c 2.168,0 3.72,0.706 4.652,2.119 0.531,0.782 0.795,2.635 0.795,5.561 v 33.139 c 0,3.227 -0.353,5.232 -1.059,6.014 -0.984,1.11 -2.446,1.665 -4.388,1.665 h -1.93 v 1.4 H 4.085 c 5.448,0 9.464,-0.398 12.049,-1.192 2.585,-0.795 4.779,-2.258 6.582,-4.388 1.804,-2.131 2.705,-4.672 2.705,-7.622 0,-3.154 -1.027,-5.89 -3.083,-8.209 -2.056,-2.322 -5.239,-3.96 -9.552,-4.918 l 10.592,-14.716 c 2.422,-3.38 4.502,-5.624 6.242,-6.734 1.74,-1.11 4.01,-1.816 6.81,-2.119 z"
             style="fill:#ffffff;fill-opacity:1;fill-rule:nonzero;stroke:none"
             id="path126" /></g><g
           id="g128"
           transform="translate(978.1425,420.6373)"><path
             d="M 0,0 1.173,-17.439 H 0 c -1.564,5.22 -3.796,8.977 -6.696,11.273 -2.901,2.294 -6.38,3.442 -10.441,3.442 -3.404,0 -6.482,-0.864 -9.23,-2.591 -2.749,-1.728 -4.912,-4.483 -6.487,-8.266 -1.578,-3.783 -2.366,-8.486 -2.366,-14.11 0,-4.641 0.744,-8.663 2.233,-12.068 1.487,-3.405 3.726,-6.014 6.715,-7.831 2.988,-1.815 6.398,-2.723 10.232,-2.723 3.329,0 6.267,0.711 8.814,2.137 2.547,1.424 5.347,4.256 8.399,8.492 l 1.173,-0.756 c -2.573,-4.565 -5.575,-7.907 -9.004,-10.025 -3.43,-2.118 -7.503,-3.178 -12.219,-3.178 -8.499,0 -15.082,3.153 -19.747,9.457 -3.48,4.692 -5.221,10.215 -5.221,16.57 0,5.12 1.148,9.823 3.443,14.11 2.295,4.288 5.454,7.61 9.476,9.969 4.023,2.357 8.417,3.537 13.184,3.537 3.707,0 7.364,-0.908 10.971,-2.724 1.059,-0.555 1.815,-0.833 2.269,-0.833 0.681,0 1.273,0.241 1.778,0.719 0.656,0.682 1.122,1.627 1.4,2.838 z"
             style="fill:#ffffff;fill-opacity:1;fill-rule:nonzero;stroke:none"
             id="path130" /></g><g
           id="g132"
           transform="translate(1017.5615,388.1412)"><path
             d="M 0,0 -8.701,20.73 -17.629,0 Z m 1.059,-2.799 h -19.861 l -3.48,-8.096 c -0.858,-1.992 -1.286,-3.48 -1.286,-4.463 0,-0.783 0.372,-1.47 1.116,-2.062 0.743,-0.593 2.351,-0.977 4.823,-1.154 v -1.4 h -16.153 v 1.4 c 2.143,0.379 3.53,0.87 4.161,1.475 1.286,1.211 2.711,3.67 4.274,7.377 l 18.045,42.218 h 1.324 l 17.856,-42.672 c 1.437,-3.429 2.743,-5.655 3.915,-6.677 1.173,-1.021 2.806,-1.595 4.899,-1.721 v -1.4 H 0.453 v 1.4 c 2.043,0.1 3.424,0.441 4.143,1.021 0.718,0.58 1.078,1.286 1.078,2.118 0,1.111 -0.505,2.863 -1.513,5.259 z"
             style="fill:#ffffff;fill-opacity:1;fill-rule:nonzero;stroke:none"
             id="path134" /></g><g
           id="g136"
           transform="translate(193.7704,773.7706)"><path
             d="m 0,0 c -85.17,0 -154.633,-90.681 -154.633,-201.863 0,-72.043 29.166,-135.478 72.872,-171.212 l 22.818,-10.017 c -17.39,9.845 -33.066,23.777 -46.602,41.446 -13.895,18.141 -24.816,39.263 -32.458,62.781 -7.934,24.414 -11.956,50.321 -11.956,77.002 0,26.681 4.022,52.588 11.956,77.002 7.642,23.518 18.563,44.64 32.458,62.781 13.826,18.048 29.88,32.208 47.717,42.085 18.358,10.166 37.814,15.321 57.828,15.321 20.013,0 39.469,-5.155 57.827,-15.321 17.837,-9.877 33.891,-24.037 47.717,-42.085 13.895,-18.141 24.816,-39.263 32.458,-62.781 7.934,-24.414 11.956,-50.321 11.956,-77.002 0,-26.681 -4.022,-52.588 -11.956,-77.002 -7.642,-23.518 -18.563,-44.64 -32.458,-62.781 -13.826,-18.048 -29.88,-32.208 -47.717,-42.085 -0.68,-0.376 -1.363,-0.731 -2.046,-1.094 l 24.514,10.568 c 44.518,35.506 74.337,99.549 74.337,172.394 C 154.632,-90.681 85.168,0 0,0"
             style="fill:#ffffff;fill-opacity:1;fill-rule:nonzero;stroke:none"
             id="path138" /></g><g
           id="g140"
           transform="translate(78.8681,571.9058)"><path
             d="m 0,0 c 0,-3.861 0.112,-7.688 0.329,-11.477 l 4.482,4.209 C 4.722,-4.86 4.674,-2.437 4.674,0 c 0,10.856 0.905,21.438 2.606,31.63 l -2.761,4.036 3.727,1.298 c 12.36,62.714 55.377,109.213 106.299,109.213 51.004,0 94.078,-46.646 106.36,-109.51 l 5.037,-1.795 -3.772,-5.428 c 1.473,-9.515 2.247,-19.363 2.247,-29.444 0,-2.365 -0.047,-4.715 -0.131,-7.053 l 4.483,-4.27 c 0.211,3.739 0.321,7.514 0.321,11.323 0,83.18 -51.384,150.851 -114.545,150.851 C 51.385,150.851 0,83.18 0,0"
             style="fill:#ffffff;fill-opacity:1;fill-rule:nonzero;stroke:none"
             id="path142" /></g><g
           id="g144"
           transform="translate(158.7099,380.192)"><path
             d="m 0,0 21.301,-9.352 c 4.534,-0.526 9.124,-0.795 13.76,-0.795 4.648,0 9.249,0.271 13.794,0.799 L 71.697,0.5 C 59.788,-3.47 47.533,-5.473 35.061,-5.473 23.138,-5.473 11.414,-3.629 0,0"
             style="fill:#ffffff;fill-opacity:1;fill-rule:nonzero;stroke:none"
             id="path146" /></g><g
           id="g148"
           transform="translate(294.1523,513.6607)"><path
             d="m 0,0 0.422,-1.024 -0.792,-0.1 c -17.162,-51.067 -55.727,-86.805 -100.369,-86.805 -56.402,0 -103.103,57.045 -109.192,129.983 l -4.912,3.024 c 5.083,-77.034 54.313,-137.68 114.104,-137.68 59.403,0 108.384,59.859 114.003,136.179 L 8.326,40.586 C 7.026,26.332 4.173,12.702 0,0"
             style="fill:#ffffff;fill-opacity:1;fill-rule:nonzero;stroke:none"
             id="path150" /></g><g
           id="g152"
           transform="translate(193.1152,341.0762)"><path
             d="M 0,0 C -8.314,0 -16.394,1.088 -24.242,3.243 L -25.427,0.544 C -17.179,-1.757 -8.676,-2.921 0,-2.921 c 0.902,0 1.82,0.013 2.728,0.038 7.964,0.217 15.871,1.451 23.574,3.674 L 25.135,3.496 C 17.814,1.41 10.321,0.246 2.647,0.037 1.762,0.012 0.881,0 0,0"
             style="fill:#ffffff;fill-opacity:1;fill-rule:nonzero;stroke:none"
             id="path154" /></g><g
           id="g156"
           transform="translate(250.4687,320.5406)"><path
             d="M 0,0 C -2.912,5.698 -5.814,11.4 -8.719,17.102 L -8.727,17.099 Z"
             style="fill:#ffffff;fill-opacity:1;fill-rule:nonzero;stroke:none"
             id="path158" /></g><g
           id="g160"
           transform="translate(144.7753,338.2315)"><path
             d="m 0,0 c -0.761,-1.495 -1.521,-2.99 -2.283,-4.484 l 2.288,4.482 z"
             style="fill:#ffffff;fill-opacity:1;fill-rule:nonzero;stroke:none"
             id="path162" /></g><g
           id="g164"
           transform="translate(246.4218,322.0406)"><path
             d="M 0,0 C 0.117,-0.229 0.231,-0.452 0.349,-0.682 0.212,-0.75 0.075,-0.815 -0.062,-0.881 c -14.293,-6.779 -29.517,-10.738 -45.25,-11.768 -0.169,-0.011 -0.34,-0.013 -0.512,-0.015 -0.567,-0.009 -1.302,-0.021 -2.106,-0.226 h -10.597 c -0.314,0.101 -0.647,0.154 -0.992,0.154 h -0.001 c -0.104,0 -0.198,-0.005 -0.277,-0.011 -2.963,0.166 -5.647,0.397 -8.2,0.706 -8.555,1.036 -16.953,2.935 -24.963,5.644 -4.715,1.595 -9.414,3.508 -14.006,5.7 l 0.367,0.721 -4.038,-1.459 c -0.304,-0.467 -0.145,-0.643 0.297,-0.864 5.326,-2.661 10.804,-4.957 16.444,-6.865 8.316,-2.813 16.835,-4.722 25.547,-5.776 2.851,-0.345 5.712,-0.577 8.579,-0.734 0.007,0 0.015,0 0.022,0 0.073,0 0.153,0.017 0.228,0.017 0.096,0 0.184,-0.028 0.243,-0.154 H -47.5 c 0.771,0.286 1.587,0.196 2.38,0.248 16.206,1.061 31.639,5.085 46.309,12.043 0.885,0.419 1.749,0.885 2.642,1.284 0.422,0.188 0.401,0.374 0.216,0.736 z"
             style="fill:#ffffff;fill-opacity:1;fill-rule:nonzero;stroke:none"
             id="path166" /></g><g
           id="g168"
           transform="translate(349.8046,385.0425)"><path
             d="m 0,0 0.013,-0.034 c 0.012,0.016 0.026,0.03 0.038,0.044 z"
             style="fill:#ffffff;fill-opacity:1;fill-rule:nonzero;stroke:none"
             id="path170" /></g><g
           id="g172"
           transform="translate(310.705,364.1885)"><path
             d="M 0,0 C 4.764,2.05 17.533,7.535 28.266,12.066 19.939,0.751 13.309,-11.677 8.171,-25.574 3.868,-19.302 1.132,-13.437 0,0 M 9.066,-31.836 C 15.174,-13.533 24.262,3.633 37.654,19.156 24.754,13.854 -3.071,1.858 -3.071,1.858 -1.766,-17.204 2.49,-22.825 9.066,-31.836"
             style="fill:#ffffff;fill-opacity:1;fill-rule:nonzero;stroke:none"
             id="path174" /></g><g
           id="g176"
           transform="translate(329.3681,420.1754)"><path
             d="m 0,0 15.116,-35.061 -118.506,-51.09 -15.115,35.061 z m -98.961,-39.484 -22.842,-9.848 -0.541,-0.232 11.226,-26.04 1.167,-2.705 5.036,-11.681 17.289,7.454 0.008,0.003 L 18.955,-36.587 1.526,3.839 -55.303,-20.662 -79.816,-31.23 Z"
             style="fill:#ffffff;fill-opacity:1;fill-rule:nonzero;stroke:none"
             id="path178" /></g><g
           id="g180"
           transform="translate(68.664,339.8257)"><path
             d="M 0,0 C -5.09,13.778 -11.647,26.112 -19.87,37.35 -9.603,32.847 3.312,27.178 8.098,25.077 6.971,11.683 4.265,6.119 0,0 m -0.905,-6.237 c 6.584,9.016 10.767,14.081 12.072,33.156 0,0 -30.376,13.337 -40.659,17.838 C -16.1,29.234 -7.011,12.067 -0.905,-6.237"
             style="fill:#ffffff;fill-opacity:1;fill-rule:nonzero;stroke:none"
             id="path182" /></g><g
           id="g184"
           transform="translate(37.6786,386.2881)"><path
             d="M 0,0 0.038,-0.042 0.051,-0.009 0,0.001 Z"
             style="fill:#ffffff;fill-opacity:1;fill-rule:nonzero;stroke:none"
             id="path186" /></g><g
           id="g188"
           transform="translate(43.0751,386.0728)"><path
             d="m 0,0 15.349,34.959 118.163,-51.878 -15.35,-34.96 z m 101.705,-47.843 17.958,-7.885 4.95,11.276 1.185,2.698 11.562,26.335 -0.424,0.187 -21.301,9.351 L 91.752,4.605 68.935,14.623 13.849,38.808 -3.849,-1.5 101.7,-47.841 Z"
             style="fill:#ffffff;fill-opacity:1;fill-rule:nonzero;stroke:none"
             id="path190" /></g><g
           id="g192"
           transform="translate(59.9599,398.084)"><path
             d="M 0,0 5.513,-2.478 6.783,0.347 1.27,2.825 2.525,5.619 8.038,3.14 9.332,6.017 0.899,9.808 -6.044,-5.639 2.388,-9.43 l 1.299,2.888 -5.514,2.479 z"
             style="fill:#ffffff;fill-opacity:1;fill-rule:nonzero;stroke:none"
             id="path194" /></g><g
           id="g196"
           transform="translate(80.8378,398.9107)"><path
             d="m 0,0 -5.482,-3.497 -1.018,6.419 -3.308,1.487 1.535,-9.685 -8.804,-5.616 3.328,-1.496 5.996,3.833 1.113,-7.028 3.308,-1.488 -1.632,10.3 8.268,5.286 z"
             style="fill:#ffffff;fill-opacity:1;fill-rule:nonzero;stroke:none"
             id="path198" /></g><g
           id="g200"
           transform="translate(103.0312,388.9346)"><path
             d="m 0,0 -2.95,1.326 -4.326,-9.621 c -0.465,-1.036 -0.852,-1.705 -1.161,-2.008 -0.308,-0.302 -0.704,-0.489 -1.185,-0.558 -0.482,-0.07 -0.982,0.012 -1.499,0.245 -0.49,0.22 -0.86,0.515 -1.11,0.885 -0.251,0.368 -0.372,0.765 -0.363,1.189 0.011,0.425 0.209,1.067 0.596,1.928 l 4.49,9.989 -2.951,1.326 -4.14,-9.209 c -0.828,-1.842 -1.237,-3.229 -1.227,-4.163 0.01,-0.934 0.313,-1.845 0.911,-2.732 0.599,-0.888 1.458,-1.583 2.578,-2.087 0.854,-0.384 1.664,-0.586 2.429,-0.606 0.764,-0.02 1.52,0.139 2.265,0.478 0.746,0.338 1.341,0.768 1.788,1.292 0.445,0.523 1.017,1.562 1.715,3.116 z"
             style="fill:#ffffff;fill-opacity:1;fill-rule:nonzero;stroke:none"
             id="path202" /></g><g
           id="g204"
           transform="translate(118.0009,382.2047)"><path
             d="m 0,0 -8.456,-9.15 1.263,12.384 -2.866,1.288 -9.618,-14.245 2.866,-1.289 6.082,8.993 -1.132,-11.217 2.59,-1.165 7.667,8.28 -2.729,-10.5 2.844,-1.278 4.352,16.612 z"
             style="fill:#ffffff;fill-opacity:1;fill-rule:nonzero;stroke:none"
             id="path206" /></g><g
           id="g208"
           transform="translate(129.5312,371.7579)"><path
             d="m 0,0 c -0.232,-0.519 -0.591,-0.85 -1.074,-0.994 -0.484,-0.145 -1.083,-0.056 -1.8,0.266 l -0.643,0.29 1.463,3.255 0.759,-0.341 C -0.62,2.172 -0.182,1.805 0.021,1.373 0.225,0.94 0.217,0.483 0,0 m -1.821,-6.944 c -0.265,-0.588 -0.679,-0.941 -1.242,-1.058 -0.563,-0.117 -1.456,0.099 -2.676,0.648 l -0.738,0.332 1.78,3.958 0.61,-0.274 c 1.158,-0.521 1.9,-1.086 2.226,-1.695 0.325,-0.609 0.339,-1.246 0.04,-1.911 m 4.842,6.053 C 3.427,0.012 3.505,0.919 3.258,1.83 3.01,2.741 2.479,3.527 1.663,4.188 1.094,4.663 0.104,5.217 -1.305,5.851 l -2.428,1.091 -6.945,-15.447 4.331,-1.947 c 1.248,-0.561 2.305,-0.823 3.172,-0.788 0.866,0.035 1.685,0.309 2.454,0.822 0.77,0.512 1.349,1.202 1.74,2.07 0.406,0.904 0.541,1.784 0.404,2.64 -0.137,0.857 -0.574,1.716 -1.315,2.579 0.749,0.169 1.355,0.437 1.82,0.804 0.464,0.368 0.828,0.846 1.093,1.434"
             style="fill:#ffffff;fill-opacity:1;fill-rule:nonzero;stroke:none"
             id="path210" /></g><g
           id="g212"
           transform="translate(139.6201,365.2281)"><path
             d="M 0,0 -0.922,0.414 0.504,3.585 1.31,3.223 C 2.091,2.872 2.604,2.576 2.849,2.335 3.093,2.095 3.246,1.811 3.309,1.483 3.371,1.155 3.326,0.822 3.175,0.485 2.919,-0.083 2.56,-0.412 2.097,-0.499 1.633,-0.586 0.935,-0.42 0,0 m 4.129,-3.049 c 0.794,0.464 1.419,1.203 1.875,2.218 0.434,0.966 0.59,1.902 0.467,2.807 C 6.349,2.881 5.993,3.648 5.406,4.278 4.819,4.909 3.673,5.607 1.967,6.374 l -3.115,1.4 -6.944,-15.447 2.941,-1.322 2.94,6.543 0.27,-0.121 0.532,-8.104 3.215,-1.445 -0.573,8.513 c 1.137,-0.091 2.103,0.096 2.896,0.56"
             style="fill:#ffffff;fill-opacity:1;fill-rule:nonzero;stroke:none"
             id="path214" /></g><g
           id="g216"
           transform="translate(155.1288,360.5914)"><path
             d="m 0,0 -0.324,-6.229 -4.133,1.858 z m -0.523,-9.585 -0.222,-3.726 3.056,-1.373 1.002,18.118 -2.982,1.34 -12.9,-12.769 3.055,-1.374 2.688,2.617 z"
             style="fill:#ffffff;fill-opacity:1;fill-rule:nonzero;stroke:none"
             id="path218" /></g><g
           id="g220"
           transform="translate(236.5576,350.4385)"><path
             d="m 0,0 -6.307,15.717 -2.97,-1.191 6.306,-15.718 z"
             style="fill:#ffffff;fill-opacity:1;fill-rule:nonzero;stroke:none"
             id="path222" /></g><g
           id="g224"
           transform="translate(243.2226,371.3609)"><path
             d="m 0,0 4.149,-10.343 -10.875,7.645 -2.87,-1.152 6.307,-15.718 2.992,1.201 -4.138,10.311 10.855,-7.616 2.879,1.155 -6.307,15.718 z"
             style="fill:#ffffff;fill-opacity:1;fill-rule:nonzero;stroke:none"
             id="path226" /></g><g
           id="g228"
           transform="translate(260.5742,375.4571)"><path
             d="M 0,0 C 0.807,0.324 1.816,0.1 3.028,-0.67 L 4.46,2.174 C 3.246,2.804 2.212,3.158 1.356,3.236 0.501,3.315 -0.318,3.197 -1.104,2.882 -2.323,2.393 -3.191,1.592 -3.71,0.478 c -0.518,-1.113 -0.558,-2.215 -0.12,-3.305 0.303,-0.755 0.856,-1.412 1.66,-1.97 0.804,-0.558 2.342,-1.192 4.614,-1.901 1.195,-0.373 1.994,-0.684 2.402,-0.935 0.407,-0.25 0.681,-0.553 0.825,-0.909 0.157,-0.392 0.12,-0.808 -0.109,-1.247 -0.23,-0.44 -0.601,-0.762 -1.116,-0.968 C 3.463,-11.152 2.313,-10.807 1,-9.722 l -1.906,-2.526 c 1.063,-0.938 2.121,-1.514 3.172,-1.729 1.05,-0.215 2.135,-0.098 3.255,0.351 1.433,0.575 2.427,1.461 2.981,2.66 0.555,1.197 0.572,2.442 0.056,3.731 -0.266,0.663 -0.638,1.223 -1.116,1.68 -0.477,0.457 -1.143,0.871 -1.995,1.241 -0.343,0.151 -1.276,0.476 -2.801,0.972 -1.634,0.543 -2.636,0.923 -3.004,1.139 -0.274,0.163 -0.462,0.377 -0.569,0.641 -0.105,0.263 -0.075,0.55 0.09,0.86 C -0.671,-0.391 -0.393,-0.157 0,0"
             style="fill:#ffffff;fill-opacity:1;fill-rule:nonzero;stroke:none"
             id="path230" /></g><g
           id="g232"
           transform="translate(272.6523,378.4669)"><path
             d="M 0,0 C 0.585,1.409 1.604,2.406 3.06,2.99 4.5,3.568 5.931,3.54 7.352,2.907 8.773,2.274 9.784,1.209 10.384,-0.286 10.987,-1.79 10.996,-3.254 10.408,-4.681 9.822,-6.107 8.819,-7.104 7.4,-7.674 6.146,-8.178 4.874,-8.229 3.587,-7.827 1.934,-7.316 0.758,-6.192 0.061,-4.454 -0.565,-2.894 -0.586,-1.409 0,0 m 1.699,-10.482 c 2.216,-1.005 4.503,-1.035 6.863,-0.088 2.252,0.904 3.849,2.466 4.791,4.689 0.941,2.222 0.953,4.48 0.032,6.774 C 12.456,3.208 10.868,4.849 8.622,5.817 6.376,6.785 4.141,6.823 1.917,5.93 0.448,5.341 -0.774,4.423 -1.751,3.175 c -0.977,-1.248 -1.575,-2.648 -1.796,-4.2 -0.222,-1.553 -0.03,-3.081 0.572,-4.584 0.901,-2.244 2.459,-3.869 4.674,-4.873"
             style="fill:#ffffff;fill-opacity:1;fill-rule:nonzero;stroke:none"
             id="path234" /></g><g
           id="g236"
           transform="translate(299.3437,375.6299)"><path
             d="m 0,0 -1.145,2.853 -4.359,-1.749 -5.162,12.865 -2.992,-1.2 6.306,-15.718 z"
             style="fill:#ffffff;fill-opacity:1;fill-rule:nonzero;stroke:none"
             id="path238" /></g><g
           id="g240"
           transform="translate(310.2099,379.9903)"><path
             d="m 0,0 -1.179,2.938 -5.609,-2.251 -1.659,4.135 5.609,2.251 -1.153,2.875 -5.61,-2.251 -1.14,2.842 5.609,2.251 -1.174,2.928 -8.581,-3.443 6.307,-15.717 z"
             style="fill:#ffffff;fill-opacity:1;fill-rule:nonzero;stroke:none"
             id="path242" /></g><g
           id="g244"
           transform="translate(314.7197,381.7994)"><path
             d="M 0,0 -2.258,10.619 5.035,2.021 7.672,3.079 7.028,14.345 12.696,5.094 15.59,6.255 6.646,20.915 3.733,19.747 4.455,7.308 -3.587,16.809 -6.502,15.64 -2.917,-1.17 Z"
             style="fill:#ffffff;fill-opacity:1;fill-rule:nonzero;stroke:none"
             id="path246" /></g><g
           id="g248"
           transform="translate(141.7499,325.8668)"><path
             d="M 0,0 4.379,8.581 13.122,4.742 Z M -1.927,-3.802 20.988,4.479 3.03,12.363 0.742,7.88 -5.965,-5.261 Z"
             style="fill:#ffffff;fill-opacity:1;fill-rule:nonzero;stroke:none"
             id="path250" /></g><g
           id="g252"
           transform="translate(232.3046,330.3897)"><path
             d="m 0,0 8.08,3.483 4.078,-7.99 z m 9.438,7.25 -17.29,-7.455 21.969,-8.144 4.047,-1.5 z"
             style="fill:#ffffff;fill-opacity:1;fill-rule:nonzero;stroke:none"
             id="path254" /></g><g
           id="g256"
           transform="translate(82.2402,648.1954)"><path
             d="m 0,0 c 1.388,0.022 2.739,0.481 4.054,1.377 1.314,0.897 2.341,2.18 3.081,3.849 0.563,1.273 0.856,2.478 0.881,3.616 0.022,1.138 -0.22,2.259 -0.729,3.365 -0.509,1.105 -1.154,1.986 -1.936,2.645 -0.782,0.657 -2.33,1.5 -4.647,2.525 l -13.725,6.079 -1.947,-4.398 14.339,-6.35 C 0.914,12.024 1.912,11.455 2.364,10.999 2.817,10.542 3.097,9.957 3.204,9.242 3.312,8.526 3.193,7.783 2.852,7.011 2.528,6.28 2.094,5.728 1.547,5.352 1,4.976 0.411,4.794 -0.22,4.805 -0.851,4.816 -1.808,5.106 -3.09,5.674 L -17.976,12.267 -19.923,7.869 -6.199,1.791 C -3.455,0.576 -1.389,-0.021 0,0"
             style="fill:#ffffff;fill-opacity:1;fill-rule:nonzero;stroke:none"
             id="path258" /></g><g
           id="g260"
           transform="translate(98.0908,671.9166)"><path
             d="m 0,0 -13.92,8.888 19.711,0.18 2.48,3.886 -21.219,13.548 -2.579,-4.039 13.964,-8.915 -19.761,-0.164 -2.475,-3.875 21.221,-13.549 z"
             style="fill:#ffffff;fill-opacity:1;fill-rule:nonzero;stroke:none"
             id="path262" /></g><g
           id="g264"
           transform="translate(114.1171,694.1099)"><path
             d="M 0,0 -19.288,16.181 -22.346,12.536 -3.059,-3.646 Z"
             style="fill:#ffffff;fill-opacity:1;fill-rule:nonzero;stroke:none"
             id="path266" /></g><g
           id="g268"
           transform="translate(127.3525,707.3873)"><path
             d="M 0,0 -10.101,24.782 -13.758,21.49 -6.57,3.896 -23.243,12.953 -26.905,9.657 -3.436,-3.091 Z"
             style="fill:#ffffff;fill-opacity:1;fill-rule:nonzero;stroke:none"
             id="path270" /></g><g
           id="g272"
           transform="translate(150.1533,723.1724)"><path
             d="m 0,0 -2.426,4.033 -7.7,-4.631 -3.414,5.676 7.7,4.631 -2.373,3.946 -7.7,-4.632 -2.347,3.902 7.7,4.631 -2.417,4.019 -11.777,-7.084 12.977,-21.575 z"
             style="fill:#ffffff;fill-opacity:1;fill-rule:nonzero;stroke:none"
             id="path274" /></g><g
           id="g276"
           transform="translate(153.0556,746.5826)"><path
             d="M 0,0 1.237,0.442 C 2.437,0.871 3.291,1.083 3.801,1.076 4.311,1.07 4.768,0.923 5.172,0.636 5.576,0.349 5.871,-0.053 6.057,-0.57 6.368,-1.443 6.321,-2.166 5.916,-2.736 5.51,-3.307 4.589,-3.849 3.154,-4.361 L 1.74,-4.867 Z m 6.902,-19.307 -3.589,10.04 0.413,0.148 8.92,-8.135 4.933,1.764 -9.384,8.532 c 1.312,1.075 2.154,2.27 2.526,3.584 0.373,1.314 0.28,2.751 -0.277,4.309 C 9.914,2.417 9.117,3.581 8.053,4.424 6.988,5.268 5.817,5.724 4.54,5.794 3.262,5.865 1.313,5.432 -1.305,4.496 L -6.086,2.787 2.39,-20.92 Z"
             style="fill:#ffffff;fill-opacity:1;fill-rule:nonzero;stroke:none"
             id="path278" /></g><g
           id="g280"
           transform="translate(173.4824,747.6168)"><path
             d="M 0,0 C 0.95,-1.102 2.929,-2.586 5.937,-4.451 7.516,-5.432 8.552,-6.178 9.045,-6.689 9.537,-7.201 9.82,-7.739 9.894,-8.305 9.975,-8.927 9.768,-9.512 9.273,-10.059 8.78,-10.606 8.125,-10.933 7.31,-11.039 5.745,-11.241 4.22,-10.317 2.732,-8.267 l -3.682,-2.927 c 1.182,-1.745 2.489,-2.968 3.922,-3.669 1.432,-0.7 3.039,-0.935 4.817,-0.704 2.276,0.295 4.036,1.202 5.279,2.72 1.244,1.519 1.732,3.303 1.467,5.35 -0.137,1.053 -0.464,1.997 -0.981,2.833 -0.518,0.836 -1.322,1.679 -2.41,2.527 C 10.706,-1.791 9.483,-0.978 7.473,0.304 5.322,1.693 4.021,2.612 3.572,3.06 3.24,3.397 3.047,3.774 2.993,4.193 2.938,4.612 3.088,5.014 3.442,5.399 3.795,5.784 4.283,6.018 4.907,6.098 6.188,6.264 7.558,5.567 9.017,4.007 l 3.117,3.562 C 10.621,8.927 9.265,9.821 8.063,10.252 6.86,10.683 5.637,10.818 4.39,10.657 2.453,10.405 0.904,9.575 -0.255,8.165 -1.414,6.754 -1.882,5.184 -1.657,3.453 -1.502,2.253 -0.949,1.103 0,0"
             style="fill:#ffffff;fill-opacity:1;fill-rule:nonzero;stroke:none"
             id="path282" /></g><g
           id="g284"
           transform="translate(200.2285,758.4732)"><path
             d="m 0,0 -4.754,0.185 -0.975,-25.158 4.753,-0.184 z"
             style="fill:#ffffff;fill-opacity:1;fill-rule:nonzero;stroke:none"
             id="path286" /></g><g
           id="g288"
           transform="translate(215.1806,751.9781)"><path
             d="m 0,0 1.581,-0.381 c 2.896,-0.697 4.842,-1.848 5.841,-3.451 1.107,-1.783 1.349,-3.974 0.723,-6.572 -0.407,-1.688 -1.054,-3.036 -1.943,-4.044 -0.889,-1.008 -1.871,-1.64 -2.948,-1.898 -1.077,-0.258 -2.681,-0.129 -4.811,0.384 l -2.163,0.521 z m 2.99,-21.23 c 1.382,0.09 2.75,0.523 4.104,1.3 1.354,0.777 2.535,1.881 3.542,3.31 1.007,1.43 1.737,3.088 2.192,4.974 0.639,2.651 0.637,5.104 -0.004,7.36 -0.641,2.255 -1.72,4.032 -3.236,5.33 C 8.071,2.342 5.534,3.42 1.977,4.277 l -5.52,1.33 -5.896,-24.476 5.602,-1.35 c 3.17,-0.764 5.445,-1.101 6.827,-1.011"
             style="fill:#ffffff;fill-opacity:1;fill-rule:nonzero;stroke:none"
             id="path290" /></g><g
           id="g292"
           transform="translate(247.4062,738.0123)"><path
             d="M 0,0 -1.152,-9.201 -7.079,-6 Z m -15.117,-12.863 4.266,3.59 9.039,-4.882 -0.73,-5.499 4.382,-2.367 3.444,26.753 -4.277,2.31 -20.506,-17.539 z"
             style="fill:#ffffff;fill-opacity:1;fill-rule:nonzero;stroke:none"
             id="path294" /></g><g
           id="g296"
           transform="translate(269.8271,725.4219)"><path
             d="M 0,0 1.222,-1.073 C 3.46,-3.038 4.647,-4.962 4.785,-6.846 4.937,-8.94 4.13,-10.991 2.366,-12.999 c -1.145,-1.305 -2.345,-2.197 -3.601,-2.675 -1.255,-0.479 -2.42,-0.581 -3.494,-0.308 -1.073,0.274 -2.432,1.133 -4.079,2.578 l -1.671,1.468 z m -12.807,-16.11 c 2.451,-2.151 4.308,-3.509 5.573,-4.072 1.264,-0.564 2.676,-0.817 4.237,-0.759 1.56,0.057 3.118,0.484 4.675,1.281 1.556,0.797 2.975,1.924 4.255,3.382 1.799,2.049 2.94,4.221 3.421,6.515 0.483,2.295 0.356,4.37 -0.382,6.224 -0.739,1.855 -2.482,3.99 -5.233,6.405 l -4.265,3.746 -16.612,-18.92 z"
             style="fill:#ffffff;fill-opacity:1;fill-rule:nonzero;stroke:none"
             id="path298" /></g><g
           id="g300"
           transform="translate(299.081,693.3907)"><path
             d="m 0,0 0.894,-1.358 c 1.637,-2.488 2.272,-4.658 1.906,-6.511 -0.409,-2.059 -1.73,-3.823 -3.962,-5.293 -1.451,-0.954 -2.845,-1.496 -4.182,-1.625 -1.338,-0.129 -2.487,0.081 -3.45,0.629 -0.962,0.548 -2.045,1.737 -3.25,3.567 l -1.224,1.859 z m -16.617,-12.141 c 1.792,-2.723 3.223,-4.524 4.294,-5.403 1.07,-0.879 2.365,-1.497 3.885,-1.855 1.519,-0.358 3.135,-0.359 4.847,-0.003 1.712,0.357 3.378,1.067 4.999,2.134 2.278,1.499 3.953,3.291 5.026,5.376 1.073,2.085 1.5,4.12 1.279,6.103 -0.22,1.985 -1.336,4.505 -3.348,7.562 L 1.244,6.515 -19.786,-7.327 Z"
             style="fill:#ffffff;fill-opacity:1;fill-rule:nonzero;stroke:none"
             id="path302" /></g><g
           id="g304"
           transform="translate(299.0136,651.272)"><path
             d="m 0,0 4.25,2.022 -3.86,8.114 5.98,2.846 3.861,-8.114 4.158,1.979 -3.862,8.113 4.112,1.957 3.86,-8.114 4.235,2.015 -5.905,12.41 L -5.905,12.41 Z"
             style="fill:#ffffff;fill-opacity:1;fill-rule:nonzero;stroke:none"
             id="path306" /></g><g
           id="g308"
           transform="translate(71.2294,487.689)"><path
             d="m 0,0 c 0.888,1.201 2.097,2.146 3.627,2.835 2.197,0.991 4.384,1.074 6.561,0.248 2.176,-0.826 3.758,-2.335 4.747,-4.528 1.171,-2.598 1.127,-5.432 -0.132,-8.501 l 4.29,-1.742 c 0.902,1.934 1.358,3.957 1.368,6.07 0.009,2.114 -0.413,4.117 -1.267,6.01 -1.003,2.226 -2.481,4.06 -4.432,5.502 C 12.81,7.335 10.711,8.173 8.466,8.406 6.221,8.639 3.954,8.24 1.665,7.208 -1.871,5.613 -4.259,3.17 -5.496,-0.123 c -1.238,-3.293 -1.053,-6.723 0.556,-10.291 0.873,-1.935 1.968,-3.512 3.288,-4.732 1.32,-1.219 3.189,-2.304 5.609,-3.253 l 1.755,4.355 c -1.816,0.694 -3.198,1.46 -4.145,2.295 -0.947,0.836 -1.707,1.889 -2.278,3.156 -0.67,1.487 -0.94,2.99 -0.811,4.511 C -1.395,-2.561 -0.887,-1.2 0,0"
             style="fill:#ffffff;fill-opacity:1;fill-rule:nonzero;stroke:none"
             id="path310" /></g><g
           id="g312"
           transform="translate(106.6103,458.7755)"><path
             d="m 0,0 -2.634,4.024 -13.12,-8.591 c -1.412,-0.924 -2.433,-1.452 -3.061,-1.584 -0.629,-0.132 -1.273,-0.049 -1.931,0.249 -0.659,0.298 -1.22,0.801 -1.682,1.507 -0.437,0.668 -0.666,1.334 -0.684,1.997 -0.019,0.663 0.148,1.256 0.501,1.78 0.351,0.524 1.114,1.17 2.287,1.938 l 13.621,8.918 -2.635,4.024 -12.558,-8.222 c -2.51,-1.644 -4.133,-3.055 -4.87,-4.232 -0.736,-1.178 -1.084,-2.562 -1.046,-4.153 0.041,-1.59 0.559,-3.149 1.56,-4.676 0.762,-1.165 1.614,-2.066 2.557,-2.704 0.943,-0.637 2.016,-1.043 3.22,-1.216 1.204,-0.173 2.295,-0.11 3.273,0.189 0.976,0.299 2.525,1.142 4.644,2.53 z"
             style="fill:#ffffff;fill-opacity:1;fill-rule:nonzero;stroke:none"
             id="path314" /></g><g
           id="g316"
           transform="translate(121.2626,441.9708)"><path
             d="m 0,0 -12.096,-11.322 4.735,19.186 -3.142,3.357 -18.381,-17.205 3.276,-3.499 12.057,11.287 -4.705,-19.142 3.151,-3.366 18.38,17.205 z"
             style="fill:#ffffff;fill-opacity:1;fill-rule:nonzero;stroke:none"
             id="path318" /></g><g
           id="g320"
           transform="translate(134.6328,414.9053)"><path
             d="M 0,0 C -0.994,-1.423 -2.09,-2.442 -3.284,-3.056 -4.479,-3.67 -5.625,-3.9 -6.722,-3.747 c -1.097,0.154 -2.543,0.858 -4.339,2.113 l -1.823,1.275 9.1,13.018 1.332,-0.931 C -0.011,10.021 1.382,8.239 1.727,6.382 2.107,4.318 1.531,2.19 0,0 m 5.522,10.131 c -0.937,1.763 -2.906,3.692 -5.906,5.789 l -4.653,3.252 -14.424,-20.634 4.724,-3.302 c 2.672,-1.868 4.668,-3.012 5.987,-3.434 1.319,-0.421 2.75,-0.516 4.295,-0.287 1.544,0.229 3.046,0.825 4.505,1.789 1.46,0.964 2.745,2.24 3.856,3.83 1.563,2.235 2.457,4.519 2.684,6.853 0.226,2.334 -0.13,4.382 -1.068,6.144"
             style="fill:#ffffff;fill-opacity:1;fill-rule:nonzero;stroke:none"
             id="path322" /></g><g
           id="g324"
           transform="translate(151.1347,420.4239)"><path
             d="m 0,0 -10.688,-22.795 4.309,-2.02 10.688,22.795 z"
             style="fill:#ffffff;fill-opacity:1;fill-rule:nonzero;stroke:none"
             id="path326" /></g><g
           id="g328"
           transform="translate(172.2236,395.7164)"><path
             d="m 0,0 -6.458,18.677 -4.461,1.109 -6.073,-24.433 4.65,-1.156 3.985,16.029 6.457,-18.624 4.473,-1.112 6.073,24.432 -4.65,1.157 z"
             style="fill:#ffffff;fill-opacity:1;fill-rule:nonzero;stroke:none"
             id="path330" /></g><g
           id="g332"
           transform="translate(193.999,394.9805)"><path
             d="M 0,0 3.052,8.764 6.73,0.252 Z m 0.343,15.342 -8.759,-25.523 4.978,0.187 1.852,5.259 10.266,0.384 2.162,-5.108 4.977,0.187 L 5.2,15.523 Z"
             style="fill:#ffffff;fill-opacity:1;fill-rule:nonzero;stroke:none"
             id="path334" /></g><g
           id="g336"
           transform="translate(230.1142,417.7896)"><path
             d="m 0,0 0.352,-18.518 -11.397,14.579 -4.397,-1.568 4.352,-25.178 4.401,1.57 -2.739,15.904 10.335,-13.195 3.978,1.419 -0.304,16.773 7.885,-14.07 4.364,1.557 L 4.395,1.568 Z"
             style="fill:#ffffff;fill-opacity:1;fill-rule:nonzero;stroke:none"
             id="path338" /></g><g
           id="g340"
           transform="translate(261.5703,418.6168)"><path
             d="m 0,0 -5.495,-3.896 -2.243,9.005 z m -13.605,9.132 6.639,-26.154 4.064,2.88 -1.328,5.415 8.38,5.942 4.607,-3.092 4.062,2.881 -22.46,14.939 z"
             style="fill:#ffffff;fill-opacity:1;fill-rule:nonzero;stroke:none"
             id="path342" /></g><g
           id="g344"
           transform="translate(276.5556,440.419)"><path
             d="m 0,0 c -0.106,-0.692 -0.685,-1.59 -1.735,-2.694 l -1.036,-1.088 -3.744,3.564 0.907,0.952 c 0.878,0.923 1.546,1.496 2.004,1.719 0.458,0.224 0.932,0.298 1.422,0.224 C -1.69,2.603 -1.247,2.376 -0.849,1.998 -0.178,1.358 0.105,0.692 0,0 M 4.578,1.592 C 4.319,2.934 3.591,4.175 2.393,5.316 1.252,6.401 0.018,7.082 -1.312,7.356 -2.643,7.63 -3.894,7.512 -5.066,7 -6.239,6.487 -7.785,5.225 -9.702,3.21 l -3.501,-3.677 18.234,-17.36 3.305,3.472 -7.723,7.352 0.302,0.317 11.627,-3.252 3.612,3.794 -12.219,3.399 c 0.688,1.55 0.903,2.996 0.643,4.337"
             style="fill:#ffffff;fill-opacity:1;fill-rule:nonzero;stroke:none"
             id="path346" /></g><g
           id="g348"
           transform="translate(303.4531,462.3692)"><path
             d="M 0,0 C 0.373,-1.909 0.455,-3.486 0.248,-4.732 0.04,-5.978 -0.45,-7.179 -1.223,-8.335 c -0.906,-1.355 -2.039,-2.382 -3.396,-3.078 -1.359,-0.696 -2.782,-0.986 -4.27,-0.869 -1.488,0.116 -2.93,0.642 -4.326,1.574 -2.004,1.34 -3.231,3.151 -3.683,5.435 -0.453,2.283 -0.01,4.425 1.327,6.425 1.583,2.369 4.01,3.832 7.281,4.389 l -0.794,4.562 c -2.119,-0.259 -4.077,-0.944 -5.874,-2.055 -1.798,-1.111 -3.273,-2.529 -4.428,-4.256 -1.356,-2.03 -2.13,-4.255 -2.319,-6.674 -0.19,-2.419 0.211,-4.642 1.202,-6.671 0.991,-2.028 2.531,-3.739 4.618,-5.134 3.226,-2.156 6.563,-2.887 10.011,-2.193 3.448,0.693 6.261,2.668 8.436,5.922 1.178,1.764 1.936,3.529 2.272,5.294 0.336,1.766 0.266,3.926 -0.21,6.481 z"
             style="fill:#ffffff;fill-opacity:1;fill-rule:nonzero;stroke:none"
             id="path350" /></g><g
           id="g352"
           transform="translate(312.7275,486.0045)"><path
             d="M 0,0 -2.765,-6.142 -9.26,0.485 Z m -16.356,0.981 18.973,-19.186 2.044,4.542 -3.889,3.996 4.217,9.368 5.537,-0.332 2.044,4.542 -26.932,1.503 z"
             style="fill:#ffffff;fill-opacity:1;fill-rule:nonzero;stroke:none"
             id="path354" /></g><g
           id="g356"
           transform="translate(193.6494,481.9219)"><path
             d="m 0,0 -23.274,-19.798 -13.012,27.647 -29.315,-8.62 -0.642,30.549 -30.286,4.049 11.839,28.169 -26.021,16.017 22.273,20.918 -17.257,25.216 28.855,10.051 -5.508,30.055 30.45,-2.555 7.191,29.698 26.777,-14.719 18.65,24.204 18.475,-24.337 26.882,14.526 6.98,-29.748 30.466,2.337 L 77.8,133.644 106.582,123.387 89.146,98.295 111.268,77.217 85.132,61.387 96.77,33.134 66.454,29.302 65.594,-1.241 36.342,7.588 23.132,-19.965 Z m 114.136,76.905 -22.695,21.623 17.888,25.741 -29.527,10.522 5.872,30.791 L 54.42,163.185 47.261,193.702 19.684,178.8 0.73,203.767 l -19.131,-24.831 -27.47,15.099 -7.378,-30.465 -31.236,2.621 5.651,-30.832 -29.602,-10.31 17.704,-25.868 -22.85,-21.46 26.694,-16.431 -12.145,-28.897 31.07,-4.153 0.658,-31.34 30.073,8.844 13.348,-28.362 23.876,20.31 23.73,-20.481 13.55,28.266 30.009,-9.059 0.883,31.334 31.099,3.93 -11.939,28.984 z"
             style="fill:#ffffff;fill-opacity:1;fill-rule:nonzero;stroke:none"
             id="path358" /></g><g
           id="g360"
           transform="translate(292.912,513.6041)"><path
             d="m 0,0 -31.099,-3.93 -0.882,-31.334 -30.009,9.058 -13.551,-28.265 -23.73,20.481 -23.875,-20.31 -13.349,28.362 -30.072,-8.844 -0.659,31.34 -31.07,4.153 12.146,28.897 -26.695,16.431 22.85,21.46 -17.703,25.868 29.601,10.31 -5.651,30.832 31.236,-2.621 7.378,30.465 27.47,-15.099 19.132,24.83 18.953,-24.966 27.577,14.902 7.159,-30.518 31.254,2.397 -5.872,-30.791 L 10.066,92.586 -7.821,66.846 14.873,45.223 -11.938,28.984 Z m -6.291,67.001 14.417,20.745 3.772,5.428 -5.037,1.795 -24.986,8.904 5.97,31.308 -31.779,-2.437 -7.28,31.03 -28.04,-15.152 -19.271,25.385 -19.454,-25.247 -27.93,15.353 -7.503,-30.977 -31.761,2.665 5.746,-31.35 -26.371,-9.185 -3.727,-1.299 2.761,-4.035 15.239,-22.267 -17.708,-16.631 -4.482,-4.209 -1.043,-0.98 1.155,-0.711 4.913,-3.024 21.075,-12.972 -12.35,-29.383 31.592,-4.223 0.669,-31.865 30.578,8.991 13.572,-28.838 24.278,20.651 24.128,-20.825 13.779,28.741 30.513,-9.211 0.897,31.86 30.829,3.897 0.792,0.1 -0.422,1.024 -11.717,28.446 20.043,12.14 4.938,2.991 2.281,1.382 -2.06,1.963 -4.483,4.27 z"
             style="fill:#ffffff;fill-opacity:1;fill-rule:nonzero;stroke:none"
             id="path362" /></g><g
           id="g364"
           transform="translate(84.8515,560.129)"><path
             d="m 0,0 21.89,20.558 -16.96,24.781 28.358,9.878 -5.414,29.537 29.925,-2.511 7.068,29.186 26.316,-14.465 18.328,23.787 18.157,-23.918 26.419,14.276 6.858,-29.235 29.943,2.296 -5.626,-29.498 28.287,-10.08 -17.137,-24.659 21.741,-20.715 -25.684,-15.557 11.436,-27.767 -29.793,-3.765 -0.845,-30.018 -28.748,8.679 -12.982,-27.079 -22.733,19.621 -22.874,-19.458 -12.787,27.171 -28.81,-8.472 -0.631,30.023 -29.764,3.979 11.635,27.684 z m 174.392,-79.448 0.86,30.543 30.315,3.832 -11.637,28.253 26.135,15.83 -22.122,21.078 17.437,25.092 -28.782,10.257 5.723,30.015 -30.467,-2.337 -6.979,29.748 L 127.993,98.337 109.518,122.674 90.868,98.47 64.091,113.189 56.899,83.491 26.45,86.046 31.958,55.991 3.103,45.94 20.359,20.724 -1.913,-0.194 24.107,-16.211 12.269,-44.38 l 30.286,-4.049 0.642,-30.55 29.315,8.621 13.011,-27.647 23.275,19.798 23.132,-19.965 13.21,27.553 z"
             style="fill:#ffffff;fill-opacity:1;fill-rule:nonzero;stroke:none"
             id="path366" /></g><g
           id="g368"
           transform="translate(193.2968,644.629)"><path
             d="m 0,0 c 40.991,0 74.34,-32.676 74.34,-72.84 0,-40.163 -33.349,-72.839 -74.34,-72.839 -40.993,0 -74.343,32.676 -74.343,72.839 C -74.343,-32.676 -40.993,0 0,0 m 0,-150.353 c 43.518,0 79.014,34.823 79.014,77.513 0,42.694 -35.496,77.514 -79.014,77.514 -43.521,0 -79.017,-34.82 -79.017,-77.514 0,-42.69 35.496,-77.513 79.017,-77.513"
             style="fill:#ffffff;fill-opacity:1;fill-rule:nonzero;stroke:none"
             id="path370" /></g><g
           id="g372"
           transform="translate(182.1064,535.0865)"><path
             d="m 0,0 -0.21,-0.299 -0.054,0.361 c -0.3,1.987 -0.649,4.109 -1.037,6.309 -0.386,2.182 -0.786,4.44 -1.038,6.168 -0.325,2.238 -1.234,3.8 -2.705,4.641 -2.523,1.443 -5.478,0.237 -8.607,-1.04 -1.537,-0.627 -3.122,-1.274 -4.555,-1.559 -0.703,-0.14 -1.113,-0.131 -1.333,-0.099 l -0.093,0.013 -0.027,0.09 c -0.37,1.273 0.763,4.735 3.466,10.581 1.112,2.405 1.565,3.417 1.62,4.314 0.685,11.133 -1.097,32.154 -2.162,44.714 l -0.014,0.156 0.157,0.002 c 3.133,0.051 7.789,0.622 12.178,3.054 l 0.244,0.136 -0.028,-0.279 c -0.085,-0.818 -0.071,-1.294 0.054,-1.758 1.959,-7.174 6.286,-9.997 9.571,-11.102 7.996,-2.685 17.648,1.874 20.399,3.683 l 0.081,0.053 0.08,-0.053 c 1.426,-0.943 4.933,-5.6 6.675,-13.968 0.059,-0.283 0.165,-0.549 0.317,-0.792 l 0.023,-0.038 -0.001,-0.046 c -0.002,-0.024 -0.005,-0.049 -0.008,-0.073 -0.002,-0.019 -0.005,-0.038 -0.005,-0.058 0.19,-14.587 2.531,-18.251 11.93,-18.667 2.86,-0.126 5.053,-0.098 6.651,-0.078 0.822,0.011 1.654,0.023 2.235,0 l 0.138,-0.006 0.002,-0.139 c 0.005,-0.532 -0.022,-1.247 -0.048,-1.939 l -0.002,-0.07 c -0.074,-1.929 -0.185,-4.844 0.021,-8.865 0.066,-1.3 0.165,-2.379 0.238,-3.166 l 0.062,-0.693 -0.169,0.01 c -0.327,0.019 -0.679,0.044 -1.016,0.066 -1.053,0.073 -2.35,0.163 -4.018,0.217 -8.765,0.289 -11.649,1.026 -16.73,6.007 -1.611,1.582 -3.125,1.651 -4.109,1.431 -2.714,-0.611 -3.896,-3.828 -5.147,-7.234 -0.763,-2.076 -1.633,-4.337 -2.302,-4.88 L 20.669,15.077 C 14.556,13.441 5.152,7.354 0,0 m 22.006,10.381 c 2.975,0.774 4.31,4.405 5.601,7.917 0.383,1.04 0.958,2.608 1.454,3.553 l 0.089,0.172 0.141,-0.134 c 5.913,-5.662 9.875,-6.668 19.561,-6.988 1.573,-0.051 2.827,-0.137 3.834,-0.207 2.639,-0.18 4.231,-0.29 5.464,0.973 1.205,1.231 1.063,2.794 0.865,4.957 -0.074,0.799 -0.163,1.777 -0.224,2.973 -0.195,3.793 -0.094,6.463 -0.02,8.413 0.11,2.876 0.176,4.601 -1.133,5.945 -1.325,1.356 -3.129,1.333 -6.118,1.293 -1.642,-0.021 -3.664,-0.048 -6.387,0.074 -5.444,0.241 -7.087,0.313 -7.263,13.851 -0.006,0.436 -0.13,0.854 -0.368,1.242 l -0.024,0.039 0.002,0.045 c 0.011,0.235 -10e-4,0.431 -0.04,0.615 -1.856,8.921 -6.015,16.213 -10.113,17.733 -1.402,0.52 -2.821,0.344 -3.896,-0.481 C 21.798,71.11 13.211,66.935 6.982,69.031 3.866,70.079 1.793,72.527 0.644,76.517 l -0.007,0.025 0.002,0.027 c 0.048,0.658 0.326,2.314 0.492,3.305 0.577,3.441 0.792,4.728 -0.975,5.575 L -1.527,86.22 -2.751,84.865 C -7.875,79.188 -15.907,79.14 -18.244,79.259 l -0.061,0.017 c -0.417,0.219 -0.877,0.313 -1.332,0.276 -0.649,-0.054 -1.239,-0.359 -1.66,-0.857 -0.421,-0.498 -0.622,-1.13 -0.568,-1.779 l 0.247,-2.918 c 1.054,-12.427 2.817,-33.226 2.182,-44.053 l -0.006,-0.036 c -0.154,-0.471 -0.724,-1.704 -1.183,-2.695 -3.088,-6.68 -5.432,-12.48 -2.822,-15.794 0.888,-1.127 2.683,-2.325 6.194,-1.627 1.894,0.377 3.78,1.147 5.445,1.827 1.707,0.696 3.38,1.335 4.142,1.335 0.035,0 0.069,-10e-4 0.101,-0.004 l 0.08,-0.007 0.036,-0.071 c 0.066,-0.127 0.19,-0.43 0.28,-1.037 0.245,-1.69 0.619,-3.817 1.016,-6.069 L -6.11,5.522 c 0.505,-2.857 2.152,-12.54 2.152,-17.168 0,-1.345 1.095,-2.44 2.44,-2.44 1.347,0 2.442,1.095 2.442,2.44 l -0.002,0.091 c 0.046,0.231 0.064,0.41 0.061,0.582 -0.165,9.126 13.729,19.452 21.023,21.354"
             style="fill:#ffffff;fill-opacity:1;fill-rule:nonzero;stroke:none"
             id="path374" /></g></g></g></g></svg>
